<svg id="Layer_1" data-name="Layer 1" xmlns="http://www.w3.org/2000/svg" xmlns:xlink="http://www.w3.org/1999/xlink" viewBox="0 0 620 492.392"><defs><style>.cls-1,.cls-10,.cls-11,.cls-14,.cls-17,.cls-4,.cls-5,.cls-6,.cls-7,.cls-8,.cls-9{fill:none;}.cls-1{stroke:#231f20;stroke-miterlimit:10;}.cls-1,.cls-10,.cls-11,.cls-14,.cls-4,.cls-5,.cls-6,.cls-7,.cls-8,.cls-9{stroke-width:0.75px;}.cls-2{fill:#d44060;}.cls-3{fill:#2d81b9;}.cls-10,.cls-11,.cls-4,.cls-5,.cls-6,.cls-7,.cls-8,.cls-9{stroke:#c7c7c7;}.cls-10,.cls-11,.cls-16,.cls-17,.cls-4,.cls-5,.cls-6,.cls-7,.cls-8,.cls-9{stroke-linecap:round;}.cls-10,.cls-11,.cls-14,.cls-16,.cls-17,.cls-4,.cls-5,.cls-6,.cls-7,.cls-8,.cls-9{stroke-linejoin:round;}.cls-5{stroke-dasharray:1.975 3.949;}.cls-6{stroke-dasharray:2.022 4.044;}.cls-7{stroke-dasharray:1.964 3.929;}.cls-8{stroke-dasharray:1.971 3.942;}.cls-9{stroke-dasharray:1.995 3.99;}.cls-10{stroke-dasharray:1.978 3.956;}.cls-11{stroke-dasharray:1.99 3.98;}.cls-12{isolation:isolate;}.cls-13{fill:#999;}.cls-14{stroke:#999;}.cls-15{fill:#666;}.cls-16{fill:#d1daed;stroke:#d1daed;}.cls-16,.cls-17{stroke-width:8.5px;}.cls-17{stroke:#f0d8db;}.cls-18{fill:#fff;}</style><symbol id="Legenda_šipek" data-name="Legenda šipek" viewBox="0 0 198.127 26.528"><line class="cls-1" x1="110.037" y1="22.11" x2="124.74" y2="22.11"/><polyline class="cls-1" points="120.587 26.263 124.74 22.11 120.587 17.957"/><line class="cls-1" x1="87.06" y1="22.11" x2="72.357" y2="22.11"/><polyline class="cls-1" points="76.511 17.957 72.357 22.11 76.511 26.263"/><path class="cls-2" d="M5.634,4.218A2.009,2.009,0,0,1,6.108,5.64v4.6H4.572V5.88a1.219,1.219,0,0,0-.2-.792.729.729,0,0,0-.582-.228,1.138,1.138,0,0,0-.714.246,2.807,2.807,0,0,0-.618.714v4.416H.924V3.888H2.256l.12.828A2.359,2.359,0,0,1,4.308,3.708,1.721,1.721,0,0,1,5.634,4.218Z"/><path class="cls-2" d="M9.354.942a.909.909,0,0,1,.27.666.889.889,0,0,1-.27.66.964.964,0,0,1-.7.264.944.944,0,0,1-.689-.264.882.882,0,0,1-.271-.66A.9.9,0,0,1,7.962.942a.932.932,0,0,1,.689-.27A.952.952,0,0,1,9.354.942Zm.078,2.946v6.348H7.9V3.888Z"/><path class="cls-2" d="M15.407,3.888v1.1L12.336,9.036h3.132l-.156,1.2H10.571v-1.1l3.084-4.044H10.836v-1.2ZM14.628.636l.588.672-1.668,1.5h-.96l-1.668-1.5.588-.672,1.559,1.056Z"/><path class="cls-2" d="M20.831,4.464l-.6.9a2.979,2.979,0,0,0-1.6-.516,1.233,1.233,0,0,0-.708.174.536.536,0,0,0-.252.462.589.589,0,0,0,.107.36.981.981,0,0,0,.391.27,6.475,6.475,0,0,0,.834.282,3.661,3.661,0,0,1,1.529.732,1.638,1.638,0,0,1,.5,1.272,1.707,1.707,0,0,1-.767,1.482,3.265,3.265,0,0,1-1.909.534,4.024,4.024,0,0,1-1.421-.24,3.467,3.467,0,0,1-1.111-.66l.769-.864a2.83,2.83,0,0,0,1.727.624,1.468,1.468,0,0,0,.823-.2.642.642,0,0,0,.3-.564.756.756,0,0,0-.113-.438.945.945,0,0,0-.408-.288,8.642,8.642,0,0,0-.918-.306,3.07,3.07,0,0,1-1.429-.738,1.637,1.637,0,0,1-.455-1.182,1.564,1.564,0,0,1,.306-.948,2.03,2.03,0,0,1,.864-.66,3.207,3.207,0,0,1,1.277-.24A3.567,3.567,0,0,1,20.831,4.464ZM20.172.636l.588.672-1.668,1.5h-.96l-1.668-1.5.588-.672,1.559,1.056Z"/><path class="cls-2" d="M23.963.4l.624,1.2-2.712,1.08-.432-.78Zm-.144,3.492v6.348H22.283V3.888Z"/><path class="cls-2" d="M33.732,4.584a4.457,4.457,0,0,1,.577,2.46,4.826,4.826,0,0,1-.295,1.746,2.653,2.653,0,0,1-.864,1.194,2.169,2.169,0,0,1-1.35.432,1.98,1.98,0,0,1-1.6-.7v2.964l-1.536.168V3.888h1.344l.084.78a2.488,2.488,0,0,1,.852-.72,2.225,2.225,0,0,1,1.008-.24A1.977,1.977,0,0,1,33.732,4.584ZM32.7,7.056a3.508,3.508,0,0,0-.3-1.68.976.976,0,0,0-.9-.516,1.237,1.237,0,0,0-.72.234,2.043,2.043,0,0,0-.576.63V8.58a1.348,1.348,0,0,0,1.164.66Q32.7,9.24,32.7,7.056Z"/><path class="cls-2" d="M40.6,4.6a3.593,3.593,0,0,1,.786,2.454,4.057,4.057,0,0,1-.361,1.758A2.733,2.733,0,0,1,39.995,10a2.945,2.945,0,0,1-1.6.42,2.783,2.783,0,0,1-2.2-.894,3.594,3.594,0,0,1-.792-2.466,4.032,4.032,0,0,1,.36-1.752A2.729,2.729,0,0,1,36.81,4.128a2.977,2.977,0,0,1,1.6-.42A2.765,2.765,0,0,1,40.6,4.6ZM37.031,7.056a3.163,3.163,0,0,0,.342,1.662,1.25,1.25,0,0,0,2.053-.006,3.168,3.168,0,0,0,.342-1.656,3.134,3.134,0,0,0-.342-1.65,1.129,1.129,0,0,0-1.015-.534Q37.031,4.872,37.031,7.056Z"/><path class="cls-2" d="M48.167,1.344v8.892H46.812l-.109-.8a2.222,2.222,0,0,1-.762.72,2.077,2.077,0,0,1-1.049.264,2.043,2.043,0,0,1-1.788-.9,4.233,4.233,0,0,1-.625-2.448,4.543,4.543,0,0,1,.312-1.734,2.731,2.731,0,0,1,.9-1.194,2.255,2.255,0,0,1,2.945.252V1.176Zm-2.124,7.71a2.041,2.041,0,0,0,.588-.618v-2.9a2.2,2.2,0,0,0-.558-.5,1.251,1.251,0,0,0-.654-.168,1.1,1.1,0,0,0-.966.546,3.075,3.075,0,0,0-.353,1.65,3.389,3.389,0,0,0,.311,1.686,1,1,0,0,0,.912.51A1.315,1.315,0,0,0,46.043,9.054Z"/><path class="cls-2" d="M51.923.4l.624,1.2-2.712,1.08L49.4,1.9Zm-.144,3.492v6.348H50.243V3.888Z"/><path class="cls-2" d="M54.138,9.99a1.655,1.655,0,0,1-.414-1.206V1.344l1.536-.168v7.56c0,.3.119.444.359.444a1.133,1.133,0,0,0,.36-.06L56.3,10.2a2.462,2.462,0,0,1-1.021.216A1.52,1.52,0,0,1,54.138,9.99Z"/><path class="cls-2" d="M65.027,4.224a1.994,1.994,0,0,1,.481,1.416v4.6H63.972V5.88a1.218,1.218,0,0,0-.2-.792.728.728,0,0,0-.582-.228,1.148,1.148,0,0,0-.708.246,2.845,2.845,0,0,0-.624.7v4.428H60.323V1.356L61.859,1.2V4.644a2.318,2.318,0,0,1,1.848-.936A1.713,1.713,0,0,1,65.027,4.224Z"/><path class="cls-2" d="M67.649,9.99a1.659,1.659,0,0,1-.414-1.206V1.344l1.536-.168v7.56q0,.444.36.444a1.133,1.133,0,0,0,.36-.06l.324,1.08a2.457,2.457,0,0,1-1.02.216A1.524,1.524,0,0,1,67.649,9.99Z"/><path class="cls-2" d="M75.582,9.1a.722.722,0,0,0,.365.27l-.323,1.02a1.971,1.971,0,0,1-.883-.264,1.353,1.353,0,0,1-.521-.66,2.037,2.037,0,0,1-.811.714,2.465,2.465,0,0,1-1.086.234,2.053,2.053,0,0,1-1.5-.54,1.892,1.892,0,0,1-.552-1.416,1.832,1.832,0,0,1,.75-1.578,3.6,3.6,0,0,1,2.142-.546h.792v-.36a1.1,1.1,0,0,0-.281-.858,1.365,1.365,0,0,0-.906-.246,5.35,5.35,0,0,0-1.68.336l-.36-1.044a6.407,6.407,0,0,1,2.3-.456q2.436,0,2.437,2.184V8.556A1.019,1.019,0,0,0,75.582,9.1ZM73.955,8.52V7.236h-.636q-1.488,0-1.487,1.1a1.013,1.013,0,0,0,.228.708.859.859,0,0,0,.671.252A1.358,1.358,0,0,0,73.955,8.52Z"/><path class="cls-2" d="M81.467,4.464l-.6.9a2.982,2.982,0,0,0-1.6-.516,1.235,1.235,0,0,0-.708.174.538.538,0,0,0-.251.462.589.589,0,0,0,.107.36.981.981,0,0,0,.391.27,6.421,6.421,0,0,0,.834.282,3.661,3.661,0,0,1,1.529.732,1.638,1.638,0,0,1,.5,1.272A1.706,1.706,0,0,1,80.9,9.882,3.26,3.26,0,0,1,79,10.416a4.033,4.033,0,0,1-1.422-.24,3.462,3.462,0,0,1-1.11-.66l.768-.864a2.833,2.833,0,0,0,1.728.624,1.462,1.462,0,0,0,.822-.2.642.642,0,0,0,.306-.564.756.756,0,0,0-.113-.438.949.949,0,0,0-.409-.288,8.563,8.563,0,0,0-.918-.306,3.066,3.066,0,0,1-1.428-.738,1.637,1.637,0,0,1-.455-1.182,1.569,1.569,0,0,1,.305-.948,2.034,2.034,0,0,1,.865-.66,3.2,3.2,0,0,1,1.277-.24A3.571,3.571,0,0,1,81.467,4.464Z"/><path class="cls-2" d="M88,10.236H86.663l-.084-.888a2.347,2.347,0,0,1-.822.8,2.27,2.27,0,0,1-1.122.264,1.662,1.662,0,0,1-1.314-.522,2.107,2.107,0,0,1-.462-1.446V3.888H84.4V8.256a1.229,1.229,0,0,0,.185.768.723.723,0,0,0,.594.228,1.55,1.55,0,0,0,1.284-.9V3.888H88ZM86.531.414a1.379,1.379,0,0,1,.42,1.026,1.379,1.379,0,0,1-.426,1.02,1.5,1.5,0,0,1-1.1.42,1.513,1.513,0,0,1-1.11-.42,1.378,1.378,0,0,1-.425-1.02A1.372,1.372,0,0,1,84.317.414,1.525,1.525,0,0,1,85.427,0,1.5,1.5,0,0,1,86.531.414ZM85,.972a.662.662,0,0,0-.156.468A.639.639,0,0,0,85,1.9a.572.572,0,0,0,.432.162.556.556,0,0,0,.42-.162A.639.639,0,0,0,86,1.44a.662.662,0,0,0-.156-.468A.545.545,0,0,0,85.427.8.56.56,0,0,0,85,.972Z"/><path class="cls-3" d="M113.24,3.888l-2.064,6.348H109.34l-2.1-6.348h1.668L110.264,9l1.392-5.112Z"/><path class="cls-3" d="M117.26,10.26a3.9,3.9,0,0,1-1.164,1.83,3.705,3.705,0,0,1-2.136.762l-.156-1.116a3.84,3.84,0,0,0,1-.27,1.62,1.62,0,0,0,.606-.462,3.156,3.156,0,0,0,.42-.768H115.3l-2.016-6.348h1.632l1.38,5.328,1.439-5.328h1.584Z"/><path class="cls-3" d="M124.424,4.464l-.6.9a2.981,2.981,0,0,0-1.595-.516,1.23,1.23,0,0,0-.708.174.536.536,0,0,0-.252.462.589.589,0,0,0,.107.36.981.981,0,0,0,.391.27,6.421,6.421,0,0,0,.834.282,3.661,3.661,0,0,1,1.529.732,1.638,1.638,0,0,1,.5,1.272,1.706,1.706,0,0,1-.768,1.482,3.26,3.26,0,0,1-1.908.534,4.033,4.033,0,0,1-1.422-.24,3.462,3.462,0,0,1-1.11-.66l.768-.864a2.833,2.833,0,0,0,1.728.624,1.462,1.462,0,0,0,.822-.2.642.642,0,0,0,.306-.564.756.756,0,0,0-.113-.438.949.949,0,0,0-.409-.288,8.485,8.485,0,0,0-.918-.306,3.066,3.066,0,0,1-1.428-.738,1.637,1.637,0,0,1-.455-1.182,1.569,1.569,0,0,1,.3-.948,2.034,2.034,0,0,1,.865-.66,3.2,3.2,0,0,1,1.277-.24A3.571,3.571,0,0,1,124.424,4.464ZM123.765.636l.588.672-1.668,1.5h-.96l-1.668-1.5.588-.672L122.2,1.692Z"/><path class="cls-3" d="M130.039,4.464l-.6.9a2.979,2.979,0,0,0-1.595-.516,1.233,1.233,0,0,0-.708.174.536.536,0,0,0-.252.462.589.589,0,0,0,.107.36.981.981,0,0,0,.391.27,6.475,6.475,0,0,0,.834.282,3.661,3.661,0,0,1,1.529.732,1.638,1.638,0,0,1,.5,1.272,1.707,1.707,0,0,1-.767,1.482,3.265,3.265,0,0,1-1.909.534,4.024,4.024,0,0,1-1.421-.24,3.467,3.467,0,0,1-1.111-.66l.769-.864a2.83,2.83,0,0,0,1.727.624,1.468,1.468,0,0,0,.823-.2.642.642,0,0,0,.3-.564.756.756,0,0,0-.113-.438.945.945,0,0,0-.408-.288,8.642,8.642,0,0,0-.918-.306,3.07,3.07,0,0,1-1.429-.738,1.637,1.637,0,0,1-.455-1.182,1.57,1.57,0,0,1,.306-.948,2.03,2.03,0,0,1,.864-.66,3.207,3.207,0,0,1,1.277-.24A3.567,3.567,0,0,1,130.039,4.464ZM129.38.636l.588.672-1.668,1.5h-.96l-1.668-1.5.588-.672,1.559,1.056Z"/><path class="cls-3" d="M133.171.4l.624,1.2-2.712,1.08-.432-.78Zm-.144,3.492v6.348h-1.536V3.888Z"/><path class="cls-3" d="M142.94,4.584a4.457,4.457,0,0,1,.577,2.46,4.826,4.826,0,0,1-.295,1.746,2.653,2.653,0,0,1-.864,1.194,2.169,2.169,0,0,1-1.35.432,1.98,1.98,0,0,1-1.6-.7v2.964l-1.536.168V3.888h1.344l.084.78a2.488,2.488,0,0,1,.852-.72,2.225,2.225,0,0,1,1.008-.24A1.977,1.977,0,0,1,142.94,4.584Zm-1.032,2.472a3.508,3.508,0,0,0-.3-1.68.976.976,0,0,0-.9-.516,1.237,1.237,0,0,0-.72.234,2.043,2.043,0,0,0-.576.63V8.58a1.348,1.348,0,0,0,1.164.66Q141.908,9.24,141.908,7.056Z"/><path class="cls-3" d="M149.81,4.6a3.593,3.593,0,0,1,.786,2.454,4.057,4.057,0,0,1-.361,1.758A2.733,2.733,0,0,1,149.2,10a2.945,2.945,0,0,1-1.6.42,2.783,2.783,0,0,1-2.2-.894,3.594,3.594,0,0,1-.792-2.466,4.032,4.032,0,0,1,.36-1.752,2.729,2.729,0,0,1,1.039-1.176,2.977,2.977,0,0,1,1.6-.42A2.765,2.765,0,0,1,149.81,4.6Zm-3.571,2.454a3.163,3.163,0,0,0,.342,1.662,1.25,1.25,0,0,0,2.053-.006,3.168,3.168,0,0,0,.342-1.656,3.134,3.134,0,0,0-.342-1.65,1.129,1.129,0,0,0-1.015-.534Q146.239,4.872,146.239,7.056Z"/><path class="cls-3" d="M157.375,1.344v8.892H156.02l-.109-.8a2.222,2.222,0,0,1-.762.72,2.077,2.077,0,0,1-1.049.264,2.043,2.043,0,0,1-1.788-.9,4.233,4.233,0,0,1-.624-2.448A4.543,4.543,0,0,1,152,5.334a2.731,2.731,0,0,1,.9-1.194,2.255,2.255,0,0,1,2.945.252V1.176Zm-2.124,7.71a2.041,2.041,0,0,0,.588-.618v-2.9a2.2,2.2,0,0,0-.558-.5,1.251,1.251,0,0,0-.654-.168,1.1,1.1,0,0,0-.966.546,3.075,3.075,0,0,0-.353,1.65,3.389,3.389,0,0,0,.311,1.686,1,1,0,0,0,.912.51A1.315,1.315,0,0,0,155.251,9.054Z"/><path class="cls-3" d="M161.131.4l.624,1.2-2.712,1.08-.432-.78Zm-.144,3.492v6.348h-1.536V3.888Z"/><path class="cls-3" d="M163.346,9.99a1.655,1.655,0,0,1-.414-1.206V1.344l1.536-.168v7.56c0,.3.119.444.359.444a1.143,1.143,0,0,0,.361-.06l.324,1.08a2.462,2.462,0,0,1-1.021.216A1.52,1.52,0,0,1,163.346,9.99Z"/><path class="cls-3" d="M174.235,4.224a1.994,1.994,0,0,1,.481,1.416v4.6H173.18V5.88a1.218,1.218,0,0,0-.2-.792.728.728,0,0,0-.582-.228,1.148,1.148,0,0,0-.708.246,2.845,2.845,0,0,0-.624.7v4.428h-1.536V1.356l1.536-.156V4.644a2.318,2.318,0,0,1,1.848-.936A1.713,1.713,0,0,1,174.235,4.224Z"/><path class="cls-3" d="M176.857,9.99a1.659,1.659,0,0,1-.414-1.206V1.344l1.536-.168v7.56q0,.444.36.444a1.133,1.133,0,0,0,.36-.06l.324,1.08a2.457,2.457,0,0,1-1.02.216A1.524,1.524,0,0,1,176.857,9.99Z"/><path class="cls-3" d="M184.79,9.1a.722.722,0,0,0,.365.27l-.323,1.02a1.971,1.971,0,0,1-.883-.264,1.353,1.353,0,0,1-.521-.66,2.037,2.037,0,0,1-.811.714,2.465,2.465,0,0,1-1.086.234,2.053,2.053,0,0,1-1.5-.54,1.892,1.892,0,0,1-.552-1.416,1.832,1.832,0,0,1,.75-1.578,3.6,3.6,0,0,1,2.142-.546h.792v-.36a1.1,1.1,0,0,0-.281-.858,1.365,1.365,0,0,0-.906-.246,5.35,5.35,0,0,0-1.68.336l-.36-1.044a6.407,6.407,0,0,1,2.3-.456q2.436,0,2.437,2.184V8.556A1.019,1.019,0,0,0,184.79,9.1Zm-1.627-.582V7.236h-.636q-1.488,0-1.487,1.1a1.013,1.013,0,0,0,.228.708.859.859,0,0,0,.671.252A1.358,1.358,0,0,0,183.163,8.52Z"/><path class="cls-3" d="M190.675,4.464l-.6.9a2.982,2.982,0,0,0-1.6-.516,1.235,1.235,0,0,0-.708.174.538.538,0,0,0-.251.462.589.589,0,0,0,.107.36.981.981,0,0,0,.391.27,6.421,6.421,0,0,0,.834.282,3.661,3.661,0,0,1,1.529.732,1.638,1.638,0,0,1,.5,1.272,1.706,1.706,0,0,1-.768,1.482,3.26,3.26,0,0,1-1.908.534,4.033,4.033,0,0,1-1.422-.24,3.462,3.462,0,0,1-1.11-.66l.768-.864a2.833,2.833,0,0,0,1.728.624,1.462,1.462,0,0,0,.822-.2.642.642,0,0,0,.306-.564.756.756,0,0,0-.113-.438.949.949,0,0,0-.409-.288,8.563,8.563,0,0,0-.918-.306,3.066,3.066,0,0,1-1.428-.738,1.637,1.637,0,0,1-.455-1.182,1.569,1.569,0,0,1,.3-.948,2.034,2.034,0,0,1,.865-.66,3.2,3.2,0,0,1,1.277-.24A3.571,3.571,0,0,1,190.675,4.464Z"/><path class="cls-3" d="M197.2,10.236h-1.332l-.084-.888a2.347,2.347,0,0,1-.822.8,2.27,2.27,0,0,1-1.122.264,1.662,1.662,0,0,1-1.314-.522,2.107,2.107,0,0,1-.462-1.446V3.888H193.6V8.256a1.229,1.229,0,0,0,.185.768.723.723,0,0,0,.594.228,1.55,1.55,0,0,0,1.284-.9V3.888H197.2ZM195.739.414a1.379,1.379,0,0,1,.42,1.026,1.379,1.379,0,0,1-.426,1.02,1.5,1.5,0,0,1-1.1.42,1.513,1.513,0,0,1-1.11-.42,1.378,1.378,0,0,1-.425-1.02,1.372,1.372,0,0,1,.425-1.026A1.525,1.525,0,0,1,194.635,0,1.5,1.5,0,0,1,195.739.414ZM194.2.972a.662.662,0,0,0-.156.468.639.639,0,0,0,.156.462.572.572,0,0,0,.432.162.556.556,0,0,0,.42-.162.639.639,0,0,0,.156-.462.662.662,0,0,0-.156-.468.545.545,0,0,0-.42-.168A.56.56,0,0,0,194.2.972Z"/><circle cx="98.581" cy="22.11" r="1.583"/></symbol></defs><line class="cls-4" x1="303.588" y1="220.195" x2="302.588" y2="220.195"/><line class="cls-5" x1="298.638" y1="220.195" x2="93.265" y2="220.195"/><line class="cls-4" x1="91.291" y1="220.195" x2="90.291" y2="220.195"/><line class="cls-4" x1="308.647" y1="262.039" x2="307.647" y2="262.039"/><line class="cls-6" x1="303.603" y1="262.039" x2="93.313" y2="262.039"/><line class="cls-4" x1="91.291" y1="262.039" x2="90.291" y2="262.039"/><line class="cls-4" x1="249.444" y1="133.144" x2="248.444" y2="133.144"/><line class="cls-7" x1="244.515" y1="133.144" x2="93.255" y2="133.144"/><line class="cls-4" x1="91.291" y1="133.144" x2="90.291" y2="133.144"/><line class="cls-4" x1="279.556" y1="174.988" x2="278.556" y2="174.988"/><line class="cls-8" x1="274.614" y1="174.988" x2="93.262" y2="174.988"/><line class="cls-4" x1="91.291" y1="174.988" x2="90.291" y2="174.988"/><line class="cls-4" x1="359.609" y1="303.831" x2="358.609" y2="303.831"/><line class="cls-9" x1="354.619" y1="303.831" x2="93.286" y2="303.831"/><line class="cls-4" x1="91.291" y1="303.831" x2="90.291" y2="303.831"/><line class="cls-4" x1="298.013" y1="346.43" x2="297.013" y2="346.43"/><line class="cls-10" x1="293.057" y1="346.43" x2="93.269" y2="346.43"/><line class="cls-4" x1="91.291" y1="346.43" x2="90.291" y2="346.43"/><line class="cls-4" x1="323.135" y1="387.441" x2="322.135" y2="387.441"/><line class="cls-11" x1="318.154" y1="387.441" x2="93.281" y2="387.441"/><line class="cls-4" x1="91.291" y1="387.441" x2="90.291" y2="387.441"/><g class="cls-12"><path d="M297.12,11.1a5.824,5.824,0,0,1,1.818,1.151l-1.17,1.351a4.653,4.653,0,0,0-1.341-.811,4.132,4.132,0,0,0-1.449-.251,2.316,2.316,0,0,0-1.395.387,1.269,1.269,0,0,0-.531,1.089,1.352,1.352,0,0,0,.207.774,1.917,1.917,0,0,0,.747.576,10.805,10.805,0,0,0,1.6.593,7.286,7.286,0,0,1,2.762,1.432,3.22,3.22,0,0,1,.927,2.493,3.519,3.519,0,0,1-.567,1.98,3.767,3.767,0,0,1-1.629,1.35,6.014,6.014,0,0,1-2.52.486,6.692,6.692,0,0,1-2.547-.459,5.945,5.945,0,0,1-1.935-1.251l1.224-1.368a5.523,5.523,0,0,0,1.5.927,4.492,4.492,0,0,0,1.71.315,2.636,2.636,0,0,0,1.655-.486,1.628,1.628,0,0,0,.63-1.368,1.675,1.675,0,0,0-.216-.891,1.876,1.876,0,0,0-.737-.63,9.043,9.043,0,0,0-1.513-.585,7.084,7.084,0,0,1-2.861-1.476,3.03,3.03,0,0,1-.883-2.268,3.067,3.067,0,0,1,.54-1.8,3.557,3.557,0,0,1,1.5-1.206,5.29,5.29,0,0,1,2.187-.432A6.293,6.293,0,0,1,297.12,11.1Z"/><path d="M308.721,11.982a3.476,3.476,0,0,1,1.323,2.971,3.689,3.689,0,0,1-1.332,3.105,5.625,5.625,0,0,1-3.546,1.035h-1.458v4.338h-2.376V10.993H305A6.106,6.106,0,0,1,308.721,11.982Zm-1.809,4.8a2.244,2.244,0,0,0,.648-1.827q0-2.214-2.573-2.214h-1.279v4.572h1.279A2.982,2.982,0,0,0,306.912,16.78Z"/><path d="M319.665,12.307q1.737,1.314,1.737,4.841,0,3.457-1.71,4.87a6.583,6.583,0,0,1-4.338,1.413H311.97V10.993h3.06A7.5,7.5,0,0,1,319.665,12.307Zm-5.319.468v8.873h1.17A3.2,3.2,0,0,0,318,20.667a5.244,5.244,0,0,0,.9-3.519,6.494,6.494,0,0,0-.459-2.726,2.561,2.561,0,0,0-1.206-1.3,4.277,4.277,0,0,0-1.791-.342Z"/></g><path class="cls-13" d="M182.118,484.1l-.6-2.275h-3l-.6,2.275H176.71l2.588-8.944h1.482l2.586,8.944Zm-3.353-3.224h2.508l-1.248-4.758Z"/><path class="cls-13" d="M188.846,477.629a2.212,2.212,0,0,1,.462,1.488V484.1h-1.17V479.26a1.6,1.6,0,0,0-.222-.955.789.789,0,0,0-.675-.293q-.859,0-1.56,1.222V484.1h-1.17v-6.838h1.014l.091,1.013a2.309,2.309,0,0,1,1.95-1.181A1.6,1.6,0,0,1,188.846,477.629Z"/><path class="cls-13" d="M195.742,483.154a.732.732,0,0,0,.365.305l-.248.793a1.624,1.624,0,0,1-.793-.312,1.283,1.283,0,0,1-.4-.715,2.088,2.088,0,0,1-1.859,1.041,1.886,1.886,0,0,1-1.442-.567,2.113,2.113,0,0,1-.534-1.513,2.007,2.007,0,0,1,.715-1.665,3.206,3.206,0,0,1,2.041-.572h.884v-.585a1.512,1.512,0,0,0-.292-1.034,1.251,1.251,0,0,0-.956-.318,4.763,4.763,0,0,0-1.664.364l-.285-.819a5.647,5.647,0,0,1,2.132-.467,1.964,1.964,0,0,1,2.222,2.222v3.224A1.269,1.269,0,0,0,195.742,483.154Zm-1.274-.839V480.7h-.754q-1.691,0-1.689,1.417a1.428,1.428,0,0,0,.272.937.966.966,0,0,0,.78.324A1.517,1.517,0,0,0,194.468,482.315Z"/><path class="cls-13" d="M197.9,483.889a1.459,1.459,0,0,1-.364-1.054v-8.346l1.17-.13V482.8c0,.338.139.506.416.506a1.081,1.081,0,0,0,.377-.078l.26.82a1.847,1.847,0,0,1-.871.221A1.311,1.311,0,0,1,197.9,483.889Z"/><path class="cls-13" d="M203.477,484.122a4.381,4.381,0,0,1-1.027,1.872,3.269,3.269,0,0,1-1.885.846l-.13-.871a3.169,3.169,0,0,0,.974-.352,1.753,1.753,0,0,0,.586-.572,4.85,4.85,0,0,0,.429-.949H202l-2.028-6.838h1.209l1.586,6.019,1.586-6.019h1.2Zm.13-10.387.494.937-2.5,1.131-.338-.6Z"/><path class="cls-13" d="M210.433,477.258v.871l-3.238,5.006h3.25l-.117.961h-4.42v-.871l3.238-5h-2.965v-.963Z"/><path class="cls-13" d="M216.061,483.154a.725.725,0,0,0,.364.305l-.248.793a1.624,1.624,0,0,1-.793-.312,1.288,1.288,0,0,1-.4-.715,2.091,2.091,0,0,1-1.86,1.041,1.886,1.886,0,0,1-1.442-.567,2.113,2.113,0,0,1-.533-1.513,2,2,0,0,1,.715-1.665,3.2,3.2,0,0,1,2.041-.572h.883v-.585a1.506,1.506,0,0,0-.292-1.034,1.25,1.25,0,0,0-.956-.318,4.767,4.767,0,0,0-1.664.364l-.285-.819a5.651,5.651,0,0,1,2.132-.467,1.965,1.965,0,0,1,2.223,2.222v3.224A1.269,1.269,0,0,0,216.061,483.154Zm-1.275-.839V480.7h-.753q-1.69,0-1.69,1.417a1.423,1.423,0,0,0,.273.937.963.963,0,0,0,.78.324A1.517,1.517,0,0,0,214.786,482.315Z"/><path class="cls-13" d="M218.953,478.019a.812.812,0,0,1,.228.579.832.832,0,0,1-.228.584.76.76,0,0,1-.59.248.751.751,0,0,1-.58-.248.836.836,0,0,1-.227-.584.815.815,0,0,1,.227-.579.762.762,0,0,1,.58-.241A.772.772,0,0,1,218.953,478.019Zm0,4.835a.816.816,0,0,1,.228.58.832.832,0,0,1-.228.584.763.763,0,0,1-.59.248.754.754,0,0,1-.58-.248.836.836,0,0,1-.227-.584.819.819,0,0,1,.227-.58.765.765,0,0,1,.58-.24A.775.775,0,0,1,218.953,482.854Z"/><path class="cls-13" d="M225.316,482.848a3.617,3.617,0,0,1-.253,1.457,2.306,2.306,0,0,1-.715.922,4.674,4.674,0,0,1-1.19.625l-.325-.859a2.977,2.977,0,0,0,.8-.526,1.436,1.436,0,0,0,.37-.651,3.99,3.99,0,0,0,.1-1.019v-7.645h1.209Z"/><path class="cls-13" d="M231.79,483.154a.729.729,0,0,0,.364.305l-.246.793a1.616,1.616,0,0,1-.793-.312,1.26,1.26,0,0,1-.4-.715,2.092,2.092,0,0,1-1.859,1.041,1.89,1.89,0,0,1-1.444-.567,2.117,2.117,0,0,1-.533-1.513,2.007,2.007,0,0,1,.715-1.665,3.206,3.206,0,0,1,2.041-.572h.885v-.585a1.506,1.506,0,0,0-.293-1.034,1.25,1.25,0,0,0-.955-.318,4.754,4.754,0,0,0-1.664.364l-.287-.819a5.655,5.655,0,0,1,2.132-.467,1.964,1.964,0,0,1,2.223,2.222v3.224A1.269,1.269,0,0,0,231.79,483.154Zm-1.273-.839V480.7h-.755q-1.689,0-1.69,1.417a1.423,1.423,0,0,0,.273.937.963.963,0,0,0,.78.324A1.518,1.518,0,0,0,230.517,482.315Z"/><path class="cls-13" d="M234.949,474.359V484.1h-1.17v-9.607Zm3.6,2.9-2.314,3.043,2.535,3.8h-1.3l-2.457-3.744,2.312-3.094Z"/><path class="cls-13" d="M244.439,484.1h-1.014l-.064-1.027a2.158,2.158,0,0,1-1.912,1.2,1.627,1.627,0,0,1-1.288-.534,2.118,2.118,0,0,1-.466-1.443v-5.031h1.17v4.928a1.386,1.386,0,0,0,.226.876.828.828,0,0,0,.684.28q.87,0,1.494-1.144v-4.94h1.17Z"/><path class="cls-13" d="M251.154,478.006a4.925,4.925,0,0,1,.591,2.658,4.7,4.7,0,0,1-.644,2.633,2,2,0,0,1-1.748.969,1.905,1.905,0,0,1-.949-.241,2.253,2.253,0,0,1-.741-.683l-.078.754h-1.041V474.5l1.17-.13v3.718a2.5,2.5,0,0,1,.774-.735,1.918,1.918,0,0,1,1-.265A1.88,1.88,0,0,1,251.154,478.006Zm-.631,2.658a4.322,4.322,0,0,0-.352-2.047,1.1,1.1,0,0,0-1-.605,1.254,1.254,0,0,0-.8.273,3.042,3.042,0,0,0-.658.768v3.392a2.177,2.177,0,0,0,.6.651,1.3,1.3,0,0,0,.765.246Q250.524,483.342,250.523,480.664Z"/><path class="cls-13" d="M257.777,475.152v7.917h3.263l-.131,1.027h-4.341v-8.944Z"/><path class="cls-13" d="M264,484.122a4.36,4.36,0,0,1-1.027,1.872,3.266,3.266,0,0,1-1.885.846l-.129-.871a3.186,3.186,0,0,0,.975-.352,1.756,1.756,0,0,0,.584-.572,4.679,4.679,0,0,0,.429-.949h-.429l-2.028-6.838H261.7l1.586,6.019,1.586-6.019h1.2Z"/><path class="cls-13" d="M271.011,477.869l-.494.69a3.927,3.927,0,0,0-.779-.43,2.067,2.067,0,0,0-.768-.143,1.267,1.267,0,0,0-.838.254.856.856,0,0,0-.305.7.841.841,0,0,0,.291.675,3.525,3.525,0,0,0,1.114.507,3.709,3.709,0,0,1,1.494.793,1.74,1.74,0,0,1,.469,1.287,1.822,1.822,0,0,1-.7,1.515,2.745,2.745,0,0,1-1.753.553,3.274,3.274,0,0,1-2.354-.924l.6-.65a2.706,2.706,0,0,0,1.728.663,1.417,1.417,0,0,0,.924-.286.966.966,0,0,0,.352-.793,1.2,1.2,0,0,0-.125-.585,1.08,1.08,0,0,0-.442-.4,5.525,5.525,0,0,0-.929-.371,3.421,3.421,0,0,1-1.405-.779,1.626,1.626,0,0,1-.427-1.158,1.709,1.709,0,0,1,.285-.975,1.973,1.973,0,0,1,.793-.676,2.649,2.649,0,0,1,1.17-.246A3.172,3.172,0,0,1,271.011,477.869Z"/><path class="cls-13" d="M277.46,481.08h-3.978a2.963,2.963,0,0,0,.48,1.723,1.429,1.429,0,0,0,1.17.526,2.33,2.33,0,0,0,.84-.143,2.942,2.942,0,0,0,.773-.467l.52.688a3.2,3.2,0,0,1-2.184.859,2.5,2.5,0,0,1-2.074-.93,4.105,4.105,0,0,1-.734-2.607,4.5,4.5,0,0,1,.7-2.659,2.266,2.266,0,0,1,1.951-.98,2.236,2.236,0,0,1,1.9.877,4.079,4.079,0,0,1,.664,2.5C277.486,480.651,277.476,480.855,277.46,481.08Zm-1.1-.962q0-2.145-1.418-2.145a1.184,1.184,0,0,0-1.026.54,3.384,3.384,0,0,0-.429,1.749h2.873Z"/><path class="cls-13" d="M280.281,474.359V484.1h-1.17v-9.607Zm3.6,2.9-2.314,3.043,2.535,3.8h-1.3l-2.457-3.744,2.314-3.094Z"/><path class="cls-13" d="M286.091,482.848a.8.8,0,0,1,.221.572,1.313,1.313,0,0,1-.059.377c-.039.131-.1.316-.187.558l-.717,1.834h-.727l.481-2.067a.777.777,0,0,1-.377-.688.812.812,0,0,1,.226-.586.778.778,0,0,1,.581-.234A.737.737,0,0,1,286.091,482.848Z"/><path class="cls-13" d="M292.253,475.152V484.1h-1.209v-8.944Zm4.393,0-3.03,4.082,3.239,4.862h-1.391l-3.16-4.784,3.055-4.16Z"/><path class="cls-13" d="M302.406,475.842a2.511,2.511,0,0,1,.843,2.066,2.632,2.632,0,0,1-.863,2.164,3.678,3.678,0,0,1-2.4.709h-.858V484.1h-1.209v-8.944h2.028A3.808,3.808,0,0,1,302.406,475.842Zm-.924,3.574a1.87,1.87,0,0,0,.508-1.494,1.784,1.784,0,0,0-.5-1.411,2.284,2.284,0,0,0-1.528-.436h-.832v3.771h.819A2.331,2.331,0,0,0,301.482,479.416Z"/><path class="cls-13" d="M309.165,475.152l-.142.936h-3.094v2.951h2.689v.936h-2.689v3.171H309.2v.95H304.72v-8.944Z"/><path class="cls-13" d="M314.191,475.243a3.683,3.683,0,0,1,1.111.78l-.611.69a3.376,3.376,0,0,0-.877-.579,2.351,2.351,0,0,0-.944-.189,1.5,1.5,0,0,0-1.046.358,1.208,1.208,0,0,0-.4.942,1.356,1.356,0,0,0,.156.669,1.448,1.448,0,0,0,.533.508,5.736,5.736,0,0,0,1.067.461,6.549,6.549,0,0,1,1.3.611,2.239,2.239,0,0,1,.779.832,2.972,2.972,0,0,1-.078,2.646,2.459,2.459,0,0,1-1.008.949,3.277,3.277,0,0,1-1.541.345,3.732,3.732,0,0,1-2.768-1.17l.637-.69a3.885,3.885,0,0,0,.981.656,2.638,2.638,0,0,0,1.111.228,1.709,1.709,0,0,0,1.228-.436,1.567,1.567,0,0,0,.463-1.2,1.466,1.466,0,0,0-.371-1.052,3.457,3.457,0,0,0-1.359-.729,4.587,4.587,0,0,1-1.813-1.027,2.122,2.122,0,0,1-.552-1.521,2.234,2.234,0,0,1,1.261-2.041,2.989,2.989,0,0,1,1.352-.3A3.426,3.426,0,0,1,314.191,475.243Z"/><path class="cls-13" d="M325.765,481.471a2.625,2.625,0,0,1-2.859,2.8,2.774,2.774,0,0,1-2.12-.774,2.833,2.833,0,0,1-.728-2.021v-6.319h1.209v6.241q0,1.883,1.639,1.884t1.638-1.884v-6.241h1.221Z"/><path class="cls-13" d="M332.318,475.842a2.507,2.507,0,0,1,.845,2.066,2.633,2.633,0,0,1-.865,2.164,3.674,3.674,0,0,1-2.4.709h-.858V484.1h-1.209v-8.944h2.028A3.8,3.8,0,0,1,332.318,475.842Zm-.922,3.574a1.87,1.87,0,0,0,.506-1.494,1.777,1.777,0,0,0-.5-1.411,2.284,2.284,0,0,0-1.528-.436h-.832v3.771h.819A2.333,2.333,0,0,0,331.4,479.416Z"/><path class="cls-13" d="M340.124,476.16a6.992,6.992,0,0,1,.006,6.909,3.265,3.265,0,0,1-5.037.02,5.538,5.538,0,0,1-.916-3.452,6.806,6.806,0,0,1,.422-2.541,3.406,3.406,0,0,1,1.2-1.58,3.117,3.117,0,0,1,1.813-.533A3.012,3.012,0,0,1,340.124,476.16Zm-4.674,3.477q0,3.652,2.159,3.653a1.786,1.786,0,0,0,1.613-.87,7.392,7.392,0,0,0-.008-5.591,1.778,1.778,0,0,0-1.605-.884Q335.452,475.945,335.45,479.637Z"/><path class="cls-13" d="M344.005,475.152v7.917h3.264l-.131,1.027H342.8v-8.944Z"/><path class="cls-13" d="M356.419,473.605v11.817h-1.092V473.605Z"/><path class="cls-13" d="M370.8,475.152l-2.469,8.944h-1.443l-2.51-8.944h1.248l2,7.774,1.977-7.774Z"/><path class="cls-13" d="M373.091,474.256a.774.774,0,0,1-1.1,1.085.726.726,0,0,1-.215-.54.741.741,0,0,1,.215-.545.8.8,0,0,1,1.1,0Zm.033,3V484.1h-1.17v-6.838Z"/><path class="cls-13" d="M378.96,477.258v.871l-3.236,5.006h3.25l-.117.961h-4.42v-.871l3.236-5H374.71v-.963Z"/><path class="cls-13" d="M384.954,484.1h-1.013l-.067-1.027a2.155,2.155,0,0,1-1.91,1.2,1.622,1.622,0,0,1-1.287-.534,2.109,2.109,0,0,1-.469-1.443v-5.031h1.17v4.928a1.367,1.367,0,0,0,.229.876.823.823,0,0,0,.681.28q.87,0,1.5-1.144v-4.94h1.17Z"/><path class="cls-13" d="M391.441,483.154a.727.727,0,0,0,.363.305l-.246.793a1.616,1.616,0,0,1-.793-.312,1.265,1.265,0,0,1-.4-.715,2.094,2.094,0,0,1-1.86,1.041,1.888,1.888,0,0,1-1.443-.567,2.113,2.113,0,0,1-.533-1.513,2.007,2.007,0,0,1,.714-1.665,3.207,3.207,0,0,1,2.042-.572h.884v-.585a1.5,1.5,0,0,0-.293-1.034,1.249,1.249,0,0,0-.955-.318,4.767,4.767,0,0,0-1.664.364l-.287-.819a5.667,5.667,0,0,1,2.133-.467,1.964,1.964,0,0,1,2.223,2.222v3.224A1.269,1.269,0,0,0,391.441,483.154Zm-1.274-.839V480.7h-.754q-1.691,0-1.691,1.417a1.428,1.428,0,0,0,.273.937.963.963,0,0,0,.78.324A1.52,1.52,0,0,0,390.167,482.315Z"/><path class="cls-13" d="M393.6,483.889a1.459,1.459,0,0,1-.363-1.054v-8.346l1.17-.13V482.8c0,.338.138.506.416.506a1.094,1.094,0,0,0,.377-.078l.259.82a1.847,1.847,0,0,1-.871.221A1.31,1.31,0,0,1,393.6,483.889Z"/><path class="cls-13" d="M397.868,474.256a.774.774,0,0,1-1.1,1.085.726.726,0,0,1-.215-.54.741.741,0,0,1,.215-.545.8.8,0,0,1,1.1,0Zm.034,3V484.1h-1.17v-6.838Z"/><path class="cls-13" d="M403.74,477.258v.871l-3.239,5.006h3.25l-.117.961h-4.42v-.871l3.238-5h-2.964v-.963Z"/><path class="cls-13" d="M409.366,483.154a.73.73,0,0,0,.366.305l-.248.793a1.624,1.624,0,0,1-.793-.312,1.283,1.283,0,0,1-.4-.715,2.089,2.089,0,0,1-1.859,1.041,1.891,1.891,0,0,1-1.443-.567,2.113,2.113,0,0,1-.534-1.513,2,2,0,0,1,.717-1.665,3.2,3.2,0,0,1,2.041-.572h.883v-.585a1.506,1.506,0,0,0-.293-1.034,1.247,1.247,0,0,0-.955-.318,4.763,4.763,0,0,0-1.664.364l-.285-.819a5.646,5.646,0,0,1,2.131-.467,1.965,1.965,0,0,1,2.224,2.222v3.224A1.3,1.3,0,0,0,409.366,483.154Zm-1.273-.839V480.7h-.754q-1.69,0-1.689,1.417a1.417,1.417,0,0,0,.273.937.962.962,0,0,0,.779.324A1.516,1.516,0,0,0,408.093,482.315Z"/><path class="cls-13" d="M414.736,477.271a2.932,2.932,0,0,1,.871.559l-.52.7a2.461,2.461,0,0,0-.623-.37,1.83,1.83,0,0,0-.676-.124,1.34,1.34,0,0,0-1.189.65,3.792,3.792,0,0,0-.424,2.029q0,2.573,1.613,2.573a1.7,1.7,0,0,0,.662-.124,3.065,3.065,0,0,0,.637-.369l.547.715a2.737,2.737,0,0,1-1.885.754,2.518,2.518,0,0,1-2.06-.911,4.035,4.035,0,0,1-.748-2.626,5.008,5.008,0,0,1,.343-1.937,2.847,2.847,0,0,1,.975-1.261,2.507,2.507,0,0,1,1.477-.441A2.676,2.676,0,0,1,414.736,477.271Z"/><path class="cls-13" d="M421.445,481.08h-3.979a2.955,2.955,0,0,0,.481,1.723,1.427,1.427,0,0,0,1.169.526,2.33,2.33,0,0,0,.84-.143,2.962,2.962,0,0,0,.774-.467l.519.688a3.193,3.193,0,0,1-2.183.859,2.5,2.5,0,0,1-2.075-.93,4.105,4.105,0,0,1-.734-2.607,4.5,4.5,0,0,1,.7-2.659,2.266,2.266,0,0,1,1.951-.98,2.233,2.233,0,0,1,1.9.877,4.079,4.079,0,0,1,.664,2.5C421.47,480.651,421.46,480.855,421.445,481.08Zm-1.106-.962q0-2.145-1.418-2.145a1.184,1.184,0,0,0-1.025.54,3.383,3.383,0,0,0-.43,1.749h2.873Z"/><path class="cls-13" d="M424,478.019a.809.809,0,0,1,.229.579.829.829,0,0,1-.229.584.814.814,0,0,1-1.17,0,.839.839,0,0,1-.226-.584.819.819,0,0,1,.226-.579.83.83,0,0,1,1.17,0Zm0,4.835a.813.813,0,0,1,.229.58.829.829,0,0,1-.229.584.814.814,0,0,1-1.17,0,.839.839,0,0,1-.226-.584.823.823,0,0,1,.226-.58.833.833,0,0,1,1.17,0Z"/><path class="cls-13" d="M430.042,474.256a.774.774,0,0,1-1.1,1.085.726.726,0,0,1-.215-.54.741.741,0,0,1,.215-.545.8.8,0,0,1,1.1,0Zm.033,3V484.1h-1.169v-6.838Z"/><path class="cls-13" d="M436.628,484.1l-1.924-3.809h-1.261V484.1h-1.209v-8.944h2.093q3.2,0,3.2,2.522a2.533,2.533,0,0,1-.43,1.5,2.46,2.46,0,0,1-1.26.9l2.131,4.03Zm-.82-5.141a1.635,1.635,0,0,0,.455-1.281,1.493,1.493,0,0,0-.461-1.209,2.319,2.319,0,0,0-1.5-.39h-.857v3.289h.974A2.026,2.026,0,0,0,435.808,478.955Z"/><path class="cls-13" d="M444.7,476.16a6.989,6.989,0,0,1,0,6.909,3.265,3.265,0,0,1-5.037.02,5.538,5.538,0,0,1-.916-3.452,6.806,6.806,0,0,1,.422-2.541,3.385,3.385,0,0,1,1.2-1.58,3.12,3.12,0,0,1,1.814-.533A3.015,3.015,0,0,1,444.7,476.16Zm-4.674,3.477q0,3.652,2.158,3.653a1.78,1.78,0,0,0,1.611-.87,7.379,7.379,0,0,0-.006-5.591,1.782,1.782,0,0,0-1.605-.884Q440.021,475.945,440.021,479.637Z"/><path class="cls-13" d="M451.616,475.152v.962l-4.029,6.955h4.018l-.131,1.027h-5.213v-.961l4.057-6.982h-3.655v-1Z"/><path class="cls-13" d="M457.636,484.1v-4.2h-3.25v4.2h-1.209v-8.944h1.209v3.757h3.25v-3.757h1.209V484.1Z"/><path class="cls-13" d="M462.263,475.152v7.917h3.264L465.4,484.1h-4.342v-8.944Z"/><path class="cls-13" d="M471.208,484.1l-.6-2.275h-3l-.6,2.275H465.8l2.586-8.944h1.482l2.588,8.944Zm-3.355-3.224h2.51l-1.248-4.758Z"/><path class="cls-13" d="M477.154,475.243a3.659,3.659,0,0,1,1.111.78l-.609.69a3.351,3.351,0,0,0-.879-.579,2.335,2.335,0,0,0-.942-.189,1.5,1.5,0,0,0-1.047.358,1.211,1.211,0,0,0-.4.942,1.356,1.356,0,0,0,.156.669,1.424,1.424,0,0,0,.533.508,5.649,5.649,0,0,0,1.065.461,6.549,6.549,0,0,1,1.3.611,2.247,2.247,0,0,1,.779.832,2.656,2.656,0,0,1,.273,1.274,2.686,2.686,0,0,1-.351,1.372,2.448,2.448,0,0,1-1.006.949,3.28,3.28,0,0,1-1.541.345,3.737,3.737,0,0,1-2.77-1.17l.637-.69a3.889,3.889,0,0,0,.982.656,2.636,2.636,0,0,0,1.112.228,1.712,1.712,0,0,0,1.228-.436,1.573,1.573,0,0,0,.461-1.2,1.465,1.465,0,0,0-.369-1.052,3.487,3.487,0,0,0-1.359-.729,4.59,4.59,0,0,1-1.815-1.027,2.129,2.129,0,0,1-.55-1.521,2.228,2.228,0,0,1,1.259-2.041,2.989,2.989,0,0,1,1.352-.3A3.426,3.426,0,0,1,477.154,475.243Z"/><path class="cls-13" d="M480.95,482.854a.811.811,0,0,1,.227.58.827.827,0,0,1-.227.584.767.767,0,0,1-.591.248.75.75,0,0,1-.578-.248.829.829,0,0,1-.229-.584.813.813,0,0,1,.229-.58.76.76,0,0,1,.578-.24A.778.778,0,0,1,480.95,482.854Z"/><path class="cls-13" d="M486.052,477.271a2.907,2.907,0,0,1,.871.559l-.519.7a2.461,2.461,0,0,0-.623-.37,1.834,1.834,0,0,0-.676-.124,1.342,1.342,0,0,0-1.19.65,3.792,3.792,0,0,0-.424,2.029q0,2.573,1.614,2.573a1.7,1.7,0,0,0,.662-.124,3.117,3.117,0,0,0,.637-.369l.546.715a2.733,2.733,0,0,1-1.884.754,2.52,2.52,0,0,1-2.061-.911,4.035,4.035,0,0,1-.748-2.626,4.988,4.988,0,0,1,.344-1.937,2.846,2.846,0,0,1,.974-1.261,2.509,2.509,0,0,1,1.477-.441A2.676,2.676,0,0,1,486.052,477.271Z"/><path class="cls-13" d="M491.968,477.258v.871l-3.238,5.006h3.25l-.117.961h-4.42v-.871l3.238-5h-2.965v-.963Z"/><path class="cls-13" d="M494.243,482.848a.8.8,0,0,1,.221.572,1.31,1.31,0,0,1-.058.377c-.04.131-.1.316-.188.558l-.717,1.834h-.726l.48-2.067a.777.777,0,0,1-.377-.688.809.809,0,0,1,.227-.586.775.775,0,0,1,.58-.234A.737.737,0,0,1,494.243,482.848Z"/><path class="cls-13" d="M500.406,475.152V484.1H499.2v-8.944Zm4.392,0-3.029,4.082,3.238,4.862h-1.391l-3.16-4.784,3.055-4.16Z"/><path class="cls-13" d="M509.413,477.18l-.195,1.131a1.788,1.788,0,0,0-.533-.078,1.129,1.129,0,0,0-.93.455,3.509,3.509,0,0,0-.564,1.391V484.1h-1.17v-6.838h1.013l.092,1.352q.507-1.507,1.7-1.508A1.976,1.976,0,0,1,509.413,477.18Z"/><path class="cls-13" d="M511.7,474.256a.774.774,0,0,1-1.1,1.085.73.73,0,0,1-.215-.54.745.745,0,0,1,.215-.545.8.8,0,0,1,1.1,0Zm.033,3V484.1h-1.17v-6.838Z"/><path class="cls-13" d="M517.706,477.869l-.494.69a3.927,3.927,0,0,0-.779-.43,2.063,2.063,0,0,0-.768-.143,1.269,1.269,0,0,0-.838.254.855.855,0,0,0-.3.7.838.838,0,0,0,.291.675,3.505,3.505,0,0,0,1.113.507,3.7,3.7,0,0,1,1.494.793,1.736,1.736,0,0,1,.469,1.287,1.821,1.821,0,0,1-.7,1.515,2.75,2.75,0,0,1-1.754.553,3.274,3.274,0,0,1-2.354-.924l.6-.65a2.706,2.706,0,0,0,1.729.663,1.416,1.416,0,0,0,.923-.286.964.964,0,0,0,.352-.793,1.2,1.2,0,0,0-.125-.585,1.083,1.083,0,0,0-.441-.4,5.542,5.542,0,0,0-.93-.371,3.416,3.416,0,0,1-1.4-.779,1.622,1.622,0,0,1-.428-1.158,1.716,1.716,0,0,1,.285-.975,1.973,1.973,0,0,1,.793-.676,2.649,2.649,0,0,1,1.17-.246A3.172,3.172,0,0,1,517.706,477.869Z"/><path class="cls-13" d="M522.62,483.8a2.412,2.412,0,0,1-1.443.469,1.664,1.664,0,0,1-1.279-.482,1.906,1.906,0,0,1-.449-1.352v-4.289h-.975v-.885h.975v-1.572l1.169-.144v1.716h1.508l-.129.885h-1.379v4.277q0,.883.743.883a1.251,1.251,0,0,0,.408-.065,2.637,2.637,0,0,0,.424-.195Z"/><path class="cls-13" d="M525.077,473.735l.5.937-2.5,1.131-.337-.6Zm-.273,3.523V484.1h-1.17v-6.838Z"/><path class="cls-13" d="M531.247,477.629a2.217,2.217,0,0,1,.461,1.488V484.1h-1.17V479.26a1.617,1.617,0,0,0-.22-.955.793.793,0,0,0-.676-.293q-.858,0-1.561,1.222V484.1h-1.17v-6.838h1.014l.092,1.013a2.307,2.307,0,0,1,1.949-1.181A1.6,1.6,0,0,1,531.247,477.629Z"/><path class="cls-13" d="M538.142,483.154a.723.723,0,0,0,.365.305l-.248.793a1.628,1.628,0,0,1-.793-.312,1.288,1.288,0,0,1-.4-.715,2.092,2.092,0,0,1-1.86,1.041,1.891,1.891,0,0,1-1.443-.567,2.117,2.117,0,0,1-.533-1.513,2,2,0,0,1,.717-1.665,3.2,3.2,0,0,1,2.041-.572h.882v-.585a1.5,1.5,0,0,0-.293-1.034,1.246,1.246,0,0,0-.955-.318,4.767,4.767,0,0,0-1.664.364l-.285-.819a5.65,5.65,0,0,1,2.131-.467,1.966,1.966,0,0,1,2.225,2.222v3.224A1.3,1.3,0,0,0,538.142,483.154Zm-1.274-.839V480.7h-.753q-1.69,0-1.69,1.417a1.412,1.412,0,0,0,.274.937.96.96,0,0,0,.779.324A1.516,1.516,0,0,0,536.868,482.315Z"/><path class="cls-13" d="M547.814,475.152v.962l-4.03,6.955H547.8l-.131,1.027h-5.213v-.961l4.057-6.982h-3.654v-1Z"/><path class="cls-13" d="M553.509,483.154a.727.727,0,0,0,.363.305l-.246.793a1.62,1.62,0,0,1-.793-.312,1.265,1.265,0,0,1-.4-.715,2.093,2.093,0,0,1-1.859,1.041,1.89,1.89,0,0,1-1.444-.567,2.117,2.117,0,0,1-.533-1.513,2,2,0,0,1,.715-1.665,3.2,3.2,0,0,1,2.041-.572h.885v-.585a1.506,1.506,0,0,0-.293-1.034,1.252,1.252,0,0,0-.955-.318,4.758,4.758,0,0,0-1.664.364l-.288-.819a5.667,5.667,0,0,1,2.133-.467,1.964,1.964,0,0,1,2.223,2.222v3.224A1.269,1.269,0,0,0,553.509,483.154Zm-1.494-9.419.492.937-2.5,1.131-.338-.6Zm.221,8.58V480.7h-.754q-1.69,0-1.692,1.417a1.423,1.423,0,0,0,.274.937.96.96,0,0,0,.779.324A1.522,1.522,0,0,0,552.236,482.315Z"/><path class="cls-13" d="M556.667,474.359V484.1H555.5v-9.607Zm3.6,2.9-2.315,3.043,2.536,3.8h-1.3l-2.457-3.744,2.314-3.094Z"/><path class="cls-13" d="M565.859,478.012a5.118,5.118,0,0,1-.014,5.285,2.657,2.657,0,0,1-4.088.019,5.106,5.106,0,0,1,.006-5.285,2.717,2.717,0,0,1,4.1-.019Zm-3.211.656a3.881,3.881,0,0,0-.4,2.01q0,2.664,1.559,2.664t1.561-2.678a3.955,3.955,0,0,0-.391-2,1.271,1.271,0,0,0-1.156-.637A1.3,1.3,0,0,0,562.648,478.668Z"/><path class="cls-13" d="M572.911,478.012a5.084,5.084,0,0,1,.565,2.639,4.8,4.8,0,0,1-.631,2.639,1.985,1.985,0,0,1-1.76.976,1.962,1.962,0,0,1-1.638-.82v3.25l-1.17.144v-9.582H569.3l.064.924a2.127,2.127,0,0,1,1.86-1.092A1.847,1.847,0,0,1,572.911,478.012Zm-.656,2.652a4.576,4.576,0,0,0-.332-2.021,1.076,1.076,0,0,0-1.008-.631,1.285,1.285,0,0,0-.806.273,3.133,3.133,0,0,0-.662.741v3.458a1.574,1.574,0,0,0,1.365.845Q572.254,483.329,572.255,480.664Z"/><path class="cls-13" d="M578.572,477.271a2.932,2.932,0,0,1,.871.559l-.52.7a2.461,2.461,0,0,0-.623-.37,1.834,1.834,0,0,0-.676-.124,1.34,1.34,0,0,0-1.189.65,3.792,3.792,0,0,0-.424,2.029q0,2.573,1.613,2.573a1.7,1.7,0,0,0,.662-.124,3.065,3.065,0,0,0,.637-.369l.547.715a2.737,2.737,0,0,1-1.885.754,2.518,2.518,0,0,1-2.06-.911,4.035,4.035,0,0,1-.748-2.626,5.008,5.008,0,0,1,.343-1.937,2.847,2.847,0,0,1,.975-1.261,2.507,2.507,0,0,1,1.477-.441A2.676,2.676,0,0,1,578.572,477.271Zm.468-3.354.455.521-1.572,1.507H577.2l-1.573-1.507.453-.521,1.483,1.144Z"/><path class="cls-13" d="M585.007,483.154a.727.727,0,0,0,.363.305l-.246.793a1.62,1.62,0,0,1-.793-.312,1.265,1.265,0,0,1-.4-.715,2.093,2.093,0,0,1-1.859,1.041,1.89,1.89,0,0,1-1.444-.567,2.117,2.117,0,0,1-.533-1.513,2,2,0,0,1,.715-1.665,3.2,3.2,0,0,1,2.041-.572h.885v-.585a1.506,1.506,0,0,0-.293-1.034,1.252,1.252,0,0,0-.955-.318,4.758,4.758,0,0,0-1.664.364l-.288-.819a5.667,5.667,0,0,1,2.133-.467,1.964,1.964,0,0,1,2.223,2.222v3.224A1.269,1.269,0,0,0,585.007,483.154Zm-1.273-.839V480.7h-.754q-1.691,0-1.692,1.417a1.423,1.423,0,0,0,.274.937.96.96,0,0,0,.779.324A1.521,1.521,0,0,0,583.734,482.315Z"/><path class="cls-13" d="M591.331,477.629a2.207,2.207,0,0,1,.461,1.488V484.1h-1.17V479.26a1.6,1.6,0,0,0-.22-.955.791.791,0,0,0-.676-.293q-.858,0-1.561,1.222V484.1H587v-6.838h1.016l.09,1.013a2.313,2.313,0,0,1,1.951-1.181A1.593,1.593,0,0,1,591.331,477.629Z"/><path class="cls-13" d="M598.267,478.012a5.118,5.118,0,0,1-.014,5.285,2.657,2.657,0,0,1-4.088.019,5.106,5.106,0,0,1,.006-5.285,2.717,2.717,0,0,1,4.1-.019Zm-3.211.656a3.882,3.882,0,0,0-.4,2.01q0,2.664,1.558,2.664t1.561-2.678a3.955,3.955,0,0,0-.391-2,1.27,1.27,0,0,0-1.156-.637A1.3,1.3,0,0,0,595.056,478.668Z"/><path class="cls-13" d="M605.247,477.258l-2.041,6.838h-1.4l-2.105-6.838h1.222l1.586,5.85,1.572-5.85Z"/><path class="cls-13" d="M610.616,483.154a.734.734,0,0,0,.364.305l-.246.793a1.616,1.616,0,0,1-.793-.312,1.266,1.266,0,0,1-.4-.715,2.092,2.092,0,0,1-1.859,1.041,1.888,1.888,0,0,1-1.443-.567,2.113,2.113,0,0,1-.534-1.513,2.007,2.007,0,0,1,.715-1.665,3.206,3.206,0,0,1,2.041-.572h.885v-.585a1.506,1.506,0,0,0-.293-1.034,1.25,1.25,0,0,0-.955-.318,4.763,4.763,0,0,0-1.664.364l-.287-.819a5.663,5.663,0,0,1,2.133-.467,1.963,1.963,0,0,1,2.222,2.222v3.224A1.269,1.269,0,0,0,610.616,483.154Zm-1.494-9.419.493.937-2.5,1.131-.337-.6Zm.221,8.58V480.7h-.754q-1.691,0-1.691,1.417a1.428,1.428,0,0,0,.273.937.962.962,0,0,0,.779.324A1.52,1.52,0,0,0,609.343,482.315Z"/><line class="cls-14" x1="306.096" y1="91.796" x2="306.096" y2="423.676"/><line class="cls-14" x1="162.245" y1="420.001" x2="162.245" y2="423.481"/><line class="cls-14" x1="90.291" y1="420.001" x2="90.291" y2="423.481"/><line class="cls-14" x1="234.2" y1="420.001" x2="234.2" y2="423.481"/><line class="cls-14" x1="378.11" y1="420.001" x2="378.11" y2="423.481"/><line class="cls-14" x1="450.064" y1="420.001" x2="450.064" y2="423.481"/><line class="cls-14" x1="522.019" y1="420.001" x2="522.019" y2="423.481"/><path class="cls-15" d="M151.855,434.207v-.858h3.113v.858Z"/><path class="cls-15" d="M160.538,430.726a6.722,6.722,0,0,1,0,5.648,2.222,2.222,0,0,1-3.684,0,6.732,6.732,0,0,1,0-5.648,2.229,2.229,0,0,1,3.684,0Zm-2.9.533a7.733,7.733,0,0,0,0,4.581,1.144,1.144,0,0,0,2.117,0,7.609,7.609,0,0,0,0-4.575,1.146,1.146,0,0,0-2.117-.006Z"/><path class="cls-15" d="M163.592,436.044a.73.73,0,0,1,.22.539,1.951,1.951,0,0,1-.2.78l-.738,1.684h-.725l.44-1.826a.766.766,0,0,1-.225-.276.781.781,0,0,1-.083-.362.751.751,0,0,1,.758-.76A.747.747,0,0,1,163.592,436.044Z"/><path class="cls-15" d="M167.925,429.861v7.36h-1.012v-6.282l-1.715,1.045-.441-.714,2.277-1.409Z"/><path class="cls-15" d="M175.619,430.258a2.077,2.077,0,0,1,0,2.706,1.89,1.89,0,0,1-2.574,0,2.081,2.081,0,0,1,0-2.706,1.89,1.89,0,0,1,2.574,0Zm-1.979.506a1.848,1.848,0,0,0,0,1.688.738.738,0,0,0,.687.336q.891,0,.891-1.178a1.627,1.627,0,0,0-.2-.84.881.881,0,0,0-1.38-.006Zm5.153-1.365.7.462-5.093,7.7-.7-.462Zm1.353,4.742a2.1,2.1,0,0,1,0,2.706,1.718,1.718,0,0,1-1.287.506,1.736,1.736,0,0,1-1.292-.506,2.077,2.077,0,0,1,0-2.706,1.74,1.74,0,0,1,1.292-.506A1.722,1.722,0,0,1,180.146,434.141Zm-1.975.511a1.56,1.56,0,0,0-.2.842,1.6,1.6,0,0,0,.2.841.74.74,0,0,0,.688.336q.891,0,.891-1.177a1.608,1.608,0,0,0-.2-.837.893.893,0,0,0-1.381,0Z"/><path class="cls-15" d="M219.39,434.207v-.858H222.5v.858Z"/><path class="cls-15" d="M228.074,430.726a6.712,6.712,0,0,1,0,5.648,2.222,2.222,0,0,1-3.684,0,6.732,6.732,0,0,1,0-5.648,2.229,2.229,0,0,1,3.684,0Zm-2.9.533a7.733,7.733,0,0,0,0,4.581,1.144,1.144,0,0,0,2.117,0,7.609,7.609,0,0,0,0-4.575,1.146,1.146,0,0,0-2.117-.006Z"/><path class="cls-15" d="M231.128,436.044a.729.729,0,0,1,.219.539,1.948,1.948,0,0,1-.2.78l-.739,1.684h-.724l.439-1.826a.808.808,0,0,1-.308-.638.753.753,0,0,1,.759-.76A.749.749,0,0,1,231.128,436.044Z"/><path class="cls-15" d="M236.82,430.726a6.732,6.732,0,0,1,0,5.648,2.224,2.224,0,0,1-3.686,0,6.732,6.732,0,0,1,0-5.648,2.231,2.231,0,0,1,3.686,0Zm-2.905.533a7.776,7.776,0,0,0,0,4.581,1.145,1.145,0,0,0,2.118,0,7.629,7.629,0,0,0,0-4.575,1.147,1.147,0,0,0-2.118-.006Z"/><path class="cls-15" d="M242.665,430.653h-2.871v2.167a2.574,2.574,0,0,1,1.178-.285,1.964,1.964,0,0,1,1.518.621,2.436,2.436,0,0,1,.572,1.711,2.6,2.6,0,0,1-.319,1.292,2.22,2.22,0,0,1-.9.88,2.769,2.769,0,0,1-1.338.314,2.919,2.919,0,0,1-1.2-.237,3.185,3.185,0,0,1-.979-.7l.594-.583a2.514,2.514,0,0,0,.727.522,2.015,2.015,0,0,0,.847.17,1.424,1.424,0,0,0,1.106-.439,1.781,1.781,0,0,0,.4-1.243,1.6,1.6,0,0,0-.363-1.166,1.32,1.32,0,0,0-.979-.364,2.172,2.172,0,0,0-.527.061,2.793,2.793,0,0,0-.518.192h-.791v-3.707h3.981Z"/><path class="cls-15" d="M250.042,430.258a2.081,2.081,0,0,1,0,2.706,1.89,1.89,0,0,1-2.574,0,2.081,2.081,0,0,1,0-2.706,1.89,1.89,0,0,1,2.574,0Zm-1.98.506a1.856,1.856,0,0,0,0,1.688.74.74,0,0,0,.687.336q.891,0,.891-1.178a1.637,1.637,0,0,0-.2-.84.882.882,0,0,0-1.381-.006Zm5.154-1.365.7.462-5.094,7.7-.7-.462Zm1.352,4.742a2.093,2.093,0,0,1,0,2.706,1.895,1.895,0,0,1-2.578,0,2.074,2.074,0,0,1,0-2.706,1.895,1.895,0,0,1,2.578,0Zm-1.975.511a1.569,1.569,0,0,0-.2.842,1.6,1.6,0,0,0,.2.841.741.741,0,0,0,.688.336q.892,0,.892-1.177a1.6,1.6,0,0,0-.2-.837.742.742,0,0,0-.693-.329A.75.75,0,0,0,252.593,434.652Z"/><path class="cls-15" d="M373.063,430.726a6.722,6.722,0,0,1,0,5.648,2.223,2.223,0,0,1-3.685,0,6.732,6.732,0,0,1,0-5.648,2.23,2.23,0,0,1,3.685,0Zm-2.9.533a7.754,7.754,0,0,0,0,4.581,1.145,1.145,0,0,0,2.118,0,7.629,7.629,0,0,0,0-4.575,1.147,1.147,0,0,0-2.118-.006Z"/><path class="cls-15" d="M376.116,436.044a.73.73,0,0,1,.22.539,1.934,1.934,0,0,1-.2.78l-.737,1.684h-.726l.441-1.826a.8.8,0,0,1-.309-.638.753.753,0,0,1,.759-.76A.746.746,0,0,1,376.116,436.044Z"/><path class="cls-15" d="M381.808,430.726a6.722,6.722,0,0,1,0,5.648,2.223,2.223,0,0,1-3.685,0,6.732,6.732,0,0,1,0-5.648,2.23,2.23,0,0,1,3.685,0Zm-2.9.533a7.733,7.733,0,0,0,0,4.581,1.144,1.144,0,0,0,2.117,0,7.629,7.629,0,0,0,0-4.575,1.146,1.146,0,0,0-2.117-.006Z"/><path class="cls-15" d="M387.655,430.653h-2.872v2.167a2.57,2.57,0,0,1,1.177-.285,1.968,1.968,0,0,1,1.519.621,2.431,2.431,0,0,1,.571,1.711,2.594,2.594,0,0,1-.318,1.292,2.228,2.228,0,0,1-.9.88,2.762,2.762,0,0,1-1.337.314,2.919,2.919,0,0,1-1.2-.237,3.181,3.181,0,0,1-.978-.7l.593-.583a2.528,2.528,0,0,0,.727.522,2.012,2.012,0,0,0,.847.17,1.423,1.423,0,0,0,1.105-.439,1.777,1.777,0,0,0,.4-1.243,1.6,1.6,0,0,0-.363-1.166,1.321,1.321,0,0,0-.978-.364,2.189,2.189,0,0,0-.529.061,2.751,2.751,0,0,0-.516.192h-.792v-3.707H387.8Z"/><path class="cls-15" d="M395.03,430.258a2.077,2.077,0,0,1,0,2.706,1.891,1.891,0,0,1-2.575,0,2.081,2.081,0,0,1,0-2.706,1.891,1.891,0,0,1,2.575,0Zm-1.98.506a1.848,1.848,0,0,0,0,1.688.739.739,0,0,0,.688.336q.89,0,.89-1.178a1.627,1.627,0,0,0-.2-.84.735.735,0,0,0-.692-.336A.743.743,0,0,0,393.05,430.764ZM398.2,429.4l.705.462-5.094,7.7-.7-.462Zm1.353,4.742a2.1,2.1,0,0,1,0,2.706,1.718,1.718,0,0,1-1.287.506,1.736,1.736,0,0,1-1.292-.506,2.077,2.077,0,0,1,0-2.706,1.74,1.74,0,0,1,1.292-.506A1.722,1.722,0,0,1,399.556,434.141Zm-1.975.511a1.569,1.569,0,0,0-.2.842,1.6,1.6,0,0,0,.2.841.741.741,0,0,0,.688.336q.892,0,.891-1.177a1.608,1.608,0,0,0-.2-.837.893.893,0,0,0-1.381,0Z"/><path class="cls-15" d="M75.312,434.207v-.858h3.113v.858Z"/><path class="cls-15" d="M84,430.726a6.722,6.722,0,0,1,0,5.648,2.222,2.222,0,0,1-3.684,0,6.732,6.732,0,0,1,0-5.648,2.229,2.229,0,0,1,3.684,0Zm-2.9.533a7.733,7.733,0,0,0,0,4.581,1.144,1.144,0,0,0,2.117,0,7.609,7.609,0,0,0,0-4.575,1.146,1.146,0,0,0-2.117-.006Z"/><path class="cls-15" d="M87.049,436.044a.73.73,0,0,1,.22.539,1.951,1.951,0,0,1-.2.78l-.738,1.684h-.725l.44-1.826a.766.766,0,0,1-.225-.276.781.781,0,0,1-.083-.362.751.751,0,0,1,.758-.76A.747.747,0,0,1,87.049,436.044Z"/><path class="cls-15" d="M91.382,429.861v7.36H90.37v-6.282l-1.715,1.045-.441-.714,2.277-1.409Z"/><path class="cls-15" d="M97.212,430.653H94.341v2.167a2.567,2.567,0,0,1,1.177-.285,1.964,1.964,0,0,1,1.518.621,2.432,2.432,0,0,1,.572,1.711,2.594,2.594,0,0,1-.319,1.292,2.226,2.226,0,0,1-.9.88,2.762,2.762,0,0,1-1.337.314,2.916,2.916,0,0,1-1.2-.237,3.185,3.185,0,0,1-.979-.7l.594-.583a2.514,2.514,0,0,0,.727.522,2.01,2.01,0,0,0,.846.17,1.424,1.424,0,0,0,1.106-.439,1.781,1.781,0,0,0,.4-1.243,1.6,1.6,0,0,0-.363-1.166,1.323,1.323,0,0,0-.979-.364,2.186,2.186,0,0,0-.528.061,2.785,2.785,0,0,0-.517.192h-.792v-3.707h3.982Z"/><path class="cls-15" d="M104.588,430.258a2.077,2.077,0,0,1,0,2.706,1.89,1.89,0,0,1-2.574,0,2.081,2.081,0,0,1,0-2.706,1.89,1.89,0,0,1,2.574,0Zm-1.979.506a1.848,1.848,0,0,0,0,1.688.737.737,0,0,0,.687.336q.891,0,.891-1.178a1.637,1.637,0,0,0-.2-.84.881.881,0,0,0-1.38-.006Zm5.153-1.365.7.462-5.094,7.7-.7-.462Zm1.353,4.742a2.1,2.1,0,0,1,0,2.706,1.9,1.9,0,0,1-2.58,0,2.077,2.077,0,0,1,0-2.706,1.9,1.9,0,0,1,2.58,0Zm-1.975.511a1.56,1.56,0,0,0-.2.842,1.6,1.6,0,0,0,.2.841.739.739,0,0,0,.687.336q.892,0,.892-1.177a1.608,1.608,0,0,0-.2-.837.893.893,0,0,0-1.381,0Z"/><path class="cls-15" d="M504.952,434.207v-.858h3.114v.858Z"/><path class="cls-15" d="M513.636,430.726a6.722,6.722,0,0,1,0,5.648,2.223,2.223,0,0,1-3.685,0,6.732,6.732,0,0,1,0-5.648,2.23,2.23,0,0,1,3.685,0Zm-2.9.533a7.733,7.733,0,0,0,0,4.581,1.144,1.144,0,0,0,2.117,0,7.629,7.629,0,0,0,0-4.575,1.146,1.146,0,0,0-2.117-.006Z"/><path class="cls-15" d="M516.69,436.044a.733.733,0,0,1,.219.539,1.934,1.934,0,0,1-.2.78l-.737,1.684h-.726l.441-1.826a.779.779,0,0,1-.226-.276.793.793,0,0,1-.083-.362.753.753,0,0,1,.759-.76A.749.749,0,0,1,516.69,436.044Z"/><path class="cls-15" d="M521.023,429.861v7.36h-1.012v-6.282l-1.716,1.045-.44-.714,2.277-1.409Z"/><path class="cls-15" d="M526.853,430.653h-2.871v2.167a2.563,2.563,0,0,1,1.176-.285,1.968,1.968,0,0,1,1.519.621,2.431,2.431,0,0,1,.571,1.711,2.594,2.594,0,0,1-.318,1.292,2.228,2.228,0,0,1-.9.88,2.758,2.758,0,0,1-1.336.314,2.92,2.92,0,0,1-1.2-.237,3.193,3.193,0,0,1-.978-.7l.594-.583a2.511,2.511,0,0,0,.726.522,2.012,2.012,0,0,0,.847.17,1.42,1.42,0,0,0,1.105-.439,1.777,1.777,0,0,0,.4-1.243,1.594,1.594,0,0,0-.364-1.166,1.321,1.321,0,0,0-.978-.364,2.18,2.18,0,0,0-.528.061,2.759,2.759,0,0,0-.517.192h-.792v-3.707H527Z"/><path class="cls-15" d="M534.229,430.258a2.077,2.077,0,0,1,0,2.706,1.89,1.89,0,0,1-2.574,0,2.081,2.081,0,0,1,0-2.706,1.89,1.89,0,0,1,2.574,0Zm-1.98.506a1.848,1.848,0,0,0,0,1.688.74.74,0,0,0,.688.336q.891,0,.89-1.178a1.627,1.627,0,0,0-.2-.84.735.735,0,0,0-.692-.336A.744.744,0,0,0,532.249,430.764ZM537.4,429.4l.7.462-5.094,7.7-.7-.462Zm1.352,4.742a2.1,2.1,0,0,1,0,2.706,1.718,1.718,0,0,1-1.287.506,1.737,1.737,0,0,1-1.292-.506,2.077,2.077,0,0,1,0-2.706,1.741,1.741,0,0,1,1.292-.506A1.722,1.722,0,0,1,538.755,434.141Zm-1.974.511a1.56,1.56,0,0,0-.2.842,1.6,1.6,0,0,0,.2.841.738.738,0,0,0,.687.336q.893,0,.892-1.177a1.608,1.608,0,0,0-.2-.837.892.892,0,0,0-1.38,0Z"/><path class="cls-15" d="M303.176,430.726a6.722,6.722,0,0,1,0,5.648,2.223,2.223,0,0,1-3.685,0,6.732,6.732,0,0,1,0-5.648,2.23,2.23,0,0,1,3.685,0Zm-2.9.533a7.733,7.733,0,0,0,0,4.581,1.144,1.144,0,0,0,2.117,0,7.629,7.629,0,0,0,0-4.575,1.146,1.146,0,0,0-2.117-.006Z"/><path class="cls-15" d="M306.23,436.044a.733.733,0,0,1,.219.539,1.934,1.934,0,0,1-.2.78l-.737,1.684h-.726l.441-1.826a.779.779,0,0,1-.226-.276.793.793,0,0,1-.083-.362.753.753,0,0,1,.759-.76A.749.749,0,0,1,306.23,436.044Z"/><path class="cls-15" d="M311.921,430.726a6.722,6.722,0,0,1,0,5.648,2.222,2.222,0,0,1-3.684,0,6.732,6.732,0,0,1,0-5.648,2.229,2.229,0,0,1,3.684,0Zm-2.9.533a7.733,7.733,0,0,0,0,4.581,1.144,1.144,0,0,0,2.117,0,7.609,7.609,0,0,0,0-4.575,1.146,1.146,0,0,0-2.117-.006Z"/><path class="cls-15" d="M319.632,430.258a2.077,2.077,0,0,1,0,2.706,1.89,1.89,0,0,1-2.574,0,2.081,2.081,0,0,1,0-2.706,1.89,1.89,0,0,1,2.574,0Zm-1.979.506a1.848,1.848,0,0,0,0,1.688.737.737,0,0,0,.687.336q.891,0,.891-1.178a1.637,1.637,0,0,0-.2-.84.881.881,0,0,0-1.38-.006Zm5.153-1.365.7.462-5.094,7.7-.7-.462Zm1.352,4.742a2.093,2.093,0,0,1,0,2.706,1.717,1.717,0,0,1-1.287.506,1.737,1.737,0,0,1-1.292-.506,2.077,2.077,0,0,1,0-2.706,1.741,1.741,0,0,1,1.292-.506A1.72,1.72,0,0,1,324.158,434.141Zm-1.974.511a1.56,1.56,0,0,0-.2.842,1.6,1.6,0,0,0,.2.841.739.739,0,0,0,.687.336q.893,0,.892-1.177a1.608,1.608,0,0,0-.2-.837.893.893,0,0,0-1.381,0Z"/><path class="cls-15" d="M448.514,430.726a6.722,6.722,0,0,1,0,5.648,2.223,2.223,0,0,1-3.685,0,6.732,6.732,0,0,1,0-5.648,2.23,2.23,0,0,1,3.685,0Zm-2.9.533a7.733,7.733,0,0,0,0,4.581,1.144,1.144,0,0,0,2.117,0,7.629,7.629,0,0,0,0-4.575,1.146,1.146,0,0,0-2.117-.006Z"/><path class="cls-15" d="M451.568,436.044a.733.733,0,0,1,.219.539,1.934,1.934,0,0,1-.2.78l-.737,1.684h-.726l.441-1.826a.8.8,0,0,1-.309-.638.753.753,0,0,1,.759-.76A.749.749,0,0,1,451.568,436.044Z"/><path class="cls-15" d="M455.9,429.861v7.36h-1.012v-6.282l-1.716,1.045-.44-.714,2.277-1.409Z"/><path class="cls-15" d="M463.6,430.258a2.077,2.077,0,0,1,0,2.706,1.89,1.89,0,0,1-2.574,0,2.081,2.081,0,0,1,0-2.706,1.89,1.89,0,0,1,2.574,0Zm-1.979.506a1.84,1.84,0,0,0,0,1.688.737.737,0,0,0,.687.336q.891,0,.891-1.178a1.627,1.627,0,0,0-.2-.84.88.88,0,0,0-1.379-.006Zm5.153-1.365.7.462-5.094,7.7-.7-.462Zm1.352,4.742a2.1,2.1,0,0,1,0,2.706,1.717,1.717,0,0,1-1.287.506,1.737,1.737,0,0,1-1.292-.506,2.077,2.077,0,0,1,0-2.706,1.741,1.741,0,0,1,1.292-.506A1.72,1.72,0,0,1,468.121,434.141Zm-1.974.511a1.56,1.56,0,0,0-.2.842,1.6,1.6,0,0,0,.2.841.739.739,0,0,0,.687.336q.892,0,.892-1.177a1.618,1.618,0,0,0-.2-.837.893.893,0,0,0-1.381,0Z"/><line class="cls-16" x1="324.062" y1="387.431" x2="324.873" y2="387.431"/><line class="cls-16" x1="324.062" y1="387.431" x2="323.134" y2="387.431"/><line class="cls-17" x1="299.607" y1="346.504" x2="300.07" y2="346.504"/><line class="cls-17" x1="299.607" y1="346.504" x2="299.027" y2="346.504"/><line class="cls-16" x1="361.15" y1="303.875" x2="363.004" y2="303.875"/><line class="cls-16" x1="361.15" y1="303.875" x2="359.295" y2="303.875"/><line class="cls-17" x1="304.011" y1="220.302" x2="304.127" y2="220.302"/><line class="cls-17" x1="304.011" y1="220.302" x2="303.895" y2="220.302"/><line class="cls-17" x1="280.367" y1="175.084" x2="281.294" y2="175.084"/><line class="cls-17" x1="280.367" y1="175.084" x2="279.556" y2="175.084"/><line class="cls-17" x1="249.422" y1="133.072" x2="251.624" y2="133.072"/><line class="cls-17" x1="249.422" y1="133.072" x2="247.336" y2="133.072"/><path class="cls-3" d="M328.284,387.431a4.2,4.2,0,1,1-4.2-4.2,4.2,4.2,0,0,1,4.2,4.2Z"/><path class="cls-2" d="M303.829,346.5a4.2,4.2,0,1,1-4.2-4.2,4.2,4.2,0,0,1,4.2,4.2Z"/><path class="cls-3" d="M365.372,303.875a4.2,4.2,0,1,1-4.2-4.2,4.2,4.2,0,0,1,4.2,4.2Z"/><path class="cls-2" d="M253.644,133.072a4.2,4.2,0,1,1-4.2-4.2,4.2,4.2,0,0,1,4.2,4.2Z"/><path class="cls-2" d="M284.625,175.084a4.2,4.2,0,1,1-4.2-4.2,4.2,4.2,0,0,1,4.2,4.2Z"/><path class="cls-3" d="M310.375,371.991v1.989h1.937v1.313h-1.937v1.989h-1.43v-1.989h-1.924V373.98h1.924v-1.989Z"/><path class="cls-3" d="M319.066,371.211a5.947,5.947,0,0,1,.8,3.367,6.008,6.008,0,0,1-.8,3.387,2.9,2.9,0,0,1-4.667,0,6.008,6.008,0,0,1-.8-3.387,5.946,5.946,0,0,1,.8-3.367,2.912,2.912,0,0,1,4.667,0Zm-3.413.839a6.687,6.687,0,0,0-.338,2.528,6.79,6.79,0,0,0,.338,2.548,1.151,1.151,0,0,0,2.158.007,6.808,6.808,0,0,0,.338-2.555,6.7,6.7,0,0,0-.338-2.535,1.155,1.155,0,0,0-2.158.007Z"/><path class="cls-3" d="M322.732,377.334a1.014,1.014,0,0,1,.3.754,1.768,1.768,0,0,1-.078.508,5.366,5.366,0,0,1-.26.662l-.845,1.925H320.84l.533-2.237a.984.984,0,0,1-.442-.871,1.021,1.021,0,0,1,1.04-1.04A1.046,1.046,0,0,1,322.732,377.334Z"/><path class="cls-3" d="M328.158,370.2v8.749H326.52v-7.072l-1.949,1.184-.729-1.119,2.848-1.742Z"/><path class="cls-3" d="M333.963,370.366a2.311,2.311,0,0,1,1.32,2.132,3.336,3.336,0,0,1-.319,1.424,6.552,6.552,0,0,1-1.059,1.515q-.742.831-2.171,2.2h3.744l-.183,1.313h-5.446v-1.221q1.662-1.691,2.385-2.5a7.525,7.525,0,0,0,1.027-1.391,2.554,2.554,0,0,0,.306-1.2,1.178,1.178,0,0,0-1.261-1.274,1.8,1.8,0,0,0-.891.214,3.052,3.052,0,0,0-.8.709l-1.014-.805a3.426,3.426,0,0,1,2.834-1.431A3.345,3.345,0,0,1,333.963,370.366Z"/><path class="cls-3" d="M345.662,372.921a4.613,4.613,0,0,1,.619,2.594,4.512,4.512,0,0,1-.67,2.606,2.189,2.189,0,0,1-1.917.968,2.383,2.383,0,0,1-1.106-.253,2.508,2.508,0,0,1-.832-.683v3.354l-.754.1v-9.464h.651l.064.989a2.741,2.741,0,0,1,.917-.832,2.379,2.379,0,0,1,1.176-.3A2.084,2.084,0,0,1,345.662,372.921Zm-.681,4.79a3.983,3.983,0,0,0,.493-2.2q0-2.888-1.807-2.887a1.808,1.808,0,0,0-1.059.312,3.748,3.748,0,0,0-.852.858v3.614a2.057,2.057,0,0,0,1.794,1.04A1.616,1.616,0,0,0,344.981,377.711Z"/><path class="cls-3" d="M348.964,378.03a.59.59,0,0,1,.176.435.609.609,0,0,1-.176.449.631.631,0,0,1-1.072-.449.576.576,0,0,1,.182-.435.615.615,0,0,1,.442-.176A.6.6,0,0,1,348.964,378.03Z"/><path class="cls-3" d="M358.2,372.914a5.427,5.427,0,0,1-.032,5.213,2.2,2.2,0,0,1-1.9.962,2.284,2.284,0,0,1-1.112-.273,2.54,2.54,0,0,1-.838-.728l-.078.858h-.663v-9.568l.753-.091v3.81A2.443,2.443,0,0,1,356.367,372,2.121,2.121,0,0,1,358.2,372.914Zm-.656,4.8a3.981,3.981,0,0,0,.5-2.2q0-2.888-1.833-2.887a1.805,1.805,0,0,0-1.053.306,3.415,3.415,0,0,0-.832.864v3.575a2.6,2.6,0,0,0,.781.8,1.83,1.83,0,0,0,1.013.292A1.614,1.614,0,0,0,357.544,377.718Z"/><path class="cls-3" d="M361.535,378.03a.586.586,0,0,1,.176.435.624.624,0,0,1-1.065.442.6.6,0,0,1-.183-.442.577.577,0,0,1,.183-.435.611.611,0,0,1,.441-.176A.6.6,0,0,1,361.535,378.03Z"/><path class="cls-3" d="M347.592,288.434v1.989h1.937v1.313h-1.937v1.989h-1.431v-1.989h-1.923v-1.313h1.923v-1.989Z"/><path class="cls-3" d="M356.283,287.654a5.947,5.947,0,0,1,.8,3.367,6.008,6.008,0,0,1-.8,3.387,2.9,2.9,0,0,1-4.667,0,6,6,0,0,1-.8-3.387,5.938,5.938,0,0,1,.8-3.367,2.912,2.912,0,0,1,4.667,0Zm-3.414.839a6.708,6.708,0,0,0-.337,2.528,6.816,6.816,0,0,0,.337,2.548,1.152,1.152,0,0,0,2.159.007,6.808,6.808,0,0,0,.338-2.555,6.7,6.7,0,0,0-.338-2.535,1.155,1.155,0,0,0-2.159.007Z"/><path class="cls-3" d="M359.949,293.777a1.014,1.014,0,0,1,.305.754,1.768,1.768,0,0,1-.078.508,5.781,5.781,0,0,1-.26.662l-.845,1.924h-1.014l.533-2.236a.984.984,0,0,1-.442-.871,1.021,1.021,0,0,1,1.04-1.04A1.049,1.049,0,0,1,359.949,293.777Z"/><path class="cls-3" d="M365.278,286.783a2.2,2.2,0,0,1,.949.806,2.064,2.064,0,0,1,.318,1.119,1.949,1.949,0,0,1-.455,1.319,2.409,2.409,0,0,1-1.248.734,2.265,2.265,0,0,1,1.43.624,2.01,2.01,0,0,1,.559,1.508,2.519,2.519,0,0,1-.383,1.365,2.67,2.67,0,0,1-1.1.969,3.743,3.743,0,0,1-1.69.357,3.477,3.477,0,0,1-2.834-1.261l.923-.884a3.144,3.144,0,0,0,.871.644,2.208,2.208,0,0,0,.949.2,1.577,1.577,0,0,0,1.125-.4,1.4,1.4,0,0,0,.423-1.072,1.323,1.323,0,0,0-.4-1.079,1.829,1.829,0,0,0-1.177-.324h-.689l.195-1.184h.468a1.45,1.45,0,0,0,1.02-.351,1.255,1.255,0,0,0,.384-.975,1.052,1.052,0,0,0-.351-.838,1.374,1.374,0,0,0-.936-.306,2.208,2.208,0,0,0-.923.189,3.135,3.135,0,0,0-.832.578l-.845-.923a3.874,3.874,0,0,1,2.743-1.118A3.47,3.47,0,0,1,365.278,286.783Z"/><path class="cls-3" d="M374.307,293.037a2.216,2.216,0,0,1-.4,1.293,2.765,2.765,0,0,1-1.138.917,4.072,4.072,0,0,1-1.709.337,3.941,3.941,0,0,1-1.678-.332,2.627,2.627,0,0,1-1.1-.9,2.231,2.231,0,0,1-.39-1.287,2.329,2.329,0,0,1,1.663-2.21,2.246,2.246,0,0,1-1.312-2.066,2.012,2.012,0,0,1,.383-1.216,2.426,2.426,0,0,1,1.04-.807,3.653,3.653,0,0,1,1.437-.279,3.836,3.836,0,0,1,1.442.261,2.353,2.353,0,0,1,1.035.766,1.956,1.956,0,0,1,.382,1.209,2.221,2.221,0,0,1-1.442,1.976A2.55,2.55,0,0,1,374.307,293.037Zm-2.094.948a1.216,1.216,0,0,0,.4-.948,1.267,1.267,0,0,0-.35-.944,3.6,3.6,0,0,0-1.248-.669l-.4-.143a1.834,1.834,0,0,0-1.053,1.729,1.226,1.226,0,0,0,.416.982,1.656,1.656,0,0,0,1.118.357A1.6,1.6,0,0,0,372.213,293.985Zm-2.034-6.031a1.263,1.263,0,0,0-.02,1.682,2.77,2.77,0,0,0,1,.553l.248.091a2.174,2.174,0,0,0,.721-.656,1.533,1.533,0,0,0,.215-.826,1.1,1.1,0,0,0-.325-.839,1.55,1.55,0,0,0-1.84,0Z"/><path class="cls-3" d="M384.439,289.364a4.613,4.613,0,0,1,.618,2.594,4.515,4.515,0,0,1-.67,2.606,2.19,2.19,0,0,1-1.917.968,2.381,2.381,0,0,1-1.105-.253,2.489,2.489,0,0,1-.832-.683v3.354l-.754.1V288.59h.65l.064.989a2.741,2.741,0,0,1,.917-.832,2.382,2.382,0,0,1,1.176-.3A2.083,2.083,0,0,1,384.439,289.364Zm-.682,4.79a3.983,3.983,0,0,0,.493-2.2q0-2.887-1.806-2.887a1.809,1.809,0,0,0-1.06.312,3.705,3.705,0,0,0-.851.858v3.614a2.055,2.055,0,0,0,1.793,1.04A1.616,1.616,0,0,0,383.757,294.154Z"/><path class="cls-3" d="M387.741,294.473a.586.586,0,0,1,.176.435.624.624,0,0,1-1.065.442.6.6,0,0,1-.183-.442.577.577,0,0,1,.183-.435.611.611,0,0,1,.441-.176A.6.6,0,0,1,387.741,294.473Z"/><path class="cls-3" d="M396.978,289.357a5.434,5.434,0,0,1-.032,5.213,2.2,2.2,0,0,1-1.905.962,2.284,2.284,0,0,1-1.112-.273,2.562,2.562,0,0,1-.838-.728l-.078.858h-.663v-9.568l.754-.091v3.81a2.442,2.442,0,0,1,2.041-1.093A2.121,2.121,0,0,1,396.978,289.357Zm-.656,4.8a3.981,3.981,0,0,0,.5-2.2q0-2.887-1.833-2.887a1.81,1.81,0,0,0-1.053.3,3.42,3.42,0,0,0-.832.865v3.575a2.606,2.606,0,0,0,.78.8,1.836,1.836,0,0,0,1.014.292A1.615,1.615,0,0,0,396.322,294.161Z"/><path class="cls-3" d="M400.312,294.473a.59.59,0,0,1,.176.435.625.625,0,0,1-1.066.442.6.6,0,0,1-.182-.442.576.576,0,0,1,.182-.435.614.614,0,0,1,.442-.176A.605.605,0,0,1,400.312,294.473Z"/><path class="cls-2" d="M233.885,121.18v-1.326h3.926v1.326Z"/><path class="cls-2" d="M244.526,116.851a5.947,5.947,0,0,1,.8,3.367,6.008,6.008,0,0,1-.8,3.387,2.9,2.9,0,0,1-4.667,0,6,6,0,0,1-.8-3.387,5.938,5.938,0,0,1,.8-3.367,2.912,2.912,0,0,1,4.667,0Zm-3.413.839a6.687,6.687,0,0,0-.338,2.528,6.787,6.787,0,0,0,.338,2.548,1.151,1.151,0,0,0,2.158.007,6.808,6.808,0,0,0,.338-2.555,6.7,6.7,0,0,0-.338-2.535,1.155,1.155,0,0,0-2.158.007Z"/><path class="cls-2" d="M248.192,122.974a1.014,1.014,0,0,1,.305.754,1.768,1.768,0,0,1-.078.508,5.533,5.533,0,0,1-.26.662l-.845,1.925H246.3l.533-2.237a.984.984,0,0,1-.442-.871,1.021,1.021,0,0,1,1.04-1.04A1.046,1.046,0,0,1,248.192,122.974Z"/><path class="cls-2" d="M253.522,115.98a2.2,2.2,0,0,1,.949.807,2.063,2.063,0,0,1,.318,1.118,1.948,1.948,0,0,1-.455,1.319,2.4,2.4,0,0,1-1.248.734,2.261,2.261,0,0,1,1.43.625,2.008,2.008,0,0,1,.559,1.507,2.516,2.516,0,0,1-.383,1.366,2.669,2.669,0,0,1-1.1.968,3.728,3.728,0,0,1-1.689.358,3.475,3.475,0,0,1-2.834-1.262l.922-.884a3.133,3.133,0,0,0,.872.644,2.186,2.186,0,0,0,.948.2,1.574,1.574,0,0,0,1.125-.4,1.4,1.4,0,0,0,.423-1.072,1.323,1.323,0,0,0-.4-1.079,1.827,1.827,0,0,0-1.177-.324H251.1l.195-1.184h.468a1.458,1.458,0,0,0,1.021-.35,1.261,1.261,0,0,0,.383-.976,1.054,1.054,0,0,0-.351-.838,1.373,1.373,0,0,0-.936-.3,2.208,2.208,0,0,0-.923.188,3.135,3.135,0,0,0-.832.578l-.844-.923a3.87,3.87,0,0,1,2.742-1.118A3.484,3.484,0,0,1,253.522,115.98Z"/><path class="cls-2" d="M261.419,116.6a3.653,3.653,0,0,1,.793,2.477,6.9,6.9,0,0,1-.533,2.918,4.15,4.15,0,0,1-1.639,1.813,10.086,10.086,0,0,1-2.924,1.106l-.351-1.184a7,7,0,0,0,2.606-1.176,2.934,2.934,0,0,0,1.06-1.969,2.27,2.27,0,0,1-1.872.91,2.345,2.345,0,0,1-1.241-.345,2.378,2.378,0,0,1-.891-.994,3.332,3.332,0,0,1-.325-1.509,2.975,2.975,0,0,1,.4-1.566,2.753,2.753,0,0,1,1.1-1.034,3.28,3.28,0,0,1,1.541-.364A2.846,2.846,0,0,1,261.419,116.6Zm-.91,2.788a4.066,4.066,0,0,0-.306-1.9,1.117,1.117,0,0,0-1.059-.565,1.238,1.238,0,0,0-1.014.442,1.932,1.932,0,0,0-.364,1.261,1.9,1.9,0,0,0,.345,1.26,1.129,1.129,0,0,0,.9.4A1.778,1.778,0,0,0,260.509,119.386Z"/><path class="cls-2" d="M272.384,118.561a4.616,4.616,0,0,1,.618,2.594,4.5,4.5,0,0,1-.67,2.606,2.188,2.188,0,0,1-1.917.968,2.381,2.381,0,0,1-1.105-.253,2.487,2.487,0,0,1-.832-.683v3.354l-.754.1v-9.463h.65l.065.988a2.731,2.731,0,0,1,.917-.832,2.389,2.389,0,0,1,1.176-.3A2.084,2.084,0,0,1,272.384,118.561Zm-.682,4.79a3.973,3.973,0,0,0,.494-2.2q0-2.887-1.807-2.887a1.811,1.811,0,0,0-1.06.313,3.739,3.739,0,0,0-.851.857v3.614a2.055,2.055,0,0,0,1.794,1.04A1.614,1.614,0,0,0,271.7,123.351Z"/><path class="cls-2" d="M275.686,123.67a.591.591,0,0,1,.176.435.625.625,0,0,1-1.066.442.6.6,0,0,1-.182-.442.578.578,0,0,1,.182-.435.613.613,0,0,1,.442-.175A.6.6,0,0,1,275.686,123.67Z"/><path class="cls-2" d="M284.922,118.554a5.427,5.427,0,0,1-.032,5.213,2.2,2.2,0,0,1-1.9.962,2.3,2.3,0,0,1-1.113-.272,2.565,2.565,0,0,1-.838-.729l-.078.858h-.663v-9.568l.754-.091v3.81a2.442,2.442,0,0,1,2.041-1.093A2.122,2.122,0,0,1,284.922,118.554Zm-.656,4.8a3.981,3.981,0,0,0,.5-2.2q0-2.887-1.833-2.887a1.812,1.812,0,0,0-1.053.306,3.4,3.4,0,0,0-.832.864v3.575a2.606,2.606,0,0,0,.78.8,1.836,1.836,0,0,0,1.014.292A1.615,1.615,0,0,0,284.266,123.358Z"/><path class="cls-2" d="M288.256,123.67a.591.591,0,0,1,.176.435.625.625,0,0,1-1.066.442.6.6,0,0,1-.182-.442.578.578,0,0,1,.182-.435.614.614,0,0,1,.442-.175A.6.6,0,0,1,288.256,123.67Z"/><rect class="cls-18" x="304.779" y="241.205" width="2.413" height="25.817"/><rect class="cls-18" x="304.779" y="154.268" width="2.413" height="16.583"/><rect class="cls-18" x="304.779" y="198.071" width="2.413" height="27.489"/><rect class="cls-18" x="304.779" y="325.176" width="2.413" height="17.526"/><path class="cls-2" d="M284.049,334.613v-1.326h3.926v1.326Z"/><path class="cls-2" d="M294.69,330.284a7.536,7.536,0,0,1,0,6.754,2.9,2.9,0,0,1-4.667,0,7.528,7.528,0,0,1,0-6.754,2.912,2.912,0,0,1,4.667,0Zm-3.413.839a6.687,6.687,0,0,0-.338,2.528,6.787,6.787,0,0,0,.338,2.548,1.151,1.151,0,0,0,2.158.007,6.808,6.808,0,0,0,.338-2.555,6.7,6.7,0,0,0-.338-2.535,1.155,1.155,0,0,0-2.158.007Z"/><path class="cls-2" d="M298.356,336.407a1.014,1.014,0,0,1,.305.754,1.768,1.768,0,0,1-.078.508,5.5,5.5,0,0,1-.259.662l-.846,1.925h-1.014L297,338.02a.987.987,0,0,1-.442-.872,1.021,1.021,0,0,1,1.04-1.04A1.046,1.046,0,0,1,298.356,336.407Z"/><path class="cls-2" d="M305.22,330.284a7.536,7.536,0,0,1,0,6.754,2.9,2.9,0,0,1-4.667,0,7.528,7.528,0,0,1,0-6.754,2.912,2.912,0,0,1,4.667,0Zm-3.413.839a6.687,6.687,0,0,0-.338,2.528,6.787,6.787,0,0,0,.338,2.548,1.151,1.151,0,0,0,2.158.007,6.787,6.787,0,0,0,.338-2.555,6.683,6.683,0,0,0-.338-2.535,1.155,1.155,0,0,0-2.158.007Z"/><path class="cls-2" d="M312.285,330.506h-3.276v2.171a2.935,2.935,0,0,1,1.326-.325,2.507,2.507,0,0,1,1.3.337,2.293,2.293,0,0,1,.891.975,3.331,3.331,0,0,1,.318,1.509,3.091,3.091,0,0,1-.4,1.586,2.772,2.772,0,0,1-1.145,1.072,3.675,3.675,0,0,1-1.716.384,3.55,3.55,0,0,1-1.54-.319,3.927,3.927,0,0,1-1.216-.917l.95-.883a2.316,2.316,0,0,0,1.767.832,1.512,1.512,0,0,0,1.164-.455,1.841,1.841,0,0,0,.422-1.3q0-1.626-1.4-1.625a2.1,2.1,0,0,0-.56.071,3.126,3.126,0,0,0-.572.228H307.41v-4.576h5.071Z"/><path class="cls-2" d="M323,331.994a4.616,4.616,0,0,1,.618,2.594,4.5,4.5,0,0,1-.67,2.606,2.188,2.188,0,0,1-1.917.968,2.381,2.381,0,0,1-1.105-.253,2.506,2.506,0,0,1-.832-.682v3.353l-.754.105v-9.464h.65l.065.988a2.751,2.751,0,0,1,.917-.832,2.389,2.389,0,0,1,1.176-.3A2.084,2.084,0,0,1,323,331.994Zm-.681,4.79a3.98,3.98,0,0,0,.493-2.2q0-2.887-1.807-2.887a1.806,1.806,0,0,0-1.059.313,3.742,3.742,0,0,0-.852.857v3.614a2.055,2.055,0,0,0,1.794,1.04A1.617,1.617,0,0,0,322.322,336.784Z"/><path class="cls-2" d="M326.305,337.1a.587.587,0,0,1,.176.434.6.6,0,0,1-.624.624.621.621,0,0,1-.624-.624.574.574,0,0,1,.182-.434.61.61,0,0,1,.442-.176A.6.6,0,0,1,326.305,337.1Z"/><path class="cls-2" d="M335.541,331.987a5.427,5.427,0,0,1-.032,5.213,2.2,2.2,0,0,1-1.9.962,2.3,2.3,0,0,1-1.113-.272,2.551,2.551,0,0,1-.837-.729l-.079.859h-.663v-9.569l.754-.091v3.81a2.442,2.442,0,0,1,2.041-1.093A2.122,2.122,0,0,1,335.541,331.987Zm-.656,4.8a3.979,3.979,0,0,0,.5-2.2q0-2.887-1.833-2.887a1.812,1.812,0,0,0-1.053.306,3.4,3.4,0,0,0-.832.864v3.575a2.6,2.6,0,0,0,.781.8,1.83,1.83,0,0,0,1.013.292A1.615,1.615,0,0,0,334.885,336.791Z"/><path class="cls-2" d="M338.875,337.1a.587.587,0,0,1,.176.434.6.6,0,0,1-.624.624.623.623,0,0,1-.624-.624.575.575,0,0,1,.183-.434.607.607,0,0,1,.441-.176A.6.6,0,0,1,338.875,337.1Z"/><line class="cls-16" x1="308.879" y1="262.017" x2="309.342" y2="262.017"/><line class="cls-16" x1="308.879" y1="262.017" x2="308.415" y2="262.017"/><path class="cls-3" d="M313.1,262.017a4.2,4.2,0,1,1-4.2-4.2,4.2,4.2,0,0,1,4.2,4.2Z"/><path class="cls-3" d="M295.4,246.577v1.989h1.936v1.312H295.4v1.99h-1.431v-1.99h-1.924v-1.312h1.924v-1.989Z"/><path class="cls-3" d="M304.089,245.8a7.536,7.536,0,0,1,0,6.754,2.9,2.9,0,0,1-4.667,0,7.528,7.528,0,0,1,0-6.754,2.912,2.912,0,0,1,4.667,0Zm-3.413.839a6.689,6.689,0,0,0-.338,2.529,6.784,6.784,0,0,0,.338,2.547,1.151,1.151,0,0,0,2.158.007,6.781,6.781,0,0,0,.338-2.554,6.689,6.689,0,0,0-.338-2.536,1.155,1.155,0,0,0-2.158.007Z"/><path class="cls-3" d="M307.755,251.919a1.018,1.018,0,0,1,.306.754,1.8,1.8,0,0,1-.078.508,5.64,5.64,0,0,1-.26.662l-.846,1.925h-1.013l.533-2.236a.986.986,0,0,1-.443-.871,1.02,1.02,0,0,1,1.04-1.04A1.045,1.045,0,0,1,307.755,251.919Z"/><path class="cls-3" d="M314.618,245.8a7.536,7.536,0,0,1,0,6.754,2.9,2.9,0,0,1-4.667,0,7.536,7.536,0,0,1,0-6.754,2.912,2.912,0,0,1,4.667,0Zm-3.413.839a6.71,6.71,0,0,0-.338,2.529,6.805,6.805,0,0,0,.338,2.547,1.152,1.152,0,0,0,2.159.007,6.806,6.806,0,0,0,.337-2.554,6.715,6.715,0,0,0-.337-2.536,1.155,1.155,0,0,0-2.159.007Z"/><path class="cls-3" d="M320.533,244.952a2.308,2.308,0,0,1,1.32,2.131,3.333,3.333,0,0,1-.319,1.424,6.521,6.521,0,0,1-1.059,1.515q-.741.833-2.171,2.2h3.744l-.182,1.314h-5.447V252.31q1.664-1.691,2.385-2.5a7.557,7.557,0,0,0,1.027-1.39,2.558,2.558,0,0,0,.306-1.2,1.178,1.178,0,0,0-1.261-1.273,1.787,1.787,0,0,0-.89.214,3.036,3.036,0,0,0-.8.709l-1.014-.806a3.426,3.426,0,0,1,2.834-1.431A3.343,3.343,0,0,1,320.533,244.952Z"/><path class="cls-3" d="M332.233,247.506a4.618,4.618,0,0,1,.618,2.594,4.516,4.516,0,0,1-.67,2.607,2.19,2.19,0,0,1-1.917.967,2.388,2.388,0,0,1-1.106-.253,2.506,2.506,0,0,1-.832-.682v3.353l-.753.105v-9.464h.65l.064.988a2.751,2.751,0,0,1,.917-.832,2.392,2.392,0,0,1,1.176-.3A2.086,2.086,0,0,1,332.233,247.506Zm-.682,4.79a3.98,3.98,0,0,0,.493-2.2q0-2.887-1.806-2.887a1.809,1.809,0,0,0-1.06.313,3.742,3.742,0,0,0-.852.857V252a2.058,2.058,0,0,0,1.794,1.04A1.614,1.614,0,0,0,331.551,252.3Z"/><path class="cls-3" d="M335.534,252.616a.583.583,0,0,1,.176.434.6.6,0,0,1-.624.624.621.621,0,0,1-.624-.624.575.575,0,0,1,.183-.434.611.611,0,0,1,.441-.176A.6.6,0,0,1,335.534,252.616Z"/><path class="cls-3" d="M344.772,247.5a5.432,5.432,0,0,1-.032,5.212,2.2,2.2,0,0,1-1.905.962,2.294,2.294,0,0,1-1.112-.272,2.565,2.565,0,0,1-.838-.729l-.078.859h-.663v-9.569l.754-.09v3.809a2.444,2.444,0,0,1,2.041-1.093A2.122,2.122,0,0,1,344.772,247.5Zm-.656,4.8a3.979,3.979,0,0,0,.5-2.2q0-2.887-1.833-2.887a1.81,1.81,0,0,0-1.053.306,3.4,3.4,0,0,0-.832.864v3.575a2.6,2.6,0,0,0,.78.8,1.828,1.828,0,0,0,1.014.292A1.615,1.615,0,0,0,344.116,252.3Z"/><path class="cls-3" d="M348.106,252.616a.587.587,0,0,1,.176.434.611.611,0,0,1-.176.45.632.632,0,0,1-1.073-.45.575.575,0,0,1,.183-.434.614.614,0,0,1,.442-.176A.605.605,0,0,1,348.106,252.616Z"/><path class="cls-2" d="M308.269,220.3a4.2,4.2,0,1,1-4.2-4.2,4.2,4.2,0,0,1,4.2,4.2Z"/><path class="cls-2" d="M288.507,208.41v-1.326h3.926v1.326Z"/><path class="cls-2" d="M299.148,204.081a5.947,5.947,0,0,1,.8,3.367,6.008,6.008,0,0,1-.8,3.387,2.9,2.9,0,0,1-4.667,0,6.008,6.008,0,0,1-.8-3.387,5.946,5.946,0,0,1,.8-3.367,2.912,2.912,0,0,1,4.667,0Zm-3.413.839a6.687,6.687,0,0,0-.338,2.528,6.787,6.787,0,0,0,.338,2.548,1.151,1.151,0,0,0,2.158.007,6.808,6.808,0,0,0,.338-2.555,6.7,6.7,0,0,0-.338-2.535,1.155,1.155,0,0,0-2.158.007Z"/><path class="cls-2" d="M302.814,210.2a1.014,1.014,0,0,1,.305.754,1.768,1.768,0,0,1-.078.508,5.5,5.5,0,0,1-.259.662l-.846,1.925h-1.014l.533-2.237a.984.984,0,0,1-.442-.871,1.021,1.021,0,0,1,1.04-1.04A1.046,1.046,0,0,1,302.814,210.2Z"/><path class="cls-2" d="M309.678,204.081a5.947,5.947,0,0,1,.8,3.367,6.008,6.008,0,0,1-.8,3.387,2.9,2.9,0,0,1-4.667,0,6.008,6.008,0,0,1-.8-3.387,5.946,5.946,0,0,1,.8-3.367,2.912,2.912,0,0,1,4.667,0Zm-3.413.839a6.687,6.687,0,0,0-.338,2.528,6.787,6.787,0,0,0,.338,2.548,1.151,1.151,0,0,0,2.158.007,6.787,6.787,0,0,0,.338-2.555,6.683,6.683,0,0,0-.338-2.535,1.155,1.155,0,0,0-2.158.007Z"/><path class="cls-2" d="M315.593,203.236a2.313,2.313,0,0,1,1.319,2.132,3.335,3.335,0,0,1-.318,1.424,6.529,6.529,0,0,1-1.06,1.515q-.741.831-2.17,2.2h3.744l-.183,1.313h-5.446V210.6q1.662-1.691,2.385-2.5a7.525,7.525,0,0,0,1.027-1.391,2.554,2.554,0,0,0,.306-1.2,1.177,1.177,0,0,0-1.261-1.273,1.8,1.8,0,0,0-.891.213,3.07,3.07,0,0,0-.8.709l-1.013-.8a3.425,3.425,0,0,1,2.834-1.431A3.358,3.358,0,0,1,315.593,203.236Z"/><path class="cls-2" d="M327.292,205.791a4.616,4.616,0,0,1,.618,2.594,4.51,4.51,0,0,1-.669,2.606,2.189,2.189,0,0,1-1.917.968,2.383,2.383,0,0,1-1.106-.253,2.5,2.5,0,0,1-.832-.683v3.354l-.754.1v-9.463h.651l.064.988a2.741,2.741,0,0,1,.917-.832,2.389,2.389,0,0,1,1.176-.3A2.084,2.084,0,0,1,327.292,205.791Zm-.681,4.79a3.983,3.983,0,0,0,.493-2.2q0-2.887-1.807-2.887a1.806,1.806,0,0,0-1.059.313,3.742,3.742,0,0,0-.852.857v3.614a2.055,2.055,0,0,0,1.794,1.04A1.616,1.616,0,0,0,326.611,210.581Z"/><path class="cls-2" d="M330.594,210.9a.591.591,0,0,1,.176.435.625.625,0,0,1-1.066.442.6.6,0,0,1-.182-.442.578.578,0,0,1,.182-.435.613.613,0,0,1,.442-.175A.6.6,0,0,1,330.594,210.9Z"/><path class="cls-2" d="M339.83,205.784A5.427,5.427,0,0,1,339.8,211a2.2,2.2,0,0,1-1.9.962,2.294,2.294,0,0,1-1.112-.272,2.555,2.555,0,0,1-.838-.729l-.078.858H335.2v-9.568l.754-.091v3.81A2.442,2.442,0,0,1,338,204.874,2.122,2.122,0,0,1,339.83,205.784Zm-.656,4.8a3.981,3.981,0,0,0,.5-2.2q0-2.887-1.833-2.887a1.812,1.812,0,0,0-1.053.306,3.4,3.4,0,0,0-.832.864v3.575a2.6,2.6,0,0,0,.781.8,1.83,1.83,0,0,0,1.013.292A1.614,1.614,0,0,0,339.174,210.588Z"/><path class="cls-2" d="M343.164,210.9a.587.587,0,0,1,.176.435.624.624,0,1,1-1.248,0,.578.578,0,0,1,.183-.435.61.61,0,0,1,.441-.175A.6.6,0,0,1,343.164,210.9Z"/><path class="cls-2" d="M264.523,163.194v-1.326h3.926v1.326Z"/><path class="cls-2" d="M275.163,158.865a5.939,5.939,0,0,1,.8,3.367,6,6,0,0,1-.8,3.387,2.9,2.9,0,0,1-4.667,0,6.01,6.01,0,0,1-.8-3.387,5.947,5.947,0,0,1,.8-3.367,2.912,2.912,0,0,1,4.667,0Zm-3.413.839a6.7,6.7,0,0,0-.338,2.528,6.811,6.811,0,0,0,.338,2.548,1.151,1.151,0,0,0,2.158.007,6.787,6.787,0,0,0,.338-2.555,6.683,6.683,0,0,0-.338-2.535,1.155,1.155,0,0,0-2.158.007Z"/><path class="cls-2" d="M278.829,164.988a1.012,1.012,0,0,1,.306.754,1.768,1.768,0,0,1-.078.508,5.781,5.781,0,0,1-.26.662l-.846,1.924h-1.013l.533-2.236a.984.984,0,0,1-.442-.871,1.02,1.02,0,0,1,1.04-1.04A1.045,1.045,0,0,1,278.829,164.988Z"/><path class="cls-2" d="M284.257,157.851V166.6h-1.639v-7.072l-1.949,1.183-.728-1.118,2.847-1.742Z"/><path class="cls-2" d="M292.408,164.248a2.209,2.209,0,0,1-.4,1.293,2.752,2.752,0,0,1-1.138.917,4.068,4.068,0,0,1-1.709.337,3.936,3.936,0,0,1-1.677-.332,2.63,2.63,0,0,1-1.105-.9,2.23,2.23,0,0,1-.389-1.287,2.327,2.327,0,0,1,1.663-2.21A2.247,2.247,0,0,1,286.337,160a2.007,2.007,0,0,1,.384-1.216,2.426,2.426,0,0,1,1.04-.807,3.653,3.653,0,0,1,1.437-.279,3.84,3.84,0,0,1,1.442.261,2.35,2.35,0,0,1,1.034.766,1.95,1.95,0,0,1,.383,1.209,2.222,2.222,0,0,1-1.442,1.976A2.548,2.548,0,0,1,292.408,164.248Zm-2.093.948a1.219,1.219,0,0,0,.4-.948,1.264,1.264,0,0,0-.351-.944,3.6,3.6,0,0,0-1.248-.669l-.4-.143a1.836,1.836,0,0,0-1.053,1.729,1.229,1.229,0,0,0,.416.982,1.661,1.661,0,0,0,1.119.357A1.605,1.605,0,0,0,290.315,165.2Zm-2.034-6.031a1.26,1.26,0,0,0-.02,1.682,2.77,2.77,0,0,0,1,.553l.247.091a2.17,2.17,0,0,0,.722-.657,1.535,1.535,0,0,0,.215-.825,1.1,1.1,0,0,0-.326-.839,1.549,1.549,0,0,0-1.839,0Z"/><path class="cls-2" d="M302.54,160.575a4.612,4.612,0,0,1,.618,2.593,4.516,4.516,0,0,1-.669,2.607,2.192,2.192,0,0,1-1.917.968,2.383,2.383,0,0,1-1.106-.253,2.508,2.508,0,0,1-.832-.683v3.354l-.754.1V159.8h.651l.064.989a2.741,2.741,0,0,1,.917-.832,2.379,2.379,0,0,1,1.176-.3A2.082,2.082,0,0,1,302.54,160.575Zm-.681,4.79a3.984,3.984,0,0,0,.493-2.2q0-2.886-1.807-2.886a1.805,1.805,0,0,0-1.059.312,3.728,3.728,0,0,0-.852.858v3.614a2.057,2.057,0,0,0,1.794,1.04A1.616,1.616,0,0,0,301.859,165.365Z"/><path class="cls-2" d="M305.842,165.684a.59.59,0,0,1,.176.435.625.625,0,0,1-1.066.442.6.6,0,0,1-.182-.442.576.576,0,0,1,.182-.435.615.615,0,0,1,.442-.176A.605.605,0,0,1,305.842,165.684Z"/><path class="cls-2" d="M315.079,160.568a5.427,5.427,0,0,1-.032,5.213,2.2,2.2,0,0,1-1.9.962,2.284,2.284,0,0,1-1.112-.273,2.552,2.552,0,0,1-.838-.728l-.078.858h-.664v-9.568l.754-.091v3.809a2.443,2.443,0,0,1,2.041-1.092A2.12,2.12,0,0,1,315.079,160.568Zm-.656,4.8a3.983,3.983,0,0,0,.5-2.2q0-2.886-1.833-2.886a1.812,1.812,0,0,0-1.053.3,3.42,3.42,0,0,0-.832.865v3.575a2.609,2.609,0,0,0,.781.8,1.83,1.83,0,0,0,1.013.292A1.614,1.614,0,0,0,314.423,165.372Z"/><path class="cls-2" d="M318.413,165.684a.586.586,0,0,1,.176.435.624.624,0,1,1-1.248,0,.577.577,0,0,1,.183-.435.611.611,0,0,1,.441-.176A.6.6,0,0,1,318.413,165.684Z"/><use width="198.127" height="26.528" transform="translate(187.772 49.636) scale(1.2)" xlink:href="#Legenda_šipek"/></svg>