<svg id="Layer_1" data-name="Layer 1" xmlns="http://www.w3.org/2000/svg" xmlns:xlink="http://www.w3.org/1999/xlink" viewBox="0 0 620 492.392"><defs><style>.cls-1,.cls-10,.cls-11,.cls-14,.cls-17,.cls-4,.cls-5,.cls-6,.cls-7,.cls-8,.cls-9{fill:none;}.cls-1{stroke:#231f20;stroke-miterlimit:10;}.cls-1,.cls-10,.cls-11,.cls-14,.cls-4,.cls-5,.cls-6,.cls-7,.cls-8,.cls-9{stroke-width:0.75px;}.cls-2{fill:#d44060;}.cls-3{fill:#2d81b9;}.cls-10,.cls-11,.cls-4,.cls-5,.cls-6,.cls-7,.cls-8,.cls-9{stroke:#c7c7c7;}.cls-10,.cls-11,.cls-16,.cls-17,.cls-4,.cls-5,.cls-6,.cls-7,.cls-8,.cls-9{stroke-linecap:round;}.cls-10,.cls-11,.cls-14,.cls-16,.cls-17,.cls-4,.cls-5,.cls-6,.cls-7,.cls-8,.cls-9{stroke-linejoin:round;}.cls-5{stroke-dasharray:1.975 3.949;}.cls-6{stroke-dasharray:2.022 4.044;}.cls-7{stroke-dasharray:1.964 3.929;}.cls-8{stroke-dasharray:1.971 3.942;}.cls-9{stroke-dasharray:1.995 3.99;}.cls-10{stroke-dasharray:1.978 3.956;}.cls-11{stroke-dasharray:1.99 3.98;}.cls-12{isolation:isolate;}.cls-13{fill:#999;}.cls-14{stroke:#999;}.cls-15{fill:#666;}.cls-16{fill:#d1daed;stroke:#d1daed;}.cls-16,.cls-17{stroke-width:8.5px;}.cls-17{stroke:#f0d8db;}.cls-18{fill:#fff;}</style><symbol id="Legenda_šipek" data-name="Legenda šipek" viewBox="0 0 198.127 26.528"><line class="cls-1" x1="110.037" y1="22.11" x2="124.74" y2="22.11"/><polyline class="cls-1" points="120.587 26.263 124.74 22.11 120.587 17.957"/><line class="cls-1" x1="87.06" y1="22.11" x2="72.357" y2="22.11"/><polyline class="cls-1" points="76.511 17.957 72.357 22.11 76.511 26.263"/><path class="cls-2" d="M5.634,4.218A2.009,2.009,0,0,1,6.108,5.64v4.6H4.572V5.88a1.219,1.219,0,0,0-.2-.792.729.729,0,0,0-.582-.228,1.138,1.138,0,0,0-.714.246,2.807,2.807,0,0,0-.618.714v4.416H.924V3.888H2.256l.12.828A2.359,2.359,0,0,1,4.308,3.708,1.721,1.721,0,0,1,5.634,4.218Z"/><path class="cls-2" d="M9.354.942a.909.909,0,0,1,.27.666.889.889,0,0,1-.27.66.964.964,0,0,1-.7.264.944.944,0,0,1-.689-.264.882.882,0,0,1-.271-.66A.9.9,0,0,1,7.962.942a.932.932,0,0,1,.689-.27A.952.952,0,0,1,9.354.942Zm.078,2.946v6.348H7.9V3.888Z"/><path class="cls-2" d="M15.407,3.888v1.1L12.336,9.036h3.132l-.156,1.2H10.571v-1.1l3.084-4.044H10.836v-1.2ZM14.628.636l.588.672-1.668,1.5h-.96l-1.668-1.5.588-.672,1.559,1.056Z"/><path class="cls-2" d="M20.831,4.464l-.6.9a2.979,2.979,0,0,0-1.6-.516,1.233,1.233,0,0,0-.708.174.536.536,0,0,0-.252.462.589.589,0,0,0,.107.36.981.981,0,0,0,.391.27,6.475,6.475,0,0,0,.834.282,3.661,3.661,0,0,1,1.529.732,1.638,1.638,0,0,1,.5,1.272,1.707,1.707,0,0,1-.767,1.482,3.265,3.265,0,0,1-1.909.534,4.024,4.024,0,0,1-1.421-.24,3.467,3.467,0,0,1-1.111-.66l.769-.864a2.83,2.83,0,0,0,1.727.624,1.468,1.468,0,0,0,.823-.2.642.642,0,0,0,.3-.564.756.756,0,0,0-.113-.438.945.945,0,0,0-.408-.288,8.642,8.642,0,0,0-.918-.306,3.07,3.07,0,0,1-1.429-.738,1.637,1.637,0,0,1-.455-1.182,1.564,1.564,0,0,1,.306-.948,2.03,2.03,0,0,1,.864-.66,3.207,3.207,0,0,1,1.277-.24A3.567,3.567,0,0,1,20.831,4.464ZM20.172.636l.588.672-1.668,1.5h-.96l-1.668-1.5.588-.672,1.559,1.056Z"/><path class="cls-2" d="M23.963.4l.624,1.2-2.712,1.08-.432-.78Zm-.144,3.492v6.348H22.283V3.888Z"/><path class="cls-2" d="M33.732,4.584a4.457,4.457,0,0,1,.577,2.46,4.826,4.826,0,0,1-.295,1.746,2.653,2.653,0,0,1-.864,1.194,2.169,2.169,0,0,1-1.35.432,1.98,1.98,0,0,1-1.6-.7v2.964l-1.536.168V3.888h1.344l.084.78a2.488,2.488,0,0,1,.852-.72,2.225,2.225,0,0,1,1.008-.24A1.977,1.977,0,0,1,33.732,4.584ZM32.7,7.056a3.508,3.508,0,0,0-.3-1.68.976.976,0,0,0-.9-.516,1.237,1.237,0,0,0-.72.234,2.043,2.043,0,0,0-.576.63V8.58a1.348,1.348,0,0,0,1.164.66Q32.7,9.24,32.7,7.056Z"/><path class="cls-2" d="M40.6,4.6a3.593,3.593,0,0,1,.786,2.454,4.057,4.057,0,0,1-.361,1.758A2.733,2.733,0,0,1,39.995,10a2.945,2.945,0,0,1-1.6.42,2.783,2.783,0,0,1-2.2-.894,3.594,3.594,0,0,1-.792-2.466,4.032,4.032,0,0,1,.36-1.752A2.729,2.729,0,0,1,36.81,4.128a2.977,2.977,0,0,1,1.6-.42A2.765,2.765,0,0,1,40.6,4.6ZM37.031,7.056a3.163,3.163,0,0,0,.342,1.662,1.25,1.25,0,0,0,2.053-.006,3.168,3.168,0,0,0,.342-1.656,3.134,3.134,0,0,0-.342-1.65,1.129,1.129,0,0,0-1.015-.534Q37.031,4.872,37.031,7.056Z"/><path class="cls-2" d="M48.167,1.344v8.892H46.812l-.109-.8a2.222,2.222,0,0,1-.762.72,2.077,2.077,0,0,1-1.049.264,2.043,2.043,0,0,1-1.788-.9,4.233,4.233,0,0,1-.625-2.448,4.543,4.543,0,0,1,.312-1.734,2.731,2.731,0,0,1,.9-1.194,2.255,2.255,0,0,1,2.945.252V1.176Zm-2.124,7.71a2.041,2.041,0,0,0,.588-.618v-2.9a2.2,2.2,0,0,0-.558-.5,1.251,1.251,0,0,0-.654-.168,1.1,1.1,0,0,0-.966.546,3.075,3.075,0,0,0-.353,1.65,3.389,3.389,0,0,0,.311,1.686,1,1,0,0,0,.912.51A1.315,1.315,0,0,0,46.043,9.054Z"/><path class="cls-2" d="M51.923.4l.624,1.2-2.712,1.08L49.4,1.9Zm-.144,3.492v6.348H50.243V3.888Z"/><path class="cls-2" d="M54.138,9.99a1.655,1.655,0,0,1-.414-1.206V1.344l1.536-.168v7.56c0,.3.119.444.359.444a1.133,1.133,0,0,0,.36-.06L56.3,10.2a2.462,2.462,0,0,1-1.021.216A1.52,1.52,0,0,1,54.138,9.99Z"/><path class="cls-2" d="M65.027,4.224a1.994,1.994,0,0,1,.481,1.416v4.6H63.972V5.88a1.218,1.218,0,0,0-.2-.792.728.728,0,0,0-.582-.228,1.148,1.148,0,0,0-.708.246,2.845,2.845,0,0,0-.624.7v4.428H60.323V1.356L61.859,1.2V4.644a2.318,2.318,0,0,1,1.848-.936A1.713,1.713,0,0,1,65.027,4.224Z"/><path class="cls-2" d="M67.649,9.99a1.659,1.659,0,0,1-.414-1.206V1.344l1.536-.168v7.56q0,.444.36.444a1.133,1.133,0,0,0,.36-.06l.324,1.08a2.457,2.457,0,0,1-1.02.216A1.524,1.524,0,0,1,67.649,9.99Z"/><path class="cls-2" d="M75.582,9.1a.722.722,0,0,0,.365.27l-.323,1.02a1.971,1.971,0,0,1-.883-.264,1.353,1.353,0,0,1-.521-.66,2.037,2.037,0,0,1-.811.714,2.465,2.465,0,0,1-1.086.234,2.053,2.053,0,0,1-1.5-.54,1.892,1.892,0,0,1-.552-1.416,1.832,1.832,0,0,1,.75-1.578,3.6,3.6,0,0,1,2.142-.546h.792v-.36a1.1,1.1,0,0,0-.281-.858,1.365,1.365,0,0,0-.906-.246,5.35,5.35,0,0,0-1.68.336l-.36-1.044a6.407,6.407,0,0,1,2.3-.456q2.436,0,2.437,2.184V8.556A1.019,1.019,0,0,0,75.582,9.1ZM73.955,8.52V7.236h-.636q-1.488,0-1.487,1.1a1.013,1.013,0,0,0,.228.708.859.859,0,0,0,.671.252A1.358,1.358,0,0,0,73.955,8.52Z"/><path class="cls-2" d="M81.467,4.464l-.6.9a2.982,2.982,0,0,0-1.6-.516,1.235,1.235,0,0,0-.708.174.538.538,0,0,0-.251.462.589.589,0,0,0,.107.36.981.981,0,0,0,.391.27,6.421,6.421,0,0,0,.834.282,3.661,3.661,0,0,1,1.529.732,1.638,1.638,0,0,1,.5,1.272A1.706,1.706,0,0,1,80.9,9.882,3.26,3.26,0,0,1,79,10.416a4.033,4.033,0,0,1-1.422-.24,3.462,3.462,0,0,1-1.11-.66l.768-.864a2.833,2.833,0,0,0,1.728.624,1.462,1.462,0,0,0,.822-.2.642.642,0,0,0,.306-.564.756.756,0,0,0-.113-.438.949.949,0,0,0-.409-.288,8.563,8.563,0,0,0-.918-.306,3.066,3.066,0,0,1-1.428-.738,1.637,1.637,0,0,1-.455-1.182,1.569,1.569,0,0,1,.305-.948,2.034,2.034,0,0,1,.865-.66,3.2,3.2,0,0,1,1.277-.24A3.571,3.571,0,0,1,81.467,4.464Z"/><path class="cls-2" d="M88,10.236H86.663l-.084-.888a2.347,2.347,0,0,1-.822.8,2.27,2.27,0,0,1-1.122.264,1.662,1.662,0,0,1-1.314-.522,2.107,2.107,0,0,1-.462-1.446V3.888H84.4V8.256a1.229,1.229,0,0,0,.185.768.723.723,0,0,0,.594.228,1.55,1.55,0,0,0,1.284-.9V3.888H88ZM86.531.414a1.379,1.379,0,0,1,.42,1.026,1.379,1.379,0,0,1-.426,1.02,1.5,1.5,0,0,1-1.1.42,1.513,1.513,0,0,1-1.11-.42,1.378,1.378,0,0,1-.425-1.02A1.372,1.372,0,0,1,84.317.414,1.525,1.525,0,0,1,85.427,0,1.5,1.5,0,0,1,86.531.414ZM85,.972a.662.662,0,0,0-.156.468A.639.639,0,0,0,85,1.9a.572.572,0,0,0,.432.162.556.556,0,0,0,.42-.162A.639.639,0,0,0,86,1.44a.662.662,0,0,0-.156-.468A.545.545,0,0,0,85.427.8.56.56,0,0,0,85,.972Z"/><path class="cls-3" d="M113.24,3.888l-2.064,6.348H109.34l-2.1-6.348h1.668L110.264,9l1.392-5.112Z"/><path class="cls-3" d="M117.26,10.26a3.9,3.9,0,0,1-1.164,1.83,3.705,3.705,0,0,1-2.136.762l-.156-1.116a3.84,3.84,0,0,0,1-.27,1.62,1.62,0,0,0,.606-.462,3.156,3.156,0,0,0,.42-.768H115.3l-2.016-6.348h1.632l1.38,5.328,1.439-5.328h1.584Z"/><path class="cls-3" d="M124.424,4.464l-.6.9a2.981,2.981,0,0,0-1.595-.516,1.23,1.23,0,0,0-.708.174.536.536,0,0,0-.252.462.589.589,0,0,0,.107.36.981.981,0,0,0,.391.27,6.421,6.421,0,0,0,.834.282,3.661,3.661,0,0,1,1.529.732,1.638,1.638,0,0,1,.5,1.272,1.706,1.706,0,0,1-.768,1.482,3.26,3.26,0,0,1-1.908.534,4.033,4.033,0,0,1-1.422-.24,3.462,3.462,0,0,1-1.11-.66l.768-.864a2.833,2.833,0,0,0,1.728.624,1.462,1.462,0,0,0,.822-.2.642.642,0,0,0,.306-.564.756.756,0,0,0-.113-.438.949.949,0,0,0-.409-.288,8.485,8.485,0,0,0-.918-.306,3.066,3.066,0,0,1-1.428-.738,1.637,1.637,0,0,1-.455-1.182,1.569,1.569,0,0,1,.3-.948,2.034,2.034,0,0,1,.865-.66,3.2,3.2,0,0,1,1.277-.24A3.571,3.571,0,0,1,124.424,4.464ZM123.765.636l.588.672-1.668,1.5h-.96l-1.668-1.5.588-.672L122.2,1.692Z"/><path class="cls-3" d="M130.039,4.464l-.6.9a2.979,2.979,0,0,0-1.595-.516,1.233,1.233,0,0,0-.708.174.536.536,0,0,0-.252.462.589.589,0,0,0,.107.36.981.981,0,0,0,.391.27,6.475,6.475,0,0,0,.834.282,3.661,3.661,0,0,1,1.529.732,1.638,1.638,0,0,1,.5,1.272,1.707,1.707,0,0,1-.767,1.482,3.265,3.265,0,0,1-1.909.534,4.024,4.024,0,0,1-1.421-.24,3.467,3.467,0,0,1-1.111-.66l.769-.864a2.83,2.83,0,0,0,1.727.624,1.468,1.468,0,0,0,.823-.2.642.642,0,0,0,.3-.564.756.756,0,0,0-.113-.438.945.945,0,0,0-.408-.288,8.642,8.642,0,0,0-.918-.306,3.07,3.07,0,0,1-1.429-.738,1.637,1.637,0,0,1-.455-1.182,1.57,1.57,0,0,1,.306-.948,2.03,2.03,0,0,1,.864-.66,3.207,3.207,0,0,1,1.277-.24A3.567,3.567,0,0,1,130.039,4.464ZM129.38.636l.588.672-1.668,1.5h-.96l-1.668-1.5.588-.672,1.559,1.056Z"/><path class="cls-3" d="M133.171.4l.624,1.2-2.712,1.08-.432-.78Zm-.144,3.492v6.348h-1.536V3.888Z"/><path class="cls-3" d="M142.94,4.584a4.457,4.457,0,0,1,.577,2.46,4.826,4.826,0,0,1-.295,1.746,2.653,2.653,0,0,1-.864,1.194,2.169,2.169,0,0,1-1.35.432,1.98,1.98,0,0,1-1.6-.7v2.964l-1.536.168V3.888h1.344l.084.78a2.488,2.488,0,0,1,.852-.72,2.225,2.225,0,0,1,1.008-.24A1.977,1.977,0,0,1,142.94,4.584Zm-1.032,2.472a3.508,3.508,0,0,0-.3-1.68.976.976,0,0,0-.9-.516,1.237,1.237,0,0,0-.72.234,2.043,2.043,0,0,0-.576.63V8.58a1.348,1.348,0,0,0,1.164.66Q141.908,9.24,141.908,7.056Z"/><path class="cls-3" d="M149.81,4.6a3.593,3.593,0,0,1,.786,2.454,4.057,4.057,0,0,1-.361,1.758A2.733,2.733,0,0,1,149.2,10a2.945,2.945,0,0,1-1.6.42,2.783,2.783,0,0,1-2.2-.894,3.594,3.594,0,0,1-.792-2.466,4.032,4.032,0,0,1,.36-1.752,2.729,2.729,0,0,1,1.039-1.176,2.977,2.977,0,0,1,1.6-.42A2.765,2.765,0,0,1,149.81,4.6Zm-3.571,2.454a3.163,3.163,0,0,0,.342,1.662,1.25,1.25,0,0,0,2.053-.006,3.168,3.168,0,0,0,.342-1.656,3.134,3.134,0,0,0-.342-1.65,1.129,1.129,0,0,0-1.015-.534Q146.239,4.872,146.239,7.056Z"/><path class="cls-3" d="M157.375,1.344v8.892H156.02l-.109-.8a2.222,2.222,0,0,1-.762.72,2.077,2.077,0,0,1-1.049.264,2.043,2.043,0,0,1-1.788-.9,4.233,4.233,0,0,1-.624-2.448A4.543,4.543,0,0,1,152,5.334a2.731,2.731,0,0,1,.9-1.194,2.255,2.255,0,0,1,2.945.252V1.176Zm-2.124,7.71a2.041,2.041,0,0,0,.588-.618v-2.9a2.2,2.2,0,0,0-.558-.5,1.251,1.251,0,0,0-.654-.168,1.1,1.1,0,0,0-.966.546,3.075,3.075,0,0,0-.353,1.65,3.389,3.389,0,0,0,.311,1.686,1,1,0,0,0,.912.51A1.315,1.315,0,0,0,155.251,9.054Z"/><path class="cls-3" d="M161.131.4l.624,1.2-2.712,1.08-.432-.78Zm-.144,3.492v6.348h-1.536V3.888Z"/><path class="cls-3" d="M163.346,9.99a1.655,1.655,0,0,1-.414-1.206V1.344l1.536-.168v7.56c0,.3.119.444.359.444a1.143,1.143,0,0,0,.361-.06l.324,1.08a2.462,2.462,0,0,1-1.021.216A1.52,1.52,0,0,1,163.346,9.99Z"/><path class="cls-3" d="M174.235,4.224a1.994,1.994,0,0,1,.481,1.416v4.6H173.18V5.88a1.218,1.218,0,0,0-.2-.792.728.728,0,0,0-.582-.228,1.148,1.148,0,0,0-.708.246,2.845,2.845,0,0,0-.624.7v4.428h-1.536V1.356l1.536-.156V4.644a2.318,2.318,0,0,1,1.848-.936A1.713,1.713,0,0,1,174.235,4.224Z"/><path class="cls-3" d="M176.857,9.99a1.659,1.659,0,0,1-.414-1.206V1.344l1.536-.168v7.56q0,.444.36.444a1.133,1.133,0,0,0,.36-.06l.324,1.08a2.457,2.457,0,0,1-1.02.216A1.524,1.524,0,0,1,176.857,9.99Z"/><path class="cls-3" d="M184.79,9.1a.722.722,0,0,0,.365.27l-.323,1.02a1.971,1.971,0,0,1-.883-.264,1.353,1.353,0,0,1-.521-.66,2.037,2.037,0,0,1-.811.714,2.465,2.465,0,0,1-1.086.234,2.053,2.053,0,0,1-1.5-.54,1.892,1.892,0,0,1-.552-1.416,1.832,1.832,0,0,1,.75-1.578,3.6,3.6,0,0,1,2.142-.546h.792v-.36a1.1,1.1,0,0,0-.281-.858,1.365,1.365,0,0,0-.906-.246,5.35,5.35,0,0,0-1.68.336l-.36-1.044a6.407,6.407,0,0,1,2.3-.456q2.436,0,2.437,2.184V8.556A1.019,1.019,0,0,0,184.79,9.1Zm-1.627-.582V7.236h-.636q-1.488,0-1.487,1.1a1.013,1.013,0,0,0,.228.708.859.859,0,0,0,.671.252A1.358,1.358,0,0,0,183.163,8.52Z"/><path class="cls-3" d="M190.675,4.464l-.6.9a2.982,2.982,0,0,0-1.6-.516,1.235,1.235,0,0,0-.708.174.538.538,0,0,0-.251.462.589.589,0,0,0,.107.36.981.981,0,0,0,.391.27,6.421,6.421,0,0,0,.834.282,3.661,3.661,0,0,1,1.529.732,1.638,1.638,0,0,1,.5,1.272,1.706,1.706,0,0,1-.768,1.482,3.26,3.26,0,0,1-1.908.534,4.033,4.033,0,0,1-1.422-.24,3.462,3.462,0,0,1-1.11-.66l.768-.864a2.833,2.833,0,0,0,1.728.624,1.462,1.462,0,0,0,.822-.2.642.642,0,0,0,.306-.564.756.756,0,0,0-.113-.438.949.949,0,0,0-.409-.288,8.563,8.563,0,0,0-.918-.306,3.066,3.066,0,0,1-1.428-.738,1.637,1.637,0,0,1-.455-1.182,1.569,1.569,0,0,1,.3-.948,2.034,2.034,0,0,1,.865-.66,3.2,3.2,0,0,1,1.277-.24A3.571,3.571,0,0,1,190.675,4.464Z"/><path class="cls-3" d="M197.2,10.236h-1.332l-.084-.888a2.347,2.347,0,0,1-.822.8,2.27,2.27,0,0,1-1.122.264,1.662,1.662,0,0,1-1.314-.522,2.107,2.107,0,0,1-.462-1.446V3.888H193.6V8.256a1.229,1.229,0,0,0,.185.768.723.723,0,0,0,.594.228,1.55,1.55,0,0,0,1.284-.9V3.888H197.2ZM195.739.414a1.379,1.379,0,0,1,.42,1.026,1.379,1.379,0,0,1-.426,1.02,1.5,1.5,0,0,1-1.1.42,1.513,1.513,0,0,1-1.11-.42,1.378,1.378,0,0,1-.425-1.02,1.372,1.372,0,0,1,.425-1.026A1.525,1.525,0,0,1,194.635,0,1.5,1.5,0,0,1,195.739.414ZM194.2.972a.662.662,0,0,0-.156.468.639.639,0,0,0,.156.462.572.572,0,0,0,.432.162.556.556,0,0,0,.42-.162.639.639,0,0,0,.156-.462.662.662,0,0,0-.156-.468.545.545,0,0,0-.42-.168A.56.56,0,0,0,194.2.972Z"/><circle cx="98.581" cy="22.11" r="1.583"/></symbol></defs><line class="cls-4" x1="289.414" y1="220.195" x2="288.414" y2="220.195"/><line class="cls-5" x1="284.465" y1="220.195" x2="79.092" y2="220.195"/><line class="cls-4" x1="77.118" y1="220.195" x2="76.118" y2="220.195"/><line class="cls-4" x1="294.473" y1="262.039" x2="293.473" y2="262.039"/><line class="cls-6" x1="289.43" y1="262.039" x2="79.14" y2="262.039"/><line class="cls-4" x1="77.118" y1="262.039" x2="76.118" y2="262.039"/><line class="cls-4" x1="235.271" y1="133.144" x2="234.271" y2="133.144"/><line class="cls-7" x1="230.342" y1="133.144" x2="79.082" y2="133.144"/><line class="cls-4" x1="77.118" y1="133.144" x2="76.118" y2="133.144"/><line class="cls-4" x1="265.383" y1="174.988" x2="264.383" y2="174.988"/><line class="cls-8" x1="260.44" y1="174.988" x2="79.089" y2="174.988"/><line class="cls-4" x1="77.118" y1="174.988" x2="76.118" y2="174.988"/><line class="cls-4" x1="345.435" y1="303.831" x2="344.435" y2="303.831"/><line class="cls-9" x1="340.446" y1="303.831" x2="79.113" y2="303.831"/><line class="cls-4" x1="77.118" y1="303.831" x2="76.118" y2="303.831"/><line class="cls-4" x1="283.84" y1="346.43" x2="282.84" y2="346.43"/><line class="cls-10" x1="278.884" y1="346.43" x2="79.096" y2="346.43"/><line class="cls-4" x1="77.118" y1="346.43" x2="76.118" y2="346.43"/><line class="cls-4" x1="308.961" y1="387.441" x2="307.961" y2="387.441"/><line class="cls-11" x1="303.981" y1="387.441" x2="79.108" y2="387.441"/><line class="cls-4" x1="77.118" y1="387.441" x2="76.118" y2="387.441"/><g class="cls-12"><path d="M282.947,18.187a5.821,5.821,0,0,1,1.818,1.152l-1.17,1.35a4.6,4.6,0,0,0-1.342-.81,4.1,4.1,0,0,0-1.449-.252,2.318,2.318,0,0,0-1.395.387,1.272,1.272,0,0,0-.531,1.089,1.368,1.368,0,0,0,.207.774,1.922,1.922,0,0,0,.748.576,10.881,10.881,0,0,0,1.6.594,7.29,7.29,0,0,1,2.764,1.431,3.226,3.226,0,0,1,.925,2.493,3.518,3.518,0,0,1-.566,1.98,3.771,3.771,0,0,1-1.629,1.35,6.02,6.02,0,0,1-2.52.486,6.683,6.683,0,0,1-2.546-.459,5.939,5.939,0,0,1-1.936-1.251l1.225-1.368a5.473,5.473,0,0,0,1.494.927,4.491,4.491,0,0,0,1.709.315,2.639,2.639,0,0,0,1.656-.486,1.627,1.627,0,0,0,.629-1.368,1.666,1.666,0,0,0-.215-.891,1.88,1.88,0,0,0-.738-.63,8.991,8.991,0,0,0-1.512-.585,7.091,7.091,0,0,1-2.861-1.476,3.026,3.026,0,0,1-.883-2.268,3.073,3.073,0,0,1,.539-1.8,3.56,3.56,0,0,1,1.5-1.206,5.29,5.29,0,0,1,2.187-.432A6.3,6.3,0,0,1,282.947,18.187Z"/><path d="M294.548,19.069a3.474,3.474,0,0,1,1.322,2.97,3.686,3.686,0,0,1-1.332,3.1,5.62,5.62,0,0,1-3.545,1.035h-1.459v4.338h-2.375V18.079h3.672A6.1,6.1,0,0,1,294.548,19.069Zm-1.808,4.8a2.246,2.246,0,0,0,.646-1.827q0-2.214-2.572-2.214h-1.28V24.4h1.28A2.987,2.987,0,0,0,292.74,23.866Z"/><path d="M305.491,19.393q1.738,1.314,1.737,4.842,0,3.456-1.709,4.869a6.585,6.585,0,0,1-4.338,1.413H297.8V18.079h3.061A7.494,7.494,0,0,1,305.491,19.393Zm-5.318.468v8.874h1.17a3.206,3.206,0,0,0,2.484-.981,5.248,5.248,0,0,0,.9-3.519,6.481,6.481,0,0,0-.459-2.727,2.555,2.555,0,0,0-1.2-1.3,4.281,4.281,0,0,0-1.791-.342Z"/></g><path class="cls-13" d="M95.644,484.1l-.6-2.275h-3l-.6,2.275H90.236l2.588-8.944h1.481l2.587,8.944Zm-3.354-3.224H94.8l-1.248-4.758Z"/><path class="cls-13" d="M102.371,477.629a2.212,2.212,0,0,1,.462,1.488V484.1h-1.17V479.26a1.609,1.609,0,0,0-.221-.955.791.791,0,0,0-.676-.293q-.858,0-1.56,1.222V484.1h-1.17v-6.838H99.05l.091,1.013a2.31,2.31,0,0,1,1.95-1.181A1.6,1.6,0,0,1,102.371,477.629Z"/><path class="cls-13" d="M109.268,483.154a.725.725,0,0,0,.364.305l-.248.793a1.628,1.628,0,0,1-.793-.312,1.288,1.288,0,0,1-.4-.715,2.091,2.091,0,0,1-1.86,1.041,1.886,1.886,0,0,1-1.442-.567,2.117,2.117,0,0,1-.533-1.513,2,2,0,0,1,.715-1.665,3.2,3.2,0,0,1,2.041-.572h.883v-.585a1.506,1.506,0,0,0-.292-1.034,1.25,1.25,0,0,0-.956-.318,4.767,4.767,0,0,0-1.664.364l-.285-.819a5.651,5.651,0,0,1,2.132-.467,1.965,1.965,0,0,1,2.223,2.222v3.224A1.269,1.269,0,0,0,109.268,483.154Zm-1.275-.839V480.7h-.753q-1.69,0-1.69,1.417a1.423,1.423,0,0,0,.273.937.963.963,0,0,0,.78.324A1.517,1.517,0,0,0,107.993,482.315Z"/><path class="cls-13" d="M111.425,483.889a1.459,1.459,0,0,1-.363-1.054v-8.346l1.17-.13V482.8c0,.338.138.506.416.506a1.09,1.09,0,0,0,.377-.078l.259.82a1.847,1.847,0,0,1-.871.221A1.311,1.311,0,0,1,111.425,483.889Z"/><path class="cls-13" d="M117,484.122a4.391,4.391,0,0,1-1.026,1.872,3.272,3.272,0,0,1-1.886.846l-.13-.871a3.176,3.176,0,0,0,.975-.352,1.771,1.771,0,0,0,.586-.572,4.854,4.854,0,0,0,.428-.949h-.428l-2.029-6.838H114.7l1.586,6.019,1.586-6.019h1.2Zm.13-10.387.494.937-2.5,1.131-.338-.6Z"/><path class="cls-13" d="M123.958,477.258v.871l-3.238,5.006h3.25l-.116.961h-4.421v-.871l3.238-5h-2.965v-.963Z"/><path class="cls-13" d="M129.586,483.154a.725.725,0,0,0,.364.305l-.248.793a1.632,1.632,0,0,1-.793-.312,1.288,1.288,0,0,1-.4-.715,2.088,2.088,0,0,1-1.859,1.041,1.888,1.888,0,0,1-1.443-.567,2.117,2.117,0,0,1-.533-1.513,2,2,0,0,1,.715-1.665,3.206,3.206,0,0,1,2.041-.572h.884v-.585a1.512,1.512,0,0,0-.292-1.034,1.253,1.253,0,0,0-.956-.318,4.763,4.763,0,0,0-1.664.364l-.285-.819a5.642,5.642,0,0,1,2.131-.467,1.964,1.964,0,0,1,2.223,2.222v3.224A1.269,1.269,0,0,0,129.586,483.154Zm-1.274-.839V480.7h-.754q-1.691,0-1.69,1.417a1.423,1.423,0,0,0,.273.937.965.965,0,0,0,.78.324A1.518,1.518,0,0,0,128.312,482.315Z"/><path class="cls-13" d="M132.479,478.019a.815.815,0,0,1,.227.579.836.836,0,0,1-.227.584.764.764,0,0,1-.591.248.748.748,0,0,1-.579-.248.837.837,0,0,1-.228-.584.816.816,0,0,1,.228-.579.76.76,0,0,1,.579-.241A.776.776,0,0,1,132.479,478.019Zm0,4.835a.819.819,0,0,1,.227.58.836.836,0,0,1-.227.584.767.767,0,0,1-.591.248.752.752,0,0,1-.579-.248.837.837,0,0,1-.228-.584.82.82,0,0,1,.228-.58.763.763,0,0,1,.579-.24A.778.778,0,0,1,132.479,482.854Z"/><path class="cls-13" d="M138.841,482.848a3.617,3.617,0,0,1-.253,1.457,2.306,2.306,0,0,1-.715.922,4.666,4.666,0,0,1-1.189.625l-.325-.859a2.969,2.969,0,0,0,.8-.526,1.447,1.447,0,0,0,.371-.651,4.042,4.042,0,0,0,.1-1.019v-7.645h1.209Z"/><path class="cls-13" d="M145.316,483.154a.727.727,0,0,0,.363.305l-.246.793a1.616,1.616,0,0,1-.793-.312,1.265,1.265,0,0,1-.4-.715,2.094,2.094,0,0,1-1.86,1.041,1.888,1.888,0,0,1-1.443-.567,2.113,2.113,0,0,1-.533-1.513,2.007,2.007,0,0,1,.714-1.665,3.209,3.209,0,0,1,2.042-.572h.884v-.585a1.5,1.5,0,0,0-.293-1.034,1.249,1.249,0,0,0-.955-.318,4.758,4.758,0,0,0-1.664.364l-.287-.819a5.663,5.663,0,0,1,2.133-.467,1.964,1.964,0,0,1,2.223,2.222v3.224A1.269,1.269,0,0,0,145.316,483.154Zm-1.274-.839V480.7h-.755q-1.689,0-1.69,1.417a1.428,1.428,0,0,0,.273.937.965.965,0,0,0,.781.324A1.518,1.518,0,0,0,144.042,482.315Z"/><path class="cls-13" d="M148.474,474.359V484.1H147.3v-9.607Zm3.6,2.9-2.314,3.043,2.535,3.8H151l-2.457-3.744,2.313-3.094Z"/><path class="cls-13" d="M157.964,484.1H156.95l-.064-1.027a2.157,2.157,0,0,1-1.912,1.2,1.624,1.624,0,0,1-1.287-.534,2.113,2.113,0,0,1-.467-1.443v-5.031h1.17v4.928a1.386,1.386,0,0,0,.226.876.829.829,0,0,0,.684.28q.87,0,1.494-1.144v-4.94h1.17Z"/><path class="cls-13" d="M164.679,478.006a4.916,4.916,0,0,1,.592,2.658,4.7,4.7,0,0,1-.645,2.633,2,2,0,0,1-1.748.969,1.908,1.908,0,0,1-.949-.241,2.26,2.26,0,0,1-.74-.683l-.078.754H160.07V474.5l1.17-.13v3.718a2.486,2.486,0,0,1,.773-.735,1.923,1.923,0,0,1,1-.265A1.878,1.878,0,0,1,164.679,478.006Zm-.631,2.658a4.337,4.337,0,0,0-.351-2.047,1.1,1.1,0,0,0-1-.605,1.252,1.252,0,0,0-.8.273,3.023,3.023,0,0,0-.658.768v3.392a2.187,2.187,0,0,0,.6.651,1.3,1.3,0,0,0,.766.246Q164.05,483.342,164.048,480.664Z"/><path class="cls-13" d="M171.3,475.152v7.917h3.264l-.131,1.027h-4.342v-8.944Z"/><path class="cls-13" d="M177.529,484.122a4.361,4.361,0,0,1-1.028,1.872,3.263,3.263,0,0,1-1.885.846l-.128-.871a3.179,3.179,0,0,0,.974-.352,1.747,1.747,0,0,0,.584-.572,4.675,4.675,0,0,0,.43-.949h-.43l-2.027-6.838h1.209l1.586,6.019,1.586-6.019h1.2Z"/><path class="cls-13" d="M184.536,477.869l-.494.69a3.927,3.927,0,0,0-.779-.43,2.063,2.063,0,0,0-.768-.143,1.264,1.264,0,0,0-.837.254.853.853,0,0,0-.3.7.838.838,0,0,0,.291.675,3.505,3.505,0,0,0,1.113.507,3.7,3.7,0,0,1,1.494.793,1.736,1.736,0,0,1,.469,1.287,1.821,1.821,0,0,1-.7,1.515,2.75,2.75,0,0,1-1.754.553,3.274,3.274,0,0,1-2.354-.924l.6-.65a2.706,2.706,0,0,0,1.729.663,1.416,1.416,0,0,0,.923-.286.964.964,0,0,0,.352-.793,1.2,1.2,0,0,0-.125-.585,1.077,1.077,0,0,0-.441-.4,5.542,5.542,0,0,0-.93-.371,3.423,3.423,0,0,1-1.4-.779,1.622,1.622,0,0,1-.428-1.158,1.716,1.716,0,0,1,.285-.975,1.973,1.973,0,0,1,.793-.676,2.652,2.652,0,0,1,1.17-.246A3.172,3.172,0,0,1,184.536,477.869Z"/><path class="cls-13" d="M190.986,481.08h-3.979a2.955,2.955,0,0,0,.481,1.723,1.428,1.428,0,0,0,1.17.526,2.328,2.328,0,0,0,.839-.143,2.962,2.962,0,0,0,.774-.467l.519.688a3.193,3.193,0,0,1-2.183.859,2.494,2.494,0,0,1-2.074-.93,4.1,4.1,0,0,1-.735-2.607,4.505,4.505,0,0,1,.7-2.659,2.266,2.266,0,0,1,1.951-.98,2.233,2.233,0,0,1,1.9.877,4.079,4.079,0,0,1,.664,2.5C191.011,480.651,191,480.855,190.986,481.08Zm-1.106-.962q0-2.145-1.418-2.145a1.184,1.184,0,0,0-1.025.54,3.383,3.383,0,0,0-.43,1.749h2.873Z"/><path class="cls-13" d="M193.806,474.359V484.1h-1.17v-9.607Zm3.6,2.9-2.315,3.043,2.535,3.8h-1.3l-2.457-3.744,2.315-3.094Z"/><path class="cls-13" d="M199.616,482.848a.8.8,0,0,1,.221.572,1.31,1.31,0,0,1-.058.377c-.039.131-.1.316-.188.558l-.717,1.834h-.726l.48-2.067a.777.777,0,0,1-.377-.688.809.809,0,0,1,.227-.586.776.776,0,0,1,.58-.234A.735.735,0,0,1,199.616,482.848Z"/><path class="cls-13" d="M205.779,475.152V484.1H204.57v-8.944Zm4.392,0-3.029,4.082,3.238,4.862h-1.39l-3.161-4.784,3.055-4.16Z"/><path class="cls-13" d="M215.931,475.842a2.512,2.512,0,0,1,.844,2.066,2.63,2.63,0,0,1-.864,2.164,3.678,3.678,0,0,1-2.4.709h-.857V484.1h-1.209v-8.944h2.027A3.808,3.808,0,0,1,215.931,475.842Zm-.924,3.574a1.87,1.87,0,0,0,.508-1.494,1.784,1.784,0,0,0-.5-1.411,2.283,2.283,0,0,0-1.527-.436h-.832v3.771h.818A2.329,2.329,0,0,0,215.007,479.416Z"/><path class="cls-13" d="M222.691,475.152l-.143.936h-3.094v2.951h2.69v.936h-2.69v3.171h3.276v.95h-4.485v-8.944Z"/><path class="cls-13" d="M227.716,475.243a3.659,3.659,0,0,1,1.111.78l-.611.69a3.376,3.376,0,0,0-.877-.579,2.346,2.346,0,0,0-.943-.189,1.5,1.5,0,0,0-1.047.358,1.208,1.208,0,0,0-.4.942,1.345,1.345,0,0,0,.157.669,1.432,1.432,0,0,0,.533.508,5.722,5.722,0,0,0,1.066.461,6.522,6.522,0,0,1,1.3.611,2.231,2.231,0,0,1,.779.832,2.964,2.964,0,0,1-.078,2.646,2.453,2.453,0,0,1-1.008.949,3.277,3.277,0,0,1-1.541.345,3.73,3.73,0,0,1-2.767-1.17l.637-.69a3.88,3.88,0,0,0,.98.656,2.638,2.638,0,0,0,1.111.228,1.713,1.713,0,0,0,1.229-.436,1.571,1.571,0,0,0,.463-1.2,1.466,1.466,0,0,0-.371-1.052,3.462,3.462,0,0,0-1.36-.729,4.575,4.575,0,0,1-1.812-1.027,2.122,2.122,0,0,1-.553-1.521,2.233,2.233,0,0,1,1.262-2.041,2.982,2.982,0,0,1,1.351-.3A3.419,3.419,0,0,1,227.716,475.243Z"/><path class="cls-13" d="M239.29,481.471a2.625,2.625,0,0,1-2.859,2.8,2.77,2.77,0,0,1-2.119-.774,2.829,2.829,0,0,1-.729-2.021v-6.319h1.209v6.241q0,1.883,1.639,1.884t1.639-1.884v-6.241h1.22Z"/><path class="cls-13" d="M245.843,475.842a2.5,2.5,0,0,1,.846,2.066,2.633,2.633,0,0,1-.865,2.164,3.677,3.677,0,0,1-2.4.709h-.857V484.1h-1.209v-8.944h2.027A3.8,3.8,0,0,1,245.843,475.842Zm-.922,3.574a1.87,1.87,0,0,0,.506-1.494,1.777,1.777,0,0,0-.5-1.411,2.283,2.283,0,0,0-1.527-.436h-.832v3.771h.818A2.331,2.331,0,0,0,244.921,479.416Z"/><path class="cls-13" d="M253.65,476.16a6.992,6.992,0,0,1,.006,6.909,3.266,3.266,0,0,1-5.038.02,5.538,5.538,0,0,1-.916-3.452,6.806,6.806,0,0,1,.422-2.541,3.408,3.408,0,0,1,1.2-1.58,3.114,3.114,0,0,1,1.812-.533A3.015,3.015,0,0,1,253.65,476.16Zm-4.674,3.477q0,3.652,2.158,3.653a1.786,1.786,0,0,0,1.613-.87,7.4,7.4,0,0,0-.007-5.591,1.78,1.78,0,0,0-1.606-.884Q248.979,475.945,248.976,479.637Z"/><path class="cls-13" d="M257.531,475.152v7.917h3.263l-.131,1.027h-4.341v-8.944Z"/><path class="cls-13" d="M269.945,473.605v11.817h-1.092V473.605Z"/><path class="cls-13" d="M284.322,475.152l-2.469,8.944h-1.444l-2.509-8.944h1.248l2,7.774,1.976-7.774Z"/><path class="cls-13" d="M286.616,474.256a.774.774,0,0,1-1.1,1.085.726.726,0,0,1-.215-.54.741.741,0,0,1,.215-.545.8.8,0,0,1,1.1,0Zm.034,3V484.1h-1.17v-6.838Z"/><path class="cls-13" d="M292.486,477.258v.871l-3.237,5.006h3.25l-.117.961h-4.42v-.871l3.237-5h-2.963v-.963Z"/><path class="cls-13" d="M298.48,484.1h-1.014l-.066-1.027a2.157,2.157,0,0,1-1.91,1.2,1.624,1.624,0,0,1-1.288-.534,2.109,2.109,0,0,1-.468-1.443v-5.031h1.17v4.928a1.373,1.373,0,0,0,.228.876.825.825,0,0,0,.682.28q.87,0,1.5-1.144v-4.94h1.17Z"/><path class="cls-13" d="M304.966,483.154a.727.727,0,0,0,.363.305l-.246.793a1.62,1.62,0,0,1-.793-.312,1.265,1.265,0,0,1-.4-.715,2.093,2.093,0,0,1-1.859,1.041,1.89,1.89,0,0,1-1.444-.567,2.117,2.117,0,0,1-.533-1.513,2,2,0,0,1,.715-1.665,3.2,3.2,0,0,1,2.041-.572h.885v-.585a1.506,1.506,0,0,0-.293-1.034,1.252,1.252,0,0,0-.955-.318,4.758,4.758,0,0,0-1.664.364l-.288-.819a5.667,5.667,0,0,1,2.133-.467,1.964,1.964,0,0,1,2.223,2.222v3.224A1.269,1.269,0,0,0,304.966,483.154Zm-1.273-.839V480.7h-.754q-1.69,0-1.692,1.417a1.423,1.423,0,0,0,.274.937.96.96,0,0,0,.779.324A1.521,1.521,0,0,0,303.693,482.315Z"/><path class="cls-13" d="M307.124,483.889a1.459,1.459,0,0,1-.363-1.054v-8.346l1.17-.13V482.8c0,.338.139.506.416.506a1.094,1.094,0,0,0,.377-.078l.26.82a1.853,1.853,0,0,1-.871.221A1.312,1.312,0,0,1,307.124,483.889Z"/><path class="cls-13" d="M311.394,474.256a.774.774,0,0,1-1.1,1.085.73.73,0,0,1-.215-.54.745.745,0,0,1,.215-.545.8.8,0,0,1,1.1,0Zm.033,3V484.1h-1.17v-6.838Z"/><path class="cls-13" d="M317.265,477.258v.871l-3.238,5.006h3.25l-.118.961H312.74v-.871l3.238-5h-2.965v-.963Z"/><path class="cls-13" d="M322.892,483.154a.723.723,0,0,0,.365.305l-.248.793a1.628,1.628,0,0,1-.793-.312,1.288,1.288,0,0,1-.4-.715,2.092,2.092,0,0,1-1.86,1.041,1.891,1.891,0,0,1-1.443-.567,2.117,2.117,0,0,1-.533-1.513,2,2,0,0,1,.717-1.665,3.2,3.2,0,0,1,2.041-.572h.882v-.585a1.5,1.5,0,0,0-.293-1.034,1.246,1.246,0,0,0-.955-.318,4.767,4.767,0,0,0-1.664.364l-.285-.819a5.65,5.65,0,0,1,2.131-.467,1.966,1.966,0,0,1,2.225,2.222v3.224A1.3,1.3,0,0,0,322.892,483.154Zm-1.274-.839V480.7h-.753q-1.691,0-1.69,1.417a1.412,1.412,0,0,0,.274.937.96.96,0,0,0,.779.324A1.516,1.516,0,0,0,321.618,482.315Z"/><path class="cls-13" d="M328.261,477.271a2.907,2.907,0,0,1,.871.559l-.519.7a2.461,2.461,0,0,0-.623-.37,1.834,1.834,0,0,0-.676-.124,1.342,1.342,0,0,0-1.19.65,3.792,3.792,0,0,0-.424,2.029q0,2.573,1.614,2.573a1.7,1.7,0,0,0,.662-.124,3.117,3.117,0,0,0,.637-.369l.546.715a2.733,2.733,0,0,1-1.884.754,2.52,2.52,0,0,1-2.061-.911,4.035,4.035,0,0,1-.748-2.626,4.988,4.988,0,0,1,.344-1.937,2.846,2.846,0,0,1,.974-1.261,2.509,2.509,0,0,1,1.477-.441A2.676,2.676,0,0,1,328.261,477.271Z"/><path class="cls-13" d="M334.97,481.08h-3.979a2.97,2.97,0,0,0,.481,1.723,1.429,1.429,0,0,0,1.17.526,2.334,2.334,0,0,0,.84-.143,2.942,2.942,0,0,0,.773-.467l.52.688a3.2,3.2,0,0,1-2.184.859,2.5,2.5,0,0,1-2.074-.93,4.105,4.105,0,0,1-.734-2.607,4.5,4.5,0,0,1,.7-2.659,2.265,2.265,0,0,1,1.951-.98,2.233,2.233,0,0,1,1.9.877,4.072,4.072,0,0,1,.664,2.5C335,480.651,334.986,480.855,334.97,481.08Zm-1.105-.962q0-2.145-1.418-2.145a1.184,1.184,0,0,0-1.026.54,3.392,3.392,0,0,0-.43,1.749h2.874Z"/><path class="cls-13" d="M337.523,478.019a.812.812,0,0,1,.228.579.832.832,0,0,1-.228.584.76.76,0,0,1-.59.248.752.752,0,0,1-.58-.248.836.836,0,0,1-.227-.584.815.815,0,0,1,.227-.579.764.764,0,0,1,.58-.241A.772.772,0,0,1,337.523,478.019Zm0,4.835a.816.816,0,0,1,.228.58.832.832,0,0,1-.228.584.763.763,0,0,1-.59.248.755.755,0,0,1-.58-.248.836.836,0,0,1-.227-.584.819.819,0,0,1,.227-.58.766.766,0,0,1,.58-.24A.775.775,0,0,1,337.523,482.854Z"/><path class="cls-13" d="M343.568,474.256a.774.774,0,0,1-1.1,1.085.73.73,0,0,1-.215-.54.745.745,0,0,1,.215-.545.8.8,0,0,1,1.1,0Zm.033,3V484.1h-1.17v-6.838Z"/><path class="cls-13" d="M350.154,484.1l-1.924-3.809h-1.262V484.1h-1.209v-8.944h2.094q3.2,0,3.2,2.522a2.526,2.526,0,0,1-.43,1.5,2.461,2.461,0,0,1-1.259.9l2.13,4.03Zm-.821-5.141a1.635,1.635,0,0,0,.455-1.281,1.493,1.493,0,0,0-.461-1.209,2.316,2.316,0,0,0-1.5-.39h-.857v3.289h.975A2.021,2.021,0,0,0,349.333,478.955Z"/><path class="cls-13" d="M358.22,476.16a6.992,6.992,0,0,1,.006,6.909,3.265,3.265,0,0,1-5.037.02,5.531,5.531,0,0,1-.916-3.452,6.786,6.786,0,0,1,.422-2.541,3.383,3.383,0,0,1,1.195-1.58,3.122,3.122,0,0,1,1.814-.533A3.013,3.013,0,0,1,358.22,476.16Zm-4.674,3.477q0,3.652,2.158,3.653a1.783,1.783,0,0,0,1.612-.87,7.379,7.379,0,0,0-.006-5.591,1.783,1.783,0,0,0-1.606-.884Q353.545,475.945,353.546,479.637Z"/><path class="cls-13" d="M365.142,475.152v.962l-4.029,6.955h4.017L365,484.1h-5.213v-.961l4.057-6.982h-3.654v-1Z"/><path class="cls-13" d="M371.161,484.1v-4.2h-3.25v4.2H366.7v-8.944h1.209v3.757h3.25v-3.757h1.209V484.1Z"/><path class="cls-13" d="M375.788,475.152v7.917h3.264l-.131,1.027h-4.342v-8.944Z"/><path class="cls-13" d="M384.734,484.1l-.6-2.275h-3l-.6,2.275h-1.209l2.586-8.944h1.483l2.588,8.944Zm-3.356-3.224h2.51l-1.248-4.758Z"/><path class="cls-13" d="M390.679,475.243a3.635,3.635,0,0,1,1.111.78l-.609.69a3.351,3.351,0,0,0-.879-.579,2.33,2.33,0,0,0-.941-.189,1.5,1.5,0,0,0-1.047.358,1.208,1.208,0,0,0-.4.942,1.345,1.345,0,0,0,.157.669,1.417,1.417,0,0,0,.533.508,5.635,5.635,0,0,0,1.064.461,6.549,6.549,0,0,1,1.3.611,2.231,2.231,0,0,1,.779.832,2.644,2.644,0,0,1,.274,1.274,2.677,2.677,0,0,1-.352,1.372,2.435,2.435,0,0,1-1.006.949,3.277,3.277,0,0,1-1.541.345,3.733,3.733,0,0,1-2.769-1.17l.636-.69a3.912,3.912,0,0,0,.983.656,2.631,2.631,0,0,0,1.111.228,1.717,1.717,0,0,0,1.229-.436,1.577,1.577,0,0,0,.461-1.2,1.465,1.465,0,0,0-.369-1.052,3.5,3.5,0,0,0-1.36-.729,4.585,4.585,0,0,1-1.814-1.027,2.125,2.125,0,0,1-.551-1.521,2.226,2.226,0,0,1,1.26-2.041,2.982,2.982,0,0,1,1.351-.3A3.423,3.423,0,0,1,390.679,475.243Z"/><path class="cls-13" d="M394.476,482.854a.814.814,0,0,1,.226.58.831.831,0,0,1-.226.584.769.769,0,0,1-.592.248.751.751,0,0,1-.578-.248.833.833,0,0,1-.229-.584.817.817,0,0,1,.229-.58.762.762,0,0,1,.578-.24A.781.781,0,0,1,394.476,482.854Z"/><path class="cls-13" d="M399.577,477.271a2.923,2.923,0,0,1,.872.559l-.52.7a2.461,2.461,0,0,0-.623-.37,1.834,1.834,0,0,0-.676-.124,1.339,1.339,0,0,0-1.189.65,3.792,3.792,0,0,0-.424,2.029q0,2.573,1.613,2.573a1.7,1.7,0,0,0,.662-.124,3.117,3.117,0,0,0,.637-.369l.547.715a2.737,2.737,0,0,1-1.885.754,2.518,2.518,0,0,1-2.06-.911,4.035,4.035,0,0,1-.748-2.626,5.008,5.008,0,0,1,.343-1.937,2.847,2.847,0,0,1,.975-1.261,2.506,2.506,0,0,1,1.476-.441A2.668,2.668,0,0,1,399.577,477.271Z"/><path class="cls-13" d="M405.493,477.258v.871l-3.238,5.006h3.25l-.117.961h-4.42v-.871l3.238-5h-2.965v-.963Z"/><path class="cls-13" d="M407.769,482.848a.808.808,0,0,1,.221.572,1.313,1.313,0,0,1-.059.377c-.039.131-.1.316-.188.558l-.716,1.834H406.3l.481-2.067a.777.777,0,0,1-.377-.688.812.812,0,0,1,.226-.586.778.778,0,0,1,.58-.234A.739.739,0,0,1,407.769,482.848Z"/><path class="cls-13" d="M413.931,475.152V484.1h-1.209v-8.944Zm4.393,0-3.03,4.082,3.239,4.862h-1.391l-3.16-4.784,3.054-4.16Z"/><path class="cls-13" d="M422.939,477.18l-.2,1.131a1.783,1.783,0,0,0-.533-.078,1.128,1.128,0,0,0-.929.455,3.509,3.509,0,0,0-.565,1.391V484.1h-1.17v-6.838h1.014l.092,1.352q.507-1.507,1.7-1.508A1.98,1.98,0,0,1,422.939,477.18Z"/><path class="cls-13" d="M425.22,474.256a.774.774,0,0,1-1.1,1.085.729.729,0,0,1-.214-.54.744.744,0,0,1,.214-.545.8.8,0,0,1,1.1,0Zm.033,3V484.1h-1.17v-6.838Z"/><path class="cls-13" d="M431.232,477.869l-.494.69a3.961,3.961,0,0,0-.78-.43,2.061,2.061,0,0,0-.767-.143,1.265,1.265,0,0,0-.838.254.856.856,0,0,0-.305.7.841.841,0,0,0,.291.675,3.516,3.516,0,0,0,1.113.507,3.707,3.707,0,0,1,1.5.793,1.739,1.739,0,0,1,.468,1.287,1.821,1.821,0,0,1-.7,1.515,2.75,2.75,0,0,1-1.754.553,3.271,3.271,0,0,1-2.353-.924l.6-.65a2.706,2.706,0,0,0,1.729.663,1.419,1.419,0,0,0,.924-.286.966.966,0,0,0,.351-.793,1.2,1.2,0,0,0-.125-.585,1.077,1.077,0,0,0-.441-.4,5.542,5.542,0,0,0-.93-.371,3.423,3.423,0,0,1-1.4-.779,1.626,1.626,0,0,1-.428-1.158,1.716,1.716,0,0,1,.285-.975,1.979,1.979,0,0,1,.793-.676,2.652,2.652,0,0,1,1.17-.246A3.176,3.176,0,0,1,431.232,477.869Z"/><path class="cls-13" d="M436.146,483.8a2.415,2.415,0,0,1-1.444.469,1.665,1.665,0,0,1-1.279-.482,1.906,1.906,0,0,1-.449-1.352v-4.289H432v-.885h.975v-1.572l1.17-.144v1.716h1.508l-.129.885h-1.379v4.277q0,.883.742.883a1.247,1.247,0,0,0,.408-.065,2.6,2.6,0,0,0,.424-.195Z"/><path class="cls-13" d="M438.6,473.735l.494.937-2.5,1.131-.338-.6Zm-.274,3.523V484.1h-1.17v-6.838Z"/><path class="cls-13" d="M444.773,477.629a2.223,2.223,0,0,1,.461,1.488V484.1h-1.17V479.26a1.609,1.609,0,0,0-.221-.955.792.792,0,0,0-.676-.293q-.858,0-1.56,1.222V484.1h-1.17v-6.838h1.013l.092,1.013a2.308,2.308,0,0,1,1.949-1.181A1.6,1.6,0,0,1,444.773,477.629Z"/><path class="cls-13" d="M451.667,483.154a.722.722,0,0,0,.366.305l-.249.793a1.632,1.632,0,0,1-.793-.312,1.288,1.288,0,0,1-.4-.715,2.089,2.089,0,0,1-1.859,1.041,1.893,1.893,0,0,1-1.444-.567,2.117,2.117,0,0,1-.533-1.513,2,2,0,0,1,.717-1.665,3.2,3.2,0,0,1,2.041-.572h.883v-.585a1.506,1.506,0,0,0-.293-1.034,1.247,1.247,0,0,0-.955-.318,4.763,4.763,0,0,0-1.664.364l-.285-.819a5.641,5.641,0,0,1,2.13-.467,1.965,1.965,0,0,1,2.225,2.222v3.224A1.3,1.3,0,0,0,451.667,483.154Zm-1.273-.839V480.7h-.754q-1.691,0-1.69,1.417a1.412,1.412,0,0,0,.274.937.961.961,0,0,0,.779.324A1.516,1.516,0,0,0,450.394,482.315Z"/><path class="cls-13" d="M461.339,475.152v.962l-4.029,6.955h4.017l-.13,1.027h-5.213v-.961l4.056-6.982h-3.654v-1Z"/><path class="cls-13" d="M467.034,483.154a.734.734,0,0,0,.364.305l-.246.793a1.616,1.616,0,0,1-.793-.312,1.266,1.266,0,0,1-.4-.715,2.092,2.092,0,0,1-1.859,1.041,1.888,1.888,0,0,1-1.443-.567,2.113,2.113,0,0,1-.534-1.513,2.007,2.007,0,0,1,.715-1.665,3.2,3.2,0,0,1,2.041-.572h.885v-.585a1.506,1.506,0,0,0-.293-1.034,1.25,1.25,0,0,0-.955-.318,4.763,4.763,0,0,0-1.664.364l-.287-.819a5.659,5.659,0,0,1,2.133-.467,1.963,1.963,0,0,1,2.222,2.222v3.224A1.269,1.269,0,0,0,467.034,483.154Zm-1.494-9.419.493.937-2.5,1.131-.337-.6Zm.221,8.58V480.7h-.754q-1.69,0-1.691,1.417a1.428,1.428,0,0,0,.273.937.962.962,0,0,0,.779.324A1.52,1.52,0,0,0,465.761,482.315Z"/><path class="cls-13" d="M470.193,474.359V484.1h-1.17v-9.607Zm3.6,2.9L471.48,480.3l2.535,3.8h-1.3l-2.457-3.744,2.315-3.094Z"/><path class="cls-13" d="M479.384,478.012a5.112,5.112,0,0,1-.014,5.285,2.656,2.656,0,0,1-4.087.019,5.1,5.1,0,0,1,0-5.285,2.717,2.717,0,0,1,4.1-.019Zm-3.211.656a3.892,3.892,0,0,0-.4,2.01q0,2.664,1.558,2.664t1.561-2.678a3.955,3.955,0,0,0-.391-2,1.269,1.269,0,0,0-1.156-.637A1.3,1.3,0,0,0,476.173,478.668Z"/><path class="cls-13" d="M486.437,478.012a5.085,5.085,0,0,1,.564,2.639,4.8,4.8,0,0,1-.631,2.639,1.984,1.984,0,0,1-1.759.976,1.962,1.962,0,0,1-1.639-.82v3.25l-1.17.144v-9.582h1.027l.065.924a2.127,2.127,0,0,1,1.859-1.092A1.849,1.849,0,0,1,486.437,478.012Zm-.656,2.652a4.59,4.59,0,0,0-.332-2.021,1.076,1.076,0,0,0-1.008-.631,1.286,1.286,0,0,0-.807.273,3.155,3.155,0,0,0-.662.741v3.458a1.575,1.575,0,0,0,1.365.845Q485.779,483.329,485.781,480.664Z"/><path class="cls-13" d="M492.1,477.271a2.907,2.907,0,0,1,.871.559l-.519.7a2.466,2.466,0,0,0-.624-.37,1.828,1.828,0,0,0-.675-.124,1.341,1.341,0,0,0-1.19.65,3.792,3.792,0,0,0-.424,2.029q0,2.573,1.614,2.573a1.7,1.7,0,0,0,.662-.124,3.117,3.117,0,0,0,.637-.369l.546.715a2.733,2.733,0,0,1-1.884.754,2.52,2.52,0,0,1-2.061-.911,4.035,4.035,0,0,1-.748-2.626,4.988,4.988,0,0,1,.344-1.937,2.839,2.839,0,0,1,.974-1.261,2.509,2.509,0,0,1,1.477-.441A2.676,2.676,0,0,1,492.1,477.271Zm.469-3.354.455.521-1.572,1.507h-.729l-1.572-1.507.453-.521,1.482,1.144Z"/><path class="cls-13" d="M498.533,483.154a.727.727,0,0,0,.363.305l-.246.793a1.616,1.616,0,0,1-.793-.312,1.266,1.266,0,0,1-.4-.715,2.092,2.092,0,0,1-1.859,1.041,1.888,1.888,0,0,1-1.443-.567,2.113,2.113,0,0,1-.534-1.513,2.007,2.007,0,0,1,.715-1.665,3.206,3.206,0,0,1,2.041-.572h.885v-.585a1.506,1.506,0,0,0-.293-1.034,1.25,1.25,0,0,0-.955-.318,4.763,4.763,0,0,0-1.664.364l-.287-.819a5.663,5.663,0,0,1,2.133-.467,1.963,1.963,0,0,1,2.222,2.222v3.224A1.256,1.256,0,0,0,498.533,483.154Zm-1.274-.839V480.7h-.754q-1.691,0-1.691,1.417a1.428,1.428,0,0,0,.273.937.962.962,0,0,0,.779.324A1.52,1.52,0,0,0,497.259,482.315Z"/><path class="cls-13" d="M504.857,477.629a2.212,2.212,0,0,1,.461,1.488V484.1h-1.17V479.26a1.6,1.6,0,0,0-.221-.955.789.789,0,0,0-.676-.293q-.858,0-1.56,1.222V484.1h-1.17v-6.838h1.015l.09,1.013a2.314,2.314,0,0,1,1.951-1.181A1.6,1.6,0,0,1,504.857,477.629Z"/><path class="cls-13" d="M511.792,478.012a5.115,5.115,0,0,1-.013,5.285,2.657,2.657,0,0,1-4.088.019,5.1,5.1,0,0,1,.006-5.285,2.716,2.716,0,0,1,4.095-.019Zm-3.211.656a3.892,3.892,0,0,0-.4,2.01q0,2.664,1.559,2.664t1.56-2.678a3.967,3.967,0,0,0-.39-2,1.272,1.272,0,0,0-1.157-.637A1.3,1.3,0,0,0,508.581,478.668Z"/><path class="cls-13" d="M518.773,477.258l-2.041,6.838h-1.4l-2.105-6.838h1.223l1.586,5.85,1.572-5.85Z"/><path class="cls-13" d="M524.142,483.154a.727.727,0,0,0,.363.305l-.246.793a1.62,1.62,0,0,1-.793-.312,1.265,1.265,0,0,1-.4-.715,2.094,2.094,0,0,1-1.86,1.041,1.888,1.888,0,0,1-1.443-.567,2.117,2.117,0,0,1-.533-1.513,2,2,0,0,1,.715-1.665,3.2,3.2,0,0,1,2.041-.572h.884v-.585a1.5,1.5,0,0,0-.293-1.034,1.249,1.249,0,0,0-.955-.318,4.767,4.767,0,0,0-1.664.364l-.287-.819a5.667,5.667,0,0,1,2.133-.467,1.964,1.964,0,0,1,2.223,2.222v3.224A1.269,1.269,0,0,0,524.142,483.154Zm-1.494-9.419.492.937-2.5,1.131-.338-.6Zm.22,8.58V480.7h-.753q-1.69,0-1.692,1.417a1.423,1.423,0,0,0,.274.937.96.96,0,0,0,.779.324A1.52,1.52,0,0,0,522.868,482.315Z"/><line class="cls-14" x1="291.923" y1="91.796" x2="291.923" y2="423.676"/><line class="cls-14" x1="148.072" y1="420.001" x2="148.072" y2="423.481"/><line class="cls-14" x1="76.118" y1="420.001" x2="76.118" y2="423.481"/><line class="cls-14" x1="220.027" y1="420.001" x2="220.027" y2="423.481"/><line class="cls-14" x1="363.936" y1="420.001" x2="363.936" y2="423.481"/><line class="cls-14" x1="435.891" y1="420.001" x2="435.891" y2="423.481"/><line class="cls-14" x1="507.846" y1="420.001" x2="507.846" y2="423.481"/><path class="cls-15" d="M137.682,434.207v-.858h3.113v.858Z"/><path class="cls-15" d="M146.366,430.726a6.722,6.722,0,0,1,0,5.648,2.223,2.223,0,0,1-3.685,0,6.732,6.732,0,0,1,0-5.648,2.23,2.23,0,0,1,3.685,0Zm-2.9.533a7.754,7.754,0,0,0,0,4.581,1.144,1.144,0,0,0,2.117,0,7.609,7.609,0,0,0,0-4.575,1.146,1.146,0,0,0-2.117-.006Z"/><path class="cls-15" d="M149.419,436.044a.73.73,0,0,1,.22.539,1.934,1.934,0,0,1-.2.78l-.738,1.684h-.725l.44-1.826a.8.8,0,0,1-.308-.638.751.751,0,0,1,.758-.76A.747.747,0,0,1,149.419,436.044Z"/><path class="cls-15" d="M153.752,429.861v7.36h-1.011v-6.282l-1.716,1.045-.441-.714,2.278-1.409Z"/><path class="cls-15" d="M161.447,430.258a2.077,2.077,0,0,1,0,2.706,1.891,1.891,0,0,1-2.575,0,2.081,2.081,0,0,1,0-2.706,1.891,1.891,0,0,1,2.575,0Zm-1.98.506a1.848,1.848,0,0,0,0,1.688.739.739,0,0,0,.688.336q.889,0,.89-1.178a1.627,1.627,0,0,0-.2-.84.735.735,0,0,0-.692-.336A.743.743,0,0,0,159.467,430.764Zm5.153-1.365.7.462-5.093,7.7-.7-.462Zm1.353,4.742a2.1,2.1,0,0,1,0,2.706,1.718,1.718,0,0,1-1.287.506,1.736,1.736,0,0,1-1.292-.506,2.077,2.077,0,0,1,0-2.706,1.74,1.74,0,0,1,1.292-.506A1.722,1.722,0,0,1,165.973,434.141Zm-1.975.511a1.569,1.569,0,0,0-.2.842,1.6,1.6,0,0,0,.2.841.741.741,0,0,0,.688.336q.893,0,.891-1.177a1.608,1.608,0,0,0-.2-.837.893.893,0,0,0-1.381,0Z"/><path class="cls-15" d="M205.217,434.207v-.858h3.113v.858Z"/><path class="cls-15" d="M213.9,430.726a6.722,6.722,0,0,1,0,5.648,2.223,2.223,0,0,1-3.685,0,6.732,6.732,0,0,1,0-5.648,2.23,2.23,0,0,1,3.685,0Zm-2.9.533a7.754,7.754,0,0,0,0,4.581,1.145,1.145,0,0,0,2.118,0,7.629,7.629,0,0,0,0-4.575,1.147,1.147,0,0,0-2.118-.006Z"/><path class="cls-15" d="M216.954,436.044a.73.73,0,0,1,.22.539,1.934,1.934,0,0,1-.2.78l-.737,1.684h-.726l.44-1.826a.8.8,0,0,1-.308-.638.753.753,0,0,1,.759-.76A.746.746,0,0,1,216.954,436.044Z"/><path class="cls-15" d="M222.646,430.726a6.722,6.722,0,0,1,0,5.648,2.223,2.223,0,0,1-3.685,0,6.732,6.732,0,0,1,0-5.648,2.23,2.23,0,0,1,3.685,0Zm-2.9.533a7.754,7.754,0,0,0,0,4.581,1.145,1.145,0,0,0,2.118,0,7.629,7.629,0,0,0,0-4.575,1.147,1.147,0,0,0-2.118-.006Z"/><path class="cls-15" d="M228.492,430.653h-2.871v2.167a2.567,2.567,0,0,1,1.177-.285,1.968,1.968,0,0,1,1.519.621,2.431,2.431,0,0,1,.571,1.711,2.594,2.594,0,0,1-.318,1.292,2.228,2.228,0,0,1-.9.88,2.762,2.762,0,0,1-1.337.314,2.919,2.919,0,0,1-1.2-.237,3.185,3.185,0,0,1-.979-.7l.594-.583a2.528,2.528,0,0,0,.727.522,2.01,2.01,0,0,0,.846.17,1.424,1.424,0,0,0,1.106-.439,1.777,1.777,0,0,0,.4-1.243,1.6,1.6,0,0,0-.363-1.166,1.321,1.321,0,0,0-.978-.364,2.189,2.189,0,0,0-.529.061,2.751,2.751,0,0,0-.516.192h-.792v-3.707h3.981Z"/><path class="cls-15" d="M235.868,430.258a2.077,2.077,0,0,1,0,2.706,1.89,1.89,0,0,1-2.574,0,2.081,2.081,0,0,1,0-2.706,1.89,1.89,0,0,1,2.574,0Zm-1.979.506a1.848,1.848,0,0,0,0,1.688.738.738,0,0,0,.687.336q.891,0,.891-1.178a1.627,1.627,0,0,0-.2-.84.881.881,0,0,0-1.38-.006Zm5.153-1.365.7.462-5.093,7.7-.7-.462Zm1.353,4.742a2.1,2.1,0,0,1,0,2.706,1.718,1.718,0,0,1-1.287.506,1.736,1.736,0,0,1-1.292-.506,2.077,2.077,0,0,1,0-2.706,1.74,1.74,0,0,1,1.292-.506A1.722,1.722,0,0,1,240.4,434.141Zm-1.975.511a1.56,1.56,0,0,0-.2.842,1.6,1.6,0,0,0,.2.841.74.74,0,0,0,.688.336q.891,0,.891-1.177a1.608,1.608,0,0,0-.2-.837.893.893,0,0,0-1.381,0Z"/><path class="cls-15" d="M358.89,430.726a6.732,6.732,0,0,1,0,5.648,2.224,2.224,0,0,1-3.686,0,6.732,6.732,0,0,1,0-5.648,2.231,2.231,0,0,1,3.686,0Zm-2.9.533a7.754,7.754,0,0,0,0,4.581,1.144,1.144,0,0,0,2.117,0,7.629,7.629,0,0,0,0-4.575,1.146,1.146,0,0,0-2.117-.006Z"/><path class="cls-15" d="M361.943,436.044a.734.734,0,0,1,.22.539,1.921,1.921,0,0,1-.2.78l-.736,1.684H360.5l.442-1.826a.782.782,0,0,1-.227-.276.793.793,0,0,1-.082-.362.729.729,0,0,1,.219-.539.737.737,0,0,1,.539-.221A.747.747,0,0,1,361.943,436.044Z"/><path class="cls-15" d="M367.634,430.726a6.712,6.712,0,0,1,0,5.648,2.222,2.222,0,0,1-3.684,0,6.732,6.732,0,0,1,0-5.648,2.229,2.229,0,0,1,3.684,0Zm-2.9.533a7.712,7.712,0,0,0,0,4.581,1.144,1.144,0,0,0,2.117,0,7.629,7.629,0,0,0,0-4.575,1.146,1.146,0,0,0-2.117-.006Z"/><path class="cls-15" d="M373.482,430.653h-2.871v2.167a2.556,2.556,0,0,1,1.175-.285,1.971,1.971,0,0,1,1.52.621,2.431,2.431,0,0,1,.57,1.711,2.583,2.583,0,0,1-.318,1.292,2.228,2.228,0,0,1-.9.88,2.753,2.753,0,0,1-1.336.314,2.916,2.916,0,0,1-1.2-.237,3.193,3.193,0,0,1-.978-.7l.593-.583a2.528,2.528,0,0,0,.727.522,2.007,2.007,0,0,0,.846.17,1.42,1.42,0,0,0,1.1-.439,1.777,1.777,0,0,0,.4-1.243,1.6,1.6,0,0,0-.364-1.166,1.322,1.322,0,0,0-.978-.364,2.209,2.209,0,0,0-.53.061,2.744,2.744,0,0,0-.515.192h-.793v-3.707h3.982Z"/><path class="cls-15" d="M380.857,430.258a2.081,2.081,0,0,1,0,2.706,1.743,1.743,0,0,1-1.293.506,1.722,1.722,0,0,1-1.281-.506,2.081,2.081,0,0,1,0-2.706,1.722,1.722,0,0,1,1.281-.506A1.743,1.743,0,0,1,380.857,430.258Zm-1.981.506a1.856,1.856,0,0,0,0,1.688.741.741,0,0,0,.688.336q.891,0,.89-1.178a1.637,1.637,0,0,0-.2-.84.882.882,0,0,0-1.381-.006Zm5.155-1.365.7.462-5.094,7.7-.7-.462Zm1.351,4.742a2.093,2.093,0,0,1,0,2.706,1.717,1.717,0,0,1-1.287.506,1.735,1.735,0,0,1-1.291-.506,2.074,2.074,0,0,1,0-2.706,1.739,1.739,0,0,1,1.291-.506A1.72,1.72,0,0,1,385.382,434.141Zm-1.974.511a1.569,1.569,0,0,0-.2.842,1.6,1.6,0,0,0,.2.841.739.739,0,0,0,.687.336q.894,0,.893-1.177a1.6,1.6,0,0,0-.2-.837.741.741,0,0,0-.693-.329A.748.748,0,0,0,383.408,434.652Z"/><path class="cls-15" d="M61.139,434.207v-.858h3.113v.858Z"/><path class="cls-15" d="M69.823,430.726a6.722,6.722,0,0,1,0,5.648,2.223,2.223,0,0,1-3.685,0,6.732,6.732,0,0,1,0-5.648,2.23,2.23,0,0,1,3.685,0Zm-2.9.533a7.754,7.754,0,0,0,0,4.581,1.144,1.144,0,0,0,2.117,0,7.609,7.609,0,0,0,0-4.575,1.146,1.146,0,0,0-2.117-.006Z"/><path class="cls-15" d="M72.876,436.044a.73.73,0,0,1,.22.539,1.934,1.934,0,0,1-.2.78l-.738,1.684h-.725l.44-1.826a.8.8,0,0,1-.308-.638.751.751,0,0,1,.758-.76A.747.747,0,0,1,72.876,436.044Z"/><path class="cls-15" d="M77.209,429.861v7.36H76.2v-6.282l-1.716,1.045-.441-.714,2.278-1.409Z"/><path class="cls-15" d="M83.039,430.653H80.168v2.167a2.567,2.567,0,0,1,1.177-.285,1.968,1.968,0,0,1,1.519.621,2.436,2.436,0,0,1,.571,1.711,2.594,2.594,0,0,1-.319,1.292,2.22,2.22,0,0,1-.9.88,2.762,2.762,0,0,1-1.337.314,2.916,2.916,0,0,1-1.2-.237,3.185,3.185,0,0,1-.979-.7l.594-.583a2.514,2.514,0,0,0,.727.522,2.01,2.01,0,0,0,.846.17,1.424,1.424,0,0,0,1.106-.439,1.781,1.781,0,0,0,.4-1.243,1.6,1.6,0,0,0-.363-1.166,1.321,1.321,0,0,0-.979-.364,2.186,2.186,0,0,0-.528.061,2.785,2.785,0,0,0-.517.192H79.2v-3.707h3.982Z"/><path class="cls-15" d="M90.415,430.258a2.077,2.077,0,0,1,0,2.706,1.89,1.89,0,0,1-2.574,0,2.081,2.081,0,0,1,0-2.706,1.89,1.89,0,0,1,2.574,0Zm-1.979.506a1.848,1.848,0,0,0,0,1.688.738.738,0,0,0,.687.336q.891,0,.891-1.178a1.627,1.627,0,0,0-.2-.84.881.881,0,0,0-1.38-.006Zm5.153-1.365.7.462-5.094,7.7-.7-.462Zm1.353,4.742a2.1,2.1,0,0,1,0,2.706,1.718,1.718,0,0,1-1.287.506,1.736,1.736,0,0,1-1.292-.506,2.077,2.077,0,0,1,0-2.706,1.74,1.74,0,0,1,1.292-.506A1.722,1.722,0,0,1,94.942,434.141Zm-1.975.511a1.56,1.56,0,0,0-.2.842,1.6,1.6,0,0,0,.2.841.74.74,0,0,0,.688.336q.891,0,.891-1.177a1.608,1.608,0,0,0-.2-.837.893.893,0,0,0-1.381,0Z"/><path class="cls-15" d="M490.78,434.207v-.858h3.113v.858Z"/><path class="cls-15" d="M499.463,430.726a6.722,6.722,0,0,1,0,5.648,2.222,2.222,0,0,1-3.684,0,6.732,6.732,0,0,1,0-5.648,2.229,2.229,0,0,1,3.684,0Zm-2.9.533a7.733,7.733,0,0,0,0,4.581,1.144,1.144,0,0,0,2.117,0,7.609,7.609,0,0,0,0-4.575,1.146,1.146,0,0,0-2.117-.006Z"/><path class="cls-15" d="M502.517,436.044a.734.734,0,0,1,.22.539,1.937,1.937,0,0,1-.2.78l-.737,1.684h-.726l.441-1.826a.779.779,0,0,1-.226-.276.793.793,0,0,1-.083-.362.753.753,0,0,1,.759-.76A.749.749,0,0,1,502.517,436.044Z"/><path class="cls-15" d="M506.85,429.861v7.36h-1.012v-6.282l-1.716,1.045-.44-.714,2.277-1.409Z"/><path class="cls-15" d="M512.68,430.653h-2.871v2.167a2.564,2.564,0,0,1,1.177-.285,1.967,1.967,0,0,1,1.518.621,2.431,2.431,0,0,1,.571,1.711,2.594,2.594,0,0,1-.318,1.292,2.232,2.232,0,0,1-.9.88,2.762,2.762,0,0,1-1.337.314,2.92,2.92,0,0,1-1.2-.237,3.193,3.193,0,0,1-.978-.7l.594-.583a2.511,2.511,0,0,0,.726.522,2.015,2.015,0,0,0,.847.17,1.42,1.42,0,0,0,1.105-.439,1.777,1.777,0,0,0,.4-1.243,1.6,1.6,0,0,0-.363-1.166,1.325,1.325,0,0,0-.979-.364,2.186,2.186,0,0,0-.528.061,2.785,2.785,0,0,0-.517.192h-.792v-3.707h3.982Z"/><path class="cls-15" d="M520.056,430.258a2.077,2.077,0,0,1,0,2.706,1.89,1.89,0,0,1-2.574,0,2.081,2.081,0,0,1,0-2.706,1.89,1.89,0,0,1,2.574,0Zm-1.98.506a1.848,1.848,0,0,0,0,1.688.74.74,0,0,0,.688.336q.891,0,.891-1.178a1.627,1.627,0,0,0-.2-.84.735.735,0,0,0-.692-.336A.744.744,0,0,0,518.076,430.764Zm5.154-1.365.7.462-5.094,7.7-.7-.462Zm1.352,4.742a2.1,2.1,0,0,1,0,2.706,1.717,1.717,0,0,1-1.287.506,1.737,1.737,0,0,1-1.292-.506,2.077,2.077,0,0,1,0-2.706,1.741,1.741,0,0,1,1.292-.506A1.72,1.72,0,0,1,524.582,434.141Zm-1.974.511a1.56,1.56,0,0,0-.2.842,1.6,1.6,0,0,0,.2.841.738.738,0,0,0,.687.336q.893,0,.892-1.177a1.618,1.618,0,0,0-.2-.837.893.893,0,0,0-1.381,0Z"/><path class="cls-15" d="M289,430.726a6.722,6.722,0,0,1,0,5.648,2.222,2.222,0,0,1-3.684,0,6.732,6.732,0,0,1,0-5.648,2.229,2.229,0,0,1,3.684,0Zm-2.9.533a7.733,7.733,0,0,0,0,4.581,1.144,1.144,0,0,0,2.117,0,7.609,7.609,0,0,0,0-4.575,1.146,1.146,0,0,0-2.117-.006Z"/><path class="cls-15" d="M292.057,436.044a.734.734,0,0,1,.22.539,1.937,1.937,0,0,1-.2.78l-.737,1.684h-.725l.44-1.826a.779.779,0,0,1-.226-.276.793.793,0,0,1-.083-.362.753.753,0,0,1,.759-.76A.749.749,0,0,1,292.057,436.044Z"/><path class="cls-15" d="M297.748,430.726a6.722,6.722,0,0,1,0,5.648,2.222,2.222,0,0,1-3.684,0,6.732,6.732,0,0,1,0-5.648,2.229,2.229,0,0,1,3.684,0Zm-2.9.533a7.733,7.733,0,0,0,0,4.581,1.144,1.144,0,0,0,2.117,0,7.609,7.609,0,0,0,0-4.575,1.146,1.146,0,0,0-2.117-.006Z"/><path class="cls-15" d="M305.459,430.258a2.077,2.077,0,0,1,0,2.706,1.89,1.89,0,0,1-2.574,0,2.081,2.081,0,0,1,0-2.706,1.89,1.89,0,0,1,2.574,0Zm-1.979.506a1.848,1.848,0,0,0,0,1.688.738.738,0,0,0,.687.336q.891,0,.891-1.178a1.637,1.637,0,0,0-.2-.84.881.881,0,0,0-1.38-.006Zm5.153-1.365.7.462-5.094,7.7-.7-.462Zm1.353,4.742a2.1,2.1,0,0,1,0,2.706,1.718,1.718,0,0,1-1.287.506,1.736,1.736,0,0,1-1.292-.506,2.077,2.077,0,0,1,0-2.706,1.74,1.74,0,0,1,1.292-.506A1.722,1.722,0,0,1,309.986,434.141Zm-1.975.511a1.56,1.56,0,0,0-.2.842,1.6,1.6,0,0,0,.2.841.74.74,0,0,0,.688.336q.891,0,.891-1.177a1.608,1.608,0,0,0-.2-.837.893.893,0,0,0-1.381,0Z"/><path class="cls-15" d="M434.341,430.726a6.722,6.722,0,0,1,0,5.648,2.222,2.222,0,0,1-3.684,0,6.722,6.722,0,0,1,0-5.648,2.229,2.229,0,0,1,3.684,0Zm-2.9.533a7.733,7.733,0,0,0,0,4.581,1.144,1.144,0,0,0,2.117,0,7.609,7.609,0,0,0,0-4.575,1.146,1.146,0,0,0-2.117-.006Z"/><path class="cls-15" d="M437.4,436.044a.734.734,0,0,1,.22.539,1.937,1.937,0,0,1-.2.78l-.737,1.684h-.726l.441-1.826a.779.779,0,0,1-.226-.276.793.793,0,0,1-.083-.362.753.753,0,0,1,.759-.76A.749.749,0,0,1,437.4,436.044Z"/><path class="cls-15" d="M441.728,429.861v7.36h-1.012v-6.282L439,431.984l-.44-.714,2.277-1.409Z"/><path class="cls-15" d="M449.422,430.258a2.077,2.077,0,0,1,0,2.706,1.89,1.89,0,0,1-2.574,0,2.081,2.081,0,0,1,0-2.706,1.89,1.89,0,0,1,2.574,0Zm-1.979.506a1.848,1.848,0,0,0,0,1.688.737.737,0,0,0,.687.336q.891,0,.891-1.178a1.637,1.637,0,0,0-.2-.84.881.881,0,0,0-1.38-.006ZM452.6,429.4l.7.462-5.094,7.7-.7-.462Zm1.353,4.742a2.1,2.1,0,0,1,0,2.706,1.9,1.9,0,0,1-2.58,0,2.077,2.077,0,0,1,0-2.706,1.9,1.9,0,0,1,2.58,0Zm-1.975.511a1.56,1.56,0,0,0-.2.842,1.6,1.6,0,0,0,.2.841.739.739,0,0,0,.687.336q.892,0,.892-1.177a1.608,1.608,0,0,0-.2-.837.893.893,0,0,0-1.381,0Z"/><line class="cls-16" x1="309.888" y1="387.431" x2="310.7" y2="387.431"/><line class="cls-16" x1="309.888" y1="387.431" x2="308.961" y2="387.431"/><line class="cls-17" x1="285.433" y1="346.504" x2="285.897" y2="346.504"/><line class="cls-17" x1="285.433" y1="346.504" x2="284.854" y2="346.504"/><line class="cls-16" x1="346.976" y1="303.875" x2="348.831" y2="303.875"/><line class="cls-16" x1="346.976" y1="303.875" x2="345.122" y2="303.875"/><line class="cls-17" x1="289.838" y1="220.302" x2="289.953" y2="220.302"/><line class="cls-17" x1="289.838" y1="220.302" x2="289.722" y2="220.302"/><line class="cls-17" x1="266.194" y1="175.084" x2="267.121" y2="175.084"/><line class="cls-17" x1="266.194" y1="175.084" x2="265.383" y2="175.084"/><line class="cls-17" x1="235.249" y1="133.072" x2="237.451" y2="133.072"/><line class="cls-17" x1="235.249" y1="133.072" x2="233.162" y2="133.072"/><path class="cls-3" d="M314.111,387.431a4.2,4.2,0,1,1-4.2-4.2,4.2,4.2,0,0,1,4.2,4.2Z"/><path class="cls-2" d="M289.656,346.5a4.2,4.2,0,1,1-4.2-4.2,4.2,4.2,0,0,1,4.2,4.2Z"/><path class="cls-3" d="M351.2,303.875a4.2,4.2,0,1,1-4.2-4.2,4.2,4.2,0,0,1,4.2,4.2Z"/><path class="cls-2" d="M239.471,133.072a4.2,4.2,0,1,1-4.2-4.2,4.2,4.2,0,0,1,4.2,4.2Z"/><path class="cls-2" d="M270.452,175.084a4.2,4.2,0,1,1-4.2-4.2,4.2,4.2,0,0,1,4.2,4.2Z"/><path class="cls-3" d="M296.2,371.991v1.989h1.937v1.313H296.2v1.989h-1.43v-1.989h-1.924V373.98h1.924v-1.989Z"/><path class="cls-3" d="M304.893,371.211a5.947,5.947,0,0,1,.8,3.367,6.008,6.008,0,0,1-.8,3.387,2.9,2.9,0,0,1-4.667,0,6.008,6.008,0,0,1-.8-3.387,5.946,5.946,0,0,1,.8-3.367,2.912,2.912,0,0,1,4.667,0Zm-3.413.839a6.687,6.687,0,0,0-.338,2.528,6.79,6.79,0,0,0,.338,2.548,1.151,1.151,0,0,0,2.158.007,6.787,6.787,0,0,0,.338-2.555,6.683,6.683,0,0,0-.338-2.535,1.155,1.155,0,0,0-2.158.007Z"/><path class="cls-3" d="M308.559,377.334a1.015,1.015,0,0,1,.306.754,1.77,1.77,0,0,1-.079.508,5.5,5.5,0,0,1-.259.662l-.846,1.925h-1.014l.533-2.237a.986.986,0,0,1-.442-.871,1.021,1.021,0,0,1,1.04-1.04A1.046,1.046,0,0,1,308.559,377.334Z"/><path class="cls-3" d="M313.986,370.2v8.749h-1.639v-7.072l-1.949,1.184-.729-1.119,2.848-1.742Z"/><path class="cls-3" d="M319.79,370.366a2.311,2.311,0,0,1,1.32,2.132,3.336,3.336,0,0,1-.319,1.424,6.552,6.552,0,0,1-1.059,1.515q-.741.831-2.171,2.2h3.744l-.183,1.313h-5.446v-1.221q1.662-1.691,2.385-2.5a7.525,7.525,0,0,0,1.027-1.391,2.554,2.554,0,0,0,.306-1.2,1.178,1.178,0,0,0-1.261-1.274,1.8,1.8,0,0,0-.891.214,3.067,3.067,0,0,0-.8.709l-1.014-.805a3.426,3.426,0,0,1,2.834-1.431A3.343,3.343,0,0,1,319.79,370.366Z"/><path class="cls-3" d="M331.49,372.921a4.613,4.613,0,0,1,.618,2.594,4.512,4.512,0,0,1-.67,2.606,2.189,2.189,0,0,1-1.917.968,2.386,2.386,0,0,1-1.106-.253,2.508,2.508,0,0,1-.832-.683v3.354l-.754.1v-9.464h.651l.064.989a2.741,2.741,0,0,1,.917-.832,2.382,2.382,0,0,1,1.176-.3A2.087,2.087,0,0,1,331.49,372.921Zm-.682,4.79a3.983,3.983,0,0,0,.493-2.2q0-2.888-1.807-2.887a1.808,1.808,0,0,0-1.059.312,3.748,3.748,0,0,0-.852.858v3.614a2.057,2.057,0,0,0,1.794,1.04A1.616,1.616,0,0,0,330.808,377.711Z"/><path class="cls-3" d="M334.791,378.03a.59.59,0,0,1,.176.435.609.609,0,0,1-.176.449.631.631,0,0,1-1.072-.449.577.577,0,0,1,.183-.435.611.611,0,0,1,.441-.176A.6.6,0,0,1,334.791,378.03Z"/><path class="cls-3" d="M344.028,372.914a5.43,5.43,0,0,1-.033,5.213,2.2,2.2,0,0,1-1.9.962,2.284,2.284,0,0,1-1.112-.273,2.54,2.54,0,0,1-.838-.728l-.078.858H339.4v-9.568l.754-.091v3.81A2.44,2.44,0,0,1,342.2,372,2.123,2.123,0,0,1,344.028,372.914Zm-.657,4.8a3.981,3.981,0,0,0,.5-2.2q0-2.888-1.833-2.887a1.8,1.8,0,0,0-1.052.306,3.381,3.381,0,0,0-.832.864v3.575a2.584,2.584,0,0,0,.78.8,1.834,1.834,0,0,0,1.014.292A1.613,1.613,0,0,0,343.371,377.718Z"/><path class="cls-3" d="M347.363,378.03a.589.589,0,0,1,.175.435.6.6,0,0,1-.624.624.623.623,0,0,1-.624-.624.577.577,0,0,1,.183-.435.651.651,0,0,1,.89,0Z"/><path class="cls-3" d="M333.418,288.434v1.989h1.937v1.313h-1.937v1.989h-1.43v-1.989h-1.924v-1.313h1.924v-1.989Z"/><path class="cls-3" d="M342.109,287.654a5.947,5.947,0,0,1,.8,3.367,6.008,6.008,0,0,1-.8,3.387,2.9,2.9,0,0,1-4.667,0,6,6,0,0,1-.8-3.387,5.938,5.938,0,0,1,.8-3.367,2.912,2.912,0,0,1,4.667,0Zm-3.413.839a6.683,6.683,0,0,0-.338,2.528,6.79,6.79,0,0,0,.338,2.548,1.151,1.151,0,0,0,2.158.007,6.808,6.808,0,0,0,.338-2.555,6.7,6.7,0,0,0-.338-2.535,1.155,1.155,0,0,0-2.158.007Z"/><path class="cls-3" d="M345.775,293.777a1.014,1.014,0,0,1,.305.754,1.768,1.768,0,0,1-.078.508,5.6,5.6,0,0,1-.26.662l-.845,1.924h-1.014l.533-2.236a.984.984,0,0,1-.442-.871,1.021,1.021,0,0,1,1.04-1.04A1.046,1.046,0,0,1,345.775,293.777Z"/><path class="cls-3" d="M351.1,286.783a2.2,2.2,0,0,1,.949.806,2.064,2.064,0,0,1,.318,1.119,1.949,1.949,0,0,1-.455,1.319,2.4,2.4,0,0,1-1.248.734,2.265,2.265,0,0,1,1.43.624,2.011,2.011,0,0,1,.56,1.508,2.511,2.511,0,0,1-.384,1.365,2.664,2.664,0,0,1-1.1.969,3.739,3.739,0,0,1-1.689.357,3.474,3.474,0,0,1-2.834-1.261l.922-.884a3.133,3.133,0,0,0,.872.644,2.2,2.2,0,0,0,.948.2,1.574,1.574,0,0,0,1.125-.4,1.4,1.4,0,0,0,.423-1.072,1.323,1.323,0,0,0-.4-1.079,1.827,1.827,0,0,0-1.177-.324h-.689l.2-1.184h.468a1.454,1.454,0,0,0,1.021-.351,1.257,1.257,0,0,0,.383-.975,1.052,1.052,0,0,0-.351-.838,1.374,1.374,0,0,0-.936-.306,2.208,2.208,0,0,0-.923.189,3.135,3.135,0,0,0-.832.578l-.844-.923a3.87,3.87,0,0,1,2.742-1.118A3.47,3.47,0,0,1,351.1,286.783Z"/><path class="cls-3" d="M360.133,293.037a2.216,2.216,0,0,1-.4,1.293,2.765,2.765,0,0,1-1.138.917,4.068,4.068,0,0,1-1.709.337,3.941,3.941,0,0,1-1.678-.332,2.633,2.633,0,0,1-1.1-.9,2.231,2.231,0,0,1-.39-1.287,2.329,2.329,0,0,1,1.663-2.21,2.246,2.246,0,0,1-1.312-2.066,2.007,2.007,0,0,1,.384-1.216,2.414,2.414,0,0,1,1.04-.807,3.648,3.648,0,0,1,1.436-.279,3.845,3.845,0,0,1,1.443.261,2.355,2.355,0,0,1,1.034.766,1.95,1.95,0,0,1,.383,1.209,2.222,2.222,0,0,1-1.443,1.976A2.55,2.55,0,0,1,360.133,293.037Zm-2.094.948a1.217,1.217,0,0,0,.4-.948,1.268,1.268,0,0,0-.351-.944,3.6,3.6,0,0,0-1.248-.669l-.4-.143a1.836,1.836,0,0,0-1.053,1.729,1.229,1.229,0,0,0,.416.982,1.656,1.656,0,0,0,1.118.357A1.6,1.6,0,0,0,358.039,293.985Zm-2.034-6.031a1.261,1.261,0,0,0-.019,1.682,2.77,2.77,0,0,0,1,.553l.247.091a2.165,2.165,0,0,0,.721-.656,1.533,1.533,0,0,0,.215-.826,1.1,1.1,0,0,0-.325-.839,1.3,1.3,0,0,0-.923-.305A1.313,1.313,0,0,0,356.005,287.954Z"/><path class="cls-3" d="M370.265,289.364a4.613,4.613,0,0,1,.618,2.594,4.515,4.515,0,0,1-.67,2.606,2.19,2.19,0,0,1-1.917.968,2.381,2.381,0,0,1-1.105-.253,2.5,2.5,0,0,1-.832-.683v3.354l-.754.1V288.59h.65l.065.989a2.731,2.731,0,0,1,.917-.832,2.378,2.378,0,0,1,1.175-.3A2.082,2.082,0,0,1,370.265,289.364Zm-.682,4.79a3.983,3.983,0,0,0,.493-2.2q0-2.887-1.806-2.887a1.811,1.811,0,0,0-1.06.312,3.705,3.705,0,0,0-.851.858v3.614a2.057,2.057,0,0,0,1.794,1.04A1.614,1.614,0,0,0,369.583,294.154Z"/><path class="cls-3" d="M373.568,294.473a.589.589,0,0,1,.175.435.624.624,0,0,1-1.065.442.6.6,0,0,1-.183-.442.577.577,0,0,1,.183-.435.651.651,0,0,1,.89,0Z"/><path class="cls-3" d="M382.8,289.357a5.434,5.434,0,0,1-.032,5.213,2.2,2.2,0,0,1-1.9.962,2.284,2.284,0,0,1-1.112-.273,2.562,2.562,0,0,1-.838-.728l-.078.858h-.663v-9.568l.754-.091v3.81a2.442,2.442,0,0,1,2.041-1.093A2.121,2.121,0,0,1,382.8,289.357Zm-.656,4.8a3.981,3.981,0,0,0,.5-2.2q0-2.887-1.833-2.887a1.812,1.812,0,0,0-1.053.3,3.42,3.42,0,0,0-.832.865v3.575a2.618,2.618,0,0,0,.78.8,1.836,1.836,0,0,0,1.014.292A1.615,1.615,0,0,0,382.148,294.161Z"/><path class="cls-3" d="M386.138,294.473a.59.59,0,0,1,.176.435.625.625,0,0,1-1.066.442.6.6,0,0,1-.182-.442.576.576,0,0,1,.182-.435.614.614,0,0,1,.442-.176A.605.605,0,0,1,386.138,294.473Z"/><path class="cls-2" d="M219.712,121.18v-1.326h3.926v1.326Z"/><path class="cls-2" d="M230.353,116.851a5.947,5.947,0,0,1,.8,3.367,6.008,6.008,0,0,1-.8,3.387,2.9,2.9,0,0,1-4.667,0,6.008,6.008,0,0,1-.8-3.387,5.946,5.946,0,0,1,.8-3.367,2.912,2.912,0,0,1,4.667,0Zm-3.413.839a6.687,6.687,0,0,0-.338,2.528,6.787,6.787,0,0,0,.338,2.548,1.151,1.151,0,0,0,2.158.007,6.787,6.787,0,0,0,.338-2.555,6.683,6.683,0,0,0-.338-2.535,1.155,1.155,0,0,0-2.158.007Z"/><path class="cls-2" d="M234.019,122.974a1.014,1.014,0,0,1,.305.754,1.768,1.768,0,0,1-.078.508,5.5,5.5,0,0,1-.259.662l-.846,1.925h-1.014l.533-2.237a.986.986,0,0,1-.442-.871,1.021,1.021,0,0,1,1.04-1.04A1.046,1.046,0,0,1,234.019,122.974Z"/><path class="cls-2" d="M239.349,115.98a2.2,2.2,0,0,1,.949.807,2.063,2.063,0,0,1,.318,1.118,1.948,1.948,0,0,1-.455,1.319,2.4,2.4,0,0,1-1.248.734,2.261,2.261,0,0,1,1.43.625,2.008,2.008,0,0,1,.56,1.507,2.517,2.517,0,0,1-.384,1.366,2.669,2.669,0,0,1-1.1.968,3.725,3.725,0,0,1-1.689.358,3.475,3.475,0,0,1-2.834-1.262l.923-.884a3.144,3.144,0,0,0,.871.644,2.186,2.186,0,0,0,.948.2,1.574,1.574,0,0,0,1.125-.4,1.4,1.4,0,0,0,.423-1.072,1.323,1.323,0,0,0-.4-1.079,1.826,1.826,0,0,0-1.176-.324h-.69l.195-1.184h.468a1.458,1.458,0,0,0,1.021-.35,1.258,1.258,0,0,0,.383-.976,1.054,1.054,0,0,0-.351-.838,1.372,1.372,0,0,0-.936-.3,2.2,2.2,0,0,0-.922.188,3.123,3.123,0,0,0-.833.578l-.844-.923a3.87,3.87,0,0,1,2.742-1.118A3.484,3.484,0,0,1,239.349,115.98Z"/><path class="cls-2" d="M247.246,116.6a3.653,3.653,0,0,1,.793,2.477,6.889,6.889,0,0,1-.533,2.918,4.15,4.15,0,0,1-1.639,1.813,10.075,10.075,0,0,1-2.924,1.106l-.351-1.184a7.006,7.006,0,0,0,2.607-1.176,2.937,2.937,0,0,0,1.059-1.969,2.268,2.268,0,0,1-1.872.91,2.345,2.345,0,0,1-1.241-.345,2.378,2.378,0,0,1-.891-.994,3.332,3.332,0,0,1-.325-1.509,2.975,2.975,0,0,1,.4-1.566,2.753,2.753,0,0,1,1.1-1.034,3.283,3.283,0,0,1,1.541-.364A2.846,2.846,0,0,1,247.246,116.6Zm-.91,2.788a4.082,4.082,0,0,0-.305-1.9,1.12,1.12,0,0,0-1.06-.565,1.238,1.238,0,0,0-1.014.442,1.932,1.932,0,0,0-.364,1.261,1.9,1.9,0,0,0,.345,1.26,1.129,1.129,0,0,0,.9.4A1.778,1.778,0,0,0,246.336,119.386Z"/><path class="cls-2" d="M258.211,118.561a4.616,4.616,0,0,1,.618,2.594,4.5,4.5,0,0,1-.67,2.606,2.188,2.188,0,0,1-1.917.968,2.381,2.381,0,0,1-1.105-.253,2.5,2.5,0,0,1-.832-.683v3.354l-.754.1v-9.463h.65l.065.988a2.741,2.741,0,0,1,.917-.832,2.389,2.389,0,0,1,1.176-.3A2.084,2.084,0,0,1,258.211,118.561Zm-.681,4.79a3.983,3.983,0,0,0,.493-2.2q0-2.887-1.807-2.887a1.806,1.806,0,0,0-1.059.313,3.742,3.742,0,0,0-.852.857v3.614a2.055,2.055,0,0,0,1.794,1.04A1.617,1.617,0,0,0,257.53,123.351Z"/><path class="cls-2" d="M261.513,123.67a.591.591,0,0,1,.176.435.625.625,0,0,1-1.066.442.6.6,0,0,1-.182-.442.578.578,0,0,1,.182-.435.613.613,0,0,1,.442-.175A.6.6,0,0,1,261.513,123.67Z"/><path class="cls-2" d="M270.749,118.554a5.427,5.427,0,0,1-.032,5.213,2.2,2.2,0,0,1-1.9.962,2.3,2.3,0,0,1-1.113-.272,2.551,2.551,0,0,1-.837-.729l-.079.858h-.663v-9.568l.754-.091v3.81a2.442,2.442,0,0,1,2.041-1.093A2.122,2.122,0,0,1,270.749,118.554Zm-.656,4.8a3.981,3.981,0,0,0,.5-2.2q0-2.887-1.833-2.887a1.812,1.812,0,0,0-1.053.306,3.4,3.4,0,0,0-.832.864v3.575a2.6,2.6,0,0,0,.781.8,1.83,1.83,0,0,0,1.013.292A1.615,1.615,0,0,0,270.093,123.358Z"/><path class="cls-2" d="M274.083,123.67a.591.591,0,0,1,.176.435.6.6,0,0,1-.624.624.623.623,0,0,1-.624-.624.578.578,0,0,1,.183-.435.61.61,0,0,1,.441-.175A.6.6,0,0,1,274.083,123.67Z"/><rect class="cls-18" x="290.606" y="241.205" width="2.413" height="25.817"/><rect class="cls-18" x="290.606" y="154.268" width="2.413" height="16.583"/><rect class="cls-18" x="290.606" y="198.071" width="2.413" height="27.489"/><rect class="cls-18" x="290.606" y="325.176" width="2.413" height="17.526"/><path class="cls-2" d="M269.875,334.613v-1.326H273.8v1.326Z"/><path class="cls-2" d="M280.516,330.284a7.536,7.536,0,0,1,0,6.754,2.9,2.9,0,0,1-4.667,0,7.528,7.528,0,0,1,0-6.754,2.912,2.912,0,0,1,4.667,0Zm-3.413.839a6.687,6.687,0,0,0-.338,2.528,6.787,6.787,0,0,0,.338,2.548,1.151,1.151,0,0,0,2.158.007,6.787,6.787,0,0,0,.338-2.555,6.683,6.683,0,0,0-.338-2.535,1.155,1.155,0,0,0-2.158.007Z"/><path class="cls-2" d="M284.182,336.407a1.015,1.015,0,0,1,.306.754,1.77,1.77,0,0,1-.079.508,5.5,5.5,0,0,1-.259.662l-.846,1.925H282.29l.534-2.236a.987.987,0,0,1-.443-.872,1.021,1.021,0,0,1,1.04-1.04A1.046,1.046,0,0,1,284.182,336.407Z"/><path class="cls-2" d="M291.046,330.284a7.536,7.536,0,0,1,0,6.754,2.9,2.9,0,0,1-4.667,0,7.528,7.528,0,0,1,0-6.754,2.912,2.912,0,0,1,4.667,0Zm-3.413.839a6.707,6.707,0,0,0-.338,2.528,6.808,6.808,0,0,0,.338,2.548,1.151,1.151,0,0,0,2.158.007,6.787,6.787,0,0,0,.338-2.555,6.683,6.683,0,0,0-.338-2.535,1.155,1.155,0,0,0-2.158.007Z"/><path class="cls-2" d="M298.112,330.506h-3.277v2.171a2.935,2.935,0,0,1,1.326-.325,2.507,2.507,0,0,1,1.3.337,2.293,2.293,0,0,1,.891.975,3.331,3.331,0,0,1,.318,1.509,3.091,3.091,0,0,1-.4,1.586,2.772,2.772,0,0,1-1.145,1.072,3.674,3.674,0,0,1-1.715.384,3.551,3.551,0,0,1-1.541-.319,3.912,3.912,0,0,1-1.215-.917l.949-.883a2.318,2.318,0,0,0,1.767.832,1.515,1.515,0,0,0,1.165-.455,1.845,1.845,0,0,0,.421-1.3q0-1.626-1.4-1.625a2.1,2.1,0,0,0-.56.071,3.155,3.155,0,0,0-.572.228h-1.182v-4.576h5.07Z"/><path class="cls-2" d="M308.829,331.994a4.615,4.615,0,0,1,.619,2.594,4.51,4.51,0,0,1-.67,2.606,2.189,2.189,0,0,1-1.917.968,2.383,2.383,0,0,1-1.106-.253,2.506,2.506,0,0,1-.832-.682v3.353l-.754.105v-9.464h.651l.064.988a2.751,2.751,0,0,1,.917-.832,2.389,2.389,0,0,1,1.176-.3A2.084,2.084,0,0,1,308.829,331.994Zm-.681,4.79a3.98,3.98,0,0,0,.493-2.2q0-2.887-1.807-2.887a1.808,1.808,0,0,0-1.059.313,3.742,3.742,0,0,0-.852.857v3.614a2.055,2.055,0,0,0,1.794,1.04A1.616,1.616,0,0,0,308.148,336.784Z"/><path class="cls-2" d="M312.131,337.1a.587.587,0,0,1,.176.434.6.6,0,0,1-.624.624.621.621,0,0,1-.624-.624.574.574,0,0,1,.182-.434.611.611,0,0,1,.442-.176A.6.6,0,0,1,312.131,337.1Z"/><path class="cls-2" d="M321.367,331.987a5.427,5.427,0,0,1-.032,5.213,2.2,2.2,0,0,1-1.9.962,2.294,2.294,0,0,1-1.112-.272,2.555,2.555,0,0,1-.838-.729l-.078.859h-.663v-9.569l.753-.091v3.81a2.443,2.443,0,0,1,2.041-1.093A2.121,2.121,0,0,1,321.367,331.987Zm-.656,4.8a3.979,3.979,0,0,0,.5-2.2q0-2.887-1.833-2.887a1.812,1.812,0,0,0-1.053.306,3.415,3.415,0,0,0-.832.864v3.575a2.6,2.6,0,0,0,.781.8,1.83,1.83,0,0,0,1.013.292A1.614,1.614,0,0,0,320.711,336.791Z"/><path class="cls-2" d="M324.7,337.1a.583.583,0,0,1,.176.434.6.6,0,0,1-.624.624.623.623,0,0,1-.624-.624.575.575,0,0,1,.183-.434.607.607,0,0,1,.441-.176A.6.6,0,0,1,324.7,337.1Z"/><line class="cls-16" x1="294.705" y1="262.017" x2="295.169" y2="262.017"/><line class="cls-16" x1="294.705" y1="262.017" x2="294.242" y2="262.017"/><path class="cls-3" d="M298.928,262.017a4.2,4.2,0,1,1-4.2-4.2,4.2,4.2,0,0,1,4.2,4.2Z"/><path class="cls-3" d="M281.226,246.577v1.989h1.936v1.312h-1.936v1.99H279.8v-1.99h-1.924v-1.312H279.8v-1.989Z"/><path class="cls-3" d="M289.916,245.8a7.536,7.536,0,0,1,0,6.754,2.9,2.9,0,0,1-4.667,0,7.528,7.528,0,0,1,0-6.754,2.912,2.912,0,0,1,4.667,0Zm-3.413.839a6.71,6.71,0,0,0-.338,2.529,6.805,6.805,0,0,0,.338,2.547,1.151,1.151,0,0,0,2.158.007,6.781,6.781,0,0,0,.338-2.554,6.689,6.689,0,0,0-.338-2.536,1.155,1.155,0,0,0-2.158.007Z"/><path class="cls-3" d="M293.582,251.919a1.018,1.018,0,0,1,.306.754,1.768,1.768,0,0,1-.078.508,5.64,5.64,0,0,1-.26.662l-.846,1.925h-1.013l.533-2.236a.985.985,0,0,1-.442-.871,1.018,1.018,0,0,1,1.04-1.04A1.045,1.045,0,0,1,293.582,251.919Z"/><path class="cls-3" d="M300.446,245.8a7.544,7.544,0,0,1,0,6.754,2.9,2.9,0,0,1-4.667,0,7.528,7.528,0,0,1,0-6.754,2.912,2.912,0,0,1,4.667,0Zm-3.413.839a6.689,6.689,0,0,0-.338,2.529,6.784,6.784,0,0,0,.338,2.547,1.151,1.151,0,0,0,2.158.007,6.8,6.8,0,0,0,.338-2.554,6.71,6.71,0,0,0-.338-2.536,1.155,1.155,0,0,0-2.158.007Z"/><path class="cls-3" d="M306.361,244.952a2.31,2.31,0,0,1,1.319,2.131,3.331,3.331,0,0,1-.318,1.424,6.56,6.56,0,0,1-1.06,1.515q-.741.833-2.171,2.2h3.744l-.182,1.314h-5.447V252.31q1.664-1.691,2.385-2.5a7.511,7.511,0,0,0,1.027-1.39,2.546,2.546,0,0,0,.306-1.2,1.178,1.178,0,0,0-1.261-1.273,1.79,1.79,0,0,0-.89.214,3.036,3.036,0,0,0-.8.709L302,246.057a3.428,3.428,0,0,1,2.834-1.431A3.35,3.35,0,0,1,306.361,244.952Z"/><path class="cls-3" d="M318.06,247.506a4.618,4.618,0,0,1,.618,2.594,4.516,4.516,0,0,1-.67,2.607,2.19,2.19,0,0,1-1.917.967,2.381,2.381,0,0,1-1.105-.253,2.5,2.5,0,0,1-.832-.682v3.353l-.754.105v-9.464h.65l.065.988a2.733,2.733,0,0,1,.917-.832,2.386,2.386,0,0,1,1.175-.3A2.085,2.085,0,0,1,318.06,247.506Zm-.682,4.79a3.98,3.98,0,0,0,.493-2.2q0-2.887-1.806-2.887a1.811,1.811,0,0,0-1.06.313,3.719,3.719,0,0,0-.851.857V252a2.056,2.056,0,0,0,1.794,1.04A1.613,1.613,0,0,0,317.378,252.3Z"/><path class="cls-3" d="M321.362,252.616a.586.586,0,0,1,.175.434.6.6,0,0,1-.624.624.621.621,0,0,1-.624-.624.575.575,0,0,1,.183-.434.651.651,0,0,1,.89,0Z"/><path class="cls-3" d="M330.6,247.5a5.432,5.432,0,0,1-.032,5.212,2.2,2.2,0,0,1-1.905.962,2.294,2.294,0,0,1-1.112-.272,2.565,2.565,0,0,1-.838-.729l-.078.859h-.663v-9.569l.754-.09v3.809a2.444,2.444,0,0,1,2.041-1.093A2.122,2.122,0,0,1,330.6,247.5Zm-.656,4.8a3.979,3.979,0,0,0,.5-2.2q0-2.887-1.833-2.887a1.81,1.81,0,0,0-1.053.306,3.4,3.4,0,0,0-.832.864v3.575a2.6,2.6,0,0,0,.78.8,1.828,1.828,0,0,0,1.014.292A1.615,1.615,0,0,0,329.943,252.3Z"/><path class="cls-3" d="M333.933,252.616a.587.587,0,0,1,.176.434.611.611,0,0,1-.176.45.631.631,0,0,1-1.072-.45.574.574,0,0,1,.182-.434.614.614,0,0,1,.442-.176A.605.605,0,0,1,333.933,252.616Z"/><path class="cls-2" d="M294.1,220.3a4.2,4.2,0,1,1-4.2-4.2,4.2,4.2,0,0,1,4.2,4.2Z"/><path class="cls-2" d="M274.334,208.41v-1.326h3.926v1.326Z"/><path class="cls-2" d="M284.975,204.081a5.947,5.947,0,0,1,.8,3.367,6.008,6.008,0,0,1-.8,3.387,2.9,2.9,0,0,1-4.667,0,6.008,6.008,0,0,1-.8-3.387,5.946,5.946,0,0,1,.8-3.367,2.912,2.912,0,0,1,4.667,0Zm-3.413.839a6.687,6.687,0,0,0-.338,2.528,6.787,6.787,0,0,0,.338,2.548,1.151,1.151,0,0,0,2.158.007,6.787,6.787,0,0,0,.338-2.555,6.683,6.683,0,0,0-.338-2.535,1.155,1.155,0,0,0-2.158.007Z"/><path class="cls-2" d="M288.641,210.2a1.015,1.015,0,0,1,.306.754,1.77,1.77,0,0,1-.079.508,5.5,5.5,0,0,1-.259.662l-.846,1.925h-1.014l.534-2.237a.985.985,0,0,1-.443-.871,1.021,1.021,0,0,1,1.04-1.04A1.046,1.046,0,0,1,288.641,210.2Z"/><path class="cls-2" d="M295.505,204.081a5.947,5.947,0,0,1,.8,3.367,6.008,6.008,0,0,1-.8,3.387,2.9,2.9,0,0,1-4.667,0,6.008,6.008,0,0,1-.8-3.387,5.946,5.946,0,0,1,.8-3.367,2.912,2.912,0,0,1,4.667,0Zm-3.413.839a6.687,6.687,0,0,0-.338,2.528,6.787,6.787,0,0,0,.338,2.548,1.151,1.151,0,0,0,2.158.007,6.787,6.787,0,0,0,.338-2.555,6.683,6.683,0,0,0-.338-2.535,1.155,1.155,0,0,0-2.158.007Z"/><path class="cls-2" d="M301.42,203.236a2.311,2.311,0,0,1,1.32,2.132,3.336,3.336,0,0,1-.319,1.424,6.552,6.552,0,0,1-1.059,1.515q-.743.831-2.171,2.2h3.744l-.183,1.313h-5.446V210.6q1.662-1.691,2.385-2.5a7.525,7.525,0,0,0,1.027-1.391,2.554,2.554,0,0,0,.306-1.2,1.177,1.177,0,0,0-1.261-1.273,1.8,1.8,0,0,0-.891.213,3.052,3.052,0,0,0-.8.709l-1.014-.8a3.426,3.426,0,0,1,2.834-1.431A3.358,3.358,0,0,1,301.42,203.236Z"/><path class="cls-2" d="M313.119,205.791a4.607,4.607,0,0,1,.619,2.594,4.51,4.51,0,0,1-.67,2.606,2.189,2.189,0,0,1-1.917.968,2.383,2.383,0,0,1-1.106-.253,2.5,2.5,0,0,1-.832-.683v3.354l-.754.1v-9.463h.651l.064.988a2.741,2.741,0,0,1,.917-.832,2.389,2.389,0,0,1,1.176-.3A2.084,2.084,0,0,1,313.119,205.791Zm-.681,4.79a3.983,3.983,0,0,0,.493-2.2q0-2.887-1.807-2.887a1.808,1.808,0,0,0-1.059.313,3.742,3.742,0,0,0-.852.857v3.614a2.055,2.055,0,0,0,1.794,1.04A1.616,1.616,0,0,0,312.438,210.581Z"/><path class="cls-2" d="M316.421,210.9a.591.591,0,0,1,.176.435.6.6,0,0,1-.624.624.6.6,0,0,1-.441-.182.6.6,0,0,1-.183-.442.575.575,0,0,1,.183-.435.61.61,0,0,1,.441-.175A.6.6,0,0,1,316.421,210.9Z"/><path class="cls-2" d="M325.658,205.784a5.43,5.43,0,0,1-.033,5.213,2.2,2.2,0,0,1-1.9.962,2.294,2.294,0,0,1-1.112-.272,2.555,2.555,0,0,1-.838-.729l-.078.858h-.663v-9.568l.753-.091v3.81a2.443,2.443,0,0,1,2.041-1.093A2.124,2.124,0,0,1,325.658,205.784Zm-.657,4.8a3.981,3.981,0,0,0,.5-2.2q0-2.887-1.833-2.887a1.807,1.807,0,0,0-1.052.306,3.4,3.4,0,0,0-.833.864v3.575a2.6,2.6,0,0,0,.781.8,1.83,1.83,0,0,0,1.013.292A1.614,1.614,0,0,0,325,210.588Z"/><path class="cls-2" d="M328.991,210.9a.587.587,0,0,1,.176.435.624.624,0,1,1-1.248,0,.578.578,0,0,1,.183-.435.61.61,0,0,1,.441-.175A.6.6,0,0,1,328.991,210.9Z"/><path class="cls-2" d="M250.349,163.194v-1.326h3.926v1.326Z"/><path class="cls-2" d="M260.99,158.865a5.947,5.947,0,0,1,.8,3.367,6.011,6.011,0,0,1-.8,3.387,2.9,2.9,0,0,1-4.667,0,6,6,0,0,1-.8-3.387,5.938,5.938,0,0,1,.8-3.367,2.912,2.912,0,0,1,4.667,0Zm-3.414.839a6.708,6.708,0,0,0-.337,2.528,6.816,6.816,0,0,0,.337,2.548,1.152,1.152,0,0,0,2.159.007,6.808,6.808,0,0,0,.338-2.555,6.7,6.7,0,0,0-.338-2.535,1.155,1.155,0,0,0-2.159.007Z"/><path class="cls-2" d="M264.656,164.988a1.014,1.014,0,0,1,.305.754,1.768,1.768,0,0,1-.078.508,5.781,5.781,0,0,1-.26.662l-.845,1.924h-1.014l.533-2.236a.984.984,0,0,1-.442-.871,1.021,1.021,0,0,1,1.04-1.04A1.048,1.048,0,0,1,264.656,164.988Z"/><path class="cls-2" d="M270.083,157.851V166.6h-1.638v-7.072l-1.95,1.183-.728-1.118,2.848-1.742Z"/><path class="cls-2" d="M278.235,164.248a2.21,2.21,0,0,1-.4,1.293,2.755,2.755,0,0,1-1.137.917,4.075,4.075,0,0,1-1.709.337,3.938,3.938,0,0,1-1.678-.332,2.63,2.63,0,0,1-1.105-.9,2.237,2.237,0,0,1-.389-1.287,2.327,2.327,0,0,1,1.663-2.21A2.247,2.247,0,0,1,272.163,160a2.007,2.007,0,0,1,.384-1.216,2.426,2.426,0,0,1,1.04-.807,3.653,3.653,0,0,1,1.437-.279,3.836,3.836,0,0,1,1.442.261,2.35,2.35,0,0,1,1.034.766,1.95,1.95,0,0,1,.383,1.209,2.221,2.221,0,0,1-1.442,1.976A2.55,2.55,0,0,1,278.235,164.248Zm-2.094.948a1.219,1.219,0,0,0,.4-.948,1.267,1.267,0,0,0-.35-.944,3.615,3.615,0,0,0-1.248-.669l-.4-.143a1.835,1.835,0,0,0-1.052,1.729,1.226,1.226,0,0,0,.416.982,1.656,1.656,0,0,0,1.118.357A1.605,1.605,0,0,0,276.141,165.2Zm-2.034-6.031a1.263,1.263,0,0,0-.02,1.682,2.77,2.77,0,0,0,1,.553l.247.091a2.17,2.17,0,0,0,.722-.657,1.535,1.535,0,0,0,.215-.825,1.1,1.1,0,0,0-.325-.839,1.55,1.55,0,0,0-1.84,0Z"/><path class="cls-2" d="M288.366,160.575a4.6,4.6,0,0,1,.619,2.593,4.516,4.516,0,0,1-.67,2.607,2.192,2.192,0,0,1-1.917.968,2.386,2.386,0,0,1-1.106-.253,2.508,2.508,0,0,1-.832-.683v3.354l-.754.1V159.8h.651l.064.989a2.741,2.741,0,0,1,.917-.832,2.382,2.382,0,0,1,1.176-.3A2.082,2.082,0,0,1,288.366,160.575Zm-.681,4.79a3.984,3.984,0,0,0,.493-2.2q0-2.886-1.807-2.886a1.808,1.808,0,0,0-1.059.312,3.728,3.728,0,0,0-.852.858v3.614a2.057,2.057,0,0,0,1.794,1.04A1.616,1.616,0,0,0,287.685,165.365Z"/><path class="cls-2" d="M291.668,165.684a.59.59,0,0,1,.176.435.609.609,0,0,1-.176.449.631.631,0,0,1-1.072-.449.577.577,0,0,1,.183-.435.611.611,0,0,1,.441-.176A.6.6,0,0,1,291.668,165.684Z"/><path class="cls-2" d="M300.906,160.568a5.43,5.43,0,0,1-.033,5.213,2.2,2.2,0,0,1-1.9.962,2.284,2.284,0,0,1-1.112-.273,2.552,2.552,0,0,1-.838-.728l-.078.858h-.663v-9.568l.754-.091v3.809a2.442,2.442,0,0,1,2.041-1.092A2.121,2.121,0,0,1,300.906,160.568Zm-.657,4.8a3.983,3.983,0,0,0,.5-2.2q0-2.886-1.833-2.886a1.806,1.806,0,0,0-1.052.3,3.4,3.4,0,0,0-.832.865v3.575a2.6,2.6,0,0,0,.78.8,1.833,1.833,0,0,0,1.013.292A1.614,1.614,0,0,0,300.249,165.372Z"/><path class="cls-2" d="M304.24,165.684a.589.589,0,0,1,.175.435.6.6,0,0,1-.624.624.623.623,0,0,1-.624-.624.577.577,0,0,1,.183-.435.651.651,0,0,1,.89,0Z"/><use width="198.127" height="26.528" transform="translate(173.599 49.636) scale(1.2)" xlink:href="#Legenda_šipek"/></svg>