<svg id="Layer_1" data-name="Layer 1" xmlns="http://www.w3.org/2000/svg" xmlns:xlink="http://www.w3.org/1999/xlink" viewBox="0 0 620 492.392"><defs><style>.cls-1,.cls-10,.cls-11,.cls-14,.cls-17,.cls-4,.cls-5,.cls-6,.cls-7,.cls-8,.cls-9{fill:none;}.cls-1{stroke:#231f20;stroke-miterlimit:10;}.cls-1,.cls-10,.cls-11,.cls-14,.cls-4,.cls-5,.cls-6,.cls-7,.cls-8,.cls-9{stroke-width:0.75px;}.cls-2{fill:#d44060;}.cls-3{fill:#2d81b9;}.cls-10,.cls-11,.cls-4,.cls-5,.cls-6,.cls-7,.cls-8,.cls-9{stroke:#c7c7c7;}.cls-10,.cls-11,.cls-16,.cls-17,.cls-4,.cls-5,.cls-6,.cls-7,.cls-8,.cls-9{stroke-linecap:round;}.cls-10,.cls-11,.cls-14,.cls-16,.cls-17,.cls-4,.cls-5,.cls-6,.cls-7,.cls-8,.cls-9{stroke-linejoin:round;}.cls-5{stroke-dasharray:1.975 3.949;}.cls-6{stroke-dasharray:2.022 4.044;}.cls-7{stroke-dasharray:1.964 3.929;}.cls-8{stroke-dasharray:1.971 3.942;}.cls-9{stroke-dasharray:1.995 3.99;}.cls-10{stroke-dasharray:1.978 3.956;}.cls-11{stroke-dasharray:1.99 3.98;}.cls-12{isolation:isolate;}.cls-13{fill:#999;}.cls-14{stroke:#999;}.cls-15{fill:#666;}.cls-16{fill:#d1daed;stroke:#d1daed;}.cls-16,.cls-17{stroke-width:8.5px;}.cls-17{stroke:#f0d8db;}.cls-18{fill:#fff;}</style><symbol id="Legenda_šipek" data-name="Legenda šipek" viewBox="0 0 198.127 26.528"><line class="cls-1" x1="110.037" y1="22.11" x2="124.74" y2="22.11"/><polyline class="cls-1" points="120.587 26.263 124.74 22.11 120.587 17.957"/><line class="cls-1" x1="87.06" y1="22.11" x2="72.357" y2="22.11"/><polyline class="cls-1" points="76.511 17.957 72.357 22.11 76.511 26.263"/><path class="cls-2" d="M5.634,4.218A2.009,2.009,0,0,1,6.108,5.64v4.6H4.572V5.88a1.219,1.219,0,0,0-.2-.792.729.729,0,0,0-.582-.228,1.138,1.138,0,0,0-.714.246,2.807,2.807,0,0,0-.618.714v4.416H.924V3.888H2.256l.12.828A2.359,2.359,0,0,1,4.308,3.708,1.721,1.721,0,0,1,5.634,4.218Z"/><path class="cls-2" d="M9.354.942a.909.909,0,0,1,.27.666.889.889,0,0,1-.27.66.964.964,0,0,1-.7.264.944.944,0,0,1-.689-.264.882.882,0,0,1-.271-.66A.9.9,0,0,1,7.962.942a.932.932,0,0,1,.689-.27A.952.952,0,0,1,9.354.942Zm.078,2.946v6.348H7.9V3.888Z"/><path class="cls-2" d="M15.407,3.888v1.1L12.336,9.036h3.132l-.156,1.2H10.571v-1.1l3.084-4.044H10.836v-1.2ZM14.628.636l.588.672-1.668,1.5h-.96l-1.668-1.5.588-.672,1.559,1.056Z"/><path class="cls-2" d="M20.831,4.464l-.6.9a2.979,2.979,0,0,0-1.6-.516,1.233,1.233,0,0,0-.708.174.536.536,0,0,0-.252.462.589.589,0,0,0,.107.36.981.981,0,0,0,.391.27,6.475,6.475,0,0,0,.834.282,3.661,3.661,0,0,1,1.529.732,1.638,1.638,0,0,1,.5,1.272,1.707,1.707,0,0,1-.767,1.482,3.265,3.265,0,0,1-1.909.534,4.024,4.024,0,0,1-1.421-.24,3.467,3.467,0,0,1-1.111-.66l.769-.864a2.83,2.83,0,0,0,1.727.624,1.468,1.468,0,0,0,.823-.2.642.642,0,0,0,.3-.564.756.756,0,0,0-.113-.438.945.945,0,0,0-.408-.288,8.642,8.642,0,0,0-.918-.306,3.07,3.07,0,0,1-1.429-.738,1.637,1.637,0,0,1-.455-1.182,1.564,1.564,0,0,1,.306-.948,2.03,2.03,0,0,1,.864-.66,3.207,3.207,0,0,1,1.277-.24A3.567,3.567,0,0,1,20.831,4.464ZM20.172.636l.588.672-1.668,1.5h-.96l-1.668-1.5.588-.672,1.559,1.056Z"/><path class="cls-2" d="M23.963.4l.624,1.2-2.712,1.08-.432-.78Zm-.144,3.492v6.348H22.283V3.888Z"/><path class="cls-2" d="M33.732,4.584a4.457,4.457,0,0,1,.577,2.46,4.826,4.826,0,0,1-.295,1.746,2.653,2.653,0,0,1-.864,1.194,2.169,2.169,0,0,1-1.35.432,1.98,1.98,0,0,1-1.6-.7v2.964l-1.536.168V3.888h1.344l.084.78a2.488,2.488,0,0,1,.852-.72,2.225,2.225,0,0,1,1.008-.24A1.977,1.977,0,0,1,33.732,4.584ZM32.7,7.056a3.508,3.508,0,0,0-.3-1.68.976.976,0,0,0-.9-.516,1.237,1.237,0,0,0-.72.234,2.043,2.043,0,0,0-.576.63V8.58a1.348,1.348,0,0,0,1.164.66Q32.7,9.24,32.7,7.056Z"/><path class="cls-2" d="M40.6,4.6a3.593,3.593,0,0,1,.786,2.454,4.057,4.057,0,0,1-.361,1.758A2.733,2.733,0,0,1,39.995,10a2.945,2.945,0,0,1-1.6.42,2.783,2.783,0,0,1-2.2-.894,3.594,3.594,0,0,1-.792-2.466,4.032,4.032,0,0,1,.36-1.752A2.729,2.729,0,0,1,36.81,4.128a2.977,2.977,0,0,1,1.6-.42A2.765,2.765,0,0,1,40.6,4.6ZM37.031,7.056a3.163,3.163,0,0,0,.342,1.662,1.25,1.25,0,0,0,2.053-.006,3.168,3.168,0,0,0,.342-1.656,3.134,3.134,0,0,0-.342-1.65,1.129,1.129,0,0,0-1.015-.534Q37.031,4.872,37.031,7.056Z"/><path class="cls-2" d="M48.167,1.344v8.892H46.812l-.109-.8a2.222,2.222,0,0,1-.762.72,2.077,2.077,0,0,1-1.049.264,2.043,2.043,0,0,1-1.788-.9,4.233,4.233,0,0,1-.625-2.448,4.543,4.543,0,0,1,.312-1.734,2.731,2.731,0,0,1,.9-1.194,2.255,2.255,0,0,1,2.945.252V1.176Zm-2.124,7.71a2.041,2.041,0,0,0,.588-.618v-2.9a2.2,2.2,0,0,0-.558-.5,1.251,1.251,0,0,0-.654-.168,1.1,1.1,0,0,0-.966.546,3.075,3.075,0,0,0-.353,1.65,3.389,3.389,0,0,0,.311,1.686,1,1,0,0,0,.912.51A1.315,1.315,0,0,0,46.043,9.054Z"/><path class="cls-2" d="M51.923.4l.624,1.2-2.712,1.08L49.4,1.9Zm-.144,3.492v6.348H50.243V3.888Z"/><path class="cls-2" d="M54.138,9.99a1.655,1.655,0,0,1-.414-1.206V1.344l1.536-.168v7.56c0,.3.119.444.359.444a1.133,1.133,0,0,0,.36-.06L56.3,10.2a2.462,2.462,0,0,1-1.021.216A1.52,1.52,0,0,1,54.138,9.99Z"/><path class="cls-2" d="M65.027,4.224a1.994,1.994,0,0,1,.481,1.416v4.6H63.972V5.88a1.218,1.218,0,0,0-.2-.792.728.728,0,0,0-.582-.228,1.148,1.148,0,0,0-.708.246,2.845,2.845,0,0,0-.624.7v4.428H60.323V1.356L61.859,1.2V4.644a2.318,2.318,0,0,1,1.848-.936A1.713,1.713,0,0,1,65.027,4.224Z"/><path class="cls-2" d="M67.649,9.99a1.659,1.659,0,0,1-.414-1.206V1.344l1.536-.168v7.56q0,.444.36.444a1.133,1.133,0,0,0,.36-.06l.324,1.08a2.457,2.457,0,0,1-1.02.216A1.524,1.524,0,0,1,67.649,9.99Z"/><path class="cls-2" d="M75.582,9.1a.722.722,0,0,0,.365.27l-.323,1.02a1.971,1.971,0,0,1-.883-.264,1.353,1.353,0,0,1-.521-.66,2.037,2.037,0,0,1-.811.714,2.465,2.465,0,0,1-1.086.234,2.053,2.053,0,0,1-1.5-.54,1.892,1.892,0,0,1-.552-1.416,1.832,1.832,0,0,1,.75-1.578,3.6,3.6,0,0,1,2.142-.546h.792v-.36a1.1,1.1,0,0,0-.281-.858,1.365,1.365,0,0,0-.906-.246,5.35,5.35,0,0,0-1.68.336l-.36-1.044a6.407,6.407,0,0,1,2.3-.456q2.436,0,2.437,2.184V8.556A1.019,1.019,0,0,0,75.582,9.1ZM73.955,8.52V7.236h-.636q-1.488,0-1.487,1.1a1.013,1.013,0,0,0,.228.708.859.859,0,0,0,.671.252A1.358,1.358,0,0,0,73.955,8.52Z"/><path class="cls-2" d="M81.467,4.464l-.6.9a2.982,2.982,0,0,0-1.6-.516,1.235,1.235,0,0,0-.708.174.538.538,0,0,0-.251.462.589.589,0,0,0,.107.36.981.981,0,0,0,.391.27,6.421,6.421,0,0,0,.834.282,3.661,3.661,0,0,1,1.529.732,1.638,1.638,0,0,1,.5,1.272A1.706,1.706,0,0,1,80.9,9.882,3.26,3.26,0,0,1,79,10.416a4.033,4.033,0,0,1-1.422-.24,3.462,3.462,0,0,1-1.11-.66l.768-.864a2.833,2.833,0,0,0,1.728.624,1.462,1.462,0,0,0,.822-.2.642.642,0,0,0,.306-.564.756.756,0,0,0-.113-.438.949.949,0,0,0-.409-.288,8.563,8.563,0,0,0-.918-.306,3.066,3.066,0,0,1-1.428-.738,1.637,1.637,0,0,1-.455-1.182,1.569,1.569,0,0,1,.305-.948,2.034,2.034,0,0,1,.865-.66,3.2,3.2,0,0,1,1.277-.24A3.571,3.571,0,0,1,81.467,4.464Z"/><path class="cls-2" d="M88,10.236H86.663l-.084-.888a2.347,2.347,0,0,1-.822.8,2.27,2.27,0,0,1-1.122.264,1.662,1.662,0,0,1-1.314-.522,2.107,2.107,0,0,1-.462-1.446V3.888H84.4V8.256a1.229,1.229,0,0,0,.185.768.723.723,0,0,0,.594.228,1.55,1.55,0,0,0,1.284-.9V3.888H88ZM86.531.414a1.379,1.379,0,0,1,.42,1.026,1.379,1.379,0,0,1-.426,1.02,1.5,1.5,0,0,1-1.1.42,1.513,1.513,0,0,1-1.11-.42,1.378,1.378,0,0,1-.425-1.02A1.372,1.372,0,0,1,84.317.414,1.525,1.525,0,0,1,85.427,0,1.5,1.5,0,0,1,86.531.414ZM85,.972a.662.662,0,0,0-.156.468A.639.639,0,0,0,85,1.9a.572.572,0,0,0,.432.162.556.556,0,0,0,.42-.162A.639.639,0,0,0,86,1.44a.662.662,0,0,0-.156-.468A.545.545,0,0,0,85.427.8.56.56,0,0,0,85,.972Z"/><path class="cls-3" d="M113.24,3.888l-2.064,6.348H109.34l-2.1-6.348h1.668L110.264,9l1.392-5.112Z"/><path class="cls-3" d="M117.26,10.26a3.9,3.9,0,0,1-1.164,1.83,3.705,3.705,0,0,1-2.136.762l-.156-1.116a3.84,3.84,0,0,0,1-.27,1.62,1.62,0,0,0,.606-.462,3.156,3.156,0,0,0,.42-.768H115.3l-2.016-6.348h1.632l1.38,5.328,1.439-5.328h1.584Z"/><path class="cls-3" d="M124.424,4.464l-.6.9a2.981,2.981,0,0,0-1.595-.516,1.23,1.23,0,0,0-.708.174.536.536,0,0,0-.252.462.589.589,0,0,0,.107.36.981.981,0,0,0,.391.27,6.421,6.421,0,0,0,.834.282,3.661,3.661,0,0,1,1.529.732,1.638,1.638,0,0,1,.5,1.272,1.706,1.706,0,0,1-.768,1.482,3.26,3.26,0,0,1-1.908.534,4.033,4.033,0,0,1-1.422-.24,3.462,3.462,0,0,1-1.11-.66l.768-.864a2.833,2.833,0,0,0,1.728.624,1.462,1.462,0,0,0,.822-.2.642.642,0,0,0,.306-.564.756.756,0,0,0-.113-.438.949.949,0,0,0-.409-.288,8.485,8.485,0,0,0-.918-.306,3.066,3.066,0,0,1-1.428-.738,1.637,1.637,0,0,1-.455-1.182,1.569,1.569,0,0,1,.3-.948,2.034,2.034,0,0,1,.865-.66,3.2,3.2,0,0,1,1.277-.24A3.571,3.571,0,0,1,124.424,4.464ZM123.765.636l.588.672-1.668,1.5h-.96l-1.668-1.5.588-.672L122.2,1.692Z"/><path class="cls-3" d="M130.039,4.464l-.6.9a2.979,2.979,0,0,0-1.595-.516,1.233,1.233,0,0,0-.708.174.536.536,0,0,0-.252.462.589.589,0,0,0,.107.36.981.981,0,0,0,.391.27,6.475,6.475,0,0,0,.834.282,3.661,3.661,0,0,1,1.529.732,1.638,1.638,0,0,1,.5,1.272,1.707,1.707,0,0,1-.767,1.482,3.265,3.265,0,0,1-1.909.534,4.024,4.024,0,0,1-1.421-.24,3.467,3.467,0,0,1-1.111-.66l.769-.864a2.83,2.83,0,0,0,1.727.624,1.468,1.468,0,0,0,.823-.2.642.642,0,0,0,.3-.564.756.756,0,0,0-.113-.438.945.945,0,0,0-.408-.288,8.642,8.642,0,0,0-.918-.306,3.07,3.07,0,0,1-1.429-.738,1.637,1.637,0,0,1-.455-1.182,1.57,1.57,0,0,1,.306-.948,2.03,2.03,0,0,1,.864-.66,3.207,3.207,0,0,1,1.277-.24A3.567,3.567,0,0,1,130.039,4.464ZM129.38.636l.588.672-1.668,1.5h-.96l-1.668-1.5.588-.672,1.559,1.056Z"/><path class="cls-3" d="M133.171.4l.624,1.2-2.712,1.08-.432-.78Zm-.144,3.492v6.348h-1.536V3.888Z"/><path class="cls-3" d="M142.94,4.584a4.457,4.457,0,0,1,.577,2.46,4.826,4.826,0,0,1-.295,1.746,2.653,2.653,0,0,1-.864,1.194,2.169,2.169,0,0,1-1.35.432,1.98,1.98,0,0,1-1.6-.7v2.964l-1.536.168V3.888h1.344l.084.78a2.488,2.488,0,0,1,.852-.72,2.225,2.225,0,0,1,1.008-.24A1.977,1.977,0,0,1,142.94,4.584Zm-1.032,2.472a3.508,3.508,0,0,0-.3-1.68.976.976,0,0,0-.9-.516,1.237,1.237,0,0,0-.72.234,2.043,2.043,0,0,0-.576.63V8.58a1.348,1.348,0,0,0,1.164.66Q141.908,9.24,141.908,7.056Z"/><path class="cls-3" d="M149.81,4.6a3.593,3.593,0,0,1,.786,2.454,4.057,4.057,0,0,1-.361,1.758A2.733,2.733,0,0,1,149.2,10a2.945,2.945,0,0,1-1.6.42,2.783,2.783,0,0,1-2.2-.894,3.594,3.594,0,0,1-.792-2.466,4.032,4.032,0,0,1,.36-1.752,2.729,2.729,0,0,1,1.039-1.176,2.977,2.977,0,0,1,1.6-.42A2.765,2.765,0,0,1,149.81,4.6Zm-3.571,2.454a3.163,3.163,0,0,0,.342,1.662,1.25,1.25,0,0,0,2.053-.006,3.168,3.168,0,0,0,.342-1.656,3.134,3.134,0,0,0-.342-1.65,1.129,1.129,0,0,0-1.015-.534Q146.239,4.872,146.239,7.056Z"/><path class="cls-3" d="M157.375,1.344v8.892H156.02l-.109-.8a2.222,2.222,0,0,1-.762.72,2.077,2.077,0,0,1-1.049.264,2.043,2.043,0,0,1-1.788-.9,4.233,4.233,0,0,1-.624-2.448A4.543,4.543,0,0,1,152,5.334a2.731,2.731,0,0,1,.9-1.194,2.255,2.255,0,0,1,2.945.252V1.176Zm-2.124,7.71a2.041,2.041,0,0,0,.588-.618v-2.9a2.2,2.2,0,0,0-.558-.5,1.251,1.251,0,0,0-.654-.168,1.1,1.1,0,0,0-.966.546,3.075,3.075,0,0,0-.353,1.65,3.389,3.389,0,0,0,.311,1.686,1,1,0,0,0,.912.51A1.315,1.315,0,0,0,155.251,9.054Z"/><path class="cls-3" d="M161.131.4l.624,1.2-2.712,1.08-.432-.78Zm-.144,3.492v6.348h-1.536V3.888Z"/><path class="cls-3" d="M163.346,9.99a1.655,1.655,0,0,1-.414-1.206V1.344l1.536-.168v7.56c0,.3.119.444.359.444a1.143,1.143,0,0,0,.361-.06l.324,1.08a2.462,2.462,0,0,1-1.021.216A1.52,1.52,0,0,1,163.346,9.99Z"/><path class="cls-3" d="M174.235,4.224a1.994,1.994,0,0,1,.481,1.416v4.6H173.18V5.88a1.218,1.218,0,0,0-.2-.792.728.728,0,0,0-.582-.228,1.148,1.148,0,0,0-.708.246,2.845,2.845,0,0,0-.624.7v4.428h-1.536V1.356l1.536-.156V4.644a2.318,2.318,0,0,1,1.848-.936A1.713,1.713,0,0,1,174.235,4.224Z"/><path class="cls-3" d="M176.857,9.99a1.659,1.659,0,0,1-.414-1.206V1.344l1.536-.168v7.56q0,.444.36.444a1.133,1.133,0,0,0,.36-.06l.324,1.08a2.457,2.457,0,0,1-1.02.216A1.524,1.524,0,0,1,176.857,9.99Z"/><path class="cls-3" d="M184.79,9.1a.722.722,0,0,0,.365.27l-.323,1.02a1.971,1.971,0,0,1-.883-.264,1.353,1.353,0,0,1-.521-.66,2.037,2.037,0,0,1-.811.714,2.465,2.465,0,0,1-1.086.234,2.053,2.053,0,0,1-1.5-.54,1.892,1.892,0,0,1-.552-1.416,1.832,1.832,0,0,1,.75-1.578,3.6,3.6,0,0,1,2.142-.546h.792v-.36a1.1,1.1,0,0,0-.281-.858,1.365,1.365,0,0,0-.906-.246,5.35,5.35,0,0,0-1.68.336l-.36-1.044a6.407,6.407,0,0,1,2.3-.456q2.436,0,2.437,2.184V8.556A1.019,1.019,0,0,0,184.79,9.1Zm-1.627-.582V7.236h-.636q-1.488,0-1.487,1.1a1.013,1.013,0,0,0,.228.708.859.859,0,0,0,.671.252A1.358,1.358,0,0,0,183.163,8.52Z"/><path class="cls-3" d="M190.675,4.464l-.6.9a2.982,2.982,0,0,0-1.6-.516,1.235,1.235,0,0,0-.708.174.538.538,0,0,0-.251.462.589.589,0,0,0,.107.36.981.981,0,0,0,.391.27,6.421,6.421,0,0,0,.834.282,3.661,3.661,0,0,1,1.529.732,1.638,1.638,0,0,1,.5,1.272,1.706,1.706,0,0,1-.768,1.482,3.26,3.26,0,0,1-1.908.534,4.033,4.033,0,0,1-1.422-.24,3.462,3.462,0,0,1-1.11-.66l.768-.864a2.833,2.833,0,0,0,1.728.624,1.462,1.462,0,0,0,.822-.2.642.642,0,0,0,.306-.564.756.756,0,0,0-.113-.438.949.949,0,0,0-.409-.288,8.563,8.563,0,0,0-.918-.306,3.066,3.066,0,0,1-1.428-.738,1.637,1.637,0,0,1-.455-1.182,1.569,1.569,0,0,1,.3-.948,2.034,2.034,0,0,1,.865-.66,3.2,3.2,0,0,1,1.277-.24A3.571,3.571,0,0,1,190.675,4.464Z"/><path class="cls-3" d="M197.2,10.236h-1.332l-.084-.888a2.347,2.347,0,0,1-.822.8,2.27,2.27,0,0,1-1.122.264,1.662,1.662,0,0,1-1.314-.522,2.107,2.107,0,0,1-.462-1.446V3.888H193.6V8.256a1.229,1.229,0,0,0,.185.768.723.723,0,0,0,.594.228,1.55,1.55,0,0,0,1.284-.9V3.888H197.2ZM195.739.414a1.379,1.379,0,0,1,.42,1.026,1.379,1.379,0,0,1-.426,1.02,1.5,1.5,0,0,1-1.1.42,1.513,1.513,0,0,1-1.11-.42,1.378,1.378,0,0,1-.425-1.02,1.372,1.372,0,0,1,.425-1.026A1.525,1.525,0,0,1,194.635,0,1.5,1.5,0,0,1,195.739.414ZM194.2.972a.662.662,0,0,0-.156.468.639.639,0,0,0,.156.462.572.572,0,0,0,.432.162.556.556,0,0,0,.42-.162.639.639,0,0,0,.156-.462.662.662,0,0,0-.156-.468.545.545,0,0,0-.42-.168A.56.56,0,0,0,194.2.972Z"/><circle cx="98.581" cy="22.11" r="1.583"/></symbol></defs><line class="cls-4" x1="289.414" y1="220.195" x2="288.414" y2="220.195"/><line class="cls-5" x1="284.465" y1="220.195" x2="79.092" y2="220.195"/><line class="cls-4" x1="77.118" y1="220.195" x2="76.118" y2="220.195"/><line class="cls-4" x1="294.473" y1="262.039" x2="293.473" y2="262.039"/><line class="cls-6" x1="289.43" y1="262.039" x2="79.14" y2="262.039"/><line class="cls-4" x1="77.118" y1="262.039" x2="76.118" y2="262.039"/><line class="cls-4" x1="235.271" y1="133.144" x2="234.271" y2="133.144"/><line class="cls-7" x1="230.342" y1="133.144" x2="79.082" y2="133.144"/><line class="cls-4" x1="77.118" y1="133.144" x2="76.118" y2="133.144"/><line class="cls-4" x1="265.383" y1="174.988" x2="264.383" y2="174.988"/><line class="cls-8" x1="260.44" y1="174.988" x2="79.089" y2="174.988"/><line class="cls-4" x1="77.118" y1="174.988" x2="76.118" y2="174.988"/><line class="cls-4" x1="345.435" y1="303.831" x2="344.435" y2="303.831"/><line class="cls-9" x1="340.446" y1="303.831" x2="79.113" y2="303.831"/><line class="cls-4" x1="77.118" y1="303.831" x2="76.118" y2="303.831"/><line class="cls-4" x1="283.84" y1="346.43" x2="282.84" y2="346.43"/><line class="cls-10" x1="278.884" y1="346.43" x2="79.096" y2="346.43"/><line class="cls-4" x1="77.118" y1="346.43" x2="76.118" y2="346.43"/><line class="cls-4" x1="308.961" y1="387.441" x2="307.961" y2="387.441"/><line class="cls-11" x1="303.981" y1="387.441" x2="79.108" y2="387.441"/><line class="cls-4" x1="77.118" y1="387.441" x2="76.118" y2="387.441"/><g class="cls-12"><path d="M282.947,18.187a5.821,5.821,0,0,1,1.818,1.152l-1.17,1.35a4.6,4.6,0,0,0-1.342-.81,4.1,4.1,0,0,0-1.449-.252,2.318,2.318,0,0,0-1.395.387,1.272,1.272,0,0,0-.531,1.089,1.368,1.368,0,0,0,.207.774,1.922,1.922,0,0,0,.748.576,10.881,10.881,0,0,0,1.6.594,7.29,7.29,0,0,1,2.764,1.431,3.226,3.226,0,0,1,.925,2.493,3.518,3.518,0,0,1-.566,1.98,3.771,3.771,0,0,1-1.629,1.35,6.02,6.02,0,0,1-2.52.486,6.683,6.683,0,0,1-2.546-.459,5.939,5.939,0,0,1-1.936-1.251l1.225-1.368a5.473,5.473,0,0,0,1.494.927,4.491,4.491,0,0,0,1.709.315,2.639,2.639,0,0,0,1.656-.486,1.627,1.627,0,0,0,.629-1.368,1.666,1.666,0,0,0-.215-.891,1.88,1.88,0,0,0-.738-.63,8.991,8.991,0,0,0-1.512-.585,7.091,7.091,0,0,1-2.861-1.476,3.026,3.026,0,0,1-.883-2.268,3.073,3.073,0,0,1,.539-1.8,3.56,3.56,0,0,1,1.5-1.206,5.29,5.29,0,0,1,2.187-.432A6.3,6.3,0,0,1,282.947,18.187Z"/><path d="M294.548,19.069a3.474,3.474,0,0,1,1.322,2.97,3.686,3.686,0,0,1-1.332,3.1,5.62,5.62,0,0,1-3.545,1.035h-1.459v4.338h-2.375V18.079h3.672A6.1,6.1,0,0,1,294.548,19.069Zm-1.808,4.8a2.246,2.246,0,0,0,.646-1.827q0-2.214-2.572-2.214h-1.28V24.4h1.28A2.987,2.987,0,0,0,292.74,23.866Z"/><path d="M305.491,19.393q1.738,1.314,1.737,4.842,0,3.456-1.709,4.869a6.585,6.585,0,0,1-4.338,1.413H297.8V18.079h3.061A7.494,7.494,0,0,1,305.491,19.393Zm-5.318.468v8.874h1.17a3.206,3.206,0,0,0,2.484-.981,5.248,5.248,0,0,0,.9-3.519,6.481,6.481,0,0,0-.459-2.727,2.555,2.555,0,0,0-1.2-1.3,4.281,4.281,0,0,0-1.791-.342Z"/></g><path class="cls-13" d="M62.611,484.1l-.645-2.45H58.732l-.644,2.45h-1.3l2.786-9.631h1.6l2.786,9.631ZM59,480.624h2.7L60.357,475.5Z"/><path class="cls-13" d="M69.855,477.131a2.386,2.386,0,0,1,.5,1.6V484.1h-1.26v-5.207a1.731,1.731,0,0,0-.238-1.03.854.854,0,0,0-.728-.314q-.924,0-1.679,1.315V484.1H65.186v-7.364h1.093l.1,1.092a2.486,2.486,0,0,1,2.1-1.273A1.717,1.717,0,0,1,69.855,477.131Z"/><path class="cls-13" d="M77.283,483.081a.769.769,0,0,0,.391.329l-.266.854a1.746,1.746,0,0,1-.854-.336,1.378,1.378,0,0,1-.434-.77,2.251,2.251,0,0,1-2,1.12,2.036,2.036,0,0,1-1.554-.608,2.281,2.281,0,0,1-.574-1.632,2.158,2.158,0,0,1,.77-1.792,3.447,3.447,0,0,1,2.2-.615h.951V479a1.618,1.618,0,0,0-.314-1.113,1.339,1.339,0,0,0-1.029-.342,5.1,5.1,0,0,0-1.791.391l-.309-.881a6.088,6.088,0,0,1,2.3-.5,2.115,2.115,0,0,1,2.394,2.393v3.472A1.36,1.36,0,0,0,77.283,483.081Zm-1.374-.9v-1.736H75.1q-1.821,0-1.819,1.527a1.53,1.53,0,0,0,.293,1.008,1.038,1.038,0,0,0,.839.349A1.631,1.631,0,0,0,75.909,482.178Z"/><path class="cls-13" d="M79.606,483.872a1.564,1.564,0,0,1-.392-1.134V473.75l1.26-.14V482.7c0,.365.148.546.447.546a1.142,1.142,0,0,0,.406-.084l.281.882a1.973,1.973,0,0,1-.939.238A1.406,1.406,0,0,1,79.606,483.872Z"/><path class="cls-13" d="M85.612,484.124a4.718,4.718,0,0,1-1.107,2.017,3.513,3.513,0,0,1-2.029.91l-.141-.939a3.39,3.39,0,0,0,1.051-.378,1.894,1.894,0,0,0,.63-.616,5.128,5.128,0,0,0,.462-1.022h-.462l-2.185-7.364h1.3l1.708,6.483,1.708-6.483h1.287Zm.139-11.186.533,1.008L83.6,475.164l-.364-.644Z"/><path class="cls-13" d="M93.1,476.732v.938l-3.486,5.391h3.5L92.99,484.1H88.23v-.938l3.486-5.39H88.525v-1.036Z"/><path class="cls-13" d="M99.163,483.081a.778.778,0,0,0,.393.329l-.266.854a1.742,1.742,0,0,1-.854-.336,1.373,1.373,0,0,1-.435-.77,2.248,2.248,0,0,1-2,1.12,2.035,2.035,0,0,1-1.553-.608,2.281,2.281,0,0,1-.574-1.632,2.158,2.158,0,0,1,.77-1.792,3.447,3.447,0,0,1,2.2-.615h.953V479a1.618,1.618,0,0,0-.315-1.113,1.34,1.34,0,0,0-1.028-.342,5.117,5.117,0,0,0-1.793.391l-.308-.881a6.092,6.092,0,0,1,2.3-.5,2.115,2.115,0,0,1,2.394,2.393v3.472A1.363,1.363,0,0,0,99.163,483.081Zm-1.371-.9v-1.736H96.98q-1.82,0-1.821,1.527a1.525,1.525,0,0,0,.295,1.008,1.039,1.039,0,0,0,.84.349A1.634,1.634,0,0,0,97.792,482.178Z"/><path class="cls-13" d="M102.279,477.551a.879.879,0,0,1,.245.623.9.9,0,0,1-.245.631.831.831,0,0,1-.637.265.813.813,0,0,1-.623-.265.9.9,0,0,1-.245-.631.875.875,0,0,1,.245-.623.822.822,0,0,1,.623-.259A.841.841,0,0,1,102.279,477.551Zm0,5.209a.874.874,0,0,1,.245.623.9.9,0,0,1-.245.629.829.829,0,0,1-.637.266.811.811,0,0,1-.623-.266.894.894,0,0,1-.245-.629.87.87,0,0,1,.245-.623.816.816,0,0,1,.623-.26A.834.834,0,0,1,102.279,482.76Z"/><path class="cls-13" d="M109.132,482.752a3.9,3.9,0,0,1-.273,1.568,2.5,2.5,0,0,1-.77.994,5.076,5.076,0,0,1-1.281.672l-.351-.924a3.23,3.23,0,0,0,.862-.567,1.555,1.555,0,0,0,.4-.7,4.376,4.376,0,0,0,.111-1.1v-8.231h1.3Z"/><path class="cls-13" d="M116.1,483.081a.78.78,0,0,0,.392.329l-.265.854a1.746,1.746,0,0,1-.855-.336,1.373,1.373,0,0,1-.434-.77,2.25,2.25,0,0,1-2,1.12,2.037,2.037,0,0,1-1.554-.608,2.28,2.28,0,0,1-.573-1.632,2.16,2.16,0,0,1,.769-1.792,3.449,3.449,0,0,1,2.2-.615h.953V479a1.617,1.617,0,0,0-.316-1.113,1.338,1.338,0,0,0-1.028-.342,5.121,5.121,0,0,0-1.793.391l-.308-.881a6.1,6.1,0,0,1,2.3-.5,2.116,2.116,0,0,1,2.395,2.393v3.472A1.363,1.363,0,0,0,116.1,483.081Zm-1.371-.9v-1.736h-.813q-1.819,0-1.82,1.527a1.525,1.525,0,0,0,.3,1.008,1.036,1.036,0,0,0,.84.349A1.636,1.636,0,0,0,114.732,482.178Z"/><path class="cls-13" d="M119.505,473.61V484.1h-1.26V473.75Zm3.878,3.122-2.492,3.276,2.729,4.088h-1.4l-2.646-4.032,2.493-3.332Z"/><path class="cls-13" d="M129.725,484.1h-1.092l-.07-1.106a2.319,2.319,0,0,1-2.058,1.288,1.75,1.75,0,0,1-1.387-.574,2.274,2.274,0,0,1-.5-1.554v-5.418h1.259v5.306a1.481,1.481,0,0,0,.246.945.891.891,0,0,0,.735.3q.938,0,1.61-1.231v-5.321h1.26Z"/><path class="cls-13" d="M136.956,477.537a5.307,5.307,0,0,1,.637,2.863,5.054,5.054,0,0,1-.693,2.835,2.15,2.15,0,0,1-1.883,1.043A2.072,2.072,0,0,1,134,484.02a2.431,2.431,0,0,1-.8-.736l-.084.812h-1.12V473.764l1.26-.14v4a2.661,2.661,0,0,1,.833-.791,2.052,2.052,0,0,1,1.072-.287A2.021,2.021,0,0,1,136.956,477.537Zm-.679,2.863a4.675,4.675,0,0,0-.377-2.2,1.187,1.187,0,0,0-1.078-.65,1.351,1.351,0,0,0-.862.293,3.283,3.283,0,0,0-.707.826v3.654a2.341,2.341,0,0,0,.645.7,1.406,1.406,0,0,0,.825.266Q136.277,483.284,136.277,480.4Z"/><path class="cls-13" d="M144.089,474.465v8.525H147.6l-.139,1.106h-4.678v-9.631Z"/><path class="cls-13" d="M150.794,484.124a4.727,4.727,0,0,1-1.105,2.017,3.525,3.525,0,0,1-2.031.91l-.139-.939a3.386,3.386,0,0,0,1.049-.378,1.907,1.907,0,0,0,.631-.616,5.185,5.185,0,0,0,.462-1.022H149.2l-2.184-7.364h1.3l1.709,6.483,1.707-6.483h1.289Z"/><path class="cls-13" d="M158.341,477.391l-.531.742a4.3,4.3,0,0,0-.842-.463,2.218,2.218,0,0,0-.824-.154,1.372,1.372,0,0,0-.9.273.922.922,0,0,0-.329.749.9.9,0,0,0,.315.728,3.792,3.792,0,0,0,1.2.546,3.968,3.968,0,0,1,1.61.854,1.879,1.879,0,0,1,.5,1.387,1.966,1.966,0,0,1-.755,1.631,2.962,2.962,0,0,1-1.889.594,3.522,3.522,0,0,1-2.535-.994l.644-.7a2.913,2.913,0,0,0,1.862.715,1.528,1.528,0,0,0,.994-.309,1.041,1.041,0,0,0,.379-.853,1.3,1.3,0,0,0-.133-.631,1.184,1.184,0,0,0-.477-.427,5.822,5.822,0,0,0-1-.4,3.653,3.653,0,0,1-1.511-.84,1.738,1.738,0,0,1-.461-1.246,1.845,1.845,0,0,1,.306-1.049,2.108,2.108,0,0,1,.856-.729,2.841,2.841,0,0,1,1.26-.265A3.411,3.411,0,0,1,158.341,477.391Z"/><path class="cls-13" d="M165.284,480.848H161a3.163,3.163,0,0,0,.518,1.855,1.538,1.538,0,0,0,1.26.567,2.48,2.48,0,0,0,.9-.154,3.136,3.136,0,0,0,.834-.5l.559.742a3.432,3.432,0,0,1-2.352.924,2.678,2.678,0,0,1-2.232-1,4.421,4.421,0,0,1-.791-2.806,4.835,4.835,0,0,1,.755-2.864,2.437,2.437,0,0,1,2.1-1.056,2.41,2.41,0,0,1,2.045.944,4.407,4.407,0,0,1,.713,2.695C165.312,480.387,165.3,480.605,165.284,480.848Zm-1.189-1.036q0-2.312-1.527-2.31a1.28,1.28,0,0,0-1.106.581,3.645,3.645,0,0,0-.461,1.884H164.1Z"/><path class="cls-13" d="M168.322,473.61V484.1h-1.26V473.75Zm3.878,3.122-2.492,3.276,2.731,4.088h-1.4l-2.646-4.032,2.492-3.332Z"/><path class="cls-13" d="M174.581,482.752a.861.861,0,0,1,.237.616,1.37,1.37,0,0,1-.063.406q-.061.21-.2.6l-.769,1.974H173l.518-2.226a.837.837,0,0,1-.406-.741.875.875,0,0,1,.244-.631.833.833,0,0,1,.623-.252A.8.8,0,0,1,174.581,482.752Z"/><path class="cls-13" d="M181.216,474.465V484.1h-1.3v-9.631Zm4.733,0-3.262,4.4,3.486,5.236h-1.5l-3.4-5.152,3.289-4.479Z"/><path class="cls-13" d="M192.15,475.206a2.7,2.7,0,0,1,.91,2.226,2.841,2.841,0,0,1-.932,2.332,3.969,3.969,0,0,1-2.582.762h-.924v3.57h-1.3v-9.631H189.5A4.1,4.1,0,0,1,192.15,475.206Zm-.994,3.851a2.025,2.025,0,0,0,.546-1.611,1.91,1.91,0,0,0-.539-1.518,2.454,2.454,0,0,0-1.646-.47h-.895v4.06h.881A2.518,2.518,0,0,0,191.156,479.057Z"/><path class="cls-13" d="M199.429,474.465l-.152,1.008h-3.332v3.177h2.9v1.008h-2.9v3.416h3.527V484.1h-4.83v-9.631Z"/><path class="cls-13" d="M204.841,474.562a3.981,3.981,0,0,1,1.2.84l-.658.743a3.617,3.617,0,0,0-.945-.624,2.553,2.553,0,0,0-1.016-.2,1.622,1.622,0,0,0-1.127.385,1.3,1.3,0,0,0-.426,1.016,1.446,1.446,0,0,0,.168.72,1.529,1.529,0,0,0,.575.546,6.044,6.044,0,0,0,1.146.5,7.041,7.041,0,0,1,1.4.659,2.4,2.4,0,0,1,.839.895,2.847,2.847,0,0,1,.295,1.372,2.887,2.887,0,0,1-.379,1.477,2.637,2.637,0,0,1-1.084,1.022,3.531,3.531,0,0,1-1.66.371,4.019,4.019,0,0,1-2.982-1.26l.687-.742a4.2,4.2,0,0,0,1.057.707,2.863,2.863,0,0,0,1.2.246,1.854,1.854,0,0,0,1.323-.469,1.693,1.693,0,0,0,.5-1.3,1.581,1.581,0,0,0-.4-1.135,3.73,3.73,0,0,0-1.463-.783,4.94,4.94,0,0,1-1.953-1.107,2.288,2.288,0,0,1-.594-1.637,2.438,2.438,0,0,1,.356-1.3,2.4,2.4,0,0,1,1-.9,3.219,3.219,0,0,1,1.455-.322A3.681,3.681,0,0,1,204.841,474.562Z"/><path class="cls-13" d="M217.308,481.268a2.826,2.826,0,0,1-3.08,3.01,2.982,2.982,0,0,1-2.281-.833,3.041,3.041,0,0,1-.786-2.177v-6.8h1.3v6.719q0,2.029,1.764,2.031t1.763-2.031v-6.719h1.317Z"/><path class="cls-13" d="M224.363,475.206a2.7,2.7,0,0,1,.91,2.226,2.846,2.846,0,0,1-.93,2.332,3.975,3.975,0,0,1-2.584.762h-.924v3.57h-1.3v-9.631h2.184A4.1,4.1,0,0,1,224.363,475.206Zm-.993,3.851a2.021,2.021,0,0,0,.545-1.611,1.91,1.91,0,0,0-.539-1.518,2.451,2.451,0,0,0-1.644-.47h-.9v4.06h.883A2.52,2.52,0,0,0,223.37,479.057Z"/><path class="cls-13" d="M232.771,475.549a7.539,7.539,0,0,1,.008,7.441,3.52,3.52,0,0,1-5.426.022,5.966,5.966,0,0,1-.987-3.717,7.289,7.289,0,0,1,.456-2.738,3.658,3.658,0,0,1,1.287-1.7,3.367,3.367,0,0,1,1.953-.573A3.248,3.248,0,0,1,232.771,475.549Zm-5.033,3.746q0,3.933,2.324,3.934a1.92,1.92,0,0,0,1.736-.939,7.948,7.948,0,0,0-.008-6.02,1.916,1.916,0,0,0-1.728-.952Q227.739,475.318,227.738,479.3Z"/><path class="cls-13" d="M236.95,474.465v8.525h3.514l-.14,1.106h-4.676v-9.631Z"/><path class="cls-13" d="M250.32,472.8v12.725h-1.176V472.8Z"/><path class="cls-13" d="M265.8,474.465l-2.66,9.631h-1.553l-2.7-9.631h1.346l2.154,8.371,2.129-8.371Z"/><path class="cls-13" d="M268.273,473.5a.813.813,0,0,1,.23.588.841.841,0,0,1-1.42.581.784.784,0,0,1-.23-.581.813.813,0,0,1,.23-.588.863.863,0,0,1,1.19,0Zm.035,3.234V484.1h-1.26v-7.364Z"/><path class="cls-13" d="M274.6,476.732v.938l-3.486,5.391h3.5l-.127,1.035h-4.76v-.938l3.486-5.39h-3.191v-1.036Z"/><path class="cls-13" d="M281.048,484.1h-1.092l-.07-1.106a2.321,2.321,0,0,1-2.059,1.288,1.745,1.745,0,0,1-1.384-.574,2.27,2.27,0,0,1-.5-1.554v-5.418h1.26v5.306a1.494,1.494,0,0,0,.244.945.892.892,0,0,0,.736.3q.938,0,1.609-1.231v-5.321h1.26Z"/><path class="cls-13" d="M288.034,483.081a.778.778,0,0,0,.393.329l-.268.854a1.746,1.746,0,0,1-.853-.336,1.378,1.378,0,0,1-.434-.77,2.249,2.249,0,0,1-2,1.12,2.036,2.036,0,0,1-1.554-.608,2.282,2.282,0,0,1-.575-1.632,2.159,2.159,0,0,1,.772-1.792,3.444,3.444,0,0,1,2.2-.615h.953V479a1.612,1.612,0,0,0-.316-1.113,1.338,1.338,0,0,0-1.029-.342,5.116,5.116,0,0,0-1.791.391l-.309-.881a6.1,6.1,0,0,1,2.3-.5,2.115,2.115,0,0,1,2.393,2.393v3.472A1.361,1.361,0,0,0,288.034,483.081Zm-1.371-.9v-1.736h-.812q-1.82,0-1.82,1.527a1.53,1.53,0,0,0,.293,1.008,1.041,1.041,0,0,0,.841.349A1.634,1.634,0,0,0,286.663,482.178Z"/><path class="cls-13" d="M290.359,483.872a1.561,1.561,0,0,1-.393-1.134V473.75l1.26-.14V482.7c0,.365.15.546.449.546a1.132,1.132,0,0,0,.4-.084l.282.882a1.974,1.974,0,0,1-.94.238A1.4,1.4,0,0,1,290.359,483.872Z"/><path class="cls-13" d="M294.958,473.5a.818.818,0,0,1,.231.588.782.782,0,0,1-.826.812.807.807,0,0,1-.6-.231.785.785,0,0,1-.231-.581.814.814,0,0,1,.231-.588.864.864,0,0,1,1.191,0Zm.033,3.234V484.1h-1.259v-7.364Z"/><path class="cls-13" d="M301.279,476.732v.938l-3.487,5.391h3.5l-.127,1.035h-4.759v-.938l3.486-5.39H296.7v-1.036Z"/><path class="cls-13" d="M307.339,483.081a.778.778,0,0,0,.393.329l-.266.854a1.746,1.746,0,0,1-.853-.336,1.378,1.378,0,0,1-.434-.77,2.253,2.253,0,0,1-2,1.12,2.038,2.038,0,0,1-1.555-.608,2.285,2.285,0,0,1-.574-1.632,2.158,2.158,0,0,1,.77-1.792,3.448,3.448,0,0,1,2.2-.615h.951V479a1.623,1.623,0,0,0-.314-1.113,1.342,1.342,0,0,0-1.03-.342,5.126,5.126,0,0,0-1.793.391l-.306-.881a6.084,6.084,0,0,1,2.3-.5,2.116,2.116,0,0,1,2.394,2.393v3.472A1.363,1.363,0,0,0,307.339,483.081Zm-1.371-.9v-1.736h-.812q-1.82,0-1.821,1.527a1.536,1.536,0,0,0,.3,1.008,1.039,1.039,0,0,0,.84.349A1.636,1.636,0,0,0,305.968,482.178Z"/><path class="cls-13" d="M313.122,476.746a3.156,3.156,0,0,1,.938.6l-.561.756a2.713,2.713,0,0,0-.672-.4,1.971,1.971,0,0,0-.728-.133,1.447,1.447,0,0,0-1.281.7,4.1,4.1,0,0,0-.455,2.185q0,2.774,1.736,2.773a1.87,1.87,0,0,0,.715-.133,3.36,3.36,0,0,0,.685-.4l.588.771a2.939,2.939,0,0,1-2.029.811,2.716,2.716,0,0,1-2.219-.979,4.356,4.356,0,0,1-.806-2.828,5.381,5.381,0,0,1,.371-2.086,3.061,3.061,0,0,1,1.05-1.359,2.7,2.7,0,0,1,1.59-.475A2.879,2.879,0,0,1,313.122,476.746Z"/><path class="cls-13" d="M320.347,480.848h-4.285a3.186,3.186,0,0,0,.517,1.855,1.541,1.541,0,0,0,1.26.567,2.487,2.487,0,0,0,.9-.154,3.128,3.128,0,0,0,.832-.5l.561.742a3.434,3.434,0,0,1-2.352.924,2.684,2.684,0,0,1-2.234-1,4.427,4.427,0,0,1-.791-2.806,4.835,4.835,0,0,1,.758-2.864,2.434,2.434,0,0,1,2.1-1.056,2.4,2.4,0,0,1,2.043.944,4.394,4.394,0,0,1,.715,2.695C320.374,480.387,320.365,480.605,320.347,480.848Zm-1.191-1.036q0-2.312-1.526-2.31a1.274,1.274,0,0,0-1.105.581,3.633,3.633,0,0,0-.463,1.884h3.094Z"/><path class="cls-13" d="M323.1,477.551a.882.882,0,0,1,.244.623.907.907,0,0,1-.244.631.834.834,0,0,1-.639.265.815.815,0,0,1-.623-.265.907.907,0,0,1-.244-.631.882.882,0,0,1,.244-.623.824.824,0,0,1,.623-.259A.844.844,0,0,1,323.1,477.551Zm0,5.209a.877.877,0,0,1,.244.623.9.9,0,0,1-.244.629.831.831,0,0,1-.639.266.812.812,0,0,1-.623-.266.9.9,0,0,1-.244-.629.877.877,0,0,1,.244-.623.817.817,0,0,1,.623-.26A.837.837,0,0,1,323.1,482.76Z"/><path class="cls-13" d="M329.607,473.5a.822.822,0,0,1,.23.588.78.78,0,0,1-.826.812.81.81,0,0,1-.6-.231.784.784,0,0,1-.23-.581.813.813,0,0,1,.23-.588.865.865,0,0,1,1.192,0Zm.033,3.234V484.1h-1.26v-7.364Z"/><path class="cls-13" d="M336.7,484.1l-2.073-4.1h-1.357v4.1h-1.3v-9.631h2.254q3.442,0,3.443,2.715a2.725,2.725,0,0,1-.463,1.61,2.632,2.632,0,0,1-1.357.966l2.3,4.34Zm-.881-5.537a1.767,1.767,0,0,0,.49-1.379,1.605,1.605,0,0,0-.5-1.3,2.493,2.493,0,0,0-1.617-.421h-.924V479h1.051A2.181,2.181,0,0,0,335.816,478.559Z"/><path class="cls-13" d="M345.384,475.549a7.539,7.539,0,0,1,.008,7.441,3.52,3.52,0,0,1-5.426.022,5.967,5.967,0,0,1-.986-3.717,7.29,7.29,0,0,1,.455-2.738,3.664,3.664,0,0,1,1.287-1.7,3.369,3.369,0,0,1,1.953-.573A3.247,3.247,0,0,1,345.384,475.549Zm-5.033,3.746q0,3.933,2.324,3.934a1.919,1.919,0,0,0,1.736-.939,7.954,7.954,0,0,0-.007-6.02,1.919,1.919,0,0,0-1.729-.952Q340.352,475.318,340.351,479.3Z"/><path class="cls-13" d="M352.839,474.465V475.5l-4.34,7.49h4.326l-.14,1.106h-5.613v-1.035l4.367-7.519h-3.934v-1.077Z"/><path class="cls-13" d="M359.322,484.1v-4.522h-3.5V484.1h-1.3v-9.631h1.3v4.045h3.5v-4.045h1.3V484.1Z"/><path class="cls-13" d="M364.306,474.465v8.525h3.514l-.141,1.106H363v-9.631Z"/><path class="cls-13" d="M373.937,484.1l-.645-2.45h-3.234l-.643,2.45h-1.3l2.785-9.631h1.6l2.786,9.631Zm-3.613-3.472h2.7l-1.344-5.124Z"/><path class="cls-13" d="M380.341,474.562a3.932,3.932,0,0,1,1.2.84l-.658.743a3.585,3.585,0,0,0-.945-.624,2.55,2.55,0,0,0-1.014-.2,1.619,1.619,0,0,0-1.127.385,1.3,1.3,0,0,0-.428,1.016,1.468,1.468,0,0,0,.168.72,1.529,1.529,0,0,0,.575.546,6.072,6.072,0,0,0,1.148.5,7.15,7.15,0,0,1,1.4.659,2.413,2.413,0,0,1,.839.895,3.208,3.208,0,0,1-.084,2.849,2.643,2.643,0,0,1-1.086,1.022,3.517,3.517,0,0,1-1.658.371,4.013,4.013,0,0,1-2.982-1.26l.685-.742a4.236,4.236,0,0,0,1.057.707,2.869,2.869,0,0,0,1.2.246,1.855,1.855,0,0,0,1.324-.469,1.7,1.7,0,0,0,.5-1.3,1.58,1.58,0,0,0-.4-1.135,3.73,3.73,0,0,0-1.463-.783,4.926,4.926,0,0,1-1.953-1.107,2.289,2.289,0,0,1-.6-1.637,2.41,2.41,0,0,1,1.358-2.2,3.227,3.227,0,0,1,1.457-.322A3.671,3.671,0,0,1,380.341,474.562Z"/><path class="cls-13" d="M384.429,482.76a.869.869,0,0,1,.244.623.893.893,0,0,1-.244.629.827.827,0,0,1-.637.266.809.809,0,0,1-.623-.266.9.9,0,0,1-.246-.629.871.871,0,0,1,.246-.623.814.814,0,0,1,.623-.26A.833.833,0,0,1,384.429,482.76Z"/><path class="cls-13" d="M389.925,476.746a3.168,3.168,0,0,1,.938.6l-.561.756a2.731,2.731,0,0,0-.672-.4,1.975,1.975,0,0,0-.728-.133,1.45,1.45,0,0,0-1.282.7,4.114,4.114,0,0,0-.455,2.185q0,2.774,1.737,2.773a1.865,1.865,0,0,0,.714-.133,3.366,3.366,0,0,0,.686-.4l.588.771a2.943,2.943,0,0,1-2.029.811,2.715,2.715,0,0,1-2.219-.979,4.356,4.356,0,0,1-.807-2.828,5.381,5.381,0,0,1,.371-2.086,3.063,3.063,0,0,1,1.051-1.359,2.7,2.7,0,0,1,1.59-.475A2.879,2.879,0,0,1,389.925,476.746Z"/><path class="cls-13" d="M396.294,476.732v.938l-3.486,5.391h3.5l-.125,1.035h-4.76v-.938l3.485-5.39h-3.192v-1.036Z"/><path class="cls-13" d="M398.743,482.752a.863.863,0,0,1,.239.616,1.439,1.439,0,0,1-.063.406q-.065.21-.2.6l-.769,1.974h-.786l.518-2.226a.841.841,0,0,1-.406-.741.868.868,0,0,1,.246-.631.83.83,0,0,1,.623-.252A.79.79,0,0,1,398.743,482.752Z"/><path class="cls-13" d="M405.38,474.465V484.1h-1.3v-9.631Zm4.731,0-3.262,4.4,3.486,5.236h-1.5l-3.4-5.152,3.291-4.479Z"/><path class="cls-13" d="M415.081,476.648l-.209,1.218a1.928,1.928,0,0,0-.574-.084,1.217,1.217,0,0,0-1,.489,3.819,3.819,0,0,0-.609,1.5V484.1h-1.26v-7.364h1.092l.1,1.456q.546-1.624,1.834-1.624A2.092,2.092,0,0,1,415.081,476.648Z"/><path class="cls-13" d="M417.538,473.5a.81.81,0,0,1,.231.588.841.841,0,0,1-1.42.581.785.785,0,0,1-.231-.581.814.814,0,0,1,.231-.588.862.862,0,0,1,1.189,0Zm.036,3.234V484.1h-1.26v-7.364Z"/><path class="cls-13" d="M424.013,477.391l-.531.742a4.287,4.287,0,0,0-.84-.463,2.236,2.236,0,0,0-.826-.154,1.371,1.371,0,0,0-.9.273.92.92,0,0,0-.33.749.9.9,0,0,0,.317.728,3.753,3.753,0,0,0,1.2.546,3.959,3.959,0,0,1,1.611.854,1.875,1.875,0,0,1,.5,1.387,1.964,1.964,0,0,1-.756,1.631,2.965,2.965,0,0,1-1.89.594,3.517,3.517,0,0,1-2.533-.994l.642-.7a2.914,2.914,0,0,0,1.863.715,1.529,1.529,0,0,0,1-.309,1.039,1.039,0,0,0,.377-.853,1.3,1.3,0,0,0-.133-.631,1.17,1.17,0,0,0-.477-.427,5.858,5.858,0,0,0-1-.4,3.638,3.638,0,0,1-1.512-.84,1.743,1.743,0,0,1-.462-1.246,1.847,1.847,0,0,1,.308-1.049,2.108,2.108,0,0,1,.854-.729,2.84,2.84,0,0,1,1.259-.265A3.408,3.408,0,0,1,424.013,477.391Z"/><path class="cls-13" d="M429.306,483.774a2.6,2.6,0,0,1-1.555.5,1.8,1.8,0,0,1-1.379-.518,2.051,2.051,0,0,1-.482-1.455v-4.621h-1.051v-.952h1.051v-1.694l1.26-.153v1.847h1.623l-.139.952H427.15v4.606q0,.952.8.952a1.329,1.329,0,0,0,.441-.07,2.971,2.971,0,0,0,.455-.209Z"/><path class="cls-13" d="M431.952,472.938l.532,1.008-2.688,1.218-.365-.644Zm-.294,3.794V484.1H430.4v-7.364Z"/><path class="cls-13" d="M438.6,477.131a2.4,2.4,0,0,1,.5,1.6V484.1h-1.26v-5.207a1.724,1.724,0,0,0-.238-1.03.85.85,0,0,0-.727-.314c-.617,0-1.175.437-1.681,1.315V484.1h-1.26v-7.364h1.092l.1,1.092a2.484,2.484,0,0,1,2.1-1.273A1.719,1.719,0,0,1,438.6,477.131Z"/><path class="cls-13" d="M446.021,483.081a.78.78,0,0,0,.392.329l-.265.854a1.746,1.746,0,0,1-.854-.336,1.377,1.377,0,0,1-.433-.77,2.253,2.253,0,0,1-2,1.12,2.036,2.036,0,0,1-1.555-.608,2.281,2.281,0,0,1-.574-1.632,2.16,2.16,0,0,1,.769-1.792,3.451,3.451,0,0,1,2.2-.615h.951V479a1.623,1.623,0,0,0-.315-1.113,1.339,1.339,0,0,0-1.029-.342,5.121,5.121,0,0,0-1.793.391l-.307-.881a6.088,6.088,0,0,1,2.295-.5,2.116,2.116,0,0,1,2.4,2.393v3.472A1.363,1.363,0,0,0,446.021,483.081Zm-1.371-.9v-1.736h-.813q-1.819,0-1.82,1.527a1.53,1.53,0,0,0,.3,1.008,1.038,1.038,0,0,0,.84.349A1.636,1.636,0,0,0,444.65,482.178Z"/><path class="cls-13" d="M456.437,474.465V475.5l-4.34,7.49h4.326l-.14,1.106h-5.614v-1.035l4.367-7.519H451.1v-1.077Z"/><path class="cls-13" d="M462.568,483.081a.78.78,0,0,0,.392.329l-.265.854a1.746,1.746,0,0,1-.854-.336,1.372,1.372,0,0,1-.433-.77,2.253,2.253,0,0,1-2,1.12,2.036,2.036,0,0,1-1.555-.608,2.281,2.281,0,0,1-.574-1.632,2.16,2.16,0,0,1,.769-1.792,3.45,3.45,0,0,1,2.2-.615h.952V479a1.623,1.623,0,0,0-.315-1.113,1.341,1.341,0,0,0-1.029-.342,5.117,5.117,0,0,0-1.793.391l-.307-.881a6.088,6.088,0,0,1,2.3-.5,2.116,2.116,0,0,1,2.395,2.393v3.472A1.363,1.363,0,0,0,462.568,483.081Zm-1.61-10.143.533,1.008-2.689,1.218-.363-.644Zm.239,9.24v-1.736h-.813q-1.82,0-1.82,1.527a1.53,1.53,0,0,0,.295,1.008,1.038,1.038,0,0,0,.84.349A1.636,1.636,0,0,0,461.2,482.178Z"/><path class="cls-13" d="M465.97,473.61V484.1h-1.26V473.75Zm3.879,3.122-2.492,3.276,2.73,4.088h-1.4l-2.647-4.032,2.493-3.332Z"/><path class="cls-13" d="M475.868,477.545a4.513,4.513,0,0,1,.784,2.855,4.559,4.559,0,0,1-.8,2.835,2.865,2.865,0,0,1-4.405.021,5.49,5.49,0,0,1,.008-5.691,2.923,2.923,0,0,1,4.41-.02Zm-3.459.706a4.189,4.189,0,0,0-.433,2.163q0,2.871,1.68,2.87t1.681-2.884a4.259,4.259,0,0,0-.42-2.156,1.37,1.37,0,0,0-1.246-.685A1.4,1.4,0,0,0,472.409,478.251Z"/><path class="cls-13" d="M483.464,477.545a5.468,5.468,0,0,1,.61,2.842,5.185,5.185,0,0,1-.68,2.842,2.143,2.143,0,0,1-1.9,1.049,2.116,2.116,0,0,1-1.765-.882v3.5l-1.26.155V476.732h1.107l.069.995a2.292,2.292,0,0,1,2-1.176A1.993,1.993,0,0,1,483.464,477.545Zm-.707,2.855a4.938,4.938,0,0,0-.357-2.177,1.159,1.159,0,0,0-1.086-.678,1.378,1.378,0,0,0-.867.293,3.364,3.364,0,0,0-.715.8v3.723a1.7,1.7,0,0,0,1.47.91Q482.759,483.27,482.757,480.4Z"/><path class="cls-13" d="M489.562,476.746a3.164,3.164,0,0,1,.937.6l-.56.756a2.749,2.749,0,0,0-.672-.4,1.98,1.98,0,0,0-.729-.133,1.449,1.449,0,0,0-1.281.7,4.1,4.1,0,0,0-.455,2.185q0,2.774,1.736,2.773a1.87,1.87,0,0,0,.715-.133,3.366,3.366,0,0,0,.686-.4l.588.771a2.944,2.944,0,0,1-2.03.811,2.714,2.714,0,0,1-2.218-.979,4.35,4.35,0,0,1-.807-2.828,5.381,5.381,0,0,1,.371-2.086,3.063,3.063,0,0,1,1.051-1.359,2.7,2.7,0,0,1,1.59-.475A2.883,2.883,0,0,1,489.562,476.746Zm.5-3.611.488.559-1.693,1.624h-.784l-1.695-1.624.49-.559,1.6,1.231Z"/><path class="cls-13" d="M496.49,483.081a.776.776,0,0,0,.392.329l-.266.854a1.746,1.746,0,0,1-.853-.336,1.378,1.378,0,0,1-.434-.77,2.251,2.251,0,0,1-2,1.12,2.036,2.036,0,0,1-1.554-.608,2.281,2.281,0,0,1-.574-1.632,2.157,2.157,0,0,1,.769-1.792,3.45,3.45,0,0,1,2.2-.615h.951V479a1.623,1.623,0,0,0-.314-1.113,1.341,1.341,0,0,0-1.029-.342,5.117,5.117,0,0,0-1.793.391l-.307-.881a6.084,6.084,0,0,1,2.3-.5,2.116,2.116,0,0,1,2.395,2.393v3.472A1.363,1.363,0,0,0,496.49,483.081Zm-1.372-.9v-1.736h-.812q-1.819,0-1.82,1.527a1.53,1.53,0,0,0,.3,1.008,1.037,1.037,0,0,0,.839.349A1.634,1.634,0,0,0,495.118,482.178Z"/><path class="cls-13" d="M503.3,477.131a2.4,2.4,0,0,1,.5,1.6V484.1h-1.26v-5.207a1.724,1.724,0,0,0-.238-1.03.849.849,0,0,0-.726-.314c-.618,0-1.176.437-1.682,1.315V484.1h-1.26v-7.364h1.092l.1,1.092a2.481,2.481,0,0,1,2.1-1.273A1.719,1.719,0,0,1,503.3,477.131Z"/><path class="cls-13" d="M510.769,477.545a5.506,5.506,0,0,1-.014,5.69,2.862,2.862,0,0,1-4.4.021,5.49,5.49,0,0,1,.008-5.691,2.921,2.921,0,0,1,4.408-.02Zm-3.457.706a4.188,4.188,0,0,0-.434,2.163q0,2.871,1.68,2.87t1.68-2.884a4.269,4.269,0,0,0-.42-2.156,1.37,1.37,0,0,0-1.246-.685A1.4,1.4,0,0,0,507.312,478.251Z"/><path class="cls-13" d="M518.288,476.732l-2.2,7.364h-1.514l-2.267-7.364h1.316l1.709,6.3,1.694-6.3Z"/><path class="cls-13" d="M524.07,483.081a.776.776,0,0,0,.392.329l-.265.854a1.746,1.746,0,0,1-.854-.336,1.378,1.378,0,0,1-.434-.77,2.251,2.251,0,0,1-2,1.12,2.036,2.036,0,0,1-1.555-.608,2.281,2.281,0,0,1-.574-1.632,2.157,2.157,0,0,1,.769-1.792,3.45,3.45,0,0,1,2.2-.615h.952V479a1.623,1.623,0,0,0-.315-1.113,1.341,1.341,0,0,0-1.029-.342,5.117,5.117,0,0,0-1.793.391l-.307-.881a6.084,6.084,0,0,1,2.295-.5,2.116,2.116,0,0,1,2.4,2.393v3.472A1.363,1.363,0,0,0,524.07,483.081Zm-1.61-10.143.533,1.008-2.689,1.218-.363-.644Zm.239,9.24v-1.736h-.813q-1.819,0-1.82,1.527a1.53,1.53,0,0,0,.295,1.008,1.037,1.037,0,0,0,.839.349A1.636,1.636,0,0,0,522.7,482.178Z"/><line class="cls-14" x1="291.923" y1="91.796" x2="291.923" y2="423.676"/><line class="cls-14" x1="148.072" y1="420.001" x2="148.072" y2="423.481"/><line class="cls-14" x1="76.118" y1="420.001" x2="76.118" y2="423.481"/><line class="cls-14" x1="220.027" y1="420.001" x2="220.027" y2="423.481"/><line class="cls-14" x1="363.936" y1="420.001" x2="363.936" y2="423.481"/><line class="cls-14" x1="435.891" y1="420.001" x2="435.891" y2="423.481"/><line class="cls-14" x1="507.846" y1="420.001" x2="507.846" y2="423.481"/><path class="cls-15" d="M136.38,433.933V433h3.4v.936Z"/><path class="cls-15" d="M145.855,430.135a7.339,7.339,0,0,1,0,6.162,2.428,2.428,0,0,1-4.021,0,7.349,7.349,0,0,1,0-6.162,2.433,2.433,0,0,1,4.021,0Zm-3.168.582a8.428,8.428,0,0,0,0,5,1.249,1.249,0,0,0,2.309,0,8.3,8.3,0,0,0,0-4.992,1.249,1.249,0,0,0-2.309-.006Z"/><path class="cls-15" d="M149.185,435.937a.8.8,0,0,1,.239.587,2.107,2.107,0,0,1-.216.853l-.8,1.836h-.792l.479-1.992a.872.872,0,0,1-.336-.7.821.821,0,0,1,.828-.828A.813.813,0,0,1,149.185,435.937Z"/><path class="cls-15" d="M153.912,429.192v8.029h-1.1v-6.852l-1.872,1.14-.481-.78,2.485-1.537Z"/><path class="cls-15" d="M162.306,429.625a2.265,2.265,0,0,1,0,2.952,2.062,2.062,0,0,1-2.808,0,2.268,2.268,0,0,1,0-2.952,2.059,2.059,0,0,1,2.808,0Zm-2.159.552a2.013,2.013,0,0,0,0,1.842.8.8,0,0,0,.75.366q.971,0,.971-1.284a1.789,1.789,0,0,0-.215-.918.961.961,0,0,0-1.506-.006Zm5.622-1.489.767.5-5.555,8.4-.769-.5Zm1.475,5.172a2.287,2.287,0,0,1,0,2.952,1.873,1.873,0,0,1-1.4.552,1.893,1.893,0,0,1-1.41-.552,2.268,2.268,0,0,1,0-2.952,1.9,1.9,0,0,1,1.41-.551A1.88,1.88,0,0,1,167.244,433.86Zm-2.154.559a1.711,1.711,0,0,0-.222.918,1.753,1.753,0,0,0,.222.918.809.809,0,0,0,.75.366q.974,0,.973-1.284a1.739,1.739,0,0,0-.217-.912.809.809,0,0,0-.756-.361A.818.818,0,0,0,165.09,434.419Z"/><path class="cls-15" d="M203.6,433.933V433H207v.936Z"/><path class="cls-15" d="M213.077,430.135a7.339,7.339,0,0,1,0,6.162,2.427,2.427,0,0,1-4.02,0,7.339,7.339,0,0,1,0-6.162,2.432,2.432,0,0,1,4.02,0Zm-3.168.582a8.45,8.45,0,0,0,0,5,1.249,1.249,0,0,0,2.31,0,8.3,8.3,0,0,0,0-4.992,1.25,1.25,0,0,0-2.31-.006Z"/><path class="cls-15" d="M216.408,435.937a.8.8,0,0,1,.239.587,2.123,2.123,0,0,1-.216.853l-.8,1.836h-.792l.48-1.992a.843.843,0,0,1-.245-.3.862.862,0,0,1-.091-.4.821.821,0,0,1,.828-.828A.815.815,0,0,1,216.408,435.937Z"/><path class="cls-15" d="M222.617,430.135a7.339,7.339,0,0,1,0,6.162,2.427,2.427,0,0,1-4.02,0,7.339,7.339,0,0,1,0-6.162,2.432,2.432,0,0,1,4.02,0Zm-3.168.582a8.45,8.45,0,0,0,0,5,1.249,1.249,0,0,0,2.31,0,8.3,8.3,0,0,0,0-4.992,1.25,1.25,0,0,0-2.31-.006Z"/><path class="cls-15" d="M229,430.057h-3.131v2.364a2.789,2.789,0,0,1,1.284-.313,2.143,2.143,0,0,1,1.655.679,2.646,2.646,0,0,1,.624,1.865,2.821,2.821,0,0,1-.348,1.41,2.415,2.415,0,0,1-.977.96,3,3,0,0,1-1.458.342,3.172,3.172,0,0,1-1.309-.258,3.464,3.464,0,0,1-1.068-.761l.648-.636a2.736,2.736,0,0,0,.792.569,2.2,2.2,0,0,0,.924.187,1.548,1.548,0,0,0,1.206-.481,1.936,1.936,0,0,0,.439-1.355,1.743,1.743,0,0,0-.4-1.273,1.444,1.444,0,0,0-1.067-.395,2.362,2.362,0,0,0-.576.065,3.044,3.044,0,0,0-.565.21h-.864v-4.044h4.345Z"/><path class="cls-15" d="M237.04,429.625a2.265,2.265,0,0,1,0,2.952,2.06,2.06,0,0,1-2.807,0,2.268,2.268,0,0,1,0-2.952,2.058,2.058,0,0,1,2.807,0Zm-2.159.552a2.013,2.013,0,0,0,0,1.842.807.807,0,0,0,.75.366q.972,0,.972-1.284a1.779,1.779,0,0,0-.216-.918.961.961,0,0,0-1.506-.006Zm5.622-1.489.768.5-5.556,8.4-.768-.5Zm1.476,5.172a2.287,2.287,0,0,1,0,2.952,1.876,1.876,0,0,1-1.405.552,1.9,1.9,0,0,1-1.41-.552,2.268,2.268,0,0,1,0-2.952,1.9,1.9,0,0,1,1.41-.551A1.882,1.882,0,0,1,241.979,433.86Zm-2.155.559a1.712,1.712,0,0,0-.221.918,1.753,1.753,0,0,0,.221.918.809.809,0,0,0,.75.366q.974,0,.973-1.284a1.739,1.739,0,0,0-.217-.912.807.807,0,0,0-.756-.361A.818.818,0,0,0,239.824,434.419Z"/><path class="cls-15" d="M357.865,430.135a7.349,7.349,0,0,1,0,6.162,2.429,2.429,0,0,1-4.022,0,7.339,7.339,0,0,1,0-6.162,2.434,2.434,0,0,1,4.022,0Zm-3.168.582a8.428,8.428,0,0,0,0,5,1.248,1.248,0,0,0,2.308,0,8.283,8.283,0,0,0,0-4.992,1.249,1.249,0,0,0-2.308-.006Z"/><path class="cls-15" d="M361.2,435.937a.805.805,0,0,1,.238.587,2.1,2.1,0,0,1-.215.853l-.805,1.836h-.791l.479-1.992a.83.83,0,0,1-.244-.3.863.863,0,0,1-.092-.4.821.821,0,0,1,.828-.828A.817.817,0,0,1,361.2,435.937Z"/><path class="cls-15" d="M367.4,430.135a7.349,7.349,0,0,1,0,6.162,2.427,2.427,0,0,1-4.02,0,7.339,7.339,0,0,1,0-6.162,2.432,2.432,0,0,1,4.02,0Zm-3.168.582a8.428,8.428,0,0,0,0,5,1.249,1.249,0,0,0,2.31,0,8.325,8.325,0,0,0,0-4.992,1.25,1.25,0,0,0-2.31-.006Z"/><path class="cls-15" d="M373.783,430.057H370.65v2.364a2.793,2.793,0,0,1,1.285-.313,2.141,2.141,0,0,1,1.654.679,2.647,2.647,0,0,1,.625,1.865,2.831,2.831,0,0,1-.348,1.41,2.417,2.417,0,0,1-.978.96,3,3,0,0,1-1.457.342,3.169,3.169,0,0,1-1.309-.258,3.464,3.464,0,0,1-1.068-.761l.648-.636a2.745,2.745,0,0,0,.791.569,2.207,2.207,0,0,0,.924.187,1.552,1.552,0,0,0,1.207-.481,1.94,1.94,0,0,0,.438-1.355,1.739,1.739,0,0,0-.4-1.273,1.442,1.442,0,0,0-1.066-.395,2.368,2.368,0,0,0-.576.065,3.018,3.018,0,0,0-.565.21h-.865v-4.044h4.346Z"/><path class="cls-15" d="M381.827,429.625a2.265,2.265,0,0,1,0,2.952,2.061,2.061,0,0,1-2.808,0,2.271,2.271,0,0,1,0-2.952,2.059,2.059,0,0,1,2.808,0Zm-2.16.552a2.021,2.021,0,0,0,0,1.842.809.809,0,0,0,.75.366q.974,0,.973-1.284a1.77,1.77,0,0,0-.217-.918.8.8,0,0,0-.756-.367A.814.814,0,0,0,379.667,430.177Zm5.623-1.489.768.5-5.557,8.4-.767-.5Zm1.475,5.172a2.284,2.284,0,0,1,0,2.952,1.872,1.872,0,0,1-1.4.552,1.9,1.9,0,0,1-1.411-.552,2.274,2.274,0,0,1,0-2.952,1.9,1.9,0,0,1,1.411-.551A1.879,1.879,0,0,1,386.765,433.86Zm-2.154.559a1.712,1.712,0,0,0-.221.918,1.753,1.753,0,0,0,.221.918.807.807,0,0,0,.75.366q.972,0,.972-1.284a1.739,1.739,0,0,0-.217-.912.8.8,0,0,0-.755-.361A.816.816,0,0,0,384.611,434.419Z"/><path class="cls-15" d="M59.587,433.933V433h3.4v.936Z"/><path class="cls-15" d="M69.062,430.135a7.339,7.339,0,0,1,0,6.162,2.428,2.428,0,0,1-4.021,0,7.349,7.349,0,0,1,0-6.162,2.433,2.433,0,0,1,4.021,0Zm-3.168.582a8.428,8.428,0,0,0,0,5,1.249,1.249,0,0,0,2.309,0,8.3,8.3,0,0,0,0-4.992,1.249,1.249,0,0,0-2.309-.006Z"/><path class="cls-15" d="M72.392,435.937a.8.8,0,0,1,.239.587,2.107,2.107,0,0,1-.216.853l-.8,1.836H70.82l.479-1.992a.872.872,0,0,1-.336-.7.821.821,0,0,1,.828-.828A.812.812,0,0,1,72.392,435.937Z"/><path class="cls-15" d="M77.119,429.192v8.029h-1.1v-6.852l-1.872,1.14-.481-.78,2.485-1.537Z"/><path class="cls-15" d="M83.48,430.057H80.348v2.364a2.792,2.792,0,0,1,1.284-.313,2.141,2.141,0,0,1,1.655.679,2.646,2.646,0,0,1,.624,1.865,2.831,2.831,0,0,1-.347,1.41,2.423,2.423,0,0,1-.978.96,3,3,0,0,1-1.458.342,3.164,3.164,0,0,1-1.308-.258,3.468,3.468,0,0,1-1.069-.761l.649-.636a2.722,2.722,0,0,0,.792.569,2.2,2.2,0,0,0,.924.187,1.549,1.549,0,0,0,1.206-.481,1.936,1.936,0,0,0,.438-1.355,1.748,1.748,0,0,0-.4-1.273,1.448,1.448,0,0,0-1.068-.395,2.368,2.368,0,0,0-.576.065,3.036,3.036,0,0,0-.564.21h-.865v-4.044h4.345Z"/><path class="cls-15" d="M91.525,429.625a2.265,2.265,0,0,1,0,2.952,2.062,2.062,0,0,1-2.808,0,2.268,2.268,0,0,1,0-2.952,2.059,2.059,0,0,1,2.808,0Zm-2.159.552a2.013,2.013,0,0,0,0,1.842.8.8,0,0,0,.75.366q.971,0,.971-1.284a1.779,1.779,0,0,0-.216-.918.96.96,0,0,0-1.5-.006Zm5.622-1.489.767.5-5.556,8.4-.768-.5Zm1.475,5.172a2.287,2.287,0,0,1,0,2.952,1.873,1.873,0,0,1-1.4.552,1.893,1.893,0,0,1-1.41-.552,2.268,2.268,0,0,1,0-2.952,1.9,1.9,0,0,1,1.41-.551A1.88,1.88,0,0,1,96.463,433.86Zm-2.154.559a1.7,1.7,0,0,0-.222.918,1.743,1.743,0,0,0,.222.918.807.807,0,0,0,.75.366q.972,0,.973-1.284a1.749,1.749,0,0,0-.217-.912.971.971,0,0,0-1.506-.006Z"/><path class="cls-15" d="M489.228,433.933V433h3.4v.936Z"/><path class="cls-15" d="M498.7,430.135a7.339,7.339,0,0,1,0,6.162,2.427,2.427,0,0,1-4.02,0,7.339,7.339,0,0,1,0-6.162,2.432,2.432,0,0,1,4.02,0Zm-3.168.582a8.45,8.45,0,0,0,0,5,1.249,1.249,0,0,0,2.31,0,8.3,8.3,0,0,0,0-4.992,1.25,1.25,0,0,0-2.31-.006Z"/><path class="cls-15" d="M502.033,435.937a.8.8,0,0,1,.239.587,2.123,2.123,0,0,1-.216.853l-.8,1.836h-.792l.48-1.992a.843.843,0,0,1-.245-.3.862.862,0,0,1-.091-.4.821.821,0,0,1,.828-.828A.815.815,0,0,1,502.033,435.937Z"/><path class="cls-15" d="M506.76,429.192v8.029h-1.1v-6.852l-1.873,1.14-.48-.78,2.484-1.537Z"/><path class="cls-15" d="M513.12,430.057h-3.131v2.364a2.789,2.789,0,0,1,1.284-.313,2.143,2.143,0,0,1,1.655.679,2.646,2.646,0,0,1,.624,1.865,2.821,2.821,0,0,1-.348,1.41,2.415,2.415,0,0,1-.977.96,3,3,0,0,1-1.458.342,3.172,3.172,0,0,1-1.309-.258,3.464,3.464,0,0,1-1.068-.761l.648-.636a2.736,2.736,0,0,0,.792.569,2.2,2.2,0,0,0,.924.187,1.548,1.548,0,0,0,1.206-.481,1.936,1.936,0,0,0,.439-1.355,1.743,1.743,0,0,0-.4-1.273,1.444,1.444,0,0,0-1.067-.395,2.362,2.362,0,0,0-.576.065,3.044,3.044,0,0,0-.565.21h-.864v-4.044h4.345Z"/><path class="cls-15" d="M521.165,429.625a2.265,2.265,0,0,1,0,2.952,2.06,2.06,0,0,1-2.807,0,2.268,2.268,0,0,1,0-2.952,2.058,2.058,0,0,1,2.807,0Zm-2.159.552a2.013,2.013,0,0,0,0,1.842.807.807,0,0,0,.75.366q.972,0,.972-1.284a1.779,1.779,0,0,0-.216-.918.961.961,0,0,0-1.506-.006Zm5.622-1.489.768.5-5.556,8.4-.768-.5Zm1.476,5.172a2.287,2.287,0,0,1,0,2.952,1.876,1.876,0,0,1-1.405.552,1.9,1.9,0,0,1-1.41-.552,2.268,2.268,0,0,1,0-2.952,1.9,1.9,0,0,1,1.41-.551A1.882,1.882,0,0,1,526.1,433.86Zm-2.155.559a1.712,1.712,0,0,0-.221.918,1.753,1.753,0,0,0,.221.918.809.809,0,0,0,.75.366q.973,0,.973-1.284a1.739,1.739,0,0,0-.217-.912.807.807,0,0,0-.756-.361A.818.818,0,0,0,523.949,434.419Z"/><path class="cls-15" d="M288.228,430.135a7.339,7.339,0,0,1,0,6.162,2.428,2.428,0,0,1-4.021,0,7.349,7.349,0,0,1,0-6.162,2.433,2.433,0,0,1,4.021,0Zm-3.168.582a8.428,8.428,0,0,0,0,5,1.249,1.249,0,0,0,2.309,0,8.3,8.3,0,0,0,0-4.992,1.249,1.249,0,0,0-2.309-.006Z"/><path class="cls-15" d="M291.558,435.937a.8.8,0,0,1,.239.587,2.107,2.107,0,0,1-.216.853l-.8,1.836h-.792l.479-1.992a.872.872,0,0,1-.336-.7.821.821,0,0,1,.828-.828A.812.812,0,0,1,291.558,435.937Z"/><path class="cls-15" d="M297.768,430.135a7.339,7.339,0,0,1,0,6.162,2.428,2.428,0,0,1-4.021,0,7.349,7.349,0,0,1,0-6.162,2.433,2.433,0,0,1,4.021,0Zm-3.168.582a8.428,8.428,0,0,0,0,5,1.249,1.249,0,0,0,2.309,0,8.3,8.3,0,0,0,0-4.992,1.249,1.249,0,0,0-2.309-.006Z"/><path class="cls-15" d="M306.179,429.625a2.265,2.265,0,0,1,0,2.952,2.062,2.062,0,0,1-2.808,0,2.268,2.268,0,0,1,0-2.952,2.059,2.059,0,0,1,2.808,0Zm-2.159.552a2.013,2.013,0,0,0,0,1.842.8.8,0,0,0,.75.366q.971,0,.971-1.284a1.789,1.789,0,0,0-.215-.918.961.961,0,0,0-1.506-.006Zm5.622-1.489.767.5-5.555,8.4-.769-.5Zm1.475,5.172a2.284,2.284,0,0,1,0,2.952,1.873,1.873,0,0,1-1.4.552,1.893,1.893,0,0,1-1.41-.552,2.268,2.268,0,0,1,0-2.952,1.9,1.9,0,0,1,1.41-.551A1.88,1.88,0,0,1,311.117,433.86Zm-2.154.559a1.711,1.711,0,0,0-.222.918,1.753,1.753,0,0,0,.222.918.809.809,0,0,0,.75.366q.974,0,.973-1.284a1.739,1.739,0,0,0-.217-.912.808.808,0,0,0-.756-.361A.818.818,0,0,0,308.963,434.419Z"/><path class="cls-15" d="M433.628,430.135a7.339,7.339,0,0,1,0,6.162,2.427,2.427,0,0,1-4.02,0,7.339,7.339,0,0,1,0-6.162,2.432,2.432,0,0,1,4.02,0Zm-3.168.582a8.428,8.428,0,0,0,0,5,1.249,1.249,0,0,0,2.31,0,8.3,8.3,0,0,0,0-4.992,1.25,1.25,0,0,0-2.31-.006Z"/><path class="cls-15" d="M436.958,435.937a.8.8,0,0,1,.24.587,2.123,2.123,0,0,1-.216.853l-.8,1.836h-.792l.48-1.992a.856.856,0,0,1-.246-.3.874.874,0,0,1-.09-.4.821.821,0,0,1,.828-.828A.811.811,0,0,1,436.958,435.937Z"/><path class="cls-15" d="M441.686,429.192v8.029h-1.1v-6.852l-1.872,1.14-.48-.78,2.484-1.537Z"/><path class="cls-15" d="M450.079,429.625a2.265,2.265,0,0,1,0,2.952,2.06,2.06,0,0,1-2.807,0,2.268,2.268,0,0,1,0-2.952,2.058,2.058,0,0,1,2.807,0Zm-2.159.552a2.021,2.021,0,0,0,0,1.842.807.807,0,0,0,.75.366q.972,0,.972-1.284a1.779,1.779,0,0,0-.216-.918.8.8,0,0,0-.756-.367A.812.812,0,0,0,447.92,430.177Zm5.622-1.489.768.5-5.556,8.4-.768-.5Zm1.476,5.172a2.287,2.287,0,0,1,0,2.952,1.873,1.873,0,0,1-1.4.552,1.9,1.9,0,0,1-1.411-.552,2.271,2.271,0,0,1,0-2.952,1.9,1.9,0,0,1,1.411-.551A1.88,1.88,0,0,1,455.018,433.86Zm-2.154.559a1.7,1.7,0,0,0-.222.918,1.743,1.743,0,0,0,.222.918.807.807,0,0,0,.75.366q.972,0,.972-1.284a1.739,1.739,0,0,0-.217-.912.806.806,0,0,0-.755-.361A.816.816,0,0,0,452.864,434.419Z"/><line class="cls-16" x1="309.888" y1="387.431" x2="310.7" y2="387.431"/><line class="cls-16" x1="309.888" y1="387.431" x2="308.961" y2="387.431"/><line class="cls-17" x1="285.433" y1="346.504" x2="285.897" y2="346.504"/><line class="cls-17" x1="285.433" y1="346.504" x2="284.854" y2="346.504"/><line class="cls-16" x1="346.976" y1="303.875" x2="348.831" y2="303.875"/><line class="cls-16" x1="346.976" y1="303.875" x2="345.122" y2="303.875"/><line class="cls-17" x1="289.838" y1="220.302" x2="289.953" y2="220.302"/><line class="cls-17" x1="289.838" y1="220.302" x2="289.722" y2="220.302"/><line class="cls-17" x1="266.194" y1="175.084" x2="267.121" y2="175.084"/><line class="cls-17" x1="266.194" y1="175.084" x2="265.383" y2="175.084"/><line class="cls-17" x1="235.249" y1="133.072" x2="237.451" y2="133.072"/><line class="cls-17" x1="235.249" y1="133.072" x2="233.162" y2="133.072"/><path class="cls-3" d="M314.111,387.431a4.2,4.2,0,1,1-4.2-4.2,4.2,4.2,0,0,1,4.2,4.2Z"/><path class="cls-2" d="M289.656,346.5a4.2,4.2,0,1,1-4.2-4.2,4.2,4.2,0,0,1,4.2,4.2Z"/><path class="cls-3" d="M351.2,303.875a4.2,4.2,0,1,1-4.2-4.2,4.2,4.2,0,0,1,4.2,4.2Z"/><path class="cls-2" d="M239.471,133.072a4.2,4.2,0,1,1-4.2-4.2,4.2,4.2,0,0,1,4.2,4.2Z"/><path class="cls-2" d="M270.452,175.084a4.2,4.2,0,1,1-4.2-4.2,4.2,4.2,0,0,1,4.2,4.2Z"/><path class="cls-3" d="M294.356,371.456V373.6h2.086v1.414h-2.086v2.141h-1.54v-2.141h-2.073V373.6h2.073v-2.143Z"/><path class="cls-3" d="M303.714,370.616a6.406,6.406,0,0,1,.861,3.626,6.474,6.474,0,0,1-.861,3.648,3.126,3.126,0,0,1-5.025,0,6.474,6.474,0,0,1-.862-3.648,6.405,6.405,0,0,1,.862-3.626,3.135,3.135,0,0,1,5.025,0Zm-3.675.9a7.227,7.227,0,0,0-.364,2.722,7.343,7.343,0,0,0,.364,2.744,1.24,1.24,0,0,0,2.325.007,7.332,7.332,0,0,0,.364-2.751,7.216,7.216,0,0,0-.364-2.729,1.243,1.243,0,0,0-2.325.007Z"/><path class="cls-3" d="M307.663,377.21a1.09,1.09,0,0,1,.329.812,1.894,1.894,0,0,1-.084.546,5.937,5.937,0,0,1-.28.714l-.91,2.072h-1.092l.574-2.408a1.062,1.062,0,0,1-.476-.938,1.1,1.1,0,0,1,1.12-1.119A1.127,1.127,0,0,1,307.663,377.21Z"/><path class="cls-3" d="M313.507,369.524v9.422h-1.764V371.33l-2.1,1.274-.784-1.2,3.065-1.876Z"/><path class="cls-3" d="M319.759,369.706a2.49,2.49,0,0,1,1.421,2.3,3.579,3.579,0,0,1-.343,1.533,7.032,7.032,0,0,1-1.141,1.631q-.8.9-2.338,2.366h4.032l-.2,1.414h-5.867V377.63q1.794-1.82,2.57-2.694a8.155,8.155,0,0,0,1.106-1.5,2.747,2.747,0,0,0,.329-1.3,1.268,1.268,0,0,0-1.358-1.372,1.941,1.941,0,0,0-.959.23,3.264,3.264,0,0,0-.861.764l-1.092-.869a3.693,3.693,0,0,1,3.052-1.54A3.615,3.615,0,0,1,319.759,369.706Z"/><path class="cls-3" d="M332.359,372.457a4.975,4.975,0,0,1,.665,2.793,4.866,4.866,0,0,1-.721,2.808,2.36,2.36,0,0,1-2.065,1.043,2.556,2.556,0,0,1-1.19-.274,2.686,2.686,0,0,1-.9-.734V381.7l-.812.112V371.624h.7l.071,1.064a2.956,2.956,0,0,1,.987-.9,2.577,2.577,0,0,1,1.267-.321A2.246,2.246,0,0,1,332.359,372.457Zm-.736,5.159a4.276,4.276,0,0,0,.533-2.366q0-3.107-1.947-3.107a1.939,1.939,0,0,0-1.14.336,3.974,3.974,0,0,0-.917.923v3.892a2.212,2.212,0,0,0,1.931,1.12A1.735,1.735,0,0,0,331.623,377.616Z"/><path class="cls-3" d="M335.914,377.959a.638.638,0,0,1,.19.47.673.673,0,0,1-1.149.475.646.646,0,0,1-.2-.475.624.624,0,0,1,.2-.47.66.66,0,0,1,.477-.188A.653.653,0,0,1,335.914,377.959Z"/><path class="cls-3" d="M345.861,372.45a5.847,5.847,0,0,1-.036,5.614,2.37,2.37,0,0,1-2.05,1.037,2.474,2.474,0,0,1-1.2-.294,2.758,2.758,0,0,1-.9-.785l-.084.924h-.714v-10.3l.812-.1v4.1a2.63,2.63,0,0,1,2.2-1.175A2.285,2.285,0,0,1,345.861,372.45Zm-.707,5.173a4.282,4.282,0,0,0,.539-2.373q0-3.107-1.974-3.107a1.938,1.938,0,0,0-1.134.329,3.634,3.634,0,0,0-.9.93v3.85a2.789,2.789,0,0,0,.84.861,1.976,1.976,0,0,0,1.091.316A1.74,1.74,0,0,0,345.154,377.623Z"/><path class="cls-3" d="M349.451,377.959a.638.638,0,0,1,.19.47.673.673,0,1,1-1.345,0,.628.628,0,0,1,.2-.47.662.662,0,0,1,.477-.188A.653.653,0,0,1,349.451,377.959Z"/><path class="cls-3" d="M331.512,287.9v2.143H333.6v1.414h-2.086V293.6h-1.54v-2.141H327.9v-1.414h2.072V287.9Z"/><path class="cls-3" d="M340.87,287.059a6.4,6.4,0,0,1,.862,3.626,6.465,6.465,0,0,1-.862,3.648,3.126,3.126,0,0,1-5.025,0,6.474,6.474,0,0,1-.861-3.648,6.406,6.406,0,0,1,.861-3.626,3.135,3.135,0,0,1,5.025,0Zm-3.674.9a7.211,7.211,0,0,0-.365,2.723,7.318,7.318,0,0,0,.365,2.744,1.239,1.239,0,0,0,2.324.007,7.332,7.332,0,0,0,.364-2.751,7.216,7.216,0,0,0-.364-2.729,1.243,1.243,0,0,0-2.324.006Z"/><path class="cls-3" d="M344.82,293.653a1.094,1.094,0,0,1,.329.812,1.929,1.929,0,0,1-.084.546,6.147,6.147,0,0,1-.281.714l-.91,2.072h-1.091l.574-2.408a1.061,1.061,0,0,1-.477-.938,1.1,1.1,0,0,1,1.12-1.119A1.131,1.131,0,0,1,344.82,293.653Z"/><path class="cls-3" d="M350.559,286.122a2.351,2.351,0,0,1,1.021.867,2.216,2.216,0,0,1,.344,1.2,2.1,2.1,0,0,1-.49,1.421,2.592,2.592,0,0,1-1.344.791,2.433,2.433,0,0,1,1.539.673,2.159,2.159,0,0,1,.6,1.623,2.708,2.708,0,0,1-.413,1.47,2.873,2.873,0,0,1-1.183,1.043,4.023,4.023,0,0,1-1.82.385,3.743,3.743,0,0,1-3.052-1.358l.994-.951a3.4,3.4,0,0,0,.938.692,2.364,2.364,0,0,0,1.022.217,1.7,1.7,0,0,0,1.211-.427,1.507,1.507,0,0,0,.455-1.155,1.419,1.419,0,0,0-.428-1.161,1.956,1.956,0,0,0-1.266-.351h-.742l.21-1.273h.5a1.567,1.567,0,0,0,1.1-.378,1.36,1.36,0,0,0,.413-1.051,1.136,1.136,0,0,0-.379-.9,1.483,1.483,0,0,0-1.008-.329,2.375,2.375,0,0,0-.994.2,3.3,3.3,0,0,0-.895.623l-.91-1a4.172,4.172,0,0,1,2.954-1.2A3.74,3.74,0,0,1,350.559,286.122Z"/><path class="cls-3" d="M360.282,292.855a2.386,2.386,0,0,1-.434,1.394,2.952,2.952,0,0,1-1.225.986,4.358,4.358,0,0,1-1.841.364,4.257,4.257,0,0,1-1.806-.357,2.842,2.842,0,0,1-1.19-.973,2.4,2.4,0,0,1-.42-1.386,2.507,2.507,0,0,1,1.792-2.38,2.419,2.419,0,0,1-1.414-2.226,2.162,2.162,0,0,1,.413-1.309,2.622,2.622,0,0,1,1.12-.868,3.919,3.919,0,0,1,1.547-.3,4.126,4.126,0,0,1,1.554.281,2.546,2.546,0,0,1,1.113.825,2.1,2.1,0,0,1,.413,1.3,2.393,2.393,0,0,1-1.554,2.127A2.744,2.744,0,0,1,360.282,292.855Zm-2.254,1.022a1.313,1.313,0,0,0,.434-1.022,1.357,1.357,0,0,0-.378-1.015,3.855,3.855,0,0,0-1.344-.72l-.434-.155a1.978,1.978,0,0,0-1.134,1.863,1.322,1.322,0,0,0,.448,1.056,1.782,1.782,0,0,0,1.2.385A1.733,1.733,0,0,0,358.028,293.877Zm-2.191-6.5a1.359,1.359,0,0,0-.021,1.813,2.993,2.993,0,0,0,1.078.6l.265.1a2.315,2.315,0,0,0,.778-.707,1.647,1.647,0,0,0,.231-.888,1.183,1.183,0,0,0-.35-.9,1.4,1.4,0,0,0-.994-.329A1.422,1.422,0,0,0,355.837,287.381Z"/><path class="cls-3" d="M371.2,288.9a4.975,4.975,0,0,1,.665,2.793,4.86,4.86,0,0,1-.721,2.807,2.358,2.358,0,0,1-2.065,1.043,2.556,2.556,0,0,1-1.19-.273,2.7,2.7,0,0,1-.9-.734v3.611l-.812.112V288.067h.7l.071,1.064a2.956,2.956,0,0,1,.987-.9,2.573,2.573,0,0,1,1.266-.321A2.247,2.247,0,0,1,371.2,288.9Zm-.736,5.159a4.277,4.277,0,0,0,.532-2.366q0-3.106-1.946-3.108a1.946,1.946,0,0,0-1.14.336,4,4,0,0,0-.917.924v3.892a2.211,2.211,0,0,0,1.931,1.12A1.735,1.735,0,0,0,370.459,294.059Z"/><path class="cls-3" d="M374.75,294.4a.638.638,0,0,1,.19.47.648.648,0,0,1-.672.671.669.669,0,0,1-.673-.671.624.624,0,0,1,.2-.47.661.661,0,0,1,.477-.189A.653.653,0,0,1,374.75,294.4Z"/><path class="cls-3" d="M384.7,288.893a5.847,5.847,0,0,1-.036,5.614,2.369,2.369,0,0,1-2.05,1.036,2.474,2.474,0,0,1-1.2-.293,2.758,2.758,0,0,1-.9-.785l-.084.924h-.714v-10.3l.812-.1v4.1a2.63,2.63,0,0,1,2.2-1.175A2.285,2.285,0,0,1,384.7,288.893Zm-.707,5.173a4.282,4.282,0,0,0,.539-2.373q0-3.106-1.974-3.108a1.939,1.939,0,0,0-1.134.33,3.634,3.634,0,0,0-.9.93v3.85a2.789,2.789,0,0,0,.84.861,1.976,1.976,0,0,0,1.091.316A1.74,1.74,0,0,0,383.99,294.066Z"/><path class="cls-3" d="M388.287,294.4a.638.638,0,0,1,.19.47.648.648,0,0,1-.672.671.669.669,0,0,1-.673-.671.628.628,0,0,1,.2-.47.661.661,0,0,1,.477-.189A.653.653,0,0,1,388.287,294.4Z"/><path class="cls-2" d="M217.613,120.918v-1.427h4.228v1.427Z"/><path class="cls-2" d="M229.072,116.256a6.406,6.406,0,0,1,.861,3.626,6.474,6.474,0,0,1-.861,3.648,3.127,3.127,0,0,1-5.026,0,6.474,6.474,0,0,1-.861-3.648,6.406,6.406,0,0,1,.861-3.626,3.138,3.138,0,0,1,5.026,0Zm-3.675.9a7.227,7.227,0,0,0-.364,2.722,7.343,7.343,0,0,0,.364,2.744,1.239,1.239,0,0,0,2.324.007,7.332,7.332,0,0,0,.364-2.751,7.216,7.216,0,0,0-.364-2.729,1.243,1.243,0,0,0-2.324.007Z"/><path class="cls-2" d="M233.021,122.85a1.091,1.091,0,0,1,.329.813,1.892,1.892,0,0,1-.084.545,6.3,6.3,0,0,1-.28.714L232.075,127h-1.091l.574-2.409a1.062,1.062,0,0,1-.477-.938,1.1,1.1,0,0,1,1.12-1.119A1.129,1.129,0,0,1,233.021,122.85Z"/><path class="cls-2" d="M238.76,115.319a2.373,2.373,0,0,1,1.022.867,2.226,2.226,0,0,1,.343,1.2,2.1,2.1,0,0,1-.49,1.421,2.581,2.581,0,0,1-1.344.791,2.438,2.438,0,0,1,1.539.673,2.162,2.162,0,0,1,.6,1.623,2.714,2.714,0,0,1-.413,1.471,2.887,2.887,0,0,1-1.183,1.043,4.033,4.033,0,0,1-1.82.384,3.743,3.743,0,0,1-3.052-1.358l.994-.951a3.392,3.392,0,0,0,.938.692,2.349,2.349,0,0,0,1.022.217,1.7,1.7,0,0,0,1.211-.427,1.507,1.507,0,0,0,.455-1.155,1.418,1.418,0,0,0-.427-1.161,1.961,1.961,0,0,0-1.267-.351h-.742l.21-1.273h.5a1.564,1.564,0,0,0,1.1-.378,1.357,1.357,0,0,0,.413-1.051,1.134,1.134,0,0,0-.379-.9,1.477,1.477,0,0,0-1.007-.329,2.376,2.376,0,0,0-1,.2,3.358,3.358,0,0,0-.9.623l-.91-.994a4.168,4.168,0,0,1,2.954-1.2A3.741,3.741,0,0,1,238.76,115.319Z"/><path class="cls-2" d="M247.265,115.984a3.937,3.937,0,0,1,.854,2.667,7.423,7.423,0,0,1-.574,3.142,4.493,4.493,0,0,1-1.763,1.954,10.877,10.877,0,0,1-3.151,1.189l-.378-1.273a7.547,7.547,0,0,0,2.807-1.268,3.165,3.165,0,0,0,1.141-2.12,2.441,2.441,0,0,1-2.016.979,2.523,2.523,0,0,1-1.337-.371,2.549,2.549,0,0,1-.959-1.071,3.589,3.589,0,0,1-.35-1.624,3.212,3.212,0,0,1,.434-1.687,2.958,2.958,0,0,1,1.184-1.113,3.52,3.52,0,0,1,1.658-.391A3.064,3.064,0,0,1,247.265,115.984Zm-.98,3a4.37,4.37,0,0,0-.329-2.052,1.206,1.206,0,0,0-1.141-.608,1.337,1.337,0,0,0-1.092.475,2.084,2.084,0,0,0-.392,1.359,2.054,2.054,0,0,0,.371,1.357,1.217,1.217,0,0,0,.973.435A1.917,1.917,0,0,0,246.285,118.987Z"/><path class="cls-2" d="M259.074,118.1a4.975,4.975,0,0,1,.665,2.793,4.866,4.866,0,0,1-.721,2.808,2.362,2.362,0,0,1-2.066,1.043,2.552,2.552,0,0,1-1.189-.274,2.688,2.688,0,0,1-.9-.734v3.611l-.811.113V117.264h.7l.07,1.065a2.961,2.961,0,0,1,.988-.9,2.573,2.573,0,0,1,1.266-.321A2.247,2.247,0,0,1,259.074,118.1Zm-.736,5.159a4.277,4.277,0,0,0,.532-2.366q0-3.106-1.946-3.107a1.944,1.944,0,0,0-1.141.336,4.013,4.013,0,0,0-.917.923v3.892a2.213,2.213,0,0,0,1.932,1.12A1.733,1.733,0,0,0,258.338,123.256Z"/><path class="cls-2" d="M262.629,123.6a.638.638,0,0,1,.19.47.673.673,0,0,1-1.149.475.645.645,0,0,1-.2-.475.624.624,0,0,1,.2-.47.66.66,0,0,1,.477-.188A.653.653,0,0,1,262.629,123.6Z"/><path class="cls-2" d="M272.575,118.09a5.845,5.845,0,0,1-.035,5.615,2.373,2.373,0,0,1-2.05,1.036,2.474,2.474,0,0,1-1.2-.294,2.767,2.767,0,0,1-.9-.784l-.084.923h-.714v-10.3l.812-.1v4.1a2.629,2.629,0,0,1,2.2-1.176A2.283,2.283,0,0,1,272.575,118.09Zm-.707,5.173a4.273,4.273,0,0,0,.54-2.373q0-3.106-1.974-3.107a1.934,1.934,0,0,0-1.134.329,3.651,3.651,0,0,0-.9.93v3.85a2.8,2.8,0,0,0,.839.861,1.982,1.982,0,0,0,1.092.316A1.737,1.737,0,0,0,271.868,123.263Z"/><path class="cls-2" d="M276.167,123.6a.638.638,0,0,1,.19.47.673.673,0,0,1-1.149.475.645.645,0,0,1-.2-.475.624.624,0,0,1,.2-.47.66.66,0,0,1,.477-.188A.653.653,0,0,1,276.167,123.6Z"/><rect class="cls-18" x="290.606" y="241.205" width="2.413" height="25.817"/><rect class="cls-18" x="290.606" y="154.268" width="2.413" height="16.583"/><rect class="cls-18" x="290.606" y="198.071" width="2.413" height="27.489"/><rect class="cls-18" x="290.606" y="325.176" width="2.413" height="17.526"/><path class="cls-2" d="M267.758,334.352v-1.428h4.229v1.428Z"/><path class="cls-2" d="M279.217,329.689a6.406,6.406,0,0,1,.861,3.626,6.474,6.474,0,0,1-.861,3.648,3.126,3.126,0,0,1-5.025,0,6.465,6.465,0,0,1-.862-3.648,6.4,6.4,0,0,1,.862-3.626,3.137,3.137,0,0,1,5.025,0Zm-3.675.9a7.227,7.227,0,0,0-.364,2.722,7.346,7.346,0,0,0,.364,2.745,1.24,1.24,0,0,0,2.324.006,7.307,7.307,0,0,0,.365-2.751,7.191,7.191,0,0,0-.365-2.729,1.243,1.243,0,0,0-2.324.007Z"/><path class="cls-2" d="M283.166,336.283a1.092,1.092,0,0,1,.329.813,1.9,1.9,0,0,1-.084.546,6,6,0,0,1-.28.713l-.91,2.073h-1.092l.574-2.408a1.064,1.064,0,0,1-.476-.939,1.1,1.1,0,0,1,1.12-1.119A1.127,1.127,0,0,1,283.166,336.283Z"/><path class="cls-2" d="M290.557,329.689a6.406,6.406,0,0,1,.861,3.626,6.474,6.474,0,0,1-.861,3.648,3.126,3.126,0,0,1-5.025,0,6.465,6.465,0,0,1-.862-3.648,6.4,6.4,0,0,1,.862-3.626,3.137,3.137,0,0,1,5.025,0Zm-3.675.9a7.227,7.227,0,0,0-.364,2.722,7.346,7.346,0,0,0,.364,2.745,1.24,1.24,0,0,0,2.324.006,7.307,7.307,0,0,0,.365-2.751,7.191,7.191,0,0,0-.365-2.729,1.243,1.243,0,0,0-2.324.007Z"/><path class="cls-2" d="M298.167,329.928h-3.528v2.338a3.151,3.151,0,0,1,1.428-.35,2.708,2.708,0,0,1,1.4.363,2.476,2.476,0,0,1,.959,1.05,3.591,3.591,0,0,1,.343,1.624,3.319,3.319,0,0,1-.434,1.708,2.977,2.977,0,0,1-1.232,1.155,3.96,3.96,0,0,1-1.848.413,3.824,3.824,0,0,1-1.659-.342,4.242,4.242,0,0,1-1.31-.988l1.023-.952a2.493,2.493,0,0,0,1.9.9,1.627,1.627,0,0,0,1.253-.49,1.985,1.985,0,0,0,.455-1.4q0-1.749-1.513-1.75a2.269,2.269,0,0,0-.6.077,3.446,3.446,0,0,0-.616.245h-1.274V328.6h5.46Z"/><path class="cls-2" d="M309.709,331.53a4.966,4.966,0,0,1,.665,2.793,4.863,4.863,0,0,1-.72,2.808,2.362,2.362,0,0,1-2.066,1.043,2.552,2.552,0,0,1-1.189-.274,2.668,2.668,0,0,1-.9-.734v3.611l-.811.113V330.7h.7l.07,1.065a2.961,2.961,0,0,1,.988-.9,2.57,2.57,0,0,1,1.266-.321A2.244,2.244,0,0,1,309.709,331.53Zm-.735,5.159a4.286,4.286,0,0,0,.532-2.366q0-3.106-1.946-3.107a1.94,1.94,0,0,0-1.141.336,3.98,3.98,0,0,0-.917.924v3.891a2.213,2.213,0,0,0,1.932,1.12A1.734,1.734,0,0,0,308.974,336.689Z"/><path class="cls-2" d="M313.265,337.032a.637.637,0,0,1,.189.47.672.672,0,1,1-1.344,0,.624.624,0,0,1,.2-.47.66.66,0,0,1,.477-.188A.653.653,0,0,1,313.265,337.032Z"/><path class="cls-2" d="M323.211,331.523a5.852,5.852,0,0,1-.035,5.615,2.374,2.374,0,0,1-2.051,1.036,2.47,2.47,0,0,1-1.2-.294,2.755,2.755,0,0,1-.9-.784l-.084.924h-.714v-10.3l.811-.1v4.1a2.633,2.633,0,0,1,2.2-1.176A2.285,2.285,0,0,1,323.211,331.523ZM322.5,336.7a4.273,4.273,0,0,0,.539-2.373q0-3.106-1.973-3.107a1.934,1.934,0,0,0-1.134.329,3.642,3.642,0,0,0-.9.931v3.849a2.816,2.816,0,0,0,.84.862,1.987,1.987,0,0,0,1.092.315A1.737,1.737,0,0,0,322.5,336.7Z"/><path class="cls-2" d="M326.8,337.032a.637.637,0,0,1,.189.47.672.672,0,1,1-1.344,0,.624.624,0,0,1,.2-.47.66.66,0,0,1,.477-.188A.653.653,0,0,1,326.8,337.032Z"/><line class="cls-16" x1="294.705" y1="262.017" x2="295.169" y2="262.017"/><line class="cls-16" x1="294.705" y1="262.017" x2="294.242" y2="262.017"/><path class="cls-3" d="M298.928,262.017a4.2,4.2,0,1,1-4.2-4.2,4.2,4.2,0,0,1,4.2,4.2Z"/><path class="cls-3" d="M279.32,246.042v2.142h2.086V249.6H279.32v2.142h-1.54V249.6h-2.073v-1.414h2.073v-2.142Z"/><path class="cls-3" d="M288.678,245.2a6.4,6.4,0,0,1,.861,3.626,6.47,6.47,0,0,1-.861,3.647,3.125,3.125,0,0,1-5.025,0,6.462,6.462,0,0,1-.862-3.647,6.4,6.4,0,0,1,.862-3.626,3.135,3.135,0,0,1,5.025,0Zm-3.675.9a7.229,7.229,0,0,0-.364,2.723,7.343,7.343,0,0,0,.364,2.744,1.24,1.24,0,0,0,2.324.007,7.314,7.314,0,0,0,.365-2.751,7.2,7.2,0,0,0-.365-2.73,1.243,1.243,0,0,0-2.324.007Z"/><path class="cls-3" d="M292.627,251.8a1.092,1.092,0,0,1,.329.813,1.9,1.9,0,0,1-.084.546,6,6,0,0,1-.28.714l-.91,2.072H290.59l.574-2.408a1.064,1.064,0,0,1-.476-.939,1.1,1.1,0,0,1,1.12-1.119A1.131,1.131,0,0,1,292.627,251.8Z"/><path class="cls-3" d="M300.018,245.2a6.4,6.4,0,0,1,.861,3.626,6.47,6.47,0,0,1-.861,3.647,3.126,3.126,0,0,1-5.026,0,6.47,6.47,0,0,1-.861-3.647,6.4,6.4,0,0,1,.861-3.626,3.136,3.136,0,0,1,5.026,0Zm-3.675.9a7.229,7.229,0,0,0-.364,2.723,7.343,7.343,0,0,0,.364,2.744,1.24,1.24,0,0,0,2.324.007,7.335,7.335,0,0,0,.365-2.751,7.218,7.218,0,0,0-.365-2.73,1.243,1.243,0,0,0-2.324.007Z"/><path class="cls-3" d="M306.389,244.292a2.49,2.49,0,0,1,1.421,2.295,3.584,3.584,0,0,1-.343,1.534,6.985,6.985,0,0,1-1.142,1.63q-.8.9-2.337,2.367h4.032l-.2,1.414h-5.867v-1.317q1.794-1.819,2.57-2.694a8.155,8.155,0,0,0,1.106-1.5,2.744,2.744,0,0,0,.329-1.295,1.268,1.268,0,0,0-1.358-1.372,1.941,1.941,0,0,0-.959.23,3.3,3.3,0,0,0-.862.764l-1.091-.868a3.692,3.692,0,0,1,3.051-1.54A3.6,3.6,0,0,1,306.389,244.292Z"/><path class="cls-3" d="M318.989,247.042a4.977,4.977,0,0,1,.665,2.793,4.863,4.863,0,0,1-.721,2.808,2.362,2.362,0,0,1-2.066,1.043,2.567,2.567,0,0,1-1.189-.273,2.689,2.689,0,0,1-.9-.735v3.612l-.812.112V246.209h.7l.071,1.065a2.949,2.949,0,0,1,.987-.9,2.584,2.584,0,0,1,1.266-.321A2.247,2.247,0,0,1,318.989,247.042Zm-.736,5.16a4.283,4.283,0,0,0,.532-2.367q0-3.107-1.946-3.107a1.939,1.939,0,0,0-1.14.336,3.98,3.98,0,0,0-.917.924v3.891A2.212,2.212,0,0,0,316.713,253,1.735,1.735,0,0,0,318.253,252.2Z"/><path class="cls-3" d="M322.544,252.544a.639.639,0,0,1,.19.47.649.649,0,0,1-.672.672.669.669,0,0,1-.673-.672.626.626,0,0,1,.2-.47.66.66,0,0,1,.477-.188A.653.653,0,0,1,322.544,252.544Z"/><path class="cls-3" d="M332.491,247.036a5.847,5.847,0,0,1-.036,5.614,2.372,2.372,0,0,1-2.05,1.036,2.474,2.474,0,0,1-1.2-.294,2.755,2.755,0,0,1-.9-.784l-.084.924h-.714v-10.3l.812-.1v4.1a2.631,2.631,0,0,1,2.2-1.176A2.284,2.284,0,0,1,332.491,247.036Zm-.708,5.172a4.273,4.273,0,0,0,.54-2.373q0-3.107-1.974-3.107a1.936,1.936,0,0,0-1.134.329,3.639,3.639,0,0,0-.9.931v3.849a2.791,2.791,0,0,0,.839.862,1.981,1.981,0,0,0,1.092.315A1.735,1.735,0,0,0,331.783,252.208Z"/><path class="cls-3" d="M336.081,252.544a.639.639,0,0,1,.19.47.649.649,0,0,1-.672.672.669.669,0,0,1-.673-.672.626.626,0,0,1,.2-.47.66.66,0,0,1,.477-.188A.653.653,0,0,1,336.081,252.544Z"/><path class="cls-2" d="M294.1,220.3a4.2,4.2,0,1,1-4.2-4.2,4.2,4.2,0,0,1,4.2,4.2Z"/><path class="cls-2" d="M272.223,208.148v-1.427h4.228v1.427Z"/><path class="cls-2" d="M283.682,203.486a6.406,6.406,0,0,1,.861,3.626,6.474,6.474,0,0,1-.861,3.648,3.126,3.126,0,0,1-5.025,0,6.465,6.465,0,0,1-.862-3.648,6.4,6.4,0,0,1,.862-3.626,3.137,3.137,0,0,1,5.025,0Zm-3.675.9a7.227,7.227,0,0,0-.364,2.722,7.343,7.343,0,0,0,.364,2.744,1.239,1.239,0,0,0,2.324.007,7.307,7.307,0,0,0,.365-2.751,7.191,7.191,0,0,0-.365-2.729,1.243,1.243,0,0,0-2.324.007Z"/><path class="cls-2" d="M287.631,210.08a1.091,1.091,0,0,1,.329.813,1.892,1.892,0,0,1-.084.545,5.937,5.937,0,0,1-.28.714l-.91,2.073h-1.092l.574-2.409a1.061,1.061,0,0,1-.476-.938,1.1,1.1,0,0,1,1.12-1.119A1.128,1.128,0,0,1,287.631,210.08Z"/><path class="cls-2" d="M295.022,203.486a6.406,6.406,0,0,1,.861,3.626,6.474,6.474,0,0,1-.861,3.648,3.127,3.127,0,0,1-5.026,0,6.474,6.474,0,0,1-.861-3.648,6.406,6.406,0,0,1,.861-3.626,3.138,3.138,0,0,1,5.026,0Zm-3.675.9a7.227,7.227,0,0,0-.364,2.722,7.343,7.343,0,0,0,.364,2.744,1.239,1.239,0,0,0,2.324.007,7.332,7.332,0,0,0,.364-2.751,7.216,7.216,0,0,0-.364-2.729,1.243,1.243,0,0,0-2.324.007Z"/><path class="cls-2" d="M301.393,202.576a2.494,2.494,0,0,1,1.421,2.3,3.594,3.594,0,0,1-.343,1.533,7.019,7.019,0,0,1-1.142,1.631q-.8.9-2.338,2.366h4.033l-.2,1.414h-5.866V210.5q1.794-1.82,2.57-2.694a8.155,8.155,0,0,0,1.106-1.5,2.744,2.744,0,0,0,.329-1.295,1.268,1.268,0,0,0-1.358-1.372,1.939,1.939,0,0,0-.959.23,3.266,3.266,0,0,0-.862.764l-1.091-.868a3.689,3.689,0,0,1,3.051-1.54A3.616,3.616,0,0,1,301.393,202.576Z"/><path class="cls-2" d="M313.991,205.327a4.966,4.966,0,0,1,.666,2.793,4.866,4.866,0,0,1-.721,2.808,2.362,2.362,0,0,1-2.066,1.043,2.552,2.552,0,0,1-1.189-.274,2.678,2.678,0,0,1-.9-.734v3.611l-.811.113V204.494h.7l.07,1.065a2.961,2.961,0,0,1,.988-.9,2.57,2.57,0,0,1,1.266-.321A2.244,2.244,0,0,1,313.991,205.327Zm-.735,5.159a4.277,4.277,0,0,0,.532-2.366q0-3.106-1.946-3.107a1.944,1.944,0,0,0-1.141.336,4.013,4.013,0,0,0-.917.923v3.892a2.213,2.213,0,0,0,1.932,1.12A1.733,1.733,0,0,0,313.256,210.486Z"/><path class="cls-2" d="M317.547,210.829a.638.638,0,0,1,.19.47.673.673,0,0,1-1.149.475.645.645,0,0,1-.2-.475.624.624,0,0,1,.2-.47.66.66,0,0,1,.477-.188A.653.653,0,0,1,317.547,210.829Z"/><path class="cls-2" d="M327.494,205.32a5.845,5.845,0,0,1-.035,5.615,2.374,2.374,0,0,1-2.051,1.036,2.473,2.473,0,0,1-1.2-.294,2.767,2.767,0,0,1-.9-.784l-.084.923h-.714v-10.3l.812-.1v4.1a2.629,2.629,0,0,1,2.2-1.176A2.283,2.283,0,0,1,327.494,205.32Zm-.707,5.173a4.273,4.273,0,0,0,.539-2.373q0-3.106-1.973-3.107a1.934,1.934,0,0,0-1.134.329,3.651,3.651,0,0,0-.9.93v3.85a2.8,2.8,0,0,0,.839.861,1.982,1.982,0,0,0,1.092.316A1.737,1.737,0,0,0,326.787,210.493Z"/><path class="cls-2" d="M331.085,210.829a.638.638,0,0,1,.19.47.673.673,0,0,1-1.149.475.645.645,0,0,1-.2-.475.624.624,0,0,1,.2-.47.66.66,0,0,1,.477-.188A.653.653,0,0,1,331.085,210.829Z"/><path class="cls-2" d="M248.268,162.932V161.5H252.5v1.428Z"/><path class="cls-2" d="M259.727,158.27a8.11,8.11,0,0,1,0,7.273,3.126,3.126,0,0,1-5.026,0,8.11,8.11,0,0,1,0-7.273,3.136,3.136,0,0,1,5.026,0Zm-3.675.9a7.233,7.233,0,0,0-.364,2.723,7.343,7.343,0,0,0,.364,2.744,1.239,1.239,0,0,0,2.324.007,7.328,7.328,0,0,0,.365-2.751,7.212,7.212,0,0,0-.365-2.729,1.243,1.243,0,0,0-2.324.006Z"/><path class="cls-2" d="M263.676,164.864a1.09,1.09,0,0,1,.329.812,1.894,1.894,0,0,1-.084.546,5.937,5.937,0,0,1-.28.714l-.91,2.072h-1.092l.574-2.408a1.062,1.062,0,0,1-.476-.938,1.1,1.1,0,0,1,1.12-1.12A1.129,1.129,0,0,1,263.676,164.864Z"/><path class="cls-2" d="M269.52,157.178V166.6h-1.764v-7.616l-2.1,1.274-.785-1.2,3.066-1.876Z"/><path class="cls-2" d="M278.3,164.066a2.382,2.382,0,0,1-.433,1.393,2.959,2.959,0,0,1-1.225.987,4.362,4.362,0,0,1-1.842.364,4.261,4.261,0,0,1-1.806-.357,2.839,2.839,0,0,1-1.189-.973,2.4,2.4,0,0,1-.421-1.386,2.509,2.509,0,0,1,1.792-2.38,2.421,2.421,0,0,1-1.413-2.226,2.168,2.168,0,0,1,.412-1.309,2.634,2.634,0,0,1,1.12-.868,3.926,3.926,0,0,1,1.547-.3,4.131,4.131,0,0,1,1.555.281,2.53,2.53,0,0,1,1.112.825,2.094,2.094,0,0,1,.413,1.3,2.391,2.391,0,0,1-1.554,2.128A2.743,2.743,0,0,1,278.3,164.066Zm-2.254,1.022a1.314,1.314,0,0,0,.435-1.022,1.357,1.357,0,0,0-.378-1.015,3.852,3.852,0,0,0-1.345-.72l-.433-.155a1.978,1.978,0,0,0-1.134,1.863,1.319,1.319,0,0,0,.448,1.056,1.779,1.779,0,0,0,1.2.385A1.731,1.731,0,0,0,276.044,165.088Zm-2.19-6.5a1.358,1.358,0,0,0-.022,1.813,2.987,2.987,0,0,0,1.078.595l.266.1a2.32,2.32,0,0,0,.777-.707,1.64,1.64,0,0,0,.232-.889,1.18,1.18,0,0,0-.351-.9,1.4,1.4,0,0,0-.994-.329A1.414,1.414,0,0,0,273.854,158.592Z"/><path class="cls-2" d="M289.21,160.111a4.966,4.966,0,0,1,.665,2.793,4.86,4.86,0,0,1-.72,2.807,2.36,2.36,0,0,1-2.066,1.043,2.552,2.552,0,0,1-1.189-.273,2.692,2.692,0,0,1-.9-.734v3.611l-.811.112V159.278h.7l.07,1.064a2.958,2.958,0,0,1,.988-.9,2.57,2.57,0,0,1,1.266-.321A2.244,2.244,0,0,1,289.21,160.111Zm-.735,5.159a4.286,4.286,0,0,0,.532-2.366q0-3.106-1.946-3.108a1.947,1.947,0,0,0-1.141.336,4.019,4.019,0,0,0-.917.924v3.892a2.213,2.213,0,0,0,1.932,1.12A1.737,1.737,0,0,0,288.475,165.27Z"/><path class="cls-2" d="M292.767,165.613a.637.637,0,0,1,.189.47.647.647,0,0,1-.672.671.669.669,0,0,1-.672-.671.624.624,0,0,1,.2-.47.7.7,0,0,1,.959,0Z"/><path class="cls-2" d="M302.713,160.1a5.85,5.85,0,0,1-.035,5.614,2.371,2.371,0,0,1-2.051,1.036,2.459,2.459,0,0,1-1.2-.294,2.755,2.755,0,0,1-.9-.784l-.084.924h-.714V156.3l.811-.1v4.1a2.632,2.632,0,0,1,2.2-1.175A2.285,2.285,0,0,1,302.713,160.1Zm-.707,5.173a4.273,4.273,0,0,0,.539-2.373q0-3.106-1.973-3.108a1.941,1.941,0,0,0-1.134.329,3.658,3.658,0,0,0-.9.931v3.85a2.812,2.812,0,0,0,.84.861,1.979,1.979,0,0,0,1.092.316A1.737,1.737,0,0,0,302.006,165.277Z"/><path class="cls-2" d="M306.3,165.613a.637.637,0,0,1,.189.47.673.673,0,0,1-1.148.475.646.646,0,0,1-.2-.475.624.624,0,0,1,.2-.47.661.661,0,0,1,.477-.189A.653.653,0,0,1,306.3,165.613Z"/><use width="198.127" height="26.528" transform="translate(173.599 49.636) scale(1.2)" xlink:href="#Legenda_šipek"/></svg>