<svg id="Layer_1" data-name="Layer 1" xmlns="http://www.w3.org/2000/svg" xmlns:xlink="http://www.w3.org/1999/xlink" viewBox="0 0 620 464.362"><defs><style>.cls-1,.cls-10,.cls-11,.cls-12,.cls-15,.cls-17,.cls-5,.cls-6,.cls-7,.cls-8,.cls-9{fill:none;}.cls-1{stroke:#231f20;stroke-miterlimit:10;}.cls-1,.cls-10,.cls-11,.cls-15,.cls-17,.cls-5,.cls-6,.cls-7,.cls-8,.cls-9{stroke-width:0.75px;}.cls-2{fill:#d44060;}.cls-3{fill:#2d81b9;}.cls-18,.cls-4{fill:#fff;}.cls-10,.cls-11,.cls-17,.cls-5,.cls-6,.cls-7,.cls-8,.cls-9{stroke:#c7c7c7;}.cls-10,.cls-11,.cls-12,.cls-13,.cls-17,.cls-5,.cls-6,.cls-7,.cls-8,.cls-9{stroke-linecap:round;}.cls-10,.cls-11,.cls-12,.cls-13,.cls-15,.cls-17,.cls-5,.cls-6,.cls-7,.cls-8,.cls-9{stroke-linejoin:round;}.cls-6{stroke-dasharray:2.007 4.013;}.cls-7{stroke-dasharray:2 4;}.cls-8{stroke-dasharray:1.996 3.992;}.cls-9{stroke-dasharray:1.998 3.996;}.cls-10{stroke-dasharray:2.011 4.023;}.cls-11{stroke-dasharray:2.012 4.023;}.cls-12{stroke:#f0d8db;}.cls-12,.cls-13{stroke-width:8.5px;}.cls-13{fill:#d1daed;stroke:#d1daed;}.cls-14{isolation:isolate;}.cls-15{stroke:#999;}.cls-16{fill:#666;}.cls-17{stroke-dasharray:1.99 3.981;}.cls-18{opacity:0.42;}</style><symbol id="Legenda_šipek" data-name="Legenda šipek" viewBox="0 0 198.127 26.528"><line class="cls-1" x1="110.037" y1="22.11" x2="124.74" y2="22.11"/><polyline class="cls-1" points="120.587 26.263 124.74 22.11 120.587 17.957"/><line class="cls-1" x1="87.06" y1="22.11" x2="72.357" y2="22.11"/><polyline class="cls-1" points="76.511 17.957 72.357 22.11 76.511 26.263"/><path class="cls-2" d="M5.634,4.218A2.009,2.009,0,0,1,6.108,5.64v4.6H4.572V5.88a1.219,1.219,0,0,0-.2-.792.729.729,0,0,0-.582-.228,1.138,1.138,0,0,0-.714.246,2.807,2.807,0,0,0-.618.714v4.416H.924V3.888H2.256l.12.828A2.359,2.359,0,0,1,4.308,3.708,1.721,1.721,0,0,1,5.634,4.218Z"/><path class="cls-2" d="M9.354.942a.909.909,0,0,1,.27.666.889.889,0,0,1-.27.66.964.964,0,0,1-.7.264.944.944,0,0,1-.689-.264.882.882,0,0,1-.271-.66A.9.9,0,0,1,7.962.942a.932.932,0,0,1,.689-.27A.952.952,0,0,1,9.354.942Zm.078,2.946v6.348H7.9V3.888Z"/><path class="cls-2" d="M15.407,3.888v1.1L12.336,9.036h3.132l-.156,1.2H10.571v-1.1l3.084-4.044H10.836v-1.2ZM14.628.636l.588.672-1.668,1.5h-.96l-1.668-1.5.588-.672,1.559,1.056Z"/><path class="cls-2" d="M20.831,4.464l-.6.9a2.979,2.979,0,0,0-1.6-.516,1.233,1.233,0,0,0-.708.174.536.536,0,0,0-.252.462.589.589,0,0,0,.107.36.981.981,0,0,0,.391.27,6.475,6.475,0,0,0,.834.282,3.661,3.661,0,0,1,1.529.732,1.638,1.638,0,0,1,.5,1.272,1.707,1.707,0,0,1-.767,1.482,3.265,3.265,0,0,1-1.909.534,4.024,4.024,0,0,1-1.421-.24,3.467,3.467,0,0,1-1.111-.66l.769-.864a2.83,2.83,0,0,0,1.727.624,1.468,1.468,0,0,0,.823-.2.642.642,0,0,0,.3-.564.756.756,0,0,0-.113-.438.945.945,0,0,0-.408-.288,8.642,8.642,0,0,0-.918-.306,3.07,3.07,0,0,1-1.429-.738,1.637,1.637,0,0,1-.455-1.182,1.564,1.564,0,0,1,.306-.948,2.03,2.03,0,0,1,.864-.66,3.207,3.207,0,0,1,1.277-.24A3.567,3.567,0,0,1,20.831,4.464ZM20.172.636l.588.672-1.668,1.5h-.96l-1.668-1.5.588-.672,1.559,1.056Z"/><path class="cls-2" d="M23.963.4l.624,1.2-2.712,1.08-.432-.78Zm-.144,3.492v6.348H22.283V3.888Z"/><path class="cls-2" d="M33.732,4.584a4.457,4.457,0,0,1,.577,2.46,4.826,4.826,0,0,1-.295,1.746,2.653,2.653,0,0,1-.864,1.194,2.169,2.169,0,0,1-1.35.432,1.98,1.98,0,0,1-1.6-.7v2.964l-1.536.168V3.888h1.344l.084.78a2.488,2.488,0,0,1,.852-.72,2.225,2.225,0,0,1,1.008-.24A1.977,1.977,0,0,1,33.732,4.584ZM32.7,7.056a3.508,3.508,0,0,0-.3-1.68.976.976,0,0,0-.9-.516,1.237,1.237,0,0,0-.72.234,2.043,2.043,0,0,0-.576.63V8.58a1.348,1.348,0,0,0,1.164.66Q32.7,9.24,32.7,7.056Z"/><path class="cls-2" d="M40.6,4.6a3.593,3.593,0,0,1,.786,2.454,4.057,4.057,0,0,1-.361,1.758A2.733,2.733,0,0,1,39.995,10a2.945,2.945,0,0,1-1.6.42,2.783,2.783,0,0,1-2.2-.894,3.594,3.594,0,0,1-.792-2.466,4.032,4.032,0,0,1,.36-1.752A2.729,2.729,0,0,1,36.81,4.128a2.977,2.977,0,0,1,1.6-.42A2.765,2.765,0,0,1,40.6,4.6ZM37.031,7.056a3.163,3.163,0,0,0,.342,1.662,1.25,1.25,0,0,0,2.053-.006,3.168,3.168,0,0,0,.342-1.656,3.134,3.134,0,0,0-.342-1.65,1.129,1.129,0,0,0-1.015-.534Q37.031,4.872,37.031,7.056Z"/><path class="cls-2" d="M48.167,1.344v8.892H46.812l-.109-.8a2.222,2.222,0,0,1-.762.72,2.077,2.077,0,0,1-1.049.264,2.043,2.043,0,0,1-1.788-.9,4.233,4.233,0,0,1-.625-2.448,4.543,4.543,0,0,1,.312-1.734,2.731,2.731,0,0,1,.9-1.194,2.255,2.255,0,0,1,2.945.252V1.176Zm-2.124,7.71a2.041,2.041,0,0,0,.588-.618v-2.9a2.2,2.2,0,0,0-.558-.5,1.251,1.251,0,0,0-.654-.168,1.1,1.1,0,0,0-.966.546,3.075,3.075,0,0,0-.353,1.65,3.389,3.389,0,0,0,.311,1.686,1,1,0,0,0,.912.51A1.315,1.315,0,0,0,46.043,9.054Z"/><path class="cls-2" d="M51.923.4l.624,1.2-2.712,1.08L49.4,1.9Zm-.144,3.492v6.348H50.243V3.888Z"/><path class="cls-2" d="M54.138,9.99a1.655,1.655,0,0,1-.414-1.206V1.344l1.536-.168v7.56c0,.3.119.444.359.444a1.133,1.133,0,0,0,.36-.06L56.3,10.2a2.462,2.462,0,0,1-1.021.216A1.52,1.52,0,0,1,54.138,9.99Z"/><path class="cls-2" d="M65.027,4.224a1.994,1.994,0,0,1,.481,1.416v4.6H63.972V5.88a1.218,1.218,0,0,0-.2-.792.728.728,0,0,0-.582-.228,1.148,1.148,0,0,0-.708.246,2.845,2.845,0,0,0-.624.7v4.428H60.323V1.356L61.859,1.2V4.644a2.318,2.318,0,0,1,1.848-.936A1.713,1.713,0,0,1,65.027,4.224Z"/><path class="cls-2" d="M67.649,9.99a1.659,1.659,0,0,1-.414-1.206V1.344l1.536-.168v7.56q0,.444.36.444a1.133,1.133,0,0,0,.36-.06l.324,1.08a2.457,2.457,0,0,1-1.02.216A1.524,1.524,0,0,1,67.649,9.99Z"/><path class="cls-2" d="M75.582,9.1a.722.722,0,0,0,.365.27l-.323,1.02a1.971,1.971,0,0,1-.883-.264,1.353,1.353,0,0,1-.521-.66,2.037,2.037,0,0,1-.811.714,2.465,2.465,0,0,1-1.086.234,2.053,2.053,0,0,1-1.5-.54,1.892,1.892,0,0,1-.552-1.416,1.832,1.832,0,0,1,.75-1.578,3.6,3.6,0,0,1,2.142-.546h.792v-.36a1.1,1.1,0,0,0-.281-.858,1.365,1.365,0,0,0-.906-.246,5.35,5.35,0,0,0-1.68.336l-.36-1.044a6.407,6.407,0,0,1,2.3-.456q2.436,0,2.437,2.184V8.556A1.019,1.019,0,0,0,75.582,9.1ZM73.955,8.52V7.236h-.636q-1.488,0-1.487,1.1a1.013,1.013,0,0,0,.228.708.859.859,0,0,0,.671.252A1.358,1.358,0,0,0,73.955,8.52Z"/><path class="cls-2" d="M81.467,4.464l-.6.9a2.982,2.982,0,0,0-1.6-.516,1.235,1.235,0,0,0-.708.174.538.538,0,0,0-.251.462.589.589,0,0,0,.107.36.981.981,0,0,0,.391.27,6.421,6.421,0,0,0,.834.282,3.661,3.661,0,0,1,1.529.732,1.638,1.638,0,0,1,.5,1.272A1.706,1.706,0,0,1,80.9,9.882,3.26,3.26,0,0,1,79,10.416a4.033,4.033,0,0,1-1.422-.24,3.462,3.462,0,0,1-1.11-.66l.768-.864a2.833,2.833,0,0,0,1.728.624,1.462,1.462,0,0,0,.822-.2.642.642,0,0,0,.306-.564.756.756,0,0,0-.113-.438.949.949,0,0,0-.409-.288,8.563,8.563,0,0,0-.918-.306,3.066,3.066,0,0,1-1.428-.738,1.637,1.637,0,0,1-.455-1.182,1.569,1.569,0,0,1,.305-.948,2.034,2.034,0,0,1,.865-.66,3.2,3.2,0,0,1,1.277-.24A3.571,3.571,0,0,1,81.467,4.464Z"/><path class="cls-2" d="M88,10.236H86.663l-.084-.888a2.347,2.347,0,0,1-.822.8,2.27,2.27,0,0,1-1.122.264,1.662,1.662,0,0,1-1.314-.522,2.107,2.107,0,0,1-.462-1.446V3.888H84.4V8.256a1.229,1.229,0,0,0,.185.768.723.723,0,0,0,.594.228,1.55,1.55,0,0,0,1.284-.9V3.888H88ZM86.531.414a1.379,1.379,0,0,1,.42,1.026,1.379,1.379,0,0,1-.426,1.02,1.5,1.5,0,0,1-1.1.42,1.513,1.513,0,0,1-1.11-.42,1.378,1.378,0,0,1-.425-1.02A1.372,1.372,0,0,1,84.317.414,1.525,1.525,0,0,1,85.427,0,1.5,1.5,0,0,1,86.531.414ZM85,.972a.662.662,0,0,0-.156.468A.639.639,0,0,0,85,1.9a.572.572,0,0,0,.432.162.556.556,0,0,0,.42-.162A.639.639,0,0,0,86,1.44a.662.662,0,0,0-.156-.468A.545.545,0,0,0,85.427.8.56.56,0,0,0,85,.972Z"/><path class="cls-3" d="M113.24,3.888l-2.064,6.348H109.34l-2.1-6.348h1.668L110.264,9l1.392-5.112Z"/><path class="cls-3" d="M117.26,10.26a3.9,3.9,0,0,1-1.164,1.83,3.705,3.705,0,0,1-2.136.762l-.156-1.116a3.84,3.84,0,0,0,1-.27,1.62,1.62,0,0,0,.606-.462,3.156,3.156,0,0,0,.42-.768H115.3l-2.016-6.348h1.632l1.38,5.328,1.439-5.328h1.584Z"/><path class="cls-3" d="M124.424,4.464l-.6.9a2.981,2.981,0,0,0-1.595-.516,1.23,1.23,0,0,0-.708.174.536.536,0,0,0-.252.462.589.589,0,0,0,.107.36.981.981,0,0,0,.391.27,6.421,6.421,0,0,0,.834.282,3.661,3.661,0,0,1,1.529.732,1.638,1.638,0,0,1,.5,1.272,1.706,1.706,0,0,1-.768,1.482,3.26,3.26,0,0,1-1.908.534,4.033,4.033,0,0,1-1.422-.24,3.462,3.462,0,0,1-1.11-.66l.768-.864a2.833,2.833,0,0,0,1.728.624,1.462,1.462,0,0,0,.822-.2.642.642,0,0,0,.306-.564.756.756,0,0,0-.113-.438.949.949,0,0,0-.409-.288,8.485,8.485,0,0,0-.918-.306,3.066,3.066,0,0,1-1.428-.738,1.637,1.637,0,0,1-.455-1.182,1.569,1.569,0,0,1,.3-.948,2.034,2.034,0,0,1,.865-.66,3.2,3.2,0,0,1,1.277-.24A3.571,3.571,0,0,1,124.424,4.464ZM123.765.636l.588.672-1.668,1.5h-.96l-1.668-1.5.588-.672L122.2,1.692Z"/><path class="cls-3" d="M130.039,4.464l-.6.9a2.979,2.979,0,0,0-1.595-.516,1.233,1.233,0,0,0-.708.174.536.536,0,0,0-.252.462.589.589,0,0,0,.107.36.981.981,0,0,0,.391.27,6.475,6.475,0,0,0,.834.282,3.661,3.661,0,0,1,1.529.732,1.638,1.638,0,0,1,.5,1.272,1.707,1.707,0,0,1-.767,1.482,3.265,3.265,0,0,1-1.909.534,4.024,4.024,0,0,1-1.421-.24,3.467,3.467,0,0,1-1.111-.66l.769-.864a2.83,2.83,0,0,0,1.727.624,1.468,1.468,0,0,0,.823-.2.642.642,0,0,0,.3-.564.756.756,0,0,0-.113-.438.945.945,0,0,0-.408-.288,8.642,8.642,0,0,0-.918-.306,3.07,3.07,0,0,1-1.429-.738,1.637,1.637,0,0,1-.455-1.182,1.57,1.57,0,0,1,.306-.948,2.03,2.03,0,0,1,.864-.66,3.207,3.207,0,0,1,1.277-.24A3.567,3.567,0,0,1,130.039,4.464ZM129.38.636l.588.672-1.668,1.5h-.96l-1.668-1.5.588-.672,1.559,1.056Z"/><path class="cls-3" d="M133.171.4l.624,1.2-2.712,1.08-.432-.78Zm-.144,3.492v6.348h-1.536V3.888Z"/><path class="cls-3" d="M142.94,4.584a4.457,4.457,0,0,1,.577,2.46,4.826,4.826,0,0,1-.295,1.746,2.653,2.653,0,0,1-.864,1.194,2.169,2.169,0,0,1-1.35.432,1.98,1.98,0,0,1-1.6-.7v2.964l-1.536.168V3.888h1.344l.084.78a2.488,2.488,0,0,1,.852-.72,2.225,2.225,0,0,1,1.008-.24A1.977,1.977,0,0,1,142.94,4.584Zm-1.032,2.472a3.508,3.508,0,0,0-.3-1.68.976.976,0,0,0-.9-.516,1.237,1.237,0,0,0-.72.234,2.043,2.043,0,0,0-.576.63V8.58a1.348,1.348,0,0,0,1.164.66Q141.908,9.24,141.908,7.056Z"/><path class="cls-3" d="M149.81,4.6a3.593,3.593,0,0,1,.786,2.454,4.057,4.057,0,0,1-.361,1.758A2.733,2.733,0,0,1,149.2,10a2.945,2.945,0,0,1-1.6.42,2.783,2.783,0,0,1-2.2-.894,3.594,3.594,0,0,1-.792-2.466,4.032,4.032,0,0,1,.36-1.752,2.729,2.729,0,0,1,1.039-1.176,2.977,2.977,0,0,1,1.6-.42A2.765,2.765,0,0,1,149.81,4.6Zm-3.571,2.454a3.163,3.163,0,0,0,.342,1.662,1.25,1.25,0,0,0,2.053-.006,3.168,3.168,0,0,0,.342-1.656,3.134,3.134,0,0,0-.342-1.65,1.129,1.129,0,0,0-1.015-.534Q146.239,4.872,146.239,7.056Z"/><path class="cls-3" d="M157.375,1.344v8.892H156.02l-.109-.8a2.222,2.222,0,0,1-.762.72,2.077,2.077,0,0,1-1.049.264,2.043,2.043,0,0,1-1.788-.9,4.233,4.233,0,0,1-.624-2.448A4.543,4.543,0,0,1,152,5.334a2.731,2.731,0,0,1,.9-1.194,2.255,2.255,0,0,1,2.945.252V1.176Zm-2.124,7.71a2.041,2.041,0,0,0,.588-.618v-2.9a2.2,2.2,0,0,0-.558-.5,1.251,1.251,0,0,0-.654-.168,1.1,1.1,0,0,0-.966.546,3.075,3.075,0,0,0-.353,1.65,3.389,3.389,0,0,0,.311,1.686,1,1,0,0,0,.912.51A1.315,1.315,0,0,0,155.251,9.054Z"/><path class="cls-3" d="M161.131.4l.624,1.2-2.712,1.08-.432-.78Zm-.144,3.492v6.348h-1.536V3.888Z"/><path class="cls-3" d="M163.346,9.99a1.655,1.655,0,0,1-.414-1.206V1.344l1.536-.168v7.56c0,.3.119.444.359.444a1.143,1.143,0,0,0,.361-.06l.324,1.08a2.462,2.462,0,0,1-1.021.216A1.52,1.52,0,0,1,163.346,9.99Z"/><path class="cls-3" d="M174.235,4.224a1.994,1.994,0,0,1,.481,1.416v4.6H173.18V5.88a1.218,1.218,0,0,0-.2-.792.728.728,0,0,0-.582-.228,1.148,1.148,0,0,0-.708.246,2.845,2.845,0,0,0-.624.7v4.428h-1.536V1.356l1.536-.156V4.644a2.318,2.318,0,0,1,1.848-.936A1.713,1.713,0,0,1,174.235,4.224Z"/><path class="cls-3" d="M176.857,9.99a1.659,1.659,0,0,1-.414-1.206V1.344l1.536-.168v7.56q0,.444.36.444a1.133,1.133,0,0,0,.36-.06l.324,1.08a2.457,2.457,0,0,1-1.02.216A1.524,1.524,0,0,1,176.857,9.99Z"/><path class="cls-3" d="M184.79,9.1a.722.722,0,0,0,.365.27l-.323,1.02a1.971,1.971,0,0,1-.883-.264,1.353,1.353,0,0,1-.521-.66,2.037,2.037,0,0,1-.811.714,2.465,2.465,0,0,1-1.086.234,2.053,2.053,0,0,1-1.5-.54,1.892,1.892,0,0,1-.552-1.416,1.832,1.832,0,0,1,.75-1.578,3.6,3.6,0,0,1,2.142-.546h.792v-.36a1.1,1.1,0,0,0-.281-.858,1.365,1.365,0,0,0-.906-.246,5.35,5.35,0,0,0-1.68.336l-.36-1.044a6.407,6.407,0,0,1,2.3-.456q2.436,0,2.437,2.184V8.556A1.019,1.019,0,0,0,184.79,9.1Zm-1.627-.582V7.236h-.636q-1.488,0-1.487,1.1a1.013,1.013,0,0,0,.228.708.859.859,0,0,0,.671.252A1.358,1.358,0,0,0,183.163,8.52Z"/><path class="cls-3" d="M190.675,4.464l-.6.9a2.982,2.982,0,0,0-1.6-.516,1.235,1.235,0,0,0-.708.174.538.538,0,0,0-.251.462.589.589,0,0,0,.107.36.981.981,0,0,0,.391.27,6.421,6.421,0,0,0,.834.282,3.661,3.661,0,0,1,1.529.732,1.638,1.638,0,0,1,.5,1.272,1.706,1.706,0,0,1-.768,1.482,3.26,3.26,0,0,1-1.908.534,4.033,4.033,0,0,1-1.422-.24,3.462,3.462,0,0,1-1.11-.66l.768-.864a2.833,2.833,0,0,0,1.728.624,1.462,1.462,0,0,0,.822-.2.642.642,0,0,0,.306-.564.756.756,0,0,0-.113-.438.949.949,0,0,0-.409-.288,8.563,8.563,0,0,0-.918-.306,3.066,3.066,0,0,1-1.428-.738,1.637,1.637,0,0,1-.455-1.182,1.569,1.569,0,0,1,.3-.948,2.034,2.034,0,0,1,.865-.66,3.2,3.2,0,0,1,1.277-.24A3.571,3.571,0,0,1,190.675,4.464Z"/><path class="cls-3" d="M197.2,10.236h-1.332l-.084-.888a2.347,2.347,0,0,1-.822.8,2.27,2.27,0,0,1-1.122.264,1.662,1.662,0,0,1-1.314-.522,2.107,2.107,0,0,1-.462-1.446V3.888H193.6V8.256a1.229,1.229,0,0,0,.185.768.723.723,0,0,0,.594.228,1.55,1.55,0,0,0,1.284-.9V3.888H197.2ZM195.739.414a1.379,1.379,0,0,1,.42,1.026,1.379,1.379,0,0,1-.426,1.02,1.5,1.5,0,0,1-1.1.42,1.513,1.513,0,0,1-1.11-.42,1.378,1.378,0,0,1-.425-1.02,1.372,1.372,0,0,1,.425-1.026A1.525,1.525,0,0,1,194.635,0,1.5,1.5,0,0,1,195.739.414ZM194.2.972a.662.662,0,0,0-.156.468.639.639,0,0,0,.156.462.572.572,0,0,0,.432.162.556.556,0,0,0,.42-.162.639.639,0,0,0,.156-.462.662.662,0,0,0-.156-.468.545.545,0,0,0-.42-.168A.56.56,0,0,0,194.2.972Z"/><circle cx="98.581" cy="22.11" r="1.583"/></symbol></defs><rect class="cls-4" x="-716.909" y="-1019.694" width="3279.232" height="1606.206"/><line class="cls-5" x1="306.541" y1="262.039" x2="305.541" y2="262.039"/><line class="cls-6" x1="301.528" y1="262.039" x2="-256.297" y2="262.039"/><line class="cls-5" x1="476.594" y1="133.144" x2="475.594" y2="133.144"/><line class="cls-7" x1="471.594" y1="133.144" x2="-402.45" y2="133.144"/><line class="cls-5" x1="360.537" y1="174.988" x2="359.537" y2="174.988"/><line class="cls-8" x1="355.545" y1="174.988" x2="-301.149" y2="174.988"/><line class="cls-5" x1="227.541" y1="303.831" x2="226.541" y2="303.831"/><line class="cls-9" x1="222.546" y1="303.831" x2="-230.957" y2="303.831"/><line class="cls-5" x1="273.625" y1="346.43" x2="272.625" y2="346.43"/><line class="cls-10" x1="268.603" y1="346.43" x2="-224.189" y2="346.43"/><line class="cls-5" x1="251.359" y1="387.441" x2="250.359" y2="387.441"/><line class="cls-11" x1="246.335" y1="387.441" x2="-192.192" y2="387.441"/><line class="cls-12" x1="250.547" y1="387.445" x2="252.17" y2="387.445"/><line class="cls-12" x1="250.547" y1="387.445" x2="249.041" y2="387.445"/><line class="cls-12" x1="277.784" y1="346.497" x2="278.943" y2="346.497"/><line class="cls-12" x1="277.784" y1="346.497" x2="276.625" y2="346.497"/><line class="cls-12" x1="225.861" y1="303.821" x2="229.222" y2="303.821"/><line class="cls-12" x1="225.861" y1="303.821" x2="222.384" y2="303.821"/><line class="cls-13" x1="310.7" y1="262.183" x2="311.627" y2="262.183"/><line class="cls-13" x1="310.7" y1="262.183" x2="309.888" y2="262.183"/><line class="cls-13" x1="361.927" y1="175.129" x2="363.434" y2="175.129"/><line class="cls-13" x1="361.927" y1="175.129" x2="360.537" y2="175.129"/><line class="cls-13" x1="476.553" y1="133.145" x2="480.493" y2="133.145"/><line class="cls-13" x1="476.553" y1="133.145" x2="472.496" y2="133.145"/><g class="cls-14"><path d="M272.554,18.187a5.8,5.8,0,0,1,1.818,1.152l-1.169,1.35a4.617,4.617,0,0,0-1.342-.81,4.1,4.1,0,0,0-1.449-.252,2.316,2.316,0,0,0-1.395.387,1.269,1.269,0,0,0-.531,1.089,1.36,1.36,0,0,0,.207.774,1.914,1.914,0,0,0,.748.576,10.816,10.816,0,0,0,1.6.594,7.275,7.275,0,0,1,2.764,1.431,3.227,3.227,0,0,1,.926,2.493,3.519,3.519,0,0,1-.567,1.98,3.763,3.763,0,0,1-1.628,1.35,6.02,6.02,0,0,1-2.52.486,6.688,6.688,0,0,1-2.547-.459,5.934,5.934,0,0,1-1.935-1.251l1.224-1.368a5.5,5.5,0,0,0,1.494.927,4.494,4.494,0,0,0,1.709.315,2.64,2.64,0,0,0,1.657-.486,1.629,1.629,0,0,0,.628-1.368,1.675,1.675,0,0,0-.214-.891,1.884,1.884,0,0,0-.739-.63,8.94,8.94,0,0,0-1.511-.585,7.089,7.089,0,0,1-2.862-1.476,3.026,3.026,0,0,1-.883-2.268,3.067,3.067,0,0,1,.54-1.8,3.563,3.563,0,0,1,1.5-1.206,5.3,5.3,0,0,1,2.188-.432A6.291,6.291,0,0,1,272.554,18.187Z"/><path d="M284.156,19.069a3.474,3.474,0,0,1,1.322,2.97,3.686,3.686,0,0,1-1.332,3.1,5.622,5.622,0,0,1-3.545,1.035h-1.459v4.338h-2.375V18.079h3.672A6.1,6.1,0,0,1,284.156,19.069Zm-1.809,4.8a2.243,2.243,0,0,0,.647-1.827q0-2.214-2.573-2.214h-1.279V24.4h1.279A2.985,2.985,0,0,0,282.347,23.866Z"/><path d="M295.072,18.565a4.867,4.867,0,0,1,1.881,2.214,8.487,8.487,0,0,1,.658,3.51,8.368,8.368,0,0,1-.666,3.492,5.041,5.041,0,0,1-1.891,2.232,5.273,5.273,0,0,1-2.881.774,5.4,5.4,0,0,1-2.9-.756,4.916,4.916,0,0,1-1.891-2.214,8.419,8.419,0,0,1-.666-3.51,8.386,8.386,0,0,1,.666-3.483,5,5,0,0,1,1.9-2.241,5.318,5.318,0,0,1,2.888-.774A5.408,5.408,0,0,1,295.072,18.565Zm-5.094,2.187a6.511,6.511,0,0,0-.756,3.555q0,4.662,2.951,4.662a2.466,2.466,0,0,0,2.188-1.116,6.567,6.567,0,0,0,.748-3.564,6.525,6.525,0,0,0-.748-3.546,2.7,2.7,0,0,0-4.383.009Z"/><path d="M302.218,18.079V28.573h4.987l-.272,1.944h-7.092V18.079Z"/><path d="M317.572,26.449a4.633,4.633,0,0,1-.532,2.241,3.721,3.721,0,0,1-1.584,1.539,5.33,5.33,0,0,1-2.529.558,4.652,4.652,0,0,1-3.42-1.179,4.254,4.254,0,0,1-1.187-3.159v-8.37H310.7v8.244a2.968,2.968,0,0,0,.549,1.962,2.078,2.078,0,0,0,1.681.648,2.1,2.1,0,0,0,1.7-.648,2.968,2.968,0,0,0,.549-1.962V18.079h2.395Z"/></g><line class="cls-15" x1="291.923" y1="91.796" x2="291.923" y2="423.676"/><line class="cls-15" x1="148.072" y1="420.001" x2="148.072" y2="423.481"/><line class="cls-15" x1="76.118" y1="420.001" x2="76.118" y2="423.481"/><line class="cls-15" x1="220.027" y1="420.001" x2="220.027" y2="423.481"/><line class="cls-15" x1="363.936" y1="420.001" x2="363.936" y2="423.481"/><line class="cls-15" x1="435.891" y1="420.001" x2="435.891" y2="423.481"/><line class="cls-15" x1="507.846" y1="420.001" x2="507.846" y2="423.481"/><path class="cls-16" d="M136.38,433.933V433h3.4v.936Z"/><path class="cls-16" d="M145.855,430.135a7.339,7.339,0,0,1,0,6.162,2.428,2.428,0,0,1-4.021,0,7.349,7.349,0,0,1,0-6.162,2.433,2.433,0,0,1,4.021,0Zm-3.168.582a8.428,8.428,0,0,0,0,5,1.249,1.249,0,0,0,2.309,0,8.3,8.3,0,0,0,0-4.992,1.249,1.249,0,0,0-2.309-.006Z"/><path class="cls-16" d="M149.185,435.937a.8.8,0,0,1,.239.587,2.107,2.107,0,0,1-.216.853l-.8,1.836h-.792l.479-1.992a.864.864,0,0,1-.245-.3.875.875,0,0,1-.091-.4.821.821,0,0,1,.828-.828A.812.812,0,0,1,149.185,435.937Z"/><path class="cls-16" d="M153.913,429.192v8.029h-1.1v-6.852l-1.872,1.14-.481-.78,2.485-1.537Z"/><path class="cls-16" d="M162.306,429.625a2.265,2.265,0,0,1,0,2.952,2.062,2.062,0,0,1-2.808,0,2.271,2.271,0,0,1,0-2.952,2.059,2.059,0,0,1,2.808,0Zm-2.159.552a2.013,2.013,0,0,0,0,1.842.8.8,0,0,0,.75.366q.971,0,.972-1.284a1.789,1.789,0,0,0-.216-.918.961.961,0,0,0-1.506-.006Zm5.622-1.489.768.5-5.556,8.4-.769-.5Zm1.476,5.172a2.287,2.287,0,0,1,0,2.952,2.07,2.07,0,0,1-2.815,0,2.268,2.268,0,0,1,0-2.952,2.073,2.073,0,0,1,2.815,0Zm-2.155.559a1.712,1.712,0,0,0-.221.918,1.753,1.753,0,0,0,.221.918.809.809,0,0,0,.75.366q.974,0,.973-1.284a1.739,1.739,0,0,0-.217-.912.807.807,0,0,0-.756-.361A.818.818,0,0,0,165.09,434.419Z"/><path class="cls-16" d="M203.6,433.933V433H207v.936Z"/><path class="cls-16" d="M213.078,430.135a7.349,7.349,0,0,1,0,6.162,2.428,2.428,0,0,1-4.021,0,7.339,7.339,0,0,1,0-6.162,2.433,2.433,0,0,1,4.021,0Zm-3.168.582a8.428,8.428,0,0,0,0,5,1.249,1.249,0,0,0,2.309,0,8.3,8.3,0,0,0,0-4.992,1.249,1.249,0,0,0-2.309-.006Z"/><path class="cls-16" d="M216.408,435.937a.8.8,0,0,1,.239.587,2.107,2.107,0,0,1-.216.853l-.8,1.836h-.792l.48-1.992a.843.843,0,0,1-.245-.3.862.862,0,0,1-.091-.4.821.821,0,0,1,.828-.828A.815.815,0,0,1,216.408,435.937Z"/><path class="cls-16" d="M222.618,430.135a7.349,7.349,0,0,1,0,6.162,2.428,2.428,0,0,1-4.021,0,7.339,7.339,0,0,1,0-6.162,2.433,2.433,0,0,1,4.021,0Zm-3.168.582a8.428,8.428,0,0,0,0,5,1.249,1.249,0,0,0,2.309,0,8.3,8.3,0,0,0,0-4.992,1.249,1.249,0,0,0-2.309-.006Z"/><path class="cls-16" d="M229,430.057h-3.132v2.364a2.792,2.792,0,0,1,1.284-.313,2.143,2.143,0,0,1,1.655.679,2.646,2.646,0,0,1,.624,1.865,2.831,2.831,0,0,1-.347,1.41,2.423,2.423,0,0,1-.978.96,3,3,0,0,1-1.458.342,3.172,3.172,0,0,1-1.309-.258,3.476,3.476,0,0,1-1.068-.761l.648-.636a2.736,2.736,0,0,0,.792.569,2.207,2.207,0,0,0,.924.187,1.548,1.548,0,0,0,1.206-.481,1.936,1.936,0,0,0,.439-1.355,1.743,1.743,0,0,0-.4-1.273,1.444,1.444,0,0,0-1.067-.395,2.368,2.368,0,0,0-.576.065,3.044,3.044,0,0,0-.565.21h-.864v-4.044h4.345Z"/><path class="cls-16" d="M237.04,429.625a2.265,2.265,0,0,1,0,2.952,2.06,2.06,0,0,1-2.807,0,2.268,2.268,0,0,1,0-2.952,2.058,2.058,0,0,1,2.807,0Zm-2.159.552a2.021,2.021,0,0,0,0,1.842.807.807,0,0,0,.75.366q.972,0,.972-1.284a1.779,1.779,0,0,0-.216-.918.8.8,0,0,0-.756-.367A.812.812,0,0,0,234.881,430.177Zm5.622-1.489.768.5-5.556,8.4-.768-.5Zm1.476,5.172a2.287,2.287,0,0,1,0,2.952,1.873,1.873,0,0,1-1.4.552,1.9,1.9,0,0,1-1.411-.552,2.271,2.271,0,0,1,0-2.952,1.9,1.9,0,0,1,1.411-.551A1.88,1.88,0,0,1,241.979,433.86Zm-2.154.559a1.7,1.7,0,0,0-.222.918,1.743,1.743,0,0,0,.222.918.807.807,0,0,0,.75.366q.972,0,.972-1.284a1.739,1.739,0,0,0-.217-.912.806.806,0,0,0-.755-.361A.816.816,0,0,0,239.825,434.419Z"/><path class="cls-16" d="M357.865,430.135a7.349,7.349,0,0,1,0,6.162,2.428,2.428,0,0,1-4.021,0,7.339,7.339,0,0,1,0-6.162,2.433,2.433,0,0,1,4.021,0Zm-3.168.582a8.428,8.428,0,0,0,0,5,1.249,1.249,0,0,0,2.309,0,8.3,8.3,0,0,0,0-4.992,1.249,1.249,0,0,0-2.309-.006Z"/><path class="cls-16" d="M361.2,435.937a.8.8,0,0,1,.239.587,2.107,2.107,0,0,1-.216.853l-.8,1.836h-.792l.48-1.992a.843.843,0,0,1-.245-.3.862.862,0,0,1-.091-.4.821.821,0,0,1,.828-.828A.813.813,0,0,1,361.2,435.937Z"/><path class="cls-16" d="M367.405,430.135a7.349,7.349,0,0,1,0,6.162,2.428,2.428,0,0,1-4.021,0,7.339,7.339,0,0,1,0-6.162,2.433,2.433,0,0,1,4.021,0Zm-3.168.582a8.428,8.428,0,0,0,0,5,1.249,1.249,0,0,0,2.309,0,8.3,8.3,0,0,0,0-4.992,1.249,1.249,0,0,0-2.309-.006Z"/><path class="cls-16" d="M373.783,430.057h-3.132v2.364a2.792,2.792,0,0,1,1.284-.313,2.143,2.143,0,0,1,1.655.679,2.646,2.646,0,0,1,.624,1.865,2.831,2.831,0,0,1-.347,1.41,2.423,2.423,0,0,1-.978.96,3,3,0,0,1-1.458.342,3.172,3.172,0,0,1-1.309-.258,3.476,3.476,0,0,1-1.068-.761l.649-.636a2.709,2.709,0,0,0,.792.569,2.2,2.2,0,0,0,.923.187,1.548,1.548,0,0,0,1.206-.481,1.936,1.936,0,0,0,.439-1.355,1.743,1.743,0,0,0-.4-1.273,1.444,1.444,0,0,0-1.067-.395,2.368,2.368,0,0,0-.576.065,3.07,3.07,0,0,0-.565.21h-.864v-4.044h4.345Z"/><path class="cls-16" d="M381.828,429.625a2.268,2.268,0,0,1,0,2.952,2.061,2.061,0,0,1-2.808,0,2.268,2.268,0,0,1,0-2.952,2.059,2.059,0,0,1,2.808,0Zm-2.16.552a2.021,2.021,0,0,0,0,1.842.807.807,0,0,0,.75.366q.972,0,.972-1.284a1.779,1.779,0,0,0-.216-.918.8.8,0,0,0-.756-.367A.812.812,0,0,0,379.668,430.177Zm5.622-1.489.768.5-5.556,8.4-.768-.5Zm1.476,5.172a2.287,2.287,0,0,1,0,2.952,1.873,1.873,0,0,1-1.4.552,1.893,1.893,0,0,1-1.41-.552,2.268,2.268,0,0,1,0-2.952,1.9,1.9,0,0,1,1.41-.551A1.88,1.88,0,0,1,386.766,433.86Zm-2.154.559a1.7,1.7,0,0,0-.222.918,1.743,1.743,0,0,0,.222.918.807.807,0,0,0,.75.366q.972,0,.972-1.284a1.749,1.749,0,0,0-.216-.912.971.971,0,0,0-1.506-.006Z"/><path class="cls-16" d="M59.587,433.933V433h3.4v.936Z"/><path class="cls-16" d="M69.062,430.135a7.339,7.339,0,0,1,0,6.162,2.428,2.428,0,0,1-4.021,0,7.349,7.349,0,0,1,0-6.162,2.433,2.433,0,0,1,4.021,0Zm-3.168.582a8.428,8.428,0,0,0,0,5,1.249,1.249,0,0,0,2.31,0,8.325,8.325,0,0,0,0-4.992,1.25,1.25,0,0,0-2.31-.006Z"/><path class="cls-16" d="M72.392,435.937a.8.8,0,0,1,.239.587,2.107,2.107,0,0,1-.216.853l-.8,1.836H70.82l.479-1.992a.864.864,0,0,1-.245-.3.875.875,0,0,1-.091-.4.823.823,0,0,1,.828-.828A.812.812,0,0,1,72.392,435.937Z"/><path class="cls-16" d="M77.12,429.192v8.029h-1.1v-6.852l-1.872,1.14-.481-.78,2.485-1.537Z"/><path class="cls-16" d="M83.48,430.057H80.348v2.364a2.792,2.792,0,0,1,1.284-.313,2.145,2.145,0,0,1,1.656.679,2.646,2.646,0,0,1,.624,1.865,2.831,2.831,0,0,1-.348,1.41,2.423,2.423,0,0,1-.978.96,3,3,0,0,1-1.458.342,3.168,3.168,0,0,1-1.308-.258,3.479,3.479,0,0,1-1.069-.761l.649-.636a2.722,2.722,0,0,0,.792.569,2.2,2.2,0,0,0,.924.187,1.549,1.549,0,0,0,1.206-.481,1.936,1.936,0,0,0,.438-1.355,1.748,1.748,0,0,0-.4-1.273,1.447,1.447,0,0,0-1.068-.395,2.368,2.368,0,0,0-.576.065,3.036,3.036,0,0,0-.564.21h-.865v-4.044h4.345Z"/><path class="cls-16" d="M91.525,429.625a2.265,2.265,0,0,1,0,2.952,2.062,2.062,0,0,1-2.808,0,2.268,2.268,0,0,1,0-2.952,2.059,2.059,0,0,1,2.808,0Zm-2.159.552a2.013,2.013,0,0,0,0,1.842.8.8,0,0,0,.75.366q.971,0,.971-1.284a1.779,1.779,0,0,0-.216-.918.96.96,0,0,0-1.5-.006Zm5.622-1.489.767.5-5.555,8.4-.769-.5Zm1.475,5.172a2.287,2.287,0,0,1,0,2.952,1.873,1.873,0,0,1-1.4.552,1.893,1.893,0,0,1-1.41-.552,2.268,2.268,0,0,1,0-2.952,1.9,1.9,0,0,1,1.41-.551A1.88,1.88,0,0,1,96.463,433.86Zm-2.154.559a1.711,1.711,0,0,0-.222.918,1.753,1.753,0,0,0,.222.918.807.807,0,0,0,.75.366q.972,0,.973-1.284a1.749,1.749,0,0,0-.217-.912.971.971,0,0,0-1.506-.006Z"/><path class="cls-16" d="M489.228,433.933V433h3.4v.936Z"/><path class="cls-16" d="M498.7,430.135a7.349,7.349,0,0,1,0,6.162,2.428,2.428,0,0,1-4.021,0,7.339,7.339,0,0,1,0-6.162,2.433,2.433,0,0,1,4.021,0Zm-3.168.582a8.428,8.428,0,0,0,0,5,1.249,1.249,0,0,0,2.309,0,8.3,8.3,0,0,0,0-4.992,1.249,1.249,0,0,0-2.309-.006Z"/><path class="cls-16" d="M502.033,435.937a.8.8,0,0,1,.239.587,2.107,2.107,0,0,1-.216.853l-.8,1.836h-.792l.48-1.992a.843.843,0,0,1-.245-.3.862.862,0,0,1-.091-.4.821.821,0,0,1,.828-.828A.815.815,0,0,1,502.033,435.937Z"/><path class="cls-16" d="M506.76,429.192v8.029h-1.1v-6.852l-1.872,1.14-.481-.78,2.484-1.537Z"/><path class="cls-16" d="M513.121,430.057h-3.132v2.364a2.792,2.792,0,0,1,1.284-.313,2.143,2.143,0,0,1,1.655.679,2.646,2.646,0,0,1,.624,1.865,2.831,2.831,0,0,1-.347,1.41,2.423,2.423,0,0,1-.978.96,3,3,0,0,1-1.458.342,3.172,3.172,0,0,1-1.309-.258,3.476,3.476,0,0,1-1.068-.761l.648-.636a2.736,2.736,0,0,0,.792.569,2.207,2.207,0,0,0,.924.187,1.548,1.548,0,0,0,1.206-.481,1.936,1.936,0,0,0,.439-1.355,1.743,1.743,0,0,0-.4-1.273,1.444,1.444,0,0,0-1.067-.395,2.368,2.368,0,0,0-.576.065,3.044,3.044,0,0,0-.565.21h-.864v-4.044h4.345Z"/><path class="cls-16" d="M521.165,429.625a2.265,2.265,0,0,1,0,2.952,2.06,2.06,0,0,1-2.807,0,2.268,2.268,0,0,1,0-2.952,2.058,2.058,0,0,1,2.807,0Zm-2.159.552a2.021,2.021,0,0,0,0,1.842.807.807,0,0,0,.75.366q.972,0,.972-1.284a1.779,1.779,0,0,0-.216-.918.8.8,0,0,0-.756-.367A.812.812,0,0,0,519.006,430.177Zm5.622-1.489.768.5-5.556,8.4-.768-.5Zm1.476,5.172a2.287,2.287,0,0,1,0,2.952,1.873,1.873,0,0,1-1.4.552,1.9,1.9,0,0,1-1.411-.552,2.271,2.271,0,0,1,0-2.952,1.9,1.9,0,0,1,1.411-.551A1.88,1.88,0,0,1,526.1,433.86Zm-2.154.559a1.7,1.7,0,0,0-.222.918,1.743,1.743,0,0,0,.222.918.807.807,0,0,0,.75.366q.972,0,.972-1.284a1.739,1.739,0,0,0-.217-.912.806.806,0,0,0-.755-.361A.816.816,0,0,0,523.95,434.419Z"/><path class="cls-16" d="M288.228,430.135a7.339,7.339,0,0,1,0,6.162,2.428,2.428,0,0,1-4.021,0,7.349,7.349,0,0,1,0-6.162,2.433,2.433,0,0,1,4.021,0Zm-3.168.582a8.428,8.428,0,0,0,0,5,1.249,1.249,0,0,0,2.31,0,8.325,8.325,0,0,0,0-4.992,1.25,1.25,0,0,0-2.31-.006Z"/><path class="cls-16" d="M291.558,435.937a.8.8,0,0,1,.239.587,2.107,2.107,0,0,1-.216.853l-.8,1.836h-.792l.479-1.992a.864.864,0,0,1-.245-.3.875.875,0,0,1-.091-.4.823.823,0,0,1,.828-.828A.812.812,0,0,1,291.558,435.937Z"/><path class="cls-16" d="M297.768,430.135a7.339,7.339,0,0,1,0,6.162,2.428,2.428,0,0,1-4.021,0,7.349,7.349,0,0,1,0-6.162,2.433,2.433,0,0,1,4.021,0Zm-3.168.582a8.428,8.428,0,0,0,0,5,1.249,1.249,0,0,0,2.31,0,8.325,8.325,0,0,0,0-4.992,1.25,1.25,0,0,0-2.31-.006Z"/><path class="cls-16" d="M306.179,429.625a2.265,2.265,0,0,1,0,2.952,2.062,2.062,0,0,1-2.808,0,2.271,2.271,0,0,1,0-2.952,2.059,2.059,0,0,1,2.808,0Zm-2.159.552a2.013,2.013,0,0,0,0,1.842.8.8,0,0,0,.75.366q.971,0,.972-1.284a1.789,1.789,0,0,0-.216-.918.961.961,0,0,0-1.506-.006Zm5.622-1.489.768.5-5.556,8.4-.769-.5Zm1.476,5.172a2.287,2.287,0,0,1,0,2.952,2.07,2.07,0,0,1-2.815,0,2.268,2.268,0,0,1,0-2.952,2.073,2.073,0,0,1,2.815,0Zm-2.155.559a1.712,1.712,0,0,0-.221.918,1.753,1.753,0,0,0,.221.918.809.809,0,0,0,.75.366q.974,0,.973-1.284a1.739,1.739,0,0,0-.217-.912.807.807,0,0,0-.756-.361A.818.818,0,0,0,308.963,434.419Z"/><path class="cls-16" d="M433.628,430.135a7.339,7.339,0,0,1,0,6.162,2.427,2.427,0,0,1-4.02,0,7.339,7.339,0,0,1,0-6.162,2.432,2.432,0,0,1,4.02,0Zm-3.168.582a8.428,8.428,0,0,0,0,5,1.249,1.249,0,0,0,2.31,0,8.3,8.3,0,0,0,0-4.992,1.25,1.25,0,0,0-2.31-.006Z"/><path class="cls-16" d="M436.958,435.937a.8.8,0,0,1,.24.587,2.123,2.123,0,0,1-.216.853l-.8,1.836h-.792l.48-1.992a.843.843,0,0,1-.245-.3.862.862,0,0,1-.091-.4.821.821,0,0,1,.828-.828A.811.811,0,0,1,436.958,435.937Z"/><path class="cls-16" d="M441.686,429.192v8.029h-1.1v-6.852l-1.872,1.14-.48-.78,2.484-1.537Z"/><path class="cls-16" d="M450.08,429.625a2.268,2.268,0,0,1,0,2.952,2.061,2.061,0,0,1-2.808,0,2.268,2.268,0,0,1,0-2.952,2.059,2.059,0,0,1,2.808,0Zm-2.16.552a2.021,2.021,0,0,0,0,1.842.807.807,0,0,0,.75.366q.972,0,.972-1.284a1.779,1.779,0,0,0-.216-.918.8.8,0,0,0-.756-.367A.812.812,0,0,0,447.92,430.177Zm5.622-1.489.768.5-5.556,8.4-.768-.5Zm1.476,5.172a2.287,2.287,0,0,1,0,2.952,1.873,1.873,0,0,1-1.4.552,1.893,1.893,0,0,1-1.41-.552,2.268,2.268,0,0,1,0-2.952,1.9,1.9,0,0,1,1.41-.551A1.88,1.88,0,0,1,455.018,433.86Zm-2.154.559a1.7,1.7,0,0,0-.222.918,1.743,1.743,0,0,0,.222.918.807.807,0,0,0,.75.366q.972,0,.972-1.284a1.749,1.749,0,0,0-.216-.912.971.971,0,0,0-1.506-.006Z"/><path class="cls-2" d="M254.789,387.5a4.2,4.2,0,1,1-4.2-4.2,4.2,4.2,0,0,1,4.2,4.2Z"/><path class="cls-2" d="M282.025,346.555a4.2,4.2,0,1,1-4.2-4.2,4.2,4.2,0,0,1,4.2,4.2Z"/><path class="cls-2" d="M230.1,303.879a4.2,4.2,0,1,1-4.2-4.2,4.2,4.2,0,0,1,4.2,4.2Z"/><path class="cls-3" d="M314.941,262.241a4.2,4.2,0,1,1-4.2-4.2,4.2,4.2,0,0,1,4.2,4.2Z"/><path class="cls-3" d="M480.794,133.2a4.2,4.2,0,1,1-4.2-4.2,4.2,4.2,0,0,1,4.2,4.2Z"/><path class="cls-3" d="M366.185,175.071a4.2,4.2,0,1,1-4.2-4.2,4.2,4.2,0,0,1,4.2,4.2Z"/><path class="cls-2" d="M232.346,375.033v-1.428h4.229v1.428Z"/><path class="cls-2" d="M243.805,370.371a6.406,6.406,0,0,1,.861,3.626,6.474,6.474,0,0,1-.861,3.648,3.126,3.126,0,0,1-5.025,0,6.465,6.465,0,0,1-.862-3.648,6.4,6.4,0,0,1,.862-3.626,3.135,3.135,0,0,1,5.025,0Zm-3.675.9a7.237,7.237,0,0,0-.364,2.723,7.343,7.343,0,0,0,.364,2.744,1.24,1.24,0,0,0,2.325.007,7.332,7.332,0,0,0,.364-2.751,7.216,7.216,0,0,0-.364-2.729,1.244,1.244,0,0,0-2.325.006Z"/><path class="cls-2" d="M247.754,376.965a1.09,1.09,0,0,1,.329.812,1.894,1.894,0,0,1-.084.546,5.937,5.937,0,0,1-.28.714l-.91,2.072h-1.092l.574-2.408a1.062,1.062,0,0,1-.476-.938,1.1,1.1,0,0,1,1.12-1.119A1.127,1.127,0,0,1,247.754,376.965Z"/><path class="cls-2" d="M253.536,369.461a2.491,2.491,0,0,1,1.42,2.3,3.593,3.593,0,0,1-.342,1.533,7.071,7.071,0,0,1-1.142,1.631q-.8.9-2.338,2.366h4.032l-.2,1.414H249.1v-1.316q1.792-1.819,2.569-2.695a8.121,8.121,0,0,0,1.107-1.5,2.753,2.753,0,0,0,.329-1.3,1.27,1.27,0,0,0-1.359-1.372,1.944,1.944,0,0,0-.959.231,3.28,3.28,0,0,0-.861.764l-1.092-.869a3.694,3.694,0,0,1,3.052-1.54A3.616,3.616,0,0,1,253.536,369.461Z"/><path class="cls-2" d="M262.012,370.1a3.937,3.937,0,0,1,.855,2.667,7.422,7.422,0,0,1-.575,3.142,4.473,4.473,0,0,1-1.763,1.953,10.847,10.847,0,0,1-3.151,1.19L257,377.777a7.547,7.547,0,0,0,2.807-1.267,3.162,3.162,0,0,0,1.142-2.12,2.444,2.444,0,0,1-2.017.979A2.525,2.525,0,0,1,257.6,375a2.556,2.556,0,0,1-.959-1.071,3.589,3.589,0,0,1-.349-1.624,3.211,3.211,0,0,1,.433-1.687A2.958,2.958,0,0,1,257.9,369.5a3.521,3.521,0,0,1,1.658-.392A3.061,3.061,0,0,1,262.012,370.1Zm-.979,3a4.4,4.4,0,0,0-.329-2.052,1.21,1.21,0,0,0-1.142-.609,1.338,1.338,0,0,0-1.092.476,2.081,2.081,0,0,0-.391,1.358,2.055,2.055,0,0,0,.371,1.358,1.214,1.214,0,0,0,.972.434A1.919,1.919,0,0,0,261.033,373.1Z"/><path class="cls-2" d="M273.821,372.212a4.975,4.975,0,0,1,.665,2.793,4.852,4.852,0,0,1-.721,2.807,2.358,2.358,0,0,1-2.065,1.043,2.556,2.556,0,0,1-1.19-.273,2.7,2.7,0,0,1-.9-.734v3.611l-.812.112V371.379h.7l.071,1.064a2.956,2.956,0,0,1,.987-.9,2.577,2.577,0,0,1,1.267-.321A2.246,2.246,0,0,1,273.821,372.212Zm-.736,5.159a4.276,4.276,0,0,0,.533-2.366q0-3.106-1.947-3.108a1.946,1.946,0,0,0-1.14.336,4,4,0,0,0-.917.924v3.892a2.212,2.212,0,0,0,1.931,1.12A1.735,1.735,0,0,0,273.085,377.371Z"/><path class="cls-2" d="M277.376,377.714a.638.638,0,0,1,.19.47.648.648,0,0,1-.672.671.669.669,0,0,1-.673-.671.628.628,0,0,1,.2-.47.661.661,0,0,1,.477-.189A.653.653,0,0,1,277.376,377.714Z"/><path class="cls-2" d="M287.324,372.205a5.847,5.847,0,0,1-.036,5.614,2.369,2.369,0,0,1-2.05,1.036,2.474,2.474,0,0,1-1.2-.293,2.758,2.758,0,0,1-.9-.785l-.084.924h-.714V368.4l.812-.1v4.1a2.63,2.63,0,0,1,2.2-1.175A2.285,2.285,0,0,1,287.324,372.205Zm-.707,5.173a4.282,4.282,0,0,0,.539-2.373q0-3.106-1.974-3.108a1.939,1.939,0,0,0-1.134.33,3.634,3.634,0,0,0-.9.93v3.85a2.789,2.789,0,0,0,.84.861,1.976,1.976,0,0,0,1.091.316A1.74,1.74,0,0,0,286.617,377.378Z"/><path class="cls-2" d="M290.914,377.714a.638.638,0,0,1,.19.47.673.673,0,1,1-1.345,0,.628.628,0,0,1,.2-.47.663.663,0,0,1,.477-.189A.653.653,0,0,1,290.914,377.714Z"/><path class="cls-2" d="M260.1,334.085v-1.428h4.228v1.428Z"/><path class="cls-2" d="M271.563,329.423a8.11,8.11,0,0,1,0,7.273,3.125,3.125,0,0,1-5.025,0,8.1,8.1,0,0,1,0-7.273,3.135,3.135,0,0,1,5.025,0Zm-3.675.9a7.233,7.233,0,0,0-.364,2.723,7.343,7.343,0,0,0,.364,2.744,1.24,1.24,0,0,0,2.324.007,7.307,7.307,0,0,0,.365-2.751,7.2,7.2,0,0,0-.365-2.73,1.243,1.243,0,0,0-2.324.007Z"/><path class="cls-2" d="M275.512,336.017a1.088,1.088,0,0,1,.329.812,1.9,1.9,0,0,1-.084.546,5.937,5.937,0,0,1-.28.714l-.91,2.072h-1.092l.574-2.408a1.063,1.063,0,0,1-.476-.939,1.1,1.1,0,0,1,1.12-1.119A1.129,1.129,0,0,1,275.512,336.017Z"/><path class="cls-2" d="M281.356,328.331v9.422h-1.764v-7.616l-2.1,1.274-.785-1.2,3.066-1.876Z"/><path class="cls-2" d="M289.217,329.423a8.1,8.1,0,0,1,0,7.273,3.125,3.125,0,0,1-5.025,0,8.1,8.1,0,0,1,0-7.273,3.135,3.135,0,0,1,5.025,0Zm-3.675.9a7.233,7.233,0,0,0-.364,2.723,7.343,7.343,0,0,0,.364,2.744,1.241,1.241,0,0,0,2.325.007,7.332,7.332,0,0,0,.364-2.751,7.226,7.226,0,0,0-.364-2.73,1.244,1.244,0,0,0-2.325.007Z"/><path class="cls-2" d="M301.131,331.264a4.966,4.966,0,0,1,.665,2.793,4.862,4.862,0,0,1-.72,2.807,2.36,2.36,0,0,1-2.066,1.043,2.564,2.564,0,0,1-1.189-.273,2.683,2.683,0,0,1-.9-.735v3.612l-.811.112V330.431h.7l.07,1.064a2.947,2.947,0,0,1,.988-.9,2.571,2.571,0,0,1,1.266-.322A2.242,2.242,0,0,1,301.131,331.264Zm-.735,5.159a4.286,4.286,0,0,0,.532-2.366q0-3.108-1.946-3.108a1.947,1.947,0,0,0-1.141.336,4,4,0,0,0-.917.924V336.1a2.213,2.213,0,0,0,1.932,1.12A1.737,1.737,0,0,0,300.4,336.423Z"/><path class="cls-2" d="M304.687,336.766a.636.636,0,0,1,.189.469.647.647,0,0,1-.671.672.669.669,0,0,1-.673-.672.624.624,0,0,1,.2-.469.661.661,0,0,1,.477-.189A.653.653,0,0,1,304.687,336.766Z"/><path class="cls-2" d="M314.633,331.257a5.85,5.85,0,0,1-.035,5.614,2.371,2.371,0,0,1-2.051,1.036,2.459,2.459,0,0,1-1.2-.294,2.755,2.755,0,0,1-.9-.784l-.084.924h-.714v-10.3l.811-.1v4.1a2.633,2.633,0,0,1,2.2-1.176A2.285,2.285,0,0,1,314.633,331.257Zm-.707,5.173a4.273,4.273,0,0,0,.539-2.373q0-3.108-1.973-3.108a1.941,1.941,0,0,0-1.134.329,3.658,3.658,0,0,0-.9.931v3.85a2.812,2.812,0,0,0,.84.861,1.979,1.979,0,0,0,1.092.315A1.736,1.736,0,0,0,313.926,336.43Z"/><path class="cls-2" d="M318.224,336.766a.636.636,0,0,1,.189.469.647.647,0,0,1-.671.672.669.669,0,0,1-.673-.672.624.624,0,0,1,.2-.469.661.661,0,0,1,.477-.189A.653.653,0,0,1,318.224,336.766Z"/><path class="cls-2" d="M206.828,291.409v-1.428h4.228v1.428Z"/><path class="cls-2" d="M218.287,286.747a6.406,6.406,0,0,1,.861,3.626,6.474,6.474,0,0,1-.861,3.648,3.127,3.127,0,0,1-5.026,0,6.474,6.474,0,0,1-.861-3.648,6.406,6.406,0,0,1,.861-3.626,3.136,3.136,0,0,1,5.026,0Zm-3.675.9a7.232,7.232,0,0,0-.365,2.723,7.338,7.338,0,0,0,.365,2.744,1.239,1.239,0,0,0,2.324.007,7.332,7.332,0,0,0,.364-2.751,7.216,7.216,0,0,0-.364-2.729,1.243,1.243,0,0,0-2.324.006Z"/><path class="cls-2" d="M222.236,293.341a1.09,1.09,0,0,1,.329.812,1.894,1.894,0,0,1-.084.546,6.3,6.3,0,0,1-.28.714l-.911,2.072H220.2l.574-2.408a1.061,1.061,0,0,1-.477-.938,1.1,1.1,0,0,1,1.12-1.119A1.129,1.129,0,0,1,222.236,293.341Z"/><path class="cls-2" d="M230.459,291.549v1.372h-1.133v2.156h-1.75v-2.156h-4v-1.232l2.744-6.215,1.526.573-2.408,5.5h2.156l.182-2.365h1.554v2.365Z"/><path class="cls-2" d="M236.753,289.162a2.468,2.468,0,0,1,.959,1.05,3.65,3.65,0,0,1,.35,1.659,3.746,3.746,0,0,1-.406,1.757,3.025,3.025,0,0,1-1.141,1.218,3.18,3.18,0,0,1-1.673.441,2.9,2.9,0,0,1-2.569-1.218,5.849,5.849,0,0,1-.833-3.345,7.431,7.431,0,0,1,.469-2.752,4.094,4.094,0,0,1,1.344-1.834,3.341,3.341,0,0,1,2.051-.651,3.6,3.6,0,0,1,2.058.6l-.672,1.106a2.644,2.644,0,0,0-1.358-.378,1.654,1.654,0,0,0-1.435.805,4.347,4.347,0,0,0-.609,2.219,2.7,2.7,0,0,1,3.465-.679ZM235.9,293.4a2.751,2.751,0,0,0,.357-1.5,2.239,2.239,0,0,0-.329-1.378,1.153,1.153,0,0,0-.959-.414,1.712,1.712,0,0,0-.9.259,2.717,2.717,0,0,0-.763.707,5.238,5.238,0,0,0,.385,2.205,1.21,1.21,0,0,0,1.155.679A1.176,1.176,0,0,0,235.9,293.4Z"/><path class="cls-2" d="M248.918,288.588a4.966,4.966,0,0,1,.665,2.793,4.86,4.86,0,0,1-.72,2.807,2.36,2.36,0,0,1-2.066,1.043,2.552,2.552,0,0,1-1.189-.273,2.7,2.7,0,0,1-.9-.734v3.611l-.811.112V287.755h.7l.07,1.064a2.969,2.969,0,0,1,.988-.9,2.57,2.57,0,0,1,1.266-.321A2.244,2.244,0,0,1,248.918,288.588Zm-.735,5.159a4.286,4.286,0,0,0,.532-2.366q0-3.106-1.946-3.108a1.949,1.949,0,0,0-1.141.336,4.019,4.019,0,0,0-.917.924v3.892a2.213,2.213,0,0,0,1.932,1.12A1.735,1.735,0,0,0,248.183,293.747Z"/><path class="cls-2" d="M252.474,294.09a.637.637,0,0,1,.189.47.673.673,0,0,1-1.148.475.646.646,0,0,1-.2-.475.624.624,0,0,1,.2-.47.661.661,0,0,1,.477-.189A.653.653,0,0,1,252.474,294.09Z"/><path class="cls-2" d="M262.42,288.581a5.843,5.843,0,0,1-.035,5.614,2.371,2.371,0,0,1-2.051,1.036,2.47,2.47,0,0,1-1.2-.293,2.77,2.77,0,0,1-.9-.785l-.084.924h-.714v-10.3l.811-.1v4.1a2.633,2.633,0,0,1,2.2-1.175A2.283,2.283,0,0,1,262.42,288.581Zm-.707,5.173a4.273,4.273,0,0,0,.539-2.373q0-3.106-1.973-3.108a1.935,1.935,0,0,0-1.134.33,3.653,3.653,0,0,0-.9.93v3.85a2.812,2.812,0,0,0,.84.861,1.979,1.979,0,0,0,1.092.316A1.737,1.737,0,0,0,261.713,293.754Z"/><path class="cls-2" d="M266.012,294.09a.638.638,0,0,1,.19.47.648.648,0,0,1-.672.671.669.669,0,0,1-.673-.671.624.624,0,0,1,.2-.47.661.661,0,0,1,.477-.189A.653.653,0,0,1,266.012,294.09Z"/><path class="cls-3" d="M294.416,246.5v2.143H296.5v1.414h-2.086V252.2h-1.54v-2.141H290.8v-1.414h2.072V246.5Z"/><path class="cls-3" d="M303.775,245.662a6.406,6.406,0,0,1,.861,3.626,6.474,6.474,0,0,1-.861,3.648,3.127,3.127,0,0,1-5.026,0,6.474,6.474,0,0,1-.861-3.648,6.406,6.406,0,0,1,.861-3.626,3.136,3.136,0,0,1,5.026,0Zm-3.675.9a7.237,7.237,0,0,0-.364,2.723,7.343,7.343,0,0,0,.364,2.744,1.239,1.239,0,0,0,2.324.007,7.332,7.332,0,0,0,.364-2.751,7.216,7.216,0,0,0-.364-2.729,1.243,1.243,0,0,0-2.324.006Z"/><path class="cls-3" d="M307.724,252.256a1.09,1.09,0,0,1,.329.812,1.894,1.894,0,0,1-.084.546,5.937,5.937,0,0,1-.28.714l-.91,2.072h-1.092l.574-2.408a1.062,1.062,0,0,1-.476-.938,1.1,1.1,0,0,1,1.12-1.119A1.128,1.128,0,0,1,307.724,252.256Z"/><path class="cls-3" d="M313.568,244.57v9.422H311.8v-7.616l-2.1,1.274-.785-1.2,3.066-1.876Z"/><path class="cls-3" d="M319.778,244.725a2.358,2.358,0,0,1,1.021.867,2.216,2.216,0,0,1,.344,1.2,2.1,2.1,0,0,1-.49,1.421,2.592,2.592,0,0,1-1.344.791,2.433,2.433,0,0,1,1.539.673,2.163,2.163,0,0,1,.6,1.623,2.708,2.708,0,0,1-.413,1.47,2.873,2.873,0,0,1-1.183,1.043,4.023,4.023,0,0,1-1.82.385,3.742,3.742,0,0,1-3.052-1.358l.994-.951a3.409,3.409,0,0,0,.937.692,2.371,2.371,0,0,0,1.023.217,1.7,1.7,0,0,0,1.211-.427,1.507,1.507,0,0,0,.455-1.155,1.419,1.419,0,0,0-.428-1.161,1.956,1.956,0,0,0-1.266-.351h-.743l.21-1.273h.5a1.567,1.567,0,0,0,1.1-.378,1.36,1.36,0,0,0,.413-1.051,1.132,1.132,0,0,0-.379-.9,1.478,1.478,0,0,0-1.008-.33,2.375,2.375,0,0,0-.994.2,3.282,3.282,0,0,0-.895.623l-.911-1a4.174,4.174,0,0,1,2.955-1.2A3.74,3.74,0,0,1,319.778,244.725Z"/><path class="cls-3" d="M332.461,247.5a4.966,4.966,0,0,1,.665,2.793,4.866,4.866,0,0,1-.72,2.808,2.361,2.361,0,0,1-2.066,1.042,2.552,2.552,0,0,1-1.189-.273,2.692,2.692,0,0,1-.9-.734v3.611l-.811.112V246.67h.7l.07,1.064a2.969,2.969,0,0,1,.988-.9,2.57,2.57,0,0,1,1.266-.321A2.244,2.244,0,0,1,332.461,247.5Zm-.735,5.159a4.286,4.286,0,0,0,.532-2.366q0-3.106-1.946-3.108a1.949,1.949,0,0,0-1.141.336,4.019,4.019,0,0,0-.917.924v3.892a2.213,2.213,0,0,0,1.932,1.12A1.737,1.737,0,0,0,331.726,252.662Z"/><path class="cls-3" d="M336.017,253.005a.637.637,0,0,1,.189.47.673.673,0,0,1-1.148.475.646.646,0,0,1-.2-.475.624.624,0,0,1,.2-.47.661.661,0,0,1,.477-.189A.653.653,0,0,1,336.017,253.005Z"/><path class="cls-3" d="M345.963,247.5a5.85,5.85,0,0,1-.035,5.614,2.371,2.371,0,0,1-2.051,1.036,2.47,2.47,0,0,1-1.2-.293,2.758,2.758,0,0,1-.9-.785l-.084.924h-.714v-10.3l.811-.1v4.1a2.633,2.633,0,0,1,2.2-1.175A2.285,2.285,0,0,1,345.963,247.5Zm-.707,5.173a4.273,4.273,0,0,0,.539-2.373q0-3.106-1.973-3.108a1.935,1.935,0,0,0-1.134.33,3.653,3.653,0,0,0-.9.93v3.85a2.812,2.812,0,0,0,.84.861,1.979,1.979,0,0,0,1.092.316A1.737,1.737,0,0,0,345.256,252.669Z"/><path class="cls-3" d="M349.554,253.005a.638.638,0,0,1,.19.47.648.648,0,0,1-.672.671.669.669,0,0,1-.673-.671.624.624,0,0,1,.2-.47.661.661,0,0,1,.477-.189A.653.653,0,0,1,349.554,253.005Z"/><path class="cls-3" d="M345.847,158.78v2.142h2.086v1.414h-2.086v2.142h-1.54v-2.142h-2.072v-1.414h2.072V158.78Z"/><path class="cls-3" d="M355.205,157.94a8.1,8.1,0,0,1,0,7.273,3.125,3.125,0,0,1-5.025,0,8.11,8.11,0,0,1,0-7.273,3.135,3.135,0,0,1,5.025,0Zm-3.674.9a7.208,7.208,0,0,0-.365,2.723,7.318,7.318,0,0,0,.365,2.744,1.239,1.239,0,0,0,2.324.007,7.332,7.332,0,0,0,.364-2.751,7.226,7.226,0,0,0-.364-2.73,1.243,1.243,0,0,0-2.324.007Z"/><path class="cls-3" d="M359.155,164.534a1.094,1.094,0,0,1,.329.812,1.929,1.929,0,0,1-.084.546,6.3,6.3,0,0,1-.28.714l-.911,2.072h-1.091l.574-2.408a1.061,1.061,0,0,1-.477-.938,1.1,1.1,0,0,1,1.12-1.12A1.13,1.13,0,0,1,359.155,164.534Z"/><path class="cls-3" d="M367.378,162.742v1.372h-1.133v2.156H364.5v-2.156h-4v-1.232l2.744-6.215,1.526.573-2.408,5.5h2.156l.182-2.366h1.554v2.366Z"/><path class="cls-3" d="M373.945,157.667a3.938,3.938,0,0,1,.854,2.667,7.425,7.425,0,0,1-.574,3.143,4.486,4.486,0,0,1-1.764,1.953,10.839,10.839,0,0,1-3.15,1.19l-.378-1.274a7.555,7.555,0,0,0,2.807-1.267,3.165,3.165,0,0,0,1.141-2.121,2.44,2.44,0,0,1-2.016.98,2.523,2.523,0,0,1-1.337-.371,2.549,2.549,0,0,1-.959-1.071,3.576,3.576,0,0,1-.35-1.624,3.212,3.212,0,0,1,.434-1.687,2.949,2.949,0,0,1,1.183-1.113,3.525,3.525,0,0,1,1.659-.392A3.065,3.065,0,0,1,373.945,157.667Zm-.98,3a4.365,4.365,0,0,0-.329-2.051,1.205,1.205,0,0,0-1.141-.609,1.334,1.334,0,0,0-1.092.476,2.08,2.08,0,0,0-.392,1.358,2.057,2.057,0,0,0,.371,1.358,1.216,1.216,0,0,0,.973.434A1.915,1.915,0,0,0,372.965,160.67Z"/><path class="cls-3" d="M385.753,159.781a4.966,4.966,0,0,1,.665,2.793,4.862,4.862,0,0,1-.72,2.807,2.36,2.36,0,0,1-2.066,1.043,2.564,2.564,0,0,1-1.189-.273,2.692,2.692,0,0,1-.9-.734v3.611l-.811.112V158.948h.7l.07,1.064a2.958,2.958,0,0,1,.988-.9,2.571,2.571,0,0,1,1.266-.322A2.244,2.244,0,0,1,385.753,159.781Zm-.735,5.159a4.286,4.286,0,0,0,.532-2.366q0-3.108-1.946-3.108a1.949,1.949,0,0,0-1.141.336,4,4,0,0,0-.917.924v3.892a2.213,2.213,0,0,0,1.932,1.12A1.737,1.737,0,0,0,385.018,164.94Z"/><path class="cls-3" d="M389.309,165.283a.636.636,0,0,1,.189.469.647.647,0,0,1-.671.672.669.669,0,0,1-.673-.672.624.624,0,0,1,.2-.469.661.661,0,0,1,.477-.189A.653.653,0,0,1,389.309,165.283Z"/><path class="cls-3" d="M399.256,159.774a5.85,5.85,0,0,1-.035,5.614,2.371,2.371,0,0,1-2.051,1.036,2.459,2.459,0,0,1-1.2-.294,2.755,2.755,0,0,1-.9-.784l-.084.924h-.714v-10.3l.811-.1v4.1a2.633,2.633,0,0,1,2.2-1.176A2.285,2.285,0,0,1,399.256,159.774Zm-.707,5.173a4.273,4.273,0,0,0,.539-2.373q0-3.108-1.973-3.108a1.941,1.941,0,0,0-1.134.329,3.658,3.658,0,0,0-.9.931v3.85a2.812,2.812,0,0,0,.84.861,1.979,1.979,0,0,0,1.092.315A1.736,1.736,0,0,0,398.549,164.947Z"/><path class="cls-3" d="M402.847,165.283a.637.637,0,0,1,.19.469.649.649,0,0,1-.672.672.669.669,0,0,1-.673-.672.624.624,0,0,1,.2-.469.661.661,0,0,1,.477-.189A.653.653,0,0,1,402.847,165.283Z"/><path class="cls-3" d="M462.726,116.911v2.142h2.086v1.414h-2.086v2.142h-1.54v-2.142h-2.072v-1.414h2.072v-2.142Z"/><path class="cls-3" d="M470.538,114.979V124.4h-1.764v-7.616l-2.1,1.274-.784-1.2,3.065-1.876Z"/><path class="cls-3" d="M474.368,122.665a1.092,1.092,0,0,1,.329.812,1.934,1.934,0,0,1-.084.546,6.217,6.217,0,0,1-.281.714l-.91,2.072H472.33l.575-2.408a1.061,1.061,0,0,1-.477-.939,1.1,1.1,0,0,1,1.12-1.119A1.132,1.132,0,0,1,474.368,122.665Z"/><path class="cls-3" d="M480.149,115.161a2.494,2.494,0,0,1,1.421,2.3,3.594,3.594,0,0,1-.343,1.533,7.04,7.04,0,0,1-1.142,1.631q-.8.9-2.338,2.366h4.033l-.2,1.414h-5.866v-1.317q1.794-1.818,2.57-2.694a8.155,8.155,0,0,0,1.106-1.5,2.744,2.744,0,0,0,.329-1.3,1.268,1.268,0,0,0-1.358-1.372,1.928,1.928,0,0,0-.959.231,3.278,3.278,0,0,0-.862.763l-1.091-.868a3.692,3.692,0,0,1,3.051-1.54A3.6,3.6,0,0,1,480.149,115.161Z"/><path class="cls-3" d="M489.843,121.867a2.385,2.385,0,0,1-.433,1.393,2.968,2.968,0,0,1-1.225.987,4.362,4.362,0,0,1-1.842.364,4.237,4.237,0,0,1-1.805-.358,2.827,2.827,0,0,1-1.19-.972,2.4,2.4,0,0,1-.421-1.386,2.509,2.509,0,0,1,1.792-2.38,2.422,2.422,0,0,1-1.413-2.226,2.166,2.166,0,0,1,.412-1.309,2.634,2.634,0,0,1,1.12-.868,3.926,3.926,0,0,1,1.547-.3,4.147,4.147,0,0,1,1.555.28,2.539,2.539,0,0,1,1.112.826,2.092,2.092,0,0,1,.413,1.3,2.392,2.392,0,0,1-1.553,2.128A2.742,2.742,0,0,1,489.843,121.867Zm-2.254,1.022a1.315,1.315,0,0,0,.435-1.022,1.357,1.357,0,0,0-.378-1.015,3.867,3.867,0,0,0-1.345-.721l-.433-.154a1.977,1.977,0,0,0-1.134,1.862,1.32,1.32,0,0,0,.448,1.057,1.779,1.779,0,0,0,1.2.385A1.731,1.731,0,0,0,487.589,122.889Zm-2.19-6.5a1.358,1.358,0,0,0-.022,1.813,3,3,0,0,0,1.078.595l.266.1a2.33,2.33,0,0,0,.777-.707,1.64,1.64,0,0,0,.232-.889,1.178,1.178,0,0,0-.351-.9,1.4,1.4,0,0,0-.994-.329A1.414,1.414,0,0,0,485.4,116.393Z"/><path class="cls-3" d="M500.756,117.912a4.964,4.964,0,0,1,.665,2.793,4.862,4.862,0,0,1-.72,2.807,2.36,2.36,0,0,1-2.066,1.043,2.564,2.564,0,0,1-1.189-.273,2.683,2.683,0,0,1-.9-.735v3.612l-.811.112V117.079h.7l.07,1.064a2.947,2.947,0,0,1,.988-.9,2.571,2.571,0,0,1,1.266-.322A2.242,2.242,0,0,1,500.756,117.912Zm-.735,5.159a4.288,4.288,0,0,0,.532-2.366q0-3.108-1.946-3.108a1.94,1.94,0,0,0-1.141.336,4,4,0,0,0-.917.924v3.892a2.213,2.213,0,0,0,1.932,1.12A1.737,1.737,0,0,0,500.021,123.071Z"/><path class="cls-3" d="M504.312,123.414a.636.636,0,0,1,.189.469.647.647,0,0,1-.671.672.669.669,0,0,1-.673-.672.624.624,0,0,1,.2-.469.661.661,0,0,1,.477-.189A.653.653,0,0,1,504.312,123.414Z"/><path class="cls-3" d="M514.259,117.905a5.85,5.85,0,0,1-.035,5.614,2.374,2.374,0,0,1-2.051,1.036,2.459,2.459,0,0,1-1.2-.294,2.755,2.755,0,0,1-.9-.784l-.084.924h-.714V114.1l.811-.1v4.1a2.633,2.633,0,0,1,2.2-1.176A2.283,2.283,0,0,1,514.259,117.905Zm-.707,5.173a4.276,4.276,0,0,0,.539-2.373q0-3.108-1.973-3.108a1.941,1.941,0,0,0-1.134.329,3.658,3.658,0,0,0-.9.931v3.85a2.812,2.812,0,0,0,.84.861,1.979,1.979,0,0,0,1.092.315A1.736,1.736,0,0,0,513.552,123.078Z"/><path class="cls-3" d="M517.85,123.414a.636.636,0,0,1,.189.469.647.647,0,0,1-.671.672.669.669,0,0,1-.673-.672.624.624,0,0,1,.2-.469.661.661,0,0,1,.477-.189A.653.653,0,0,1,517.85,123.414Z"/><rect class="cls-4" x="290.606" y="242.452" width="2.413" height="27.489"/><rect class="cls-4" x="290.606" y="326.673" width="2.413" height="16.199"/><rect class="cls-4" x="290.606" y="198.071" width="2.413" height="27.489"/><line class="cls-5" x1="296.328" y1="220.195" x2="295.328" y2="220.195"/><line class="cls-17" x1="291.347" y1="220.195" x2="-255.999" y2="220.195"/><line class="cls-13" x1="296.676" y1="220.362" x2="296.907" y2="220.362"/><line class="cls-13" x1="296.676" y1="220.362" x2="296.328" y2="220.362"/><path class="cls-3" d="M300.818,220.3a4.2,4.2,0,1,1-4.2-4.2,4.2,4.2,0,0,1,4.2,4.2Z"/><path class="cls-3" d="M281.244,204.013v2.142h2.086v1.414h-2.086v2.142H279.7v-2.142h-2.073v-1.414H279.7v-2.142Z"/><path class="cls-3" d="M290.6,203.173a8.11,8.11,0,0,1,0,7.273,3.125,3.125,0,0,1-5.025,0,8.1,8.1,0,0,1,0-7.273,3.135,3.135,0,0,1,5.025,0Zm-3.675.9a7.233,7.233,0,0,0-.364,2.723,7.343,7.343,0,0,0,.364,2.744,1.24,1.24,0,0,0,2.324.007,7.307,7.307,0,0,0,.365-2.751,7.2,7.2,0,0,0-.365-2.73,1.243,1.243,0,0,0-2.324.007Z"/><path class="cls-3" d="M294.551,209.767a1.088,1.088,0,0,1,.329.812,1.9,1.9,0,0,1-.084.546,5.937,5.937,0,0,1-.28.714l-.91,2.072h-1.092l.574-2.408a1.063,1.063,0,0,1-.476-.939,1.1,1.1,0,0,1,1.12-1.119A1.129,1.129,0,0,1,294.551,209.767Z"/><path class="cls-3" d="M301.942,203.173a8.11,8.11,0,0,1,0,7.273,3.126,3.126,0,0,1-5.026,0,8.11,8.11,0,0,1,0-7.273,3.136,3.136,0,0,1,5.026,0Zm-3.675.9a7.233,7.233,0,0,0-.364,2.723,7.343,7.343,0,0,0,.364,2.744,1.24,1.24,0,0,0,2.324.007,7.332,7.332,0,0,0,.364-2.751,7.226,7.226,0,0,0-.364-2.73,1.243,1.243,0,0,0-2.324.007Z"/><path class="cls-3" d="M308.271,202.235a2.359,2.359,0,0,1,1.021.868,2.216,2.216,0,0,1,.344,1.2,2.1,2.1,0,0,1-.49,1.421,2.594,2.594,0,0,1-1.344.791,2.437,2.437,0,0,1,1.539.672,2.162,2.162,0,0,1,.6,1.623,2.711,2.711,0,0,1-.413,1.471,2.88,2.88,0,0,1-1.183,1.043,4.023,4.023,0,0,1-1.82.385,3.741,3.741,0,0,1-3.052-1.359l.994-.951a3.4,3.4,0,0,0,.938.693,2.363,2.363,0,0,0,1.022.216,1.7,1.7,0,0,0,1.211-.426,1.508,1.508,0,0,0,.455-1.156,1.417,1.417,0,0,0-.428-1.161,1.962,1.962,0,0,0-1.266-.35h-.742l.21-1.274h.5a1.567,1.567,0,0,0,1.1-.378,1.358,1.358,0,0,0,.413-1.05,1.136,1.136,0,0,0-.379-.9,1.483,1.483,0,0,0-1.008-.329,2.39,2.39,0,0,0-.994.2,3.342,3.342,0,0,0-.895.623l-.91-.994a4.168,4.168,0,0,1,2.954-1.2A3.755,3.755,0,0,1,308.271,202.235Z"/><path class="cls-3" d="M320.955,205.014a4.975,4.975,0,0,1,.665,2.793,4.862,4.862,0,0,1-.721,2.807,2.36,2.36,0,0,1-2.066,1.043,2.564,2.564,0,0,1-1.189-.273,2.693,2.693,0,0,1-.9-.735v3.612l-.811.112V204.181h.7l.07,1.064a2.947,2.947,0,0,1,.988-.9,2.574,2.574,0,0,1,1.266-.322A2.245,2.245,0,0,1,320.955,205.014Zm-.736,5.159a4.277,4.277,0,0,0,.532-2.366q0-3.108-1.946-3.108a1.951,1.951,0,0,0-1.141.336,4.019,4.019,0,0,0-.917.924v3.892a2.213,2.213,0,0,0,1.932,1.12A1.735,1.735,0,0,0,320.219,210.173Z"/><path class="cls-3" d="M324.51,210.516a.637.637,0,0,1,.19.469.649.649,0,0,1-.672.672.669.669,0,0,1-.673-.672.624.624,0,0,1,.2-.469.661.661,0,0,1,.477-.189A.653.653,0,0,1,324.51,210.516Z"/><path class="cls-3" d="M334.456,205.007a5.843,5.843,0,0,1-.035,5.614,2.371,2.371,0,0,1-2.05,1.036,2.463,2.463,0,0,1-1.2-.294,2.755,2.755,0,0,1-.9-.784l-.084.924h-.714V201.2l.812-.1v4.1a2.631,2.631,0,0,1,2.2-1.176A2.284,2.284,0,0,1,334.456,205.007Zm-.707,5.173a4.273,4.273,0,0,0,.539-2.373q0-3.108-1.973-3.108a1.941,1.941,0,0,0-1.134.329,3.656,3.656,0,0,0-.9.931v3.85a2.8,2.8,0,0,0,.839.861,1.981,1.981,0,0,0,1.092.315A1.736,1.736,0,0,0,333.749,210.18Z"/><path class="cls-3" d="M338.047,210.516a.637.637,0,0,1,.19.469.649.649,0,0,1-.672.672.669.669,0,0,1-.673-.672.624.624,0,0,1,.2-.469.661.661,0,0,1,.477-.189A.653.653,0,0,1,338.047,210.516Z"/><use width="198.127" height="26.528" transform="translate(173.598 49.636) scale(1.2)" xlink:href="#Legenda_šipek"/><rect class="cls-18" x="-44.162" y="132.171" width="120.28" height="285.467"/></svg>