<svg id="Layer_1" data-name="Layer 1" xmlns="http://www.w3.org/2000/svg" xmlns:xlink="http://www.w3.org/1999/xlink" viewBox="0 0 620 492.392"><defs><style>.cls-1,.cls-10,.cls-11,.cls-14,.cls-17,.cls-4,.cls-5,.cls-6,.cls-7,.cls-8,.cls-9{fill:none;}.cls-1{stroke:#231f20;stroke-miterlimit:10;}.cls-1,.cls-10,.cls-14,.cls-17,.cls-4,.cls-5,.cls-6,.cls-7,.cls-8,.cls-9{stroke-width:0.75px;}.cls-2{fill:#d44060;}.cls-3{fill:#2d81b9;}.cls-10,.cls-17,.cls-4,.cls-5,.cls-6,.cls-7,.cls-8,.cls-9{stroke:#c7c7c7;}.cls-10,.cls-11,.cls-12,.cls-17,.cls-4,.cls-5,.cls-6,.cls-7,.cls-8,.cls-9{stroke-linecap:round;}.cls-10,.cls-11,.cls-12,.cls-14,.cls-17,.cls-4,.cls-5,.cls-6,.cls-7,.cls-8,.cls-9{stroke-linejoin:round;}.cls-5{stroke-dasharray:2.021 4.043;}.cls-6{stroke-dasharray:1.992 3.985;}.cls-7{stroke-dasharray:2.017 4.035;}.cls-8{stroke-dasharray:2.019 4.038;}.cls-9{stroke-dasharray:1.995 3.99;}.cls-10{stroke-dasharray:2.014 4.029;}.cls-11{stroke:#f0d8db;}.cls-11,.cls-12{stroke-width:8.5px;}.cls-12{fill:#d1daed;stroke:#d1daed;}.cls-13{isolation:isolate;}.cls-14{stroke:#999;}.cls-15{fill:#666;}.cls-16{fill:#fff;}.cls-17{stroke-dasharray:1.984 3.967;}</style><symbol id="Legenda_šipek" data-name="Legenda šipek" viewBox="0 0 198.127 26.528"><line class="cls-1" x1="110.037" y1="22.11" x2="124.74" y2="22.11"/><polyline class="cls-1" points="120.587 26.263 124.74 22.11 120.587 17.957"/><line class="cls-1" x1="87.06" y1="22.11" x2="72.357" y2="22.11"/><polyline class="cls-1" points="76.511 17.957 72.357 22.11 76.511 26.263"/><path class="cls-2" d="M5.634,4.218A2.009,2.009,0,0,1,6.108,5.64v4.6H4.572V5.88a1.219,1.219,0,0,0-.2-.792.729.729,0,0,0-.582-.228,1.138,1.138,0,0,0-.714.246,2.807,2.807,0,0,0-.618.714v4.416H.924V3.888H2.256l.12.828A2.359,2.359,0,0,1,4.308,3.708,1.721,1.721,0,0,1,5.634,4.218Z"/><path class="cls-2" d="M9.354.942a.909.909,0,0,1,.27.666.889.889,0,0,1-.27.66.964.964,0,0,1-.7.264.944.944,0,0,1-.689-.264.882.882,0,0,1-.271-.66A.9.9,0,0,1,7.962.942a.932.932,0,0,1,.689-.27A.952.952,0,0,1,9.354.942Zm.078,2.946v6.348H7.9V3.888Z"/><path class="cls-2" d="M15.407,3.888v1.1L12.336,9.036h3.132l-.156,1.2H10.571v-1.1l3.084-4.044H10.836v-1.2ZM14.628.636l.588.672-1.668,1.5h-.96l-1.668-1.5.588-.672,1.559,1.056Z"/><path class="cls-2" d="M20.831,4.464l-.6.9a2.979,2.979,0,0,0-1.6-.516,1.233,1.233,0,0,0-.708.174.536.536,0,0,0-.252.462.589.589,0,0,0,.107.36.981.981,0,0,0,.391.27,6.475,6.475,0,0,0,.834.282,3.661,3.661,0,0,1,1.529.732,1.638,1.638,0,0,1,.5,1.272,1.707,1.707,0,0,1-.767,1.482,3.265,3.265,0,0,1-1.909.534,4.024,4.024,0,0,1-1.421-.24,3.467,3.467,0,0,1-1.111-.66l.769-.864a2.83,2.83,0,0,0,1.727.624,1.468,1.468,0,0,0,.823-.2.642.642,0,0,0,.3-.564.756.756,0,0,0-.113-.438.945.945,0,0,0-.408-.288,8.642,8.642,0,0,0-.918-.306,3.07,3.07,0,0,1-1.429-.738,1.637,1.637,0,0,1-.455-1.182,1.564,1.564,0,0,1,.306-.948,2.03,2.03,0,0,1,.864-.66,3.207,3.207,0,0,1,1.277-.24A3.567,3.567,0,0,1,20.831,4.464ZM20.172.636l.588.672-1.668,1.5h-.96l-1.668-1.5.588-.672,1.559,1.056Z"/><path class="cls-2" d="M23.963.4l.624,1.2-2.712,1.08-.432-.78Zm-.144,3.492v6.348H22.283V3.888Z"/><path class="cls-2" d="M33.732,4.584a4.457,4.457,0,0,1,.577,2.46,4.826,4.826,0,0,1-.295,1.746,2.653,2.653,0,0,1-.864,1.194,2.169,2.169,0,0,1-1.35.432,1.98,1.98,0,0,1-1.6-.7v2.964l-1.536.168V3.888h1.344l.084.78a2.488,2.488,0,0,1,.852-.72,2.225,2.225,0,0,1,1.008-.24A1.977,1.977,0,0,1,33.732,4.584ZM32.7,7.056a3.508,3.508,0,0,0-.3-1.68.976.976,0,0,0-.9-.516,1.237,1.237,0,0,0-.72.234,2.043,2.043,0,0,0-.576.63V8.58a1.348,1.348,0,0,0,1.164.66Q32.7,9.24,32.7,7.056Z"/><path class="cls-2" d="M40.6,4.6a3.593,3.593,0,0,1,.786,2.454,4.057,4.057,0,0,1-.361,1.758A2.733,2.733,0,0,1,39.995,10a2.945,2.945,0,0,1-1.6.42,2.783,2.783,0,0,1-2.2-.894,3.594,3.594,0,0,1-.792-2.466,4.032,4.032,0,0,1,.36-1.752A2.729,2.729,0,0,1,36.81,4.128a2.977,2.977,0,0,1,1.6-.42A2.765,2.765,0,0,1,40.6,4.6ZM37.031,7.056a3.163,3.163,0,0,0,.342,1.662,1.25,1.25,0,0,0,2.053-.006,3.168,3.168,0,0,0,.342-1.656,3.134,3.134,0,0,0-.342-1.65,1.129,1.129,0,0,0-1.015-.534Q37.031,4.872,37.031,7.056Z"/><path class="cls-2" d="M48.167,1.344v8.892H46.812l-.109-.8a2.222,2.222,0,0,1-.762.72,2.077,2.077,0,0,1-1.049.264,2.043,2.043,0,0,1-1.788-.9,4.233,4.233,0,0,1-.625-2.448,4.543,4.543,0,0,1,.312-1.734,2.731,2.731,0,0,1,.9-1.194,2.255,2.255,0,0,1,2.945.252V1.176Zm-2.124,7.71a2.041,2.041,0,0,0,.588-.618v-2.9a2.2,2.2,0,0,0-.558-.5,1.251,1.251,0,0,0-.654-.168,1.1,1.1,0,0,0-.966.546,3.075,3.075,0,0,0-.353,1.65,3.389,3.389,0,0,0,.311,1.686,1,1,0,0,0,.912.51A1.315,1.315,0,0,0,46.043,9.054Z"/><path class="cls-2" d="M51.923.4l.624,1.2-2.712,1.08L49.4,1.9Zm-.144,3.492v6.348H50.243V3.888Z"/><path class="cls-2" d="M54.138,9.99a1.655,1.655,0,0,1-.414-1.206V1.344l1.536-.168v7.56c0,.3.119.444.359.444a1.133,1.133,0,0,0,.36-.06L56.3,10.2a2.462,2.462,0,0,1-1.021.216A1.52,1.52,0,0,1,54.138,9.99Z"/><path class="cls-2" d="M65.027,4.224a1.994,1.994,0,0,1,.481,1.416v4.6H63.972V5.88a1.218,1.218,0,0,0-.2-.792.728.728,0,0,0-.582-.228,1.148,1.148,0,0,0-.708.246,2.845,2.845,0,0,0-.624.7v4.428H60.323V1.356L61.859,1.2V4.644a2.318,2.318,0,0,1,1.848-.936A1.713,1.713,0,0,1,65.027,4.224Z"/><path class="cls-2" d="M67.649,9.99a1.659,1.659,0,0,1-.414-1.206V1.344l1.536-.168v7.56q0,.444.36.444a1.133,1.133,0,0,0,.36-.06l.324,1.08a2.457,2.457,0,0,1-1.02.216A1.524,1.524,0,0,1,67.649,9.99Z"/><path class="cls-2" d="M75.582,9.1a.722.722,0,0,0,.365.27l-.323,1.02a1.971,1.971,0,0,1-.883-.264,1.353,1.353,0,0,1-.521-.66,2.037,2.037,0,0,1-.811.714,2.465,2.465,0,0,1-1.086.234,2.053,2.053,0,0,1-1.5-.54,1.892,1.892,0,0,1-.552-1.416,1.832,1.832,0,0,1,.75-1.578,3.6,3.6,0,0,1,2.142-.546h.792v-.36a1.1,1.1,0,0,0-.281-.858,1.365,1.365,0,0,0-.906-.246,5.35,5.35,0,0,0-1.68.336l-.36-1.044a6.407,6.407,0,0,1,2.3-.456q2.436,0,2.437,2.184V8.556A1.019,1.019,0,0,0,75.582,9.1ZM73.955,8.52V7.236h-.636q-1.488,0-1.487,1.1a1.013,1.013,0,0,0,.228.708.859.859,0,0,0,.671.252A1.358,1.358,0,0,0,73.955,8.52Z"/><path class="cls-2" d="M81.467,4.464l-.6.9a2.982,2.982,0,0,0-1.6-.516,1.235,1.235,0,0,0-.708.174.538.538,0,0,0-.251.462.589.589,0,0,0,.107.36.981.981,0,0,0,.391.27,6.421,6.421,0,0,0,.834.282,3.661,3.661,0,0,1,1.529.732,1.638,1.638,0,0,1,.5,1.272A1.706,1.706,0,0,1,80.9,9.882,3.26,3.26,0,0,1,79,10.416a4.033,4.033,0,0,1-1.422-.24,3.462,3.462,0,0,1-1.11-.66l.768-.864a2.833,2.833,0,0,0,1.728.624,1.462,1.462,0,0,0,.822-.2.642.642,0,0,0,.306-.564.756.756,0,0,0-.113-.438.949.949,0,0,0-.409-.288,8.563,8.563,0,0,0-.918-.306,3.066,3.066,0,0,1-1.428-.738,1.637,1.637,0,0,1-.455-1.182,1.569,1.569,0,0,1,.305-.948,2.034,2.034,0,0,1,.865-.66,3.2,3.2,0,0,1,1.277-.24A3.571,3.571,0,0,1,81.467,4.464Z"/><path class="cls-2" d="M88,10.236H86.663l-.084-.888a2.347,2.347,0,0,1-.822.8,2.27,2.27,0,0,1-1.122.264,1.662,1.662,0,0,1-1.314-.522,2.107,2.107,0,0,1-.462-1.446V3.888H84.4V8.256a1.229,1.229,0,0,0,.185.768.723.723,0,0,0,.594.228,1.55,1.55,0,0,0,1.284-.9V3.888H88ZM86.531.414a1.379,1.379,0,0,1,.42,1.026,1.379,1.379,0,0,1-.426,1.02,1.5,1.5,0,0,1-1.1.42,1.513,1.513,0,0,1-1.11-.42,1.378,1.378,0,0,1-.425-1.02A1.372,1.372,0,0,1,84.317.414,1.525,1.525,0,0,1,85.427,0,1.5,1.5,0,0,1,86.531.414ZM85,.972a.662.662,0,0,0-.156.468A.639.639,0,0,0,85,1.9a.572.572,0,0,0,.432.162.556.556,0,0,0,.42-.162A.639.639,0,0,0,86,1.44a.662.662,0,0,0-.156-.468A.545.545,0,0,0,85.427.8.56.56,0,0,0,85,.972Z"/><path class="cls-3" d="M113.24,3.888l-2.064,6.348H109.34l-2.1-6.348h1.668L110.264,9l1.392-5.112Z"/><path class="cls-3" d="M117.26,10.26a3.9,3.9,0,0,1-1.164,1.83,3.705,3.705,0,0,1-2.136.762l-.156-1.116a3.84,3.84,0,0,0,1-.27,1.62,1.62,0,0,0,.606-.462,3.156,3.156,0,0,0,.42-.768H115.3l-2.016-6.348h1.632l1.38,5.328,1.439-5.328h1.584Z"/><path class="cls-3" d="M124.424,4.464l-.6.9a2.981,2.981,0,0,0-1.595-.516,1.23,1.23,0,0,0-.708.174.536.536,0,0,0-.252.462.589.589,0,0,0,.107.36.981.981,0,0,0,.391.27,6.421,6.421,0,0,0,.834.282,3.661,3.661,0,0,1,1.529.732,1.638,1.638,0,0,1,.5,1.272,1.706,1.706,0,0,1-.768,1.482,3.26,3.26,0,0,1-1.908.534,4.033,4.033,0,0,1-1.422-.24,3.462,3.462,0,0,1-1.11-.66l.768-.864a2.833,2.833,0,0,0,1.728.624,1.462,1.462,0,0,0,.822-.2.642.642,0,0,0,.306-.564.756.756,0,0,0-.113-.438.949.949,0,0,0-.409-.288,8.485,8.485,0,0,0-.918-.306,3.066,3.066,0,0,1-1.428-.738,1.637,1.637,0,0,1-.455-1.182,1.569,1.569,0,0,1,.3-.948,2.034,2.034,0,0,1,.865-.66,3.2,3.2,0,0,1,1.277-.24A3.571,3.571,0,0,1,124.424,4.464ZM123.765.636l.588.672-1.668,1.5h-.96l-1.668-1.5.588-.672L122.2,1.692Z"/><path class="cls-3" d="M130.039,4.464l-.6.9a2.979,2.979,0,0,0-1.595-.516,1.233,1.233,0,0,0-.708.174.536.536,0,0,0-.252.462.589.589,0,0,0,.107.36.981.981,0,0,0,.391.27,6.475,6.475,0,0,0,.834.282,3.661,3.661,0,0,1,1.529.732,1.638,1.638,0,0,1,.5,1.272,1.707,1.707,0,0,1-.767,1.482,3.265,3.265,0,0,1-1.909.534,4.024,4.024,0,0,1-1.421-.24,3.467,3.467,0,0,1-1.111-.66l.769-.864a2.83,2.83,0,0,0,1.727.624,1.468,1.468,0,0,0,.823-.2.642.642,0,0,0,.3-.564.756.756,0,0,0-.113-.438.945.945,0,0,0-.408-.288,8.642,8.642,0,0,0-.918-.306,3.07,3.07,0,0,1-1.429-.738,1.637,1.637,0,0,1-.455-1.182,1.57,1.57,0,0,1,.306-.948,2.03,2.03,0,0,1,.864-.66,3.207,3.207,0,0,1,1.277-.24A3.567,3.567,0,0,1,130.039,4.464ZM129.38.636l.588.672-1.668,1.5h-.96l-1.668-1.5.588-.672,1.559,1.056Z"/><path class="cls-3" d="M133.171.4l.624,1.2-2.712,1.08-.432-.78Zm-.144,3.492v6.348h-1.536V3.888Z"/><path class="cls-3" d="M142.94,4.584a4.457,4.457,0,0,1,.577,2.46,4.826,4.826,0,0,1-.295,1.746,2.653,2.653,0,0,1-.864,1.194,2.169,2.169,0,0,1-1.35.432,1.98,1.98,0,0,1-1.6-.7v2.964l-1.536.168V3.888h1.344l.084.78a2.488,2.488,0,0,1,.852-.72,2.225,2.225,0,0,1,1.008-.24A1.977,1.977,0,0,1,142.94,4.584Zm-1.032,2.472a3.508,3.508,0,0,0-.3-1.68.976.976,0,0,0-.9-.516,1.237,1.237,0,0,0-.72.234,2.043,2.043,0,0,0-.576.63V8.58a1.348,1.348,0,0,0,1.164.66Q141.908,9.24,141.908,7.056Z"/><path class="cls-3" d="M149.81,4.6a3.593,3.593,0,0,1,.786,2.454,4.057,4.057,0,0,1-.361,1.758A2.733,2.733,0,0,1,149.2,10a2.945,2.945,0,0,1-1.6.42,2.783,2.783,0,0,1-2.2-.894,3.594,3.594,0,0,1-.792-2.466,4.032,4.032,0,0,1,.36-1.752,2.729,2.729,0,0,1,1.039-1.176,2.977,2.977,0,0,1,1.6-.42A2.765,2.765,0,0,1,149.81,4.6Zm-3.571,2.454a3.163,3.163,0,0,0,.342,1.662,1.25,1.25,0,0,0,2.053-.006,3.168,3.168,0,0,0,.342-1.656,3.134,3.134,0,0,0-.342-1.65,1.129,1.129,0,0,0-1.015-.534Q146.239,4.872,146.239,7.056Z"/><path class="cls-3" d="M157.375,1.344v8.892H156.02l-.109-.8a2.222,2.222,0,0,1-.762.72,2.077,2.077,0,0,1-1.049.264,2.043,2.043,0,0,1-1.788-.9,4.233,4.233,0,0,1-.624-2.448A4.543,4.543,0,0,1,152,5.334a2.731,2.731,0,0,1,.9-1.194,2.255,2.255,0,0,1,2.945.252V1.176Zm-2.124,7.71a2.041,2.041,0,0,0,.588-.618v-2.9a2.2,2.2,0,0,0-.558-.5,1.251,1.251,0,0,0-.654-.168,1.1,1.1,0,0,0-.966.546,3.075,3.075,0,0,0-.353,1.65,3.389,3.389,0,0,0,.311,1.686,1,1,0,0,0,.912.51A1.315,1.315,0,0,0,155.251,9.054Z"/><path class="cls-3" d="M161.131.4l.624,1.2-2.712,1.08-.432-.78Zm-.144,3.492v6.348h-1.536V3.888Z"/><path class="cls-3" d="M163.346,9.99a1.655,1.655,0,0,1-.414-1.206V1.344l1.536-.168v7.56c0,.3.119.444.359.444a1.143,1.143,0,0,0,.361-.06l.324,1.08a2.462,2.462,0,0,1-1.021.216A1.52,1.52,0,0,1,163.346,9.99Z"/><path class="cls-3" d="M174.235,4.224a1.994,1.994,0,0,1,.481,1.416v4.6H173.18V5.88a1.218,1.218,0,0,0-.2-.792.728.728,0,0,0-.582-.228,1.148,1.148,0,0,0-.708.246,2.845,2.845,0,0,0-.624.7v4.428h-1.536V1.356l1.536-.156V4.644a2.318,2.318,0,0,1,1.848-.936A1.713,1.713,0,0,1,174.235,4.224Z"/><path class="cls-3" d="M176.857,9.99a1.659,1.659,0,0,1-.414-1.206V1.344l1.536-.168v7.56q0,.444.36.444a1.133,1.133,0,0,0,.36-.06l.324,1.08a2.457,2.457,0,0,1-1.02.216A1.524,1.524,0,0,1,176.857,9.99Z"/><path class="cls-3" d="M184.79,9.1a.722.722,0,0,0,.365.27l-.323,1.02a1.971,1.971,0,0,1-.883-.264,1.353,1.353,0,0,1-.521-.66,2.037,2.037,0,0,1-.811.714,2.465,2.465,0,0,1-1.086.234,2.053,2.053,0,0,1-1.5-.54,1.892,1.892,0,0,1-.552-1.416,1.832,1.832,0,0,1,.75-1.578,3.6,3.6,0,0,1,2.142-.546h.792v-.36a1.1,1.1,0,0,0-.281-.858,1.365,1.365,0,0,0-.906-.246,5.35,5.35,0,0,0-1.68.336l-.36-1.044a6.407,6.407,0,0,1,2.3-.456q2.436,0,2.437,2.184V8.556A1.019,1.019,0,0,0,184.79,9.1Zm-1.627-.582V7.236h-.636q-1.488,0-1.487,1.1a1.013,1.013,0,0,0,.228.708.859.859,0,0,0,.671.252A1.358,1.358,0,0,0,183.163,8.52Z"/><path class="cls-3" d="M190.675,4.464l-.6.9a2.982,2.982,0,0,0-1.6-.516,1.235,1.235,0,0,0-.708.174.538.538,0,0,0-.251.462.589.589,0,0,0,.107.36.981.981,0,0,0,.391.27,6.421,6.421,0,0,0,.834.282,3.661,3.661,0,0,1,1.529.732,1.638,1.638,0,0,1,.5,1.272,1.706,1.706,0,0,1-.768,1.482,3.26,3.26,0,0,1-1.908.534,4.033,4.033,0,0,1-1.422-.24,3.462,3.462,0,0,1-1.11-.66l.768-.864a2.833,2.833,0,0,0,1.728.624,1.462,1.462,0,0,0,.822-.2.642.642,0,0,0,.306-.564.756.756,0,0,0-.113-.438.949.949,0,0,0-.409-.288,8.563,8.563,0,0,0-.918-.306,3.066,3.066,0,0,1-1.428-.738,1.637,1.637,0,0,1-.455-1.182,1.569,1.569,0,0,1,.3-.948,2.034,2.034,0,0,1,.865-.66,3.2,3.2,0,0,1,1.277-.24A3.571,3.571,0,0,1,190.675,4.464Z"/><path class="cls-3" d="M197.2,10.236h-1.332l-.084-.888a2.347,2.347,0,0,1-.822.8,2.27,2.27,0,0,1-1.122.264,1.662,1.662,0,0,1-1.314-.522,2.107,2.107,0,0,1-.462-1.446V3.888H193.6V8.256a1.229,1.229,0,0,0,.185.768.723.723,0,0,0,.594.228,1.55,1.55,0,0,0,1.284-.9V3.888H197.2ZM195.739.414a1.379,1.379,0,0,1,.42,1.026,1.379,1.379,0,0,1-.426,1.02,1.5,1.5,0,0,1-1.1.42,1.513,1.513,0,0,1-1.11-.42,1.378,1.378,0,0,1-.425-1.02,1.372,1.372,0,0,1,.425-1.026A1.525,1.525,0,0,1,194.635,0,1.5,1.5,0,0,1,195.739.414ZM194.2.972a.662.662,0,0,0-.156.468.639.639,0,0,0,.156.462.572.572,0,0,0,.432.162.556.556,0,0,0,.42-.162.639.639,0,0,0,.156-.462.662.662,0,0,0-.156-.468.545.545,0,0,0-.42-.168A.56.56,0,0,0,194.2.972Z"/><circle cx="98.581" cy="22.11" r="1.583"/></symbol></defs><line class="cls-4" x1="320.714" y1="262.039" x2="319.714" y2="262.039"/><line class="cls-5" x1="315.671" y1="262.039" x2="93.312" y2="262.039"/><line class="cls-4" x1="91.291" y1="262.039" x2="90.291" y2="262.039"/><line class="cls-4" x1="490.767" y1="133.144" x2="489.767" y2="133.144"/><line class="cls-6" x1="485.783" y1="133.144" x2="93.283" y2="133.144"/><line class="cls-4" x1="91.291" y1="133.144" x2="90.291" y2="133.144"/><line class="cls-4" x1="374.71" y1="174.988" x2="373.71" y2="174.988"/><line class="cls-7" x1="369.675" y1="174.988" x2="93.308" y2="174.988"/><line class="cls-4" x1="91.291" y1="174.988" x2="90.291" y2="174.988"/><line class="cls-4" x1="241.714" y1="303.831" x2="240.714" y2="303.831"/><line class="cls-8" x1="236.676" y1="303.831" x2="93.31" y2="303.831"/><line class="cls-4" x1="91.291" y1="303.831" x2="90.291" y2="303.831"/><line class="cls-4" x1="287.799" y1="346.43" x2="286.799" y2="346.43"/><line class="cls-9" x1="282.809" y1="346.43" x2="93.286" y2="346.43"/><line class="cls-4" x1="91.291" y1="346.43" x2="90.291" y2="346.43"/><line class="cls-4" x1="265.532" y1="387.441" x2="264.532" y2="387.441"/><line class="cls-10" x1="260.503" y1="387.441" x2="93.305" y2="387.441"/><line class="cls-4" x1="91.291" y1="387.441" x2="90.291" y2="387.441"/><line class="cls-11" x1="264.721" y1="387.445" x2="266.343" y2="387.445"/><line class="cls-11" x1="264.721" y1="387.445" x2="263.214" y2="387.445"/><line class="cls-11" x1="291.957" y1="346.497" x2="293.116" y2="346.497"/><line class="cls-11" x1="291.957" y1="346.497" x2="290.798" y2="346.497"/><line class="cls-11" x1="240.034" y1="303.821" x2="243.395" y2="303.821"/><line class="cls-11" x1="240.034" y1="303.821" x2="236.557" y2="303.821"/><line class="cls-12" x1="324.873" y1="262.183" x2="325.8" y2="262.183"/><line class="cls-12" x1="324.873" y1="262.183" x2="324.061" y2="262.183"/><line class="cls-12" x1="376.101" y1="175.129" x2="377.607" y2="175.129"/><line class="cls-12" x1="376.101" y1="175.129" x2="374.71" y2="175.129"/><line class="cls-12" x1="490.726" y1="133.145" x2="494.667" y2="133.145"/><line class="cls-12" x1="490.726" y1="133.145" x2="486.669" y2="133.145"/><g class="cls-13"><path d="M286.728,11.1a5.8,5.8,0,0,1,1.817,1.151l-1.17,1.351a4.613,4.613,0,0,0-1.34-.811,4.138,4.138,0,0,0-1.45-.252,2.311,2.311,0,0,0-1.394.388,1.267,1.267,0,0,0-.531,1.089,1.349,1.349,0,0,0,.207.773,1.893,1.893,0,0,0,.747.576,10.767,10.767,0,0,0,1.6.594,7.27,7.27,0,0,1,2.763,1.432,3.224,3.224,0,0,1,.927,2.493,3.517,3.517,0,0,1-.568,1.979,3.762,3.762,0,0,1-1.629,1.351,6.025,6.025,0,0,1-2.519.485,6.673,6.673,0,0,1-2.547-.459,5.917,5.917,0,0,1-1.936-1.251l1.225-1.368a5.538,5.538,0,0,0,1.494.928,4.5,4.5,0,0,0,1.71.314,2.64,2.64,0,0,0,1.655-.485,1.628,1.628,0,0,0,.63-1.368,1.67,1.67,0,0,0-.216-.892,1.878,1.878,0,0,0-.737-.63,9.06,9.06,0,0,0-1.513-.585,7.079,7.079,0,0,1-2.861-1.475,3.03,3.03,0,0,1-.883-2.269,3.078,3.078,0,0,1,.54-1.8,3.577,3.577,0,0,1,1.5-1.206,5.294,5.294,0,0,1,2.188-.431A6.293,6.293,0,0,1,286.728,11.1Z"/><path d="M298.329,11.982a3.478,3.478,0,0,1,1.323,2.97,3.7,3.7,0,0,1-1.332,3.106,5.627,5.627,0,0,1-3.546,1.035h-1.458v4.338H290.94V10.992h3.672A6.1,6.1,0,0,1,298.329,11.982Zm-1.809,4.8a2.242,2.242,0,0,0,.647-1.827q0-2.213-2.573-2.214h-1.278v4.573h1.278A2.979,2.979,0,0,0,296.52,16.779Z"/><path d="M309.246,11.479a4.862,4.862,0,0,1,1.88,2.213,8.487,8.487,0,0,1,.658,3.51,8.365,8.365,0,0,1-.666,3.492,5.054,5.054,0,0,1-1.89,2.233,5.283,5.283,0,0,1-2.881.773,5.4,5.4,0,0,1-2.9-.756,4.908,4.908,0,0,1-1.89-2.214,8.4,8.4,0,0,1-.666-3.509,8.378,8.378,0,0,1,.666-3.484,5.008,5.008,0,0,1,1.9-2.241,5.324,5.324,0,0,1,2.889-.773A5.41,5.41,0,0,1,309.246,11.479Zm-5.094,2.186a6.515,6.515,0,0,0-.756,3.556q0,4.66,2.951,4.662a2.467,2.467,0,0,0,2.188-1.116,6.572,6.572,0,0,0,.747-3.565,6.526,6.526,0,0,0-.747-3.546,2.7,2.7,0,0,0-4.383.009Z"/><path d="M316.391,10.992V21.486h4.986l-.27,1.945h-7.092V10.992Z"/><path d="M331.746,19.362a4.64,4.64,0,0,1-.532,2.242,3.738,3.738,0,0,1-1.584,1.539,5.336,5.336,0,0,1-2.529.557,4.646,4.646,0,0,1-3.42-1.179,4.249,4.249,0,0,1-1.187-3.159v-8.37h2.376v8.244a2.977,2.977,0,0,0,.548,1.962,2.53,2.53,0,0,0,3.384,0,2.977,2.977,0,0,0,.549-1.962V10.992h2.395Z"/></g><line class="cls-14" x1="306.096" y1="91.796" x2="306.096" y2="423.676"/><line class="cls-14" x1="162.245" y1="420.001" x2="162.245" y2="423.481"/><line class="cls-14" x1="90.291" y1="420.001" x2="90.291" y2="423.481"/><line class="cls-14" x1="234.2" y1="420.001" x2="234.2" y2="423.481"/><line class="cls-14" x1="378.11" y1="420.001" x2="378.11" y2="423.481"/><line class="cls-14" x1="450.064" y1="420.001" x2="450.064" y2="423.481"/><line class="cls-14" x1="522.019" y1="420.001" x2="522.019" y2="423.481"/><path class="cls-15" d="M151.855,434.207v-.858h3.113v.858Z"/><path class="cls-15" d="M160.538,430.726a6.712,6.712,0,0,1,0,5.648,2.222,2.222,0,0,1-3.684,0,6.732,6.732,0,0,1,0-5.648,2.229,2.229,0,0,1,3.684,0Zm-2.9.533a7.733,7.733,0,0,0,0,4.581,1.144,1.144,0,0,0,2.117,0,7.609,7.609,0,0,0,0-4.575,1.146,1.146,0,0,0-2.117-.006Z"/><path class="cls-15" d="M163.592,436.044a.73.73,0,0,1,.22.539,1.934,1.934,0,0,1-.2.78l-.738,1.684h-.725l.44-1.826a.8.8,0,0,1-.308-.638.751.751,0,0,1,.758-.76A.747.747,0,0,1,163.592,436.044Z"/><path class="cls-15" d="M167.925,429.861v7.36h-1.012v-6.282l-1.715,1.045-.441-.714,2.278-1.409Z"/><path class="cls-15" d="M175.62,430.258a2.077,2.077,0,0,1,0,2.706,1.891,1.891,0,0,1-2.575,0,2.081,2.081,0,0,1,0-2.706,1.891,1.891,0,0,1,2.575,0Zm-1.98.506a1.848,1.848,0,0,0,0,1.688.739.739,0,0,0,.688.336q.889,0,.89-1.178a1.627,1.627,0,0,0-.2-.84.735.735,0,0,0-.692-.336A.743.743,0,0,0,173.64,430.764Zm5.153-1.365.7.462-5.093,7.7-.7-.462Zm1.353,4.742a2.1,2.1,0,0,1,0,2.706,1.718,1.718,0,0,1-1.287.506,1.736,1.736,0,0,1-1.292-.506,2.077,2.077,0,0,1,0-2.706,1.74,1.74,0,0,1,1.292-.506A1.722,1.722,0,0,1,180.146,434.141Zm-1.975.511a1.569,1.569,0,0,0-.2.842,1.6,1.6,0,0,0,.2.841.741.741,0,0,0,.688.336q.893,0,.891-1.177a1.608,1.608,0,0,0-.2-.837.893.893,0,0,0-1.381,0Z"/><path class="cls-15" d="M219.39,434.207v-.858H222.5v.858Z"/><path class="cls-15" d="M228.074,430.726a6.712,6.712,0,0,1,0,5.648,2.222,2.222,0,0,1-3.684,0,6.732,6.732,0,0,1,0-5.648,2.229,2.229,0,0,1,3.684,0Zm-2.9.533a7.733,7.733,0,0,0,0,4.581,1.144,1.144,0,0,0,2.117,0,7.609,7.609,0,0,0,0-4.575,1.146,1.146,0,0,0-2.117-.006Z"/><path class="cls-15" d="M231.128,436.044a.729.729,0,0,1,.219.539,1.948,1.948,0,0,1-.2.78l-.738,1.684h-.725l.439-1.826a.808.808,0,0,1-.308-.638.753.753,0,0,1,.76-.76A.748.748,0,0,1,231.128,436.044Z"/><path class="cls-15" d="M236.82,430.726a6.732,6.732,0,0,1,0,5.648,2.224,2.224,0,0,1-3.686,0,6.732,6.732,0,0,1,0-5.648,2.231,2.231,0,0,1,3.686,0Zm-2.905.533a7.776,7.776,0,0,0,0,4.581,1.145,1.145,0,0,0,2.118,0,7.629,7.629,0,0,0,0-4.575,1.147,1.147,0,0,0-2.118-.006Z"/><path class="cls-15" d="M242.665,430.653h-2.871v2.167a2.574,2.574,0,0,1,1.178-.285,1.964,1.964,0,0,1,1.518.621,2.432,2.432,0,0,1,.572,1.711,2.6,2.6,0,0,1-.318,1.292,2.228,2.228,0,0,1-.9.88,2.769,2.769,0,0,1-1.338.314,2.919,2.919,0,0,1-1.2-.237,3.185,3.185,0,0,1-.979-.7l.594-.583a2.528,2.528,0,0,0,.727.522,2.015,2.015,0,0,0,.847.17,1.424,1.424,0,0,0,1.106-.439,1.781,1.781,0,0,0,.4-1.243,1.6,1.6,0,0,0-.363-1.166,1.32,1.32,0,0,0-.979-.364,2.172,2.172,0,0,0-.527.061,2.759,2.759,0,0,0-.517.192h-.791v-3.707h3.98Z"/><path class="cls-15" d="M250.042,430.258a2.081,2.081,0,0,1,0,2.706,1.89,1.89,0,0,1-2.574,0,2.081,2.081,0,0,1,0-2.706,1.89,1.89,0,0,1,2.574,0Zm-1.98.506a1.856,1.856,0,0,0,0,1.688.74.74,0,0,0,.687.336q.891,0,.891-1.178a1.637,1.637,0,0,0-.2-.84.882.882,0,0,0-1.381-.006Zm5.154-1.365.7.462-5.093,7.7-.7-.462Zm1.352,4.742a2.093,2.093,0,0,1,0,2.706,1.895,1.895,0,0,1-2.578,0,2.074,2.074,0,0,1,0-2.706,1.895,1.895,0,0,1,2.578,0Zm-1.975.511a1.569,1.569,0,0,0-.2.842,1.6,1.6,0,0,0,.2.841.741.741,0,0,0,.688.336q.892,0,.892-1.177a1.6,1.6,0,0,0-.2-.837.742.742,0,0,0-.693-.329A.75.75,0,0,0,252.593,434.652Z"/><path class="cls-15" d="M373.063,430.726a6.722,6.722,0,0,1,0,5.648,2.223,2.223,0,0,1-3.685,0,6.732,6.732,0,0,1,0-5.648,2.23,2.23,0,0,1,3.685,0Zm-2.9.533a7.733,7.733,0,0,0,0,4.581,1.144,1.144,0,0,0,2.117,0,7.629,7.629,0,0,0,0-4.575,1.146,1.146,0,0,0-2.117-.006Z"/><path class="cls-15" d="M376.117,436.044a.733.733,0,0,1,.219.539,1.934,1.934,0,0,1-.2.78l-.737,1.684h-.726l.441-1.826a.8.8,0,0,1-.309-.638.753.753,0,0,1,.759-.76A.749.749,0,0,1,376.117,436.044Z"/><path class="cls-15" d="M381.808,430.726a6.722,6.722,0,0,1,0,5.648,2.223,2.223,0,0,1-3.685,0,6.732,6.732,0,0,1,0-5.648,2.23,2.23,0,0,1,3.685,0Zm-2.9.533a7.733,7.733,0,0,0,0,4.581,1.144,1.144,0,0,0,2.117,0,7.629,7.629,0,0,0,0-4.575,1.146,1.146,0,0,0-2.117-.006Z"/><path class="cls-15" d="M387.655,430.653h-2.871v2.167a2.563,2.563,0,0,1,1.176-.285,1.968,1.968,0,0,1,1.519.621,2.431,2.431,0,0,1,.571,1.711,2.594,2.594,0,0,1-.318,1.292,2.228,2.228,0,0,1-.9.88,2.76,2.76,0,0,1-1.337.314,2.919,2.919,0,0,1-1.2-.237,3.181,3.181,0,0,1-.978-.7l.593-.583a2.528,2.528,0,0,0,.727.522,2.012,2.012,0,0,0,.847.17,1.422,1.422,0,0,0,1.105-.439,1.777,1.777,0,0,0,.4-1.243,1.6,1.6,0,0,0-.364-1.166,1.321,1.321,0,0,0-.978-.364,2.195,2.195,0,0,0-.529.061,2.751,2.751,0,0,0-.516.192h-.792v-3.707H387.8Z"/><path class="cls-15" d="M395.03,430.258a2.077,2.077,0,0,1,0,2.706,1.891,1.891,0,0,1-2.575,0,2.081,2.081,0,0,1,0-2.706,1.891,1.891,0,0,1,2.575,0Zm-1.98.506a1.848,1.848,0,0,0,0,1.688.739.739,0,0,0,.688.336q.89,0,.89-1.178a1.627,1.627,0,0,0-.2-.84.735.735,0,0,0-.692-.336A.743.743,0,0,0,393.05,430.764ZM398.2,429.4l.7.462-5.094,7.7-.7-.462Zm1.352,4.742a2.1,2.1,0,0,1,0,2.706,1.718,1.718,0,0,1-1.287.506,1.737,1.737,0,0,1-1.292-.506,2.077,2.077,0,0,1,0-2.706,1.741,1.741,0,0,1,1.292-.506A1.722,1.722,0,0,1,399.556,434.141Zm-1.975.511a1.569,1.569,0,0,0-.2.842,1.6,1.6,0,0,0,.2.841.741.741,0,0,0,.688.336q.892,0,.892-1.177a1.608,1.608,0,0,0-.2-.837.893.893,0,0,0-1.381,0Z"/><path class="cls-15" d="M75.312,434.207v-.858h3.113v.858Z"/><path class="cls-15" d="M84,430.726a6.722,6.722,0,0,1,0,5.648,2.223,2.223,0,0,1-3.685,0,6.732,6.732,0,0,1,0-5.648,2.23,2.23,0,0,1,3.685,0Zm-2.9.533a7.754,7.754,0,0,0,0,4.581,1.144,1.144,0,0,0,2.117,0,7.609,7.609,0,0,0,0-4.575,1.146,1.146,0,0,0-2.117-.006Z"/><path class="cls-15" d="M87.049,436.044a.73.73,0,0,1,.22.539,1.934,1.934,0,0,1-.2.78l-.738,1.684h-.725l.44-1.826a.8.8,0,0,1-.308-.638.751.751,0,0,1,.758-.76A.747.747,0,0,1,87.049,436.044Z"/><path class="cls-15" d="M91.382,429.861v7.36H90.371v-6.282l-1.716,1.045-.441-.714,2.278-1.409Z"/><path class="cls-15" d="M97.212,430.653H94.341v2.167a2.567,2.567,0,0,1,1.177-.285,1.968,1.968,0,0,1,1.519.621,2.436,2.436,0,0,1,.571,1.711,2.594,2.594,0,0,1-.319,1.292,2.22,2.22,0,0,1-.9.88,2.762,2.762,0,0,1-1.337.314,2.916,2.916,0,0,1-1.2-.237,3.185,3.185,0,0,1-.979-.7l.594-.583a2.514,2.514,0,0,0,.727.522,2.01,2.01,0,0,0,.846.17,1.424,1.424,0,0,0,1.106-.439,1.781,1.781,0,0,0,.4-1.243,1.6,1.6,0,0,0-.363-1.166,1.321,1.321,0,0,0-.979-.364,2.186,2.186,0,0,0-.528.061,2.785,2.785,0,0,0-.517.192h-.792v-3.707h3.982Z"/><path class="cls-15" d="M104.588,430.258a2.077,2.077,0,0,1,0,2.706,1.89,1.89,0,0,1-2.574,0,2.081,2.081,0,0,1,0-2.706,1.89,1.89,0,0,1,2.574,0Zm-1.979.506a1.848,1.848,0,0,0,0,1.688.738.738,0,0,0,.687.336q.891,0,.891-1.178a1.627,1.627,0,0,0-.2-.84.881.881,0,0,0-1.38-.006Zm5.153-1.365.7.462-5.094,7.7-.7-.462Zm1.353,4.742a2.1,2.1,0,0,1,0,2.706,1.718,1.718,0,0,1-1.287.506,1.736,1.736,0,0,1-1.292-.506,2.077,2.077,0,0,1,0-2.706,1.74,1.74,0,0,1,1.292-.506A1.722,1.722,0,0,1,109.115,434.141Zm-1.975.511a1.56,1.56,0,0,0-.2.842,1.6,1.6,0,0,0,.2.841.74.74,0,0,0,.688.336q.891,0,.891-1.177a1.608,1.608,0,0,0-.2-.837.893.893,0,0,0-1.381,0Z"/><path class="cls-15" d="M504.953,434.207v-.858h3.113v.858Z"/><path class="cls-15" d="M513.636,430.726a6.722,6.722,0,0,1,0,5.648,2.222,2.222,0,0,1-3.684,0,6.722,6.722,0,0,1,0-5.648,2.229,2.229,0,0,1,3.684,0Zm-2.9.533a7.733,7.733,0,0,0,0,4.581,1.144,1.144,0,0,0,2.117,0,7.609,7.609,0,0,0,0-4.575,1.146,1.146,0,0,0-2.117-.006Z"/><path class="cls-15" d="M516.69,436.044a.734.734,0,0,1,.22.539,1.937,1.937,0,0,1-.2.78l-.737,1.684h-.726l.441-1.826a.779.779,0,0,1-.226-.276.793.793,0,0,1-.083-.362.753.753,0,0,1,.759-.76A.749.749,0,0,1,516.69,436.044Z"/><path class="cls-15" d="M521.023,429.861v7.36h-1.012v-6.282l-1.716,1.045-.44-.714,2.277-1.409Z"/><path class="cls-15" d="M526.853,430.653h-2.871v2.167a2.564,2.564,0,0,1,1.177-.285,1.967,1.967,0,0,1,1.518.621,2.431,2.431,0,0,1,.571,1.711,2.594,2.594,0,0,1-.318,1.292,2.232,2.232,0,0,1-.9.88,2.762,2.762,0,0,1-1.337.314,2.92,2.92,0,0,1-1.2-.237,3.193,3.193,0,0,1-.978-.7l.594-.583a2.511,2.511,0,0,0,.726.522,2.015,2.015,0,0,0,.847.17,1.42,1.42,0,0,0,1.105-.439,1.777,1.777,0,0,0,.4-1.243,1.6,1.6,0,0,0-.363-1.166,1.325,1.325,0,0,0-.979-.364,2.186,2.186,0,0,0-.528.061,2.785,2.785,0,0,0-.517.192h-.792v-3.707H527Z"/><path class="cls-15" d="M534.229,430.258a2.077,2.077,0,0,1,0,2.706,1.89,1.89,0,0,1-2.574,0,2.081,2.081,0,0,1,0-2.706,1.89,1.89,0,0,1,2.574,0Zm-1.98.506a1.848,1.848,0,0,0,0,1.688.74.74,0,0,0,.688.336q.891,0,.891-1.178a1.627,1.627,0,0,0-.2-.84.735.735,0,0,0-.692-.336A.744.744,0,0,0,532.249,430.764ZM537.4,429.4l.7.462-5.094,7.7-.7-.462Zm1.352,4.742a2.1,2.1,0,0,1,0,2.706,1.718,1.718,0,0,1-1.287.506,1.737,1.737,0,0,1-1.292-.506,2.077,2.077,0,0,1,0-2.706,1.741,1.741,0,0,1,1.292-.506A1.722,1.722,0,0,1,538.755,434.141Zm-1.974.511a1.56,1.56,0,0,0-.2.842,1.6,1.6,0,0,0,.2.841.738.738,0,0,0,.687.336q.893,0,.892-1.177a1.618,1.618,0,0,0-.2-.837.893.893,0,0,0-1.381,0Z"/><path class="cls-15" d="M303.176,430.726a6.722,6.722,0,0,1,0,5.648,2.222,2.222,0,0,1-3.684,0,6.732,6.732,0,0,1,0-5.648,2.229,2.229,0,0,1,3.684,0Zm-2.9.533a7.733,7.733,0,0,0,0,4.581,1.144,1.144,0,0,0,2.117,0,7.609,7.609,0,0,0,0-4.575,1.146,1.146,0,0,0-2.117-.006Z"/><path class="cls-15" d="M306.23,436.044a.734.734,0,0,1,.22.539,1.937,1.937,0,0,1-.2.78l-.737,1.684h-.726l.441-1.826a.779.779,0,0,1-.226-.276.793.793,0,0,1-.083-.362.753.753,0,0,1,.759-.76A.749.749,0,0,1,306.23,436.044Z"/><path class="cls-15" d="M311.921,430.726a6.722,6.722,0,0,1,0,5.648,2.222,2.222,0,0,1-3.684,0,6.732,6.732,0,0,1,0-5.648,2.229,2.229,0,0,1,3.684,0Zm-2.9.533a7.733,7.733,0,0,0,0,4.581,1.144,1.144,0,0,0,2.117,0,7.609,7.609,0,0,0,0-4.575,1.146,1.146,0,0,0-2.117-.006Z"/><path class="cls-15" d="M319.632,430.258a2.077,2.077,0,0,1,0,2.706,1.89,1.89,0,0,1-2.574,0,2.081,2.081,0,0,1,0-2.706,1.89,1.89,0,0,1,2.574,0Zm-1.979.506a1.848,1.848,0,0,0,0,1.688.737.737,0,0,0,.687.336q.891,0,.891-1.178a1.637,1.637,0,0,0-.2-.84.881.881,0,0,0-1.38-.006Zm5.153-1.365.7.462-5.094,7.7-.7-.462Zm1.353,4.742a2.1,2.1,0,0,1,0,2.706,1.9,1.9,0,0,1-2.579,0,2.077,2.077,0,0,1,0-2.706,1.9,1.9,0,0,1,2.579,0Zm-1.975.511a1.56,1.56,0,0,0-.2.842,1.6,1.6,0,0,0,.2.841.739.739,0,0,0,.687.336q.893,0,.892-1.177a1.608,1.608,0,0,0-.2-.837.893.893,0,0,0-1.381,0Z"/><path class="cls-15" d="M448.514,430.726a6.722,6.722,0,0,1,0,5.648,2.222,2.222,0,0,1-3.684,0,6.722,6.722,0,0,1,0-5.648,2.229,2.229,0,0,1,3.684,0Zm-2.9.533a7.733,7.733,0,0,0,0,4.581,1.144,1.144,0,0,0,2.117,0,7.609,7.609,0,0,0,0-4.575,1.146,1.146,0,0,0-2.117-.006Z"/><path class="cls-15" d="M451.568,436.044a.734.734,0,0,1,.22.539,1.937,1.937,0,0,1-.2.78l-.737,1.684h-.726l.441-1.826a.779.779,0,0,1-.226-.276.793.793,0,0,1-.083-.362.753.753,0,0,1,.759-.76A.749.749,0,0,1,451.568,436.044Z"/><path class="cls-15" d="M455.9,429.861v7.36h-1.012v-6.282l-1.716,1.045-.44-.714,2.277-1.409Z"/><path class="cls-15" d="M463.6,430.258a2.077,2.077,0,0,1,0,2.706,1.89,1.89,0,0,1-2.574,0,2.081,2.081,0,0,1,0-2.706,1.89,1.89,0,0,1,2.574,0Zm-1.979.506a1.848,1.848,0,0,0,0,1.688.737.737,0,0,0,.687.336q.891,0,.891-1.178a1.637,1.637,0,0,0-.2-.84.881.881,0,0,0-1.38-.006Zm5.153-1.365.7.462-5.094,7.7-.7-.462Zm1.352,4.742a2.093,2.093,0,0,1,0,2.706,1.717,1.717,0,0,1-1.287.506,1.737,1.737,0,0,1-1.292-.506,2.077,2.077,0,0,1,0-2.706,1.741,1.741,0,0,1,1.292-.506A1.72,1.72,0,0,1,468.121,434.141Zm-1.974.511a1.56,1.56,0,0,0-.2.842,1.6,1.6,0,0,0,.2.841.739.739,0,0,0,.687.336q.892,0,.892-1.177a1.608,1.608,0,0,0-.2-.837.893.893,0,0,0-1.381,0Z"/><path class="cls-2" d="M268.962,387.5a4.2,4.2,0,1,1-4.2-4.2,4.2,4.2,0,0,1,4.2,4.2Z"/><path class="cls-2" d="M296.2,346.555a4.2,4.2,0,1,1-4.2-4.2,4.2,4.2,0,0,1,4.2,4.2Z"/><path class="cls-2" d="M244.275,303.879a4.2,4.2,0,1,1-4.2-4.2,4.2,4.2,0,0,1,4.2,4.2Z"/><path class="cls-3" d="M329.114,262.241a4.2,4.2,0,1,1-4.2-4.2,4.2,4.2,0,0,1,4.2,4.2Z"/><path class="cls-3" d="M494.967,133.2a4.2,4.2,0,1,1-4.2-4.2,4.2,4.2,0,0,1,4.2,4.2Z"/><path class="cls-3" d="M380.359,175.071a4.2,4.2,0,1,1-4.2-4.2,4.2,4.2,0,0,1,4.2,4.2Z"/><path class="cls-2" d="M246.519,375.033v-1.428h4.228v1.428Z"/><path class="cls-2" d="M257.978,370.371a6.406,6.406,0,0,1,.861,3.626,6.474,6.474,0,0,1-.861,3.648,3.126,3.126,0,0,1-5.025,0,6.465,6.465,0,0,1-.862-3.648,6.4,6.4,0,0,1,.862-3.626,3.135,3.135,0,0,1,5.025,0Zm-3.675.9a7.237,7.237,0,0,0-.364,2.723,7.343,7.343,0,0,0,.364,2.744,1.239,1.239,0,0,0,2.324.007,7.307,7.307,0,0,0,.365-2.751,7.191,7.191,0,0,0-.365-2.729,1.243,1.243,0,0,0-2.324.006Z"/><path class="cls-2" d="M261.927,376.965a1.09,1.09,0,0,1,.329.812,1.894,1.894,0,0,1-.084.546,5.937,5.937,0,0,1-.28.714l-.91,2.072H259.89l.574-2.408a1.062,1.062,0,0,1-.476-.938,1.1,1.1,0,0,1,1.12-1.119A1.128,1.128,0,0,1,261.927,376.965Z"/><path class="cls-2" d="M267.708,369.461a2.49,2.49,0,0,1,1.421,2.3,3.593,3.593,0,0,1-.342,1.533,7.071,7.071,0,0,1-1.142,1.631q-.8.9-2.338,2.366h4.032l-.2,1.414h-5.866v-1.316q1.792-1.819,2.569-2.695a8.121,8.121,0,0,0,1.107-1.5,2.753,2.753,0,0,0,.329-1.3,1.27,1.27,0,0,0-1.359-1.372,1.944,1.944,0,0,0-.959.231,3.28,3.28,0,0,0-.861.764l-1.092-.869a3.694,3.694,0,0,1,3.052-1.54A3.612,3.612,0,0,1,267.708,369.461Z"/><path class="cls-2" d="M276.185,370.1a3.937,3.937,0,0,1,.854,2.667,7.423,7.423,0,0,1-.574,3.142,4.479,4.479,0,0,1-1.763,1.953,10.847,10.847,0,0,1-3.151,1.19l-.378-1.274a7.547,7.547,0,0,0,2.807-1.267,3.161,3.161,0,0,0,1.141-2.12,2.441,2.441,0,0,1-2.016.979,2.513,2.513,0,0,1-2.3-1.442,3.589,3.589,0,0,1-.35-1.624,3.212,3.212,0,0,1,.434-1.687,2.958,2.958,0,0,1,1.184-1.113,3.521,3.521,0,0,1,1.658-.392A3.061,3.061,0,0,1,276.185,370.1Zm-.98,3a4.37,4.37,0,0,0-.329-2.052,1.207,1.207,0,0,0-1.141-.609,1.338,1.338,0,0,0-1.092.476,2.081,2.081,0,0,0-.392,1.358,2.055,2.055,0,0,0,.371,1.358,1.218,1.218,0,0,0,.973.434A1.916,1.916,0,0,0,275.205,373.1Z"/><path class="cls-2" d="M287.994,372.212a4.975,4.975,0,0,1,.665,2.793,4.86,4.86,0,0,1-.721,2.807,2.36,2.36,0,0,1-2.066,1.043,2.554,2.554,0,0,1-1.189-.273,2.7,2.7,0,0,1-.9-.734v3.611l-.812.112V371.379h.7l.071,1.064a2.956,2.956,0,0,1,.987-.9,2.573,2.573,0,0,1,1.266-.321A2.247,2.247,0,0,1,287.994,372.212Zm-.736,5.159a4.277,4.277,0,0,0,.532-2.366q0-3.106-1.946-3.108a1.946,1.946,0,0,0-1.14.336,4,4,0,0,0-.917.924v3.892a2.211,2.211,0,0,0,1.931,1.12A1.735,1.735,0,0,0,287.258,377.371Z"/><path class="cls-2" d="M291.549,377.714a.638.638,0,0,1,.19.47.648.648,0,0,1-.672.671.669.669,0,0,1-.673-.671.624.624,0,0,1,.2-.47.661.661,0,0,1,.477-.189A.653.653,0,0,1,291.549,377.714Z"/><path class="cls-2" d="M301.5,372.205a5.843,5.843,0,0,1-.035,5.614,2.369,2.369,0,0,1-2.05,1.036,2.474,2.474,0,0,1-1.2-.293,2.758,2.758,0,0,1-.9-.785l-.084.924h-.714V368.4l.812-.1v4.1a2.63,2.63,0,0,1,2.2-1.175A2.283,2.283,0,0,1,301.5,372.205Zm-.707,5.173a4.273,4.273,0,0,0,.54-2.373q0-3.106-1.974-3.108a1.937,1.937,0,0,0-1.134.33,3.634,3.634,0,0,0-.9.93v3.85a2.8,2.8,0,0,0,.839.861,1.982,1.982,0,0,0,1.092.316A1.737,1.737,0,0,0,300.789,377.378Z"/><path class="cls-2" d="M305.087,377.714a.638.638,0,0,1,.19.47.648.648,0,0,1-.672.671.669.669,0,0,1-.673-.671.624.624,0,0,1,.2-.47.661.661,0,0,1,.477-.189A.653.653,0,0,1,305.087,377.714Z"/><path class="cls-2" d="M274.277,334.085v-1.428h4.228v1.428Z"/><path class="cls-2" d="M285.736,329.423a8.11,8.11,0,0,1,0,7.273,3.126,3.126,0,0,1-5.026,0,8.11,8.11,0,0,1,0-7.273,3.136,3.136,0,0,1,5.026,0Zm-3.675.9a7.233,7.233,0,0,0-.364,2.723,7.343,7.343,0,0,0,.364,2.744,1.24,1.24,0,0,0,2.324.007,7.332,7.332,0,0,0,.364-2.751,7.226,7.226,0,0,0-.364-2.73,1.243,1.243,0,0,0-2.324.007Z"/><path class="cls-2" d="M289.685,336.017a1.088,1.088,0,0,1,.329.812,1.9,1.9,0,0,1-.084.546,6.112,6.112,0,0,1-.28.714l-.91,2.072h-1.092l.574-2.408a1.063,1.063,0,0,1-.476-.939,1.1,1.1,0,0,1,1.12-1.119A1.129,1.129,0,0,1,289.685,336.017Z"/><path class="cls-2" d="M295.529,328.331v9.422h-1.764v-7.616l-2.1,1.274-.784-1.2,3.066-1.876Z"/><path class="cls-2" d="M303.39,329.423a8.11,8.11,0,0,1,0,7.273,3.125,3.125,0,0,1-5.025,0,8.1,8.1,0,0,1,0-7.273,3.135,3.135,0,0,1,5.025,0Zm-3.675.9a7.233,7.233,0,0,0-.364,2.723,7.343,7.343,0,0,0,.364,2.744,1.24,1.24,0,0,0,2.324.007,7.307,7.307,0,0,0,.365-2.751,7.2,7.2,0,0,0-.365-2.73,1.243,1.243,0,0,0-2.324.007Z"/><path class="cls-2" d="M315.3,331.264a4.975,4.975,0,0,1,.665,2.793,4.855,4.855,0,0,1-.721,2.807,2.357,2.357,0,0,1-2.065,1.043,2.564,2.564,0,0,1-1.189-.273,2.683,2.683,0,0,1-.9-.735v3.612l-.811.112V330.431h.7l.07,1.064a2.954,2.954,0,0,1,.987-.9,2.578,2.578,0,0,1,1.267-.322A2.242,2.242,0,0,1,315.3,331.264Zm-.735,5.159a4.286,4.286,0,0,0,.532-2.366q0-3.108-1.946-3.108a1.947,1.947,0,0,0-1.141.336,4,4,0,0,0-.917.924V336.1a2.212,2.212,0,0,0,1.932,1.12A1.737,1.737,0,0,0,314.569,336.423Z"/><path class="cls-2" d="M318.86,336.766a.636.636,0,0,1,.189.469.647.647,0,0,1-.672.672.669.669,0,0,1-.672-.672.624.624,0,0,1,.2-.469.7.7,0,0,1,.959,0Z"/><path class="cls-2" d="M328.806,331.257a5.85,5.85,0,0,1-.035,5.614,2.371,2.371,0,0,1-2.051,1.036,2.459,2.459,0,0,1-1.2-.294,2.745,2.745,0,0,1-.9-.784l-.084.924h-.714v-10.3l.811-.1v4.1a2.632,2.632,0,0,1,2.2-1.176A2.286,2.286,0,0,1,328.806,331.257Zm-.707,5.173a4.282,4.282,0,0,0,.539-2.373q0-3.108-1.974-3.108a1.94,1.94,0,0,0-1.133.329,3.642,3.642,0,0,0-.9.931v3.85a2.812,2.812,0,0,0,.84.861,1.976,1.976,0,0,0,1.092.315A1.736,1.736,0,0,0,328.1,336.43Z"/><path class="cls-2" d="M332.4,336.766a.636.636,0,0,1,.189.469.647.647,0,0,1-.672.672.669.669,0,0,1-.672-.672.624.624,0,0,1,.2-.469.7.7,0,0,1,.959,0Z"/><path class="cls-2" d="M221,291.409v-1.428h4.229v1.428Z"/><path class="cls-2" d="M232.459,286.747a6.4,6.4,0,0,1,.862,3.626,6.465,6.465,0,0,1-.862,3.648,3.126,3.126,0,0,1-5.025,0,6.474,6.474,0,0,1-.861-3.648,6.406,6.406,0,0,1,.861-3.626,3.135,3.135,0,0,1,5.025,0Zm-3.674.9a7.211,7.211,0,0,0-.365,2.723,7.318,7.318,0,0,0,.365,2.744,1.239,1.239,0,0,0,2.324.007,7.332,7.332,0,0,0,.364-2.751,7.216,7.216,0,0,0-.364-2.729,1.243,1.243,0,0,0-2.324.006Z"/><path class="cls-2" d="M236.409,293.341a1.094,1.094,0,0,1,.329.812,1.929,1.929,0,0,1-.084.546,6.147,6.147,0,0,1-.281.714l-.91,2.072h-1.092l.575-2.408a1.061,1.061,0,0,1-.477-.938,1.1,1.1,0,0,1,1.12-1.119A1.131,1.131,0,0,1,236.409,293.341Z"/><path class="cls-2" d="M244.632,291.549v1.372H243.5v2.156h-1.75v-2.156h-4v-1.232l2.744-6.215,1.526.573-2.408,5.5h2.156l.182-2.365H243.5v2.365Z"/><path class="cls-2" d="M250.926,289.162a2.475,2.475,0,0,1,.959,1.05,3.65,3.65,0,0,1,.35,1.659,3.746,3.746,0,0,1-.406,1.757,3.025,3.025,0,0,1-1.141,1.218,3.18,3.18,0,0,1-1.673.441,2.9,2.9,0,0,1-2.569-1.218,5.849,5.849,0,0,1-.833-3.345,7.452,7.452,0,0,1,.468-2.752,4.1,4.1,0,0,1,1.345-1.834,3.341,3.341,0,0,1,2.051-.651,3.607,3.607,0,0,1,2.058.6l-.672,1.106a2.644,2.644,0,0,0-1.358-.378,1.654,1.654,0,0,0-1.435.805,4.347,4.347,0,0,0-.61,2.219,2.7,2.7,0,0,1,3.466-.679Zm-.854,4.242a2.751,2.751,0,0,0,.357-1.5,2.239,2.239,0,0,0-.329-1.378,1.153,1.153,0,0,0-.959-.414,1.712,1.712,0,0,0-.9.259,2.717,2.717,0,0,0-.763.707,5.222,5.222,0,0,0,.385,2.205,1.21,1.21,0,0,0,1.155.679A1.177,1.177,0,0,0,250.072,293.4Z"/><path class="cls-2" d="M263.091,288.588a4.966,4.966,0,0,1,.665,2.793,4.86,4.86,0,0,1-.72,2.807,2.36,2.36,0,0,1-2.066,1.043,2.552,2.552,0,0,1-1.189-.273,2.692,2.692,0,0,1-.9-.734v3.611l-.811.112V287.755h.7l.07,1.064a2.969,2.969,0,0,1,.988-.9,2.57,2.57,0,0,1,1.266-.321A2.244,2.244,0,0,1,263.091,288.588Zm-.735,5.159a4.286,4.286,0,0,0,.532-2.366q0-3.106-1.946-3.108a1.947,1.947,0,0,0-1.141.336,4.019,4.019,0,0,0-.917.924v3.892a2.213,2.213,0,0,0,1.932,1.12A1.737,1.737,0,0,0,262.356,293.747Z"/><path class="cls-2" d="M266.647,294.09a.637.637,0,0,1,.189.47.647.647,0,0,1-.672.671.669.669,0,0,1-.672-.671.624.624,0,0,1,.2-.47.7.7,0,0,1,.959,0Z"/><path class="cls-2" d="M276.593,288.581a5.85,5.85,0,0,1-.035,5.614,2.371,2.371,0,0,1-2.051,1.036,2.47,2.47,0,0,1-1.2-.293,2.77,2.77,0,0,1-.9-.785l-.084.924h-.714v-10.3l.811-.1v4.1a2.632,2.632,0,0,1,2.2-1.175A2.285,2.285,0,0,1,276.593,288.581Zm-.707,5.173a4.273,4.273,0,0,0,.539-2.373q0-3.106-1.973-3.108a1.935,1.935,0,0,0-1.134.33,3.637,3.637,0,0,0-.9.93v3.85a2.812,2.812,0,0,0,.84.861,1.979,1.979,0,0,0,1.092.316A1.737,1.737,0,0,0,275.886,293.754Z"/><path class="cls-2" d="M280.185,294.09a.637.637,0,0,1,.189.47.673.673,0,0,1-1.148.475.646.646,0,0,1-.2-.475.624.624,0,0,1,.2-.47.661.661,0,0,1,.477-.189A.653.653,0,0,1,280.185,294.09Z"/><path class="cls-3" d="M308.59,246.5v2.143h2.086v1.414H308.59V252.2h-1.54v-2.141h-2.072v-1.414h2.072V246.5Z"/><path class="cls-3" d="M317.949,245.662a6.406,6.406,0,0,1,.861,3.626,6.474,6.474,0,0,1-.861,3.648,3.127,3.127,0,0,1-5.026,0,6.474,6.474,0,0,1-.861-3.648,6.406,6.406,0,0,1,.861-3.626,3.136,3.136,0,0,1,5.026,0Zm-3.675.9a7.237,7.237,0,0,0-.364,2.723,7.343,7.343,0,0,0,.364,2.744,1.239,1.239,0,0,0,2.324.007,7.332,7.332,0,0,0,.364-2.751,7.216,7.216,0,0,0-.364-2.729,1.243,1.243,0,0,0-2.324.006Z"/><path class="cls-3" d="M321.9,252.256a1.09,1.09,0,0,1,.329.812,1.894,1.894,0,0,1-.084.546,6.112,6.112,0,0,1-.28.714l-.91,2.072h-1.092l.574-2.408a1.063,1.063,0,0,1-.477-.938,1.1,1.1,0,0,1,1.121-1.119A1.128,1.128,0,0,1,321.9,252.256Z"/><path class="cls-3" d="M327.742,244.57v9.422h-1.764v-7.616l-2.1,1.274-.784-1.2,3.066-1.876Z"/><path class="cls-3" d="M333.952,244.725a2.358,2.358,0,0,1,1.021.867,2.216,2.216,0,0,1,.344,1.2,2.1,2.1,0,0,1-.49,1.421,2.6,2.6,0,0,1-1.344.791,2.433,2.433,0,0,1,1.539.673,2.162,2.162,0,0,1,.6,1.623,2.7,2.7,0,0,1-.413,1.47,2.87,2.87,0,0,1-1.182,1.043,4.024,4.024,0,0,1-1.821.385,3.741,3.741,0,0,1-3.051-1.358l.994-.951a3.409,3.409,0,0,0,.937.692,2.371,2.371,0,0,0,1.023.217,1.7,1.7,0,0,0,1.211-.427,1.511,1.511,0,0,0,.455-1.155,1.419,1.419,0,0,0-.428-1.161,1.957,1.957,0,0,0-1.267-.351h-.742l.21-1.273h.5a1.569,1.569,0,0,0,1.1-.378,1.36,1.36,0,0,0,.413-1.051,1.132,1.132,0,0,0-.379-.9,1.478,1.478,0,0,0-1.008-.33,2.375,2.375,0,0,0-.994.2,3.3,3.3,0,0,0-.9.623l-.91-1a4.174,4.174,0,0,1,2.954-1.2A3.748,3.748,0,0,1,333.952,244.725Z"/><path class="cls-3" d="M346.635,247.5a4.966,4.966,0,0,1,.665,2.793,4.866,4.866,0,0,1-.72,2.808,2.361,2.361,0,0,1-2.066,1.042,2.552,2.552,0,0,1-1.189-.273,2.692,2.692,0,0,1-.9-.734v3.611l-.811.112V246.67h.7l.07,1.064a2.975,2.975,0,0,1,.987-.9,2.577,2.577,0,0,1,1.267-.321A2.244,2.244,0,0,1,346.635,247.5Zm-.735,5.159a4.286,4.286,0,0,0,.532-2.366q0-3.106-1.946-3.108a1.947,1.947,0,0,0-1.141.336,4.019,4.019,0,0,0-.917.924v3.892a2.212,2.212,0,0,0,1.932,1.12A1.737,1.737,0,0,0,345.9,252.662Z"/><path class="cls-3" d="M350.191,253.005a.637.637,0,0,1,.189.47.647.647,0,0,1-.672.671.669.669,0,0,1-.672-.671.624.624,0,0,1,.2-.47.7.7,0,0,1,.959,0Z"/><path class="cls-3" d="M360.137,247.5a5.85,5.85,0,0,1-.035,5.614,2.371,2.371,0,0,1-2.051,1.036,2.47,2.47,0,0,1-1.2-.293,2.758,2.758,0,0,1-.9-.785l-.084.924h-.714v-10.3l.811-.1v4.1a2.631,2.631,0,0,1,2.2-1.175A2.285,2.285,0,0,1,360.137,247.5Zm-.707,5.173a4.282,4.282,0,0,0,.539-2.373q0-3.106-1.973-3.108a1.935,1.935,0,0,0-1.134.33,3.637,3.637,0,0,0-.9.93v3.85a2.812,2.812,0,0,0,.84.861,1.979,1.979,0,0,0,1.092.316A1.737,1.737,0,0,0,359.43,252.669Z"/><path class="cls-3" d="M363.728,253.005a.637.637,0,0,1,.189.47.673.673,0,0,1-1.148.475.646.646,0,0,1-.2-.475.624.624,0,0,1,.2-.47.661.661,0,0,1,.477-.189A.653.653,0,0,1,363.728,253.005Z"/><path class="cls-3" d="M360.02,158.78v2.142h2.086v1.414H360.02v2.142h-1.54v-2.142h-2.072v-1.414h2.072V158.78Z"/><path class="cls-3" d="M369.378,157.94a8.1,8.1,0,0,1,0,7.273,3.125,3.125,0,0,1-5.025,0,8.11,8.11,0,0,1,0-7.273,3.135,3.135,0,0,1,5.025,0Zm-3.674.9a7.208,7.208,0,0,0-.365,2.723,7.318,7.318,0,0,0,.365,2.744,1.239,1.239,0,0,0,2.324.007,7.332,7.332,0,0,0,.364-2.751,7.226,7.226,0,0,0-.364-2.73,1.243,1.243,0,0,0-2.324.007Z"/><path class="cls-3" d="M373.328,164.534a1.094,1.094,0,0,1,.329.812,1.929,1.929,0,0,1-.084.546,6.147,6.147,0,0,1-.281.714l-.91,2.072H371.29l.575-2.408a1.061,1.061,0,0,1-.477-.938,1.1,1.1,0,0,1,1.12-1.12A1.132,1.132,0,0,1,373.328,164.534Z"/><path class="cls-3" d="M381.551,162.742v1.372h-1.134v2.156h-1.75v-2.156h-4v-1.232l2.745-6.215,1.526.573-2.408,5.5h2.156l.182-2.366h1.553v2.366Z"/><path class="cls-3" d="M388.118,157.667a3.938,3.938,0,0,1,.854,2.667,7.425,7.425,0,0,1-.574,3.143,4.486,4.486,0,0,1-1.764,1.953,10.851,10.851,0,0,1-3.15,1.19l-.378-1.274a7.555,7.555,0,0,0,2.807-1.267,3.165,3.165,0,0,0,1.141-2.121,2.441,2.441,0,0,1-2.016.98,2.523,2.523,0,0,1-1.337-.371,2.549,2.549,0,0,1-.959-1.071,3.576,3.576,0,0,1-.35-1.624,3.212,3.212,0,0,1,.434-1.687,2.949,2.949,0,0,1,1.183-1.113,3.524,3.524,0,0,1,1.658-.392A3.066,3.066,0,0,1,388.118,157.667Zm-.98,3a4.365,4.365,0,0,0-.329-2.051,1.206,1.206,0,0,0-1.142-.609,1.333,1.333,0,0,0-1.091.476,2.08,2.08,0,0,0-.392,1.358,2.057,2.057,0,0,0,.371,1.358,1.215,1.215,0,0,0,.973.434A1.915,1.915,0,0,0,387.138,160.67Z"/><path class="cls-3" d="M399.926,159.781a4.966,4.966,0,0,1,.665,2.793,4.862,4.862,0,0,1-.72,2.807,2.36,2.36,0,0,1-2.066,1.043,2.564,2.564,0,0,1-1.189-.273,2.692,2.692,0,0,1-.9-.734v3.611l-.811.112V158.948h.7l.07,1.064a2.964,2.964,0,0,1,.987-.9,2.578,2.578,0,0,1,1.267-.322A2.244,2.244,0,0,1,399.926,159.781Zm-.735,5.159a4.286,4.286,0,0,0,.532-2.366q0-3.108-1.946-3.108a1.947,1.947,0,0,0-1.141.336,4,4,0,0,0-.917.924v3.892a2.213,2.213,0,0,0,1.932,1.12A1.737,1.737,0,0,0,399.191,164.94Z"/><path class="cls-3" d="M403.482,165.283a.636.636,0,0,1,.189.469.647.647,0,0,1-.672.672.669.669,0,0,1-.672-.672.624.624,0,0,1,.2-.469.7.7,0,0,1,.959,0Z"/><path class="cls-3" d="M413.429,159.774a5.85,5.85,0,0,1-.035,5.614,2.371,2.371,0,0,1-2.051,1.036,2.459,2.459,0,0,1-1.2-.294,2.755,2.755,0,0,1-.9-.784l-.084.924h-.714v-10.3l.811-.1v4.1a2.632,2.632,0,0,1,2.2-1.176A2.286,2.286,0,0,1,413.429,159.774Zm-.707,5.173a4.282,4.282,0,0,0,.539-2.373q0-3.108-1.973-3.108a1.941,1.941,0,0,0-1.134.329,3.658,3.658,0,0,0-.9.931v3.85a2.812,2.812,0,0,0,.84.861,1.979,1.979,0,0,0,1.092.315A1.736,1.736,0,0,0,412.722,164.947Z"/><path class="cls-3" d="M417.02,165.283a.636.636,0,0,1,.189.469.647.647,0,0,1-.671.672.669.669,0,0,1-.673-.672.624.624,0,0,1,.2-.469.661.661,0,0,1,.477-.189A.653.653,0,0,1,417.02,165.283Z"/><path class="cls-3" d="M476.9,116.911v2.142h2.086v1.414H476.9v2.142h-1.54v-2.142h-2.072v-1.414h2.072v-2.142Z"/><path class="cls-3" d="M484.711,114.979V124.4h-1.763v-7.616l-2.1,1.274-.784-1.2,3.065-1.876Z"/><path class="cls-3" d="M488.541,122.665a1.089,1.089,0,0,1,.33.812,1.934,1.934,0,0,1-.084.546,6.217,6.217,0,0,1-.281.714l-.91,2.072H486.5l.575-2.408a1.061,1.061,0,0,1-.477-.939,1.1,1.1,0,0,1,1.12-1.119A1.128,1.128,0,0,1,488.541,122.665Z"/><path class="cls-3" d="M494.323,115.161a2.494,2.494,0,0,1,1.421,2.3,3.594,3.594,0,0,1-.343,1.533,7.071,7.071,0,0,1-1.142,1.631q-.8.9-2.338,2.366h4.033l-.2,1.414h-5.866v-1.317q1.792-1.818,2.569-2.694a8.121,8.121,0,0,0,1.107-1.5,2.744,2.744,0,0,0,.329-1.3,1.268,1.268,0,0,0-1.358-1.372,1.928,1.928,0,0,0-.959.231,3.278,3.278,0,0,0-.862.763l-1.092-.868a3.694,3.694,0,0,1,3.052-1.54A3.6,3.6,0,0,1,494.323,115.161Z"/><path class="cls-3" d="M504.017,121.867a2.385,2.385,0,0,1-.434,1.393,2.965,2.965,0,0,1-1.224.987,4.366,4.366,0,0,1-1.842.364,4.245,4.245,0,0,1-1.806-.358,2.83,2.83,0,0,1-1.189-.972,2.4,2.4,0,0,1-.421-1.386,2.509,2.509,0,0,1,1.792-2.38,2.422,2.422,0,0,1-1.413-2.226,2.166,2.166,0,0,1,.412-1.309,2.622,2.622,0,0,1,1.12-.868,3.923,3.923,0,0,1,1.547-.3,4.151,4.151,0,0,1,1.555.28,2.545,2.545,0,0,1,1.112.826,2.1,2.1,0,0,1,.413,1.3,2.393,2.393,0,0,1-1.554,2.128A2.743,2.743,0,0,1,504.017,121.867Zm-2.254,1.022a1.315,1.315,0,0,0,.435-1.022,1.357,1.357,0,0,0-.378-1.015,3.867,3.867,0,0,0-1.345-.721l-.434-.154a1.977,1.977,0,0,0-1.133,1.862,1.32,1.32,0,0,0,.448,1.057,1.779,1.779,0,0,0,1.2.385A1.731,1.731,0,0,0,501.763,122.889Zm-2.19-6.5a1.178,1.178,0,0,0-.358.924,1.191,1.191,0,0,0,.336.889,3,3,0,0,0,1.078.595l.266.1a2.33,2.33,0,0,0,.777-.707,1.64,1.64,0,0,0,.232-.889,1.178,1.178,0,0,0-.351-.9,1.4,1.4,0,0,0-.994-.329A1.414,1.414,0,0,0,499.573,116.393Z"/><path class="cls-3" d="M514.93,117.912a4.972,4.972,0,0,1,.665,2.793,4.855,4.855,0,0,1-.721,2.807,2.358,2.358,0,0,1-2.065,1.043,2.564,2.564,0,0,1-1.189-.273,2.683,2.683,0,0,1-.9-.735v3.612l-.811.112V117.079h.7l.07,1.064a2.954,2.954,0,0,1,.987-.9,2.578,2.578,0,0,1,1.267-.322A2.242,2.242,0,0,1,514.93,117.912Zm-.735,5.159a4.288,4.288,0,0,0,.532-2.366q0-3.108-1.946-3.108a1.94,1.94,0,0,0-1.141.336,4,4,0,0,0-.917.924v3.892a2.212,2.212,0,0,0,1.932,1.12A1.737,1.737,0,0,0,514.2,123.071Z"/><path class="cls-3" d="M518.486,123.414a.636.636,0,0,1,.189.469.647.647,0,0,1-.672.672.671.671,0,0,1-.673-.672.624.624,0,0,1,.2-.469.7.7,0,0,1,.959,0Z"/><path class="cls-3" d="M528.433,117.905a5.85,5.85,0,0,1-.035,5.614,2.374,2.374,0,0,1-2.051,1.036,2.459,2.459,0,0,1-1.2-.294,2.759,2.759,0,0,1-.9-.784l-.084.924h-.713V114.1l.811-.1v4.1a2.632,2.632,0,0,1,2.2-1.176A2.284,2.284,0,0,1,528.433,117.905Zm-.707,5.173a4.284,4.284,0,0,0,.539-2.373q0-3.108-1.974-3.108a1.94,1.94,0,0,0-1.133.329,3.642,3.642,0,0,0-.9.931v3.85a2.812,2.812,0,0,0,.84.861,1.976,1.976,0,0,0,1.092.315A1.736,1.736,0,0,0,527.726,123.078Z"/><path class="cls-3" d="M532.024,123.414a.636.636,0,0,1,.189.469.647.647,0,0,1-.672.672.669.669,0,0,1-.672-.672.624.624,0,0,1,.2-.469.7.7,0,0,1,.959,0Z"/><rect class="cls-16" x="304.779" y="242.452" width="2.413" height="27.489"/><rect class="cls-16" x="304.779" y="326.673" width="2.413" height="16.199"/><rect class="cls-16" x="304.779" y="198.071" width="2.413" height="27.489"/><line class="cls-4" x1="310.501" y1="220.195" x2="309.501" y2="220.195"/><line class="cls-17" x1="305.534" y1="220.195" x2="93.275" y2="220.195"/><line class="cls-4" x1="91.291" y1="220.195" x2="90.291" y2="220.195"/><line class="cls-12" x1="310.849" y1="220.362" x2="311.081" y2="220.362"/><line class="cls-12" x1="310.849" y1="220.362" x2="310.501" y2="220.362"/><path class="cls-3" d="M314.991,220.3a4.2,4.2,0,1,1-4.2-4.2,4.2,4.2,0,0,1,4.2,4.2Z"/><path class="cls-3" d="M295.416,204.013v2.142H297.5v1.414h-2.086v2.142h-1.54v-2.142H291.8v-1.414h2.072v-2.142Z"/><path class="cls-3" d="M304.775,203.173a8.11,8.11,0,0,1,0,7.273,3.126,3.126,0,0,1-5.026,0,8.11,8.11,0,0,1,0-7.273,3.136,3.136,0,0,1,5.026,0Zm-3.675.9a7.233,7.233,0,0,0-.364,2.723,7.343,7.343,0,0,0,.364,2.744,1.24,1.24,0,0,0,2.324.007,7.332,7.332,0,0,0,.364-2.751,7.226,7.226,0,0,0-.364-2.73,1.243,1.243,0,0,0-2.324.007Z"/><path class="cls-3" d="M308.724,209.767a1.088,1.088,0,0,1,.329.812,1.9,1.9,0,0,1-.084.546,5.937,5.937,0,0,1-.28.714l-.91,2.072h-1.092l.574-2.408a1.063,1.063,0,0,1-.476-.939,1.1,1.1,0,0,1,1.12-1.119A1.129,1.129,0,0,1,308.724,209.767Z"/><path class="cls-3" d="M316.115,203.173a8.11,8.11,0,0,1,0,7.273,3.126,3.126,0,0,1-5.026,0,8.11,8.11,0,0,1,0-7.273,3.136,3.136,0,0,1,5.026,0Zm-3.675.9a7.233,7.233,0,0,0-.364,2.723,7.343,7.343,0,0,0,.364,2.744,1.24,1.24,0,0,0,2.324.007,7.332,7.332,0,0,0,.364-2.751,7.226,7.226,0,0,0-.364-2.73,1.243,1.243,0,0,0-2.324.007Z"/><path class="cls-3" d="M322.444,202.235a2.359,2.359,0,0,1,1.021.868,2.216,2.216,0,0,1,.344,1.2,2.1,2.1,0,0,1-.49,1.421,2.6,2.6,0,0,1-1.344.791,2.437,2.437,0,0,1,1.539.672,2.166,2.166,0,0,1,.6,1.623,2.711,2.711,0,0,1-.413,1.471,2.88,2.88,0,0,1-1.183,1.043,4.023,4.023,0,0,1-1.82.385,3.741,3.741,0,0,1-3.052-1.359l.994-.951a3.394,3.394,0,0,0,.937.693,2.371,2.371,0,0,0,1.023.216,1.7,1.7,0,0,0,1.211-.426,1.508,1.508,0,0,0,.455-1.156,1.42,1.42,0,0,0-.428-1.161,1.962,1.962,0,0,0-1.266-.35h-.743l.21-1.274h.5a1.567,1.567,0,0,0,1.1-.378,1.358,1.358,0,0,0,.413-1.05,1.136,1.136,0,0,0-.379-.9,1.483,1.483,0,0,0-1.008-.329,2.39,2.39,0,0,0-.994.2,3.327,3.327,0,0,0-.895.623l-.911-.994a4.17,4.17,0,0,1,2.955-1.2A3.755,3.755,0,0,1,322.444,202.235Z"/><path class="cls-3" d="M335.127,205.014a4.966,4.966,0,0,1,.665,2.793,4.862,4.862,0,0,1-.72,2.807,2.36,2.36,0,0,1-2.066,1.043,2.564,2.564,0,0,1-1.189-.273,2.683,2.683,0,0,1-.9-.735v3.612l-.811.112V204.181h.7l.07,1.064a2.947,2.947,0,0,1,.988-.9,2.571,2.571,0,0,1,1.266-.322A2.242,2.242,0,0,1,335.127,205.014Zm-.735,5.159a4.286,4.286,0,0,0,.532-2.366q0-3.108-1.946-3.108a1.949,1.949,0,0,0-1.141.336,4,4,0,0,0-.917.924v3.892a2.213,2.213,0,0,0,1.932,1.12A1.735,1.735,0,0,0,334.392,210.173Z"/><path class="cls-3" d="M338.683,210.516a.636.636,0,0,1,.189.469.647.647,0,0,1-.671.672.669.669,0,0,1-.673-.672.624.624,0,0,1,.2-.469.661.661,0,0,1,.477-.189A.653.653,0,0,1,338.683,210.516Z"/><path class="cls-3" d="M348.629,205.007a5.843,5.843,0,0,1-.035,5.614,2.371,2.371,0,0,1-2.051,1.036,2.459,2.459,0,0,1-1.2-.294,2.755,2.755,0,0,1-.9-.784l-.084.924h-.714V201.2l.811-.1v4.1a2.634,2.634,0,0,1,2.2-1.176A2.284,2.284,0,0,1,348.629,205.007Zm-.707,5.173a4.273,4.273,0,0,0,.539-2.373q0-3.108-1.973-3.108a1.941,1.941,0,0,0-1.134.329,3.675,3.675,0,0,0-.9.931v3.85a2.812,2.812,0,0,0,.84.861,1.979,1.979,0,0,0,1.092.315A1.736,1.736,0,0,0,347.922,210.18Z"/><path class="cls-3" d="M352.22,210.516a.637.637,0,0,1,.19.469.649.649,0,0,1-.672.672.669.669,0,0,1-.673-.672.624.624,0,0,1,.2-.469.661.661,0,0,1,.477-.189A.653.653,0,0,1,352.22,210.516Z"/><use width="198.127" height="26.528" transform="translate(187.772 49.636) scale(1.2)" xlink:href="#Legenda_šipek"/></svg>