<svg id="Layer_1" data-name="Layer 1" xmlns="http://www.w3.org/2000/svg" xmlns:xlink="http://www.w3.org/1999/xlink" viewBox="0 0 620 492.392"><defs><style>.cls-1,.cls-10,.cls-11,.cls-14,.cls-17,.cls-4,.cls-5,.cls-6,.cls-7,.cls-8,.cls-9{fill:none;}.cls-1{stroke:#231f20;stroke-miterlimit:10;}.cls-1,.cls-10,.cls-14,.cls-17,.cls-4,.cls-5,.cls-6,.cls-7,.cls-8,.cls-9{stroke-width:0.75px;}.cls-2{fill:#d44060;}.cls-3{fill:#2d81b9;}.cls-10,.cls-17,.cls-4,.cls-5,.cls-6,.cls-7,.cls-8,.cls-9{stroke:#c7c7c7;}.cls-10,.cls-11,.cls-12,.cls-17,.cls-4,.cls-5,.cls-6,.cls-7,.cls-8,.cls-9{stroke-linecap:round;}.cls-10,.cls-11,.cls-12,.cls-14,.cls-17,.cls-4,.cls-5,.cls-6,.cls-7,.cls-8,.cls-9{stroke-linejoin:round;}.cls-5{stroke-dasharray:2.021 4.043;}.cls-6{stroke-dasharray:1.992 3.985;}.cls-7{stroke-dasharray:2.017 4.035;}.cls-8{stroke-dasharray:2.019 4.038;}.cls-9{stroke-dasharray:1.995 3.99;}.cls-10{stroke-dasharray:2.014 4.029;}.cls-11{stroke:#f0d8db;}.cls-11,.cls-12{stroke-width:8.5px;}.cls-12{fill:#d1daed;stroke:#d1daed;}.cls-13{isolation:isolate;}.cls-14{stroke:#999;}.cls-15{fill:#666;}.cls-16{fill:#fff;}.cls-17{stroke-dasharray:1.984 3.967;}</style><symbol id="Legenda_šipek" data-name="Legenda šipek" viewBox="0 0 198.127 26.528"><line class="cls-1" x1="110.037" y1="22.11" x2="124.74" y2="22.11"/><polyline class="cls-1" points="120.587 26.263 124.74 22.11 120.587 17.957"/><line class="cls-1" x1="87.06" y1="22.11" x2="72.357" y2="22.11"/><polyline class="cls-1" points="76.511 17.957 72.357 22.11 76.511 26.263"/><path class="cls-2" d="M5.634,4.218A2.009,2.009,0,0,1,6.108,5.64v4.6H4.572V5.88a1.219,1.219,0,0,0-.2-.792.729.729,0,0,0-.582-.228,1.138,1.138,0,0,0-.714.246,2.807,2.807,0,0,0-.618.714v4.416H.924V3.888H2.256l.12.828A2.359,2.359,0,0,1,4.308,3.708,1.721,1.721,0,0,1,5.634,4.218Z"/><path class="cls-2" d="M9.354.942a.909.909,0,0,1,.27.666.889.889,0,0,1-.27.66.964.964,0,0,1-.7.264.944.944,0,0,1-.689-.264.882.882,0,0,1-.271-.66A.9.9,0,0,1,7.962.942a.932.932,0,0,1,.689-.27A.952.952,0,0,1,9.354.942Zm.078,2.946v6.348H7.9V3.888Z"/><path class="cls-2" d="M15.407,3.888v1.1L12.336,9.036h3.132l-.156,1.2H10.571v-1.1l3.084-4.044H10.836v-1.2ZM14.628.636l.588.672-1.668,1.5h-.96l-1.668-1.5.588-.672,1.559,1.056Z"/><path class="cls-2" d="M20.831,4.464l-.6.9a2.979,2.979,0,0,0-1.6-.516,1.233,1.233,0,0,0-.708.174.536.536,0,0,0-.252.462.589.589,0,0,0,.107.36.981.981,0,0,0,.391.27,6.475,6.475,0,0,0,.834.282,3.661,3.661,0,0,1,1.529.732,1.638,1.638,0,0,1,.5,1.272,1.707,1.707,0,0,1-.767,1.482,3.265,3.265,0,0,1-1.909.534,4.024,4.024,0,0,1-1.421-.24,3.467,3.467,0,0,1-1.111-.66l.769-.864a2.83,2.83,0,0,0,1.727.624,1.468,1.468,0,0,0,.823-.2.642.642,0,0,0,.3-.564.756.756,0,0,0-.113-.438.945.945,0,0,0-.408-.288,8.642,8.642,0,0,0-.918-.306,3.07,3.07,0,0,1-1.429-.738,1.637,1.637,0,0,1-.455-1.182,1.564,1.564,0,0,1,.306-.948,2.03,2.03,0,0,1,.864-.66,3.207,3.207,0,0,1,1.277-.24A3.567,3.567,0,0,1,20.831,4.464ZM20.172.636l.588.672-1.668,1.5h-.96l-1.668-1.5.588-.672,1.559,1.056Z"/><path class="cls-2" d="M23.963.4l.624,1.2-2.712,1.08-.432-.78Zm-.144,3.492v6.348H22.283V3.888Z"/><path class="cls-2" d="M33.732,4.584a4.457,4.457,0,0,1,.577,2.46,4.826,4.826,0,0,1-.295,1.746,2.653,2.653,0,0,1-.864,1.194,2.169,2.169,0,0,1-1.35.432,1.98,1.98,0,0,1-1.6-.7v2.964l-1.536.168V3.888h1.344l.084.78a2.488,2.488,0,0,1,.852-.72,2.225,2.225,0,0,1,1.008-.24A1.977,1.977,0,0,1,33.732,4.584ZM32.7,7.056a3.508,3.508,0,0,0-.3-1.68.976.976,0,0,0-.9-.516,1.237,1.237,0,0,0-.72.234,2.043,2.043,0,0,0-.576.63V8.58a1.348,1.348,0,0,0,1.164.66Q32.7,9.24,32.7,7.056Z"/><path class="cls-2" d="M40.6,4.6a3.593,3.593,0,0,1,.786,2.454,4.057,4.057,0,0,1-.361,1.758A2.733,2.733,0,0,1,39.995,10a2.945,2.945,0,0,1-1.6.42,2.783,2.783,0,0,1-2.2-.894,3.594,3.594,0,0,1-.792-2.466,4.032,4.032,0,0,1,.36-1.752A2.729,2.729,0,0,1,36.81,4.128a2.977,2.977,0,0,1,1.6-.42A2.765,2.765,0,0,1,40.6,4.6ZM37.031,7.056a3.163,3.163,0,0,0,.342,1.662,1.25,1.25,0,0,0,2.053-.006,3.168,3.168,0,0,0,.342-1.656,3.134,3.134,0,0,0-.342-1.65,1.129,1.129,0,0,0-1.015-.534Q37.031,4.872,37.031,7.056Z"/><path class="cls-2" d="M48.167,1.344v8.892H46.812l-.109-.8a2.222,2.222,0,0,1-.762.72,2.077,2.077,0,0,1-1.049.264,2.043,2.043,0,0,1-1.788-.9,4.233,4.233,0,0,1-.625-2.448,4.543,4.543,0,0,1,.312-1.734,2.731,2.731,0,0,1,.9-1.194,2.255,2.255,0,0,1,2.945.252V1.176Zm-2.124,7.71a2.041,2.041,0,0,0,.588-.618v-2.9a2.2,2.2,0,0,0-.558-.5,1.251,1.251,0,0,0-.654-.168,1.1,1.1,0,0,0-.966.546,3.075,3.075,0,0,0-.353,1.65,3.389,3.389,0,0,0,.311,1.686,1,1,0,0,0,.912.51A1.315,1.315,0,0,0,46.043,9.054Z"/><path class="cls-2" d="M51.923.4l.624,1.2-2.712,1.08L49.4,1.9Zm-.144,3.492v6.348H50.243V3.888Z"/><path class="cls-2" d="M54.138,9.99a1.655,1.655,0,0,1-.414-1.206V1.344l1.536-.168v7.56c0,.3.119.444.359.444a1.133,1.133,0,0,0,.36-.06L56.3,10.2a2.462,2.462,0,0,1-1.021.216A1.52,1.52,0,0,1,54.138,9.99Z"/><path class="cls-2" d="M65.027,4.224a1.994,1.994,0,0,1,.481,1.416v4.6H63.972V5.88a1.218,1.218,0,0,0-.2-.792.728.728,0,0,0-.582-.228,1.148,1.148,0,0,0-.708.246,2.845,2.845,0,0,0-.624.7v4.428H60.323V1.356L61.859,1.2V4.644a2.318,2.318,0,0,1,1.848-.936A1.713,1.713,0,0,1,65.027,4.224Z"/><path class="cls-2" d="M67.649,9.99a1.659,1.659,0,0,1-.414-1.206V1.344l1.536-.168v7.56q0,.444.36.444a1.133,1.133,0,0,0,.36-.06l.324,1.08a2.457,2.457,0,0,1-1.02.216A1.524,1.524,0,0,1,67.649,9.99Z"/><path class="cls-2" d="M75.582,9.1a.722.722,0,0,0,.365.27l-.323,1.02a1.971,1.971,0,0,1-.883-.264,1.353,1.353,0,0,1-.521-.66,2.037,2.037,0,0,1-.811.714,2.465,2.465,0,0,1-1.086.234,2.053,2.053,0,0,1-1.5-.54,1.892,1.892,0,0,1-.552-1.416,1.832,1.832,0,0,1,.75-1.578,3.6,3.6,0,0,1,2.142-.546h.792v-.36a1.1,1.1,0,0,0-.281-.858,1.365,1.365,0,0,0-.906-.246,5.35,5.35,0,0,0-1.68.336l-.36-1.044a6.407,6.407,0,0,1,2.3-.456q2.436,0,2.437,2.184V8.556A1.019,1.019,0,0,0,75.582,9.1ZM73.955,8.52V7.236h-.636q-1.488,0-1.487,1.1a1.013,1.013,0,0,0,.228.708.859.859,0,0,0,.671.252A1.358,1.358,0,0,0,73.955,8.52Z"/><path class="cls-2" d="M81.467,4.464l-.6.9a2.982,2.982,0,0,0-1.6-.516,1.235,1.235,0,0,0-.708.174.538.538,0,0,0-.251.462.589.589,0,0,0,.107.36.981.981,0,0,0,.391.27,6.421,6.421,0,0,0,.834.282,3.661,3.661,0,0,1,1.529.732,1.638,1.638,0,0,1,.5,1.272A1.706,1.706,0,0,1,80.9,9.882,3.26,3.26,0,0,1,79,10.416a4.033,4.033,0,0,1-1.422-.24,3.462,3.462,0,0,1-1.11-.66l.768-.864a2.833,2.833,0,0,0,1.728.624,1.462,1.462,0,0,0,.822-.2.642.642,0,0,0,.306-.564.756.756,0,0,0-.113-.438.949.949,0,0,0-.409-.288,8.563,8.563,0,0,0-.918-.306,3.066,3.066,0,0,1-1.428-.738,1.637,1.637,0,0,1-.455-1.182,1.569,1.569,0,0,1,.305-.948,2.034,2.034,0,0,1,.865-.66,3.2,3.2,0,0,1,1.277-.24A3.571,3.571,0,0,1,81.467,4.464Z"/><path class="cls-2" d="M88,10.236H86.663l-.084-.888a2.347,2.347,0,0,1-.822.8,2.27,2.27,0,0,1-1.122.264,1.662,1.662,0,0,1-1.314-.522,2.107,2.107,0,0,1-.462-1.446V3.888H84.4V8.256a1.229,1.229,0,0,0,.185.768.723.723,0,0,0,.594.228,1.55,1.55,0,0,0,1.284-.9V3.888H88ZM86.531.414a1.379,1.379,0,0,1,.42,1.026,1.379,1.379,0,0,1-.426,1.02,1.5,1.5,0,0,1-1.1.42,1.513,1.513,0,0,1-1.11-.42,1.378,1.378,0,0,1-.425-1.02A1.372,1.372,0,0,1,84.317.414,1.525,1.525,0,0,1,85.427,0,1.5,1.5,0,0,1,86.531.414ZM85,.972a.662.662,0,0,0-.156.468A.639.639,0,0,0,85,1.9a.572.572,0,0,0,.432.162.556.556,0,0,0,.42-.162A.639.639,0,0,0,86,1.44a.662.662,0,0,0-.156-.468A.545.545,0,0,0,85.427.8.56.56,0,0,0,85,.972Z"/><path class="cls-3" d="M113.24,3.888l-2.064,6.348H109.34l-2.1-6.348h1.668L110.264,9l1.392-5.112Z"/><path class="cls-3" d="M117.26,10.26a3.9,3.9,0,0,1-1.164,1.83,3.705,3.705,0,0,1-2.136.762l-.156-1.116a3.84,3.84,0,0,0,1-.27,1.62,1.62,0,0,0,.606-.462,3.156,3.156,0,0,0,.42-.768H115.3l-2.016-6.348h1.632l1.38,5.328,1.439-5.328h1.584Z"/><path class="cls-3" d="M124.424,4.464l-.6.9a2.981,2.981,0,0,0-1.595-.516,1.23,1.23,0,0,0-.708.174.536.536,0,0,0-.252.462.589.589,0,0,0,.107.36.981.981,0,0,0,.391.27,6.421,6.421,0,0,0,.834.282,3.661,3.661,0,0,1,1.529.732,1.638,1.638,0,0,1,.5,1.272,1.706,1.706,0,0,1-.768,1.482,3.26,3.26,0,0,1-1.908.534,4.033,4.033,0,0,1-1.422-.24,3.462,3.462,0,0,1-1.11-.66l.768-.864a2.833,2.833,0,0,0,1.728.624,1.462,1.462,0,0,0,.822-.2.642.642,0,0,0,.306-.564.756.756,0,0,0-.113-.438.949.949,0,0,0-.409-.288,8.485,8.485,0,0,0-.918-.306,3.066,3.066,0,0,1-1.428-.738,1.637,1.637,0,0,1-.455-1.182,1.569,1.569,0,0,1,.3-.948,2.034,2.034,0,0,1,.865-.66,3.2,3.2,0,0,1,1.277-.24A3.571,3.571,0,0,1,124.424,4.464ZM123.765.636l.588.672-1.668,1.5h-.96l-1.668-1.5.588-.672L122.2,1.692Z"/><path class="cls-3" d="M130.039,4.464l-.6.9a2.979,2.979,0,0,0-1.595-.516,1.233,1.233,0,0,0-.708.174.536.536,0,0,0-.252.462.589.589,0,0,0,.107.36.981.981,0,0,0,.391.27,6.475,6.475,0,0,0,.834.282,3.661,3.661,0,0,1,1.529.732,1.638,1.638,0,0,1,.5,1.272,1.707,1.707,0,0,1-.767,1.482,3.265,3.265,0,0,1-1.909.534,4.024,4.024,0,0,1-1.421-.24,3.467,3.467,0,0,1-1.111-.66l.769-.864a2.83,2.83,0,0,0,1.727.624,1.468,1.468,0,0,0,.823-.2.642.642,0,0,0,.3-.564.756.756,0,0,0-.113-.438.945.945,0,0,0-.408-.288,8.642,8.642,0,0,0-.918-.306,3.07,3.07,0,0,1-1.429-.738,1.637,1.637,0,0,1-.455-1.182,1.57,1.57,0,0,1,.306-.948,2.03,2.03,0,0,1,.864-.66,3.207,3.207,0,0,1,1.277-.24A3.567,3.567,0,0,1,130.039,4.464ZM129.38.636l.588.672-1.668,1.5h-.96l-1.668-1.5.588-.672,1.559,1.056Z"/><path class="cls-3" d="M133.171.4l.624,1.2-2.712,1.08-.432-.78Zm-.144,3.492v6.348h-1.536V3.888Z"/><path class="cls-3" d="M142.94,4.584a4.457,4.457,0,0,1,.577,2.46,4.826,4.826,0,0,1-.295,1.746,2.653,2.653,0,0,1-.864,1.194,2.169,2.169,0,0,1-1.35.432,1.98,1.98,0,0,1-1.6-.7v2.964l-1.536.168V3.888h1.344l.084.78a2.488,2.488,0,0,1,.852-.72,2.225,2.225,0,0,1,1.008-.24A1.977,1.977,0,0,1,142.94,4.584Zm-1.032,2.472a3.508,3.508,0,0,0-.3-1.68.976.976,0,0,0-.9-.516,1.237,1.237,0,0,0-.72.234,2.043,2.043,0,0,0-.576.63V8.58a1.348,1.348,0,0,0,1.164.66Q141.908,9.24,141.908,7.056Z"/><path class="cls-3" d="M149.81,4.6a3.593,3.593,0,0,1,.786,2.454,4.057,4.057,0,0,1-.361,1.758A2.733,2.733,0,0,1,149.2,10a2.945,2.945,0,0,1-1.6.42,2.783,2.783,0,0,1-2.2-.894,3.594,3.594,0,0,1-.792-2.466,4.032,4.032,0,0,1,.36-1.752,2.729,2.729,0,0,1,1.039-1.176,2.977,2.977,0,0,1,1.6-.42A2.765,2.765,0,0,1,149.81,4.6Zm-3.571,2.454a3.163,3.163,0,0,0,.342,1.662,1.25,1.25,0,0,0,2.053-.006,3.168,3.168,0,0,0,.342-1.656,3.134,3.134,0,0,0-.342-1.65,1.129,1.129,0,0,0-1.015-.534Q146.239,4.872,146.239,7.056Z"/><path class="cls-3" d="M157.375,1.344v8.892H156.02l-.109-.8a2.222,2.222,0,0,1-.762.72,2.077,2.077,0,0,1-1.049.264,2.043,2.043,0,0,1-1.788-.9,4.233,4.233,0,0,1-.624-2.448A4.543,4.543,0,0,1,152,5.334a2.731,2.731,0,0,1,.9-1.194,2.255,2.255,0,0,1,2.945.252V1.176Zm-2.124,7.71a2.041,2.041,0,0,0,.588-.618v-2.9a2.2,2.2,0,0,0-.558-.5,1.251,1.251,0,0,0-.654-.168,1.1,1.1,0,0,0-.966.546,3.075,3.075,0,0,0-.353,1.65,3.389,3.389,0,0,0,.311,1.686,1,1,0,0,0,.912.51A1.315,1.315,0,0,0,155.251,9.054Z"/><path class="cls-3" d="M161.131.4l.624,1.2-2.712,1.08-.432-.78Zm-.144,3.492v6.348h-1.536V3.888Z"/><path class="cls-3" d="M163.346,9.99a1.655,1.655,0,0,1-.414-1.206V1.344l1.536-.168v7.56c0,.3.119.444.359.444a1.143,1.143,0,0,0,.361-.06l.324,1.08a2.462,2.462,0,0,1-1.021.216A1.52,1.52,0,0,1,163.346,9.99Z"/><path class="cls-3" d="M174.235,4.224a1.994,1.994,0,0,1,.481,1.416v4.6H173.18V5.88a1.218,1.218,0,0,0-.2-.792.728.728,0,0,0-.582-.228,1.148,1.148,0,0,0-.708.246,2.845,2.845,0,0,0-.624.7v4.428h-1.536V1.356l1.536-.156V4.644a2.318,2.318,0,0,1,1.848-.936A1.713,1.713,0,0,1,174.235,4.224Z"/><path class="cls-3" d="M176.857,9.99a1.659,1.659,0,0,1-.414-1.206V1.344l1.536-.168v7.56q0,.444.36.444a1.133,1.133,0,0,0,.36-.06l.324,1.08a2.457,2.457,0,0,1-1.02.216A1.524,1.524,0,0,1,176.857,9.99Z"/><path class="cls-3" d="M184.79,9.1a.722.722,0,0,0,.365.27l-.323,1.02a1.971,1.971,0,0,1-.883-.264,1.353,1.353,0,0,1-.521-.66,2.037,2.037,0,0,1-.811.714,2.465,2.465,0,0,1-1.086.234,2.053,2.053,0,0,1-1.5-.54,1.892,1.892,0,0,1-.552-1.416,1.832,1.832,0,0,1,.75-1.578,3.6,3.6,0,0,1,2.142-.546h.792v-.36a1.1,1.1,0,0,0-.281-.858,1.365,1.365,0,0,0-.906-.246,5.35,5.35,0,0,0-1.68.336l-.36-1.044a6.407,6.407,0,0,1,2.3-.456q2.436,0,2.437,2.184V8.556A1.019,1.019,0,0,0,184.79,9.1Zm-1.627-.582V7.236h-.636q-1.488,0-1.487,1.1a1.013,1.013,0,0,0,.228.708.859.859,0,0,0,.671.252A1.358,1.358,0,0,0,183.163,8.52Z"/><path class="cls-3" d="M190.675,4.464l-.6.9a2.982,2.982,0,0,0-1.6-.516,1.235,1.235,0,0,0-.708.174.538.538,0,0,0-.251.462.589.589,0,0,0,.107.36.981.981,0,0,0,.391.27,6.421,6.421,0,0,0,.834.282,3.661,3.661,0,0,1,1.529.732,1.638,1.638,0,0,1,.5,1.272,1.706,1.706,0,0,1-.768,1.482,3.26,3.26,0,0,1-1.908.534,4.033,4.033,0,0,1-1.422-.24,3.462,3.462,0,0,1-1.11-.66l.768-.864a2.833,2.833,0,0,0,1.728.624,1.462,1.462,0,0,0,.822-.2.642.642,0,0,0,.306-.564.756.756,0,0,0-.113-.438.949.949,0,0,0-.409-.288,8.563,8.563,0,0,0-.918-.306,3.066,3.066,0,0,1-1.428-.738,1.637,1.637,0,0,1-.455-1.182,1.569,1.569,0,0,1,.3-.948,2.034,2.034,0,0,1,.865-.66,3.2,3.2,0,0,1,1.277-.24A3.571,3.571,0,0,1,190.675,4.464Z"/><path class="cls-3" d="M197.2,10.236h-1.332l-.084-.888a2.347,2.347,0,0,1-.822.8,2.27,2.27,0,0,1-1.122.264,1.662,1.662,0,0,1-1.314-.522,2.107,2.107,0,0,1-.462-1.446V3.888H193.6V8.256a1.229,1.229,0,0,0,.185.768.723.723,0,0,0,.594.228,1.55,1.55,0,0,0,1.284-.9V3.888H197.2ZM195.739.414a1.379,1.379,0,0,1,.42,1.026,1.379,1.379,0,0,1-.426,1.02,1.5,1.5,0,0,1-1.1.42,1.513,1.513,0,0,1-1.11-.42,1.378,1.378,0,0,1-.425-1.02,1.372,1.372,0,0,1,.425-1.026A1.525,1.525,0,0,1,194.635,0,1.5,1.5,0,0,1,195.739.414ZM194.2.972a.662.662,0,0,0-.156.468.639.639,0,0,0,.156.462.572.572,0,0,0,.432.162.556.556,0,0,0,.42-.162.639.639,0,0,0,.156-.462.662.662,0,0,0-.156-.468.545.545,0,0,0-.42-.168A.56.56,0,0,0,194.2.972Z"/><circle cx="98.581" cy="22.11" r="1.583"/></symbol></defs><line class="cls-4" x1="320.714" y1="262.039" x2="319.714" y2="262.039"/><line class="cls-5" x1="315.671" y1="262.039" x2="93.312" y2="262.039"/><line class="cls-4" x1="91.291" y1="262.039" x2="90.291" y2="262.039"/><line class="cls-4" x1="490.767" y1="133.144" x2="489.767" y2="133.144"/><line class="cls-6" x1="485.783" y1="133.144" x2="93.283" y2="133.144"/><line class="cls-4" x1="91.291" y1="133.144" x2="90.291" y2="133.144"/><line class="cls-4" x1="374.71" y1="174.988" x2="373.71" y2="174.988"/><line class="cls-7" x1="369.675" y1="174.988" x2="93.308" y2="174.988"/><line class="cls-4" x1="91.291" y1="174.988" x2="90.291" y2="174.988"/><line class="cls-4" x1="241.714" y1="303.831" x2="240.714" y2="303.831"/><line class="cls-8" x1="236.676" y1="303.831" x2="93.31" y2="303.831"/><line class="cls-4" x1="91.291" y1="303.831" x2="90.291" y2="303.831"/><line class="cls-4" x1="287.799" y1="346.43" x2="286.799" y2="346.43"/><line class="cls-9" x1="282.809" y1="346.43" x2="93.286" y2="346.43"/><line class="cls-4" x1="91.291" y1="346.43" x2="90.291" y2="346.43"/><line class="cls-4" x1="265.532" y1="387.441" x2="264.532" y2="387.441"/><line class="cls-10" x1="260.503" y1="387.441" x2="93.305" y2="387.441"/><line class="cls-4" x1="91.291" y1="387.441" x2="90.291" y2="387.441"/><line class="cls-11" x1="264.721" y1="387.445" x2="266.343" y2="387.445"/><line class="cls-11" x1="264.721" y1="387.445" x2="263.214" y2="387.445"/><line class="cls-11" x1="291.957" y1="346.497" x2="293.116" y2="346.497"/><line class="cls-11" x1="291.957" y1="346.497" x2="290.798" y2="346.497"/><line class="cls-11" x1="240.034" y1="303.821" x2="243.395" y2="303.821"/><line class="cls-11" x1="240.034" y1="303.821" x2="236.557" y2="303.821"/><line class="cls-12" x1="324.873" y1="262.183" x2="325.8" y2="262.183"/><line class="cls-12" x1="324.873" y1="262.183" x2="324.061" y2="262.183"/><line class="cls-12" x1="376.101" y1="175.129" x2="377.607" y2="175.129"/><line class="cls-12" x1="376.101" y1="175.129" x2="374.71" y2="175.129"/><line class="cls-12" x1="490.726" y1="133.145" x2="494.667" y2="133.145"/><line class="cls-12" x1="490.726" y1="133.145" x2="486.669" y2="133.145"/><g class="cls-13"><path d="M286.728,11.1a5.8,5.8,0,0,1,1.817,1.151l-1.17,1.351a4.613,4.613,0,0,0-1.34-.811,4.138,4.138,0,0,0-1.45-.252,2.311,2.311,0,0,0-1.394.388,1.267,1.267,0,0,0-.531,1.089,1.349,1.349,0,0,0,.207.773,1.893,1.893,0,0,0,.747.576,10.767,10.767,0,0,0,1.6.594,7.27,7.27,0,0,1,2.763,1.432,3.224,3.224,0,0,1,.927,2.493,3.517,3.517,0,0,1-.568,1.979,3.762,3.762,0,0,1-1.629,1.351,6.025,6.025,0,0,1-2.519.485,6.673,6.673,0,0,1-2.547-.459,5.917,5.917,0,0,1-1.936-1.251l1.225-1.368a5.538,5.538,0,0,0,1.494.928,4.5,4.5,0,0,0,1.71.314,2.64,2.64,0,0,0,1.655-.485,1.628,1.628,0,0,0,.63-1.368,1.67,1.67,0,0,0-.216-.892,1.878,1.878,0,0,0-.737-.63,9.06,9.06,0,0,0-1.513-.585,7.079,7.079,0,0,1-2.861-1.475,3.03,3.03,0,0,1-.883-2.269,3.078,3.078,0,0,1,.54-1.8,3.577,3.577,0,0,1,1.5-1.206,5.294,5.294,0,0,1,2.188-.431A6.293,6.293,0,0,1,286.728,11.1Z"/><path d="M298.329,11.982a3.478,3.478,0,0,1,1.323,2.97,3.7,3.7,0,0,1-1.332,3.106,5.627,5.627,0,0,1-3.546,1.035h-1.458v4.338H290.94V10.992h3.672A6.1,6.1,0,0,1,298.329,11.982Zm-1.809,4.8a2.242,2.242,0,0,0,.647-1.827q0-2.213-2.573-2.214h-1.278v4.573h1.278A2.979,2.979,0,0,0,296.52,16.779Z"/><path d="M309.246,11.479a4.862,4.862,0,0,1,1.88,2.213,8.487,8.487,0,0,1,.658,3.51,8.365,8.365,0,0,1-.666,3.492,5.054,5.054,0,0,1-1.89,2.233,5.283,5.283,0,0,1-2.881.773,5.4,5.4,0,0,1-2.9-.756,4.908,4.908,0,0,1-1.89-2.214,8.4,8.4,0,0,1-.666-3.509,8.378,8.378,0,0,1,.666-3.484,5.008,5.008,0,0,1,1.9-2.241,5.324,5.324,0,0,1,2.889-.773A5.41,5.41,0,0,1,309.246,11.479Zm-5.094,2.186a6.515,6.515,0,0,0-.756,3.556q0,4.66,2.951,4.662a2.467,2.467,0,0,0,2.188-1.116,6.572,6.572,0,0,0,.747-3.565,6.526,6.526,0,0,0-.747-3.546,2.7,2.7,0,0,0-4.383.009Z"/><path d="M316.391,10.992V21.486h4.986l-.27,1.945h-7.092V10.992Z"/><path d="M331.746,19.362a4.64,4.64,0,0,1-.532,2.242,3.738,3.738,0,0,1-1.584,1.539,5.336,5.336,0,0,1-2.529.557,4.646,4.646,0,0,1-3.42-1.179,4.249,4.249,0,0,1-1.187-3.159v-8.37h2.376v8.244a2.977,2.977,0,0,0,.548,1.962,2.53,2.53,0,0,0,3.384,0,2.977,2.977,0,0,0,.549-1.962V10.992h2.395Z"/></g><line class="cls-14" x1="306.096" y1="91.796" x2="306.096" y2="423.676"/><line class="cls-14" x1="162.245" y1="420.001" x2="162.245" y2="423.481"/><line class="cls-14" x1="90.291" y1="420.001" x2="90.291" y2="423.481"/><line class="cls-14" x1="234.2" y1="420.001" x2="234.2" y2="423.481"/><line class="cls-14" x1="378.11" y1="420.001" x2="378.11" y2="423.481"/><line class="cls-14" x1="450.064" y1="420.001" x2="450.064" y2="423.481"/><line class="cls-14" x1="522.019" y1="420.001" x2="522.019" y2="423.481"/><path class="cls-15" d="M151.855,434.207v-.858h3.113v.858Z"/><path class="cls-15" d="M160.538,430.726a6.712,6.712,0,0,1,0,5.648,2.222,2.222,0,0,1-3.684,0,6.732,6.732,0,0,1,0-5.648,2.229,2.229,0,0,1,3.684,0Zm-2.9.533a7.733,7.733,0,0,0,0,4.581,1.144,1.144,0,0,0,2.117,0,7.609,7.609,0,0,0,0-4.575,1.146,1.146,0,0,0-2.117-.006Z"/><path class="cls-15" d="M163.592,436.044a.73.73,0,0,1,.22.539,1.934,1.934,0,0,1-.2.78l-.738,1.684h-.725l.44-1.826a.8.8,0,0,1-.308-.638.751.751,0,0,1,.758-.76A.747.747,0,0,1,163.592,436.044Z"/><path class="cls-15" d="M167.925,429.861v7.36h-1.012v-6.282l-1.715,1.045-.441-.714,2.278-1.409Z"/><path class="cls-15" d="M175.62,430.258a2.077,2.077,0,0,1,0,2.706,1.891,1.891,0,0,1-2.575,0,2.081,2.081,0,0,1,0-2.706,1.891,1.891,0,0,1,2.575,0Zm-1.98.506a1.848,1.848,0,0,0,0,1.688.739.739,0,0,0,.688.336q.889,0,.89-1.178a1.627,1.627,0,0,0-.2-.84.735.735,0,0,0-.692-.336A.743.743,0,0,0,173.64,430.764Zm5.153-1.365.7.462-5.093,7.7-.7-.462Zm1.353,4.742a2.1,2.1,0,0,1,0,2.706,1.718,1.718,0,0,1-1.287.506,1.736,1.736,0,0,1-1.292-.506,2.077,2.077,0,0,1,0-2.706,1.74,1.74,0,0,1,1.292-.506A1.722,1.722,0,0,1,180.146,434.141Zm-1.975.511a1.569,1.569,0,0,0-.2.842,1.6,1.6,0,0,0,.2.841.741.741,0,0,0,.688.336q.893,0,.891-1.177a1.608,1.608,0,0,0-.2-.837.893.893,0,0,0-1.381,0Z"/><path class="cls-15" d="M219.39,434.207v-.858H222.5v.858Z"/><path class="cls-15" d="M228.074,430.726a6.712,6.712,0,0,1,0,5.648,2.222,2.222,0,0,1-3.684,0,6.732,6.732,0,0,1,0-5.648,2.229,2.229,0,0,1,3.684,0Zm-2.9.533a7.733,7.733,0,0,0,0,4.581,1.144,1.144,0,0,0,2.117,0,7.609,7.609,0,0,0,0-4.575,1.146,1.146,0,0,0-2.117-.006Z"/><path class="cls-15" d="M231.128,436.044a.729.729,0,0,1,.219.539,1.948,1.948,0,0,1-.2.78l-.738,1.684h-.725l.439-1.826a.808.808,0,0,1-.308-.638.753.753,0,0,1,.76-.76A.748.748,0,0,1,231.128,436.044Z"/><path class="cls-15" d="M236.82,430.726a6.732,6.732,0,0,1,0,5.648,2.224,2.224,0,0,1-3.686,0,6.732,6.732,0,0,1,0-5.648,2.231,2.231,0,0,1,3.686,0Zm-2.905.533a7.776,7.776,0,0,0,0,4.581,1.145,1.145,0,0,0,2.118,0,7.629,7.629,0,0,0,0-4.575,1.147,1.147,0,0,0-2.118-.006Z"/><path class="cls-15" d="M242.665,430.653h-2.871v2.167a2.574,2.574,0,0,1,1.178-.285,1.964,1.964,0,0,1,1.518.621,2.432,2.432,0,0,1,.572,1.711,2.6,2.6,0,0,1-.318,1.292,2.228,2.228,0,0,1-.9.88,2.769,2.769,0,0,1-1.338.314,2.919,2.919,0,0,1-1.2-.237,3.185,3.185,0,0,1-.979-.7l.594-.583a2.528,2.528,0,0,0,.727.522,2.015,2.015,0,0,0,.847.17,1.424,1.424,0,0,0,1.106-.439,1.781,1.781,0,0,0,.4-1.243,1.6,1.6,0,0,0-.363-1.166,1.32,1.32,0,0,0-.979-.364,2.172,2.172,0,0,0-.527.061,2.759,2.759,0,0,0-.517.192h-.791v-3.707h3.98Z"/><path class="cls-15" d="M250.042,430.258a2.081,2.081,0,0,1,0,2.706,1.89,1.89,0,0,1-2.574,0,2.081,2.081,0,0,1,0-2.706,1.89,1.89,0,0,1,2.574,0Zm-1.98.506a1.856,1.856,0,0,0,0,1.688.74.74,0,0,0,.687.336q.891,0,.891-1.178a1.637,1.637,0,0,0-.2-.84.882.882,0,0,0-1.381-.006Zm5.154-1.365.7.462-5.093,7.7-.7-.462Zm1.352,4.742a2.093,2.093,0,0,1,0,2.706,1.895,1.895,0,0,1-2.578,0,2.074,2.074,0,0,1,0-2.706,1.895,1.895,0,0,1,2.578,0Zm-1.975.511a1.569,1.569,0,0,0-.2.842,1.6,1.6,0,0,0,.2.841.741.741,0,0,0,.688.336q.892,0,.892-1.177a1.6,1.6,0,0,0-.2-.837.742.742,0,0,0-.693-.329A.75.75,0,0,0,252.593,434.652Z"/><path class="cls-15" d="M373.063,430.726a6.722,6.722,0,0,1,0,5.648,2.223,2.223,0,0,1-3.685,0,6.732,6.732,0,0,1,0-5.648,2.23,2.23,0,0,1,3.685,0Zm-2.9.533a7.733,7.733,0,0,0,0,4.581,1.144,1.144,0,0,0,2.117,0,7.629,7.629,0,0,0,0-4.575,1.146,1.146,0,0,0-2.117-.006Z"/><path class="cls-15" d="M376.117,436.044a.733.733,0,0,1,.219.539,1.934,1.934,0,0,1-.2.78l-.737,1.684h-.726l.441-1.826a.8.8,0,0,1-.309-.638.753.753,0,0,1,.759-.76A.749.749,0,0,1,376.117,436.044Z"/><path class="cls-15" d="M381.808,430.726a6.722,6.722,0,0,1,0,5.648,2.223,2.223,0,0,1-3.685,0,6.732,6.732,0,0,1,0-5.648,2.23,2.23,0,0,1,3.685,0Zm-2.9.533a7.733,7.733,0,0,0,0,4.581,1.144,1.144,0,0,0,2.117,0,7.629,7.629,0,0,0,0-4.575,1.146,1.146,0,0,0-2.117-.006Z"/><path class="cls-15" d="M387.655,430.653h-2.871v2.167a2.563,2.563,0,0,1,1.176-.285,1.968,1.968,0,0,1,1.519.621,2.431,2.431,0,0,1,.571,1.711,2.594,2.594,0,0,1-.318,1.292,2.228,2.228,0,0,1-.9.88,2.76,2.76,0,0,1-1.337.314,2.919,2.919,0,0,1-1.2-.237,3.181,3.181,0,0,1-.978-.7l.593-.583a2.528,2.528,0,0,0,.727.522,2.012,2.012,0,0,0,.847.17,1.422,1.422,0,0,0,1.105-.439,1.777,1.777,0,0,0,.4-1.243,1.6,1.6,0,0,0-.364-1.166,1.321,1.321,0,0,0-.978-.364,2.195,2.195,0,0,0-.529.061,2.751,2.751,0,0,0-.516.192h-.792v-3.707H387.8Z"/><path class="cls-15" d="M395.03,430.258a2.077,2.077,0,0,1,0,2.706,1.891,1.891,0,0,1-2.575,0,2.081,2.081,0,0,1,0-2.706,1.891,1.891,0,0,1,2.575,0Zm-1.98.506a1.848,1.848,0,0,0,0,1.688.739.739,0,0,0,.688.336q.89,0,.89-1.178a1.627,1.627,0,0,0-.2-.84.735.735,0,0,0-.692-.336A.743.743,0,0,0,393.05,430.764ZM398.2,429.4l.7.462-5.094,7.7-.7-.462Zm1.352,4.742a2.1,2.1,0,0,1,0,2.706,1.718,1.718,0,0,1-1.287.506,1.737,1.737,0,0,1-1.292-.506,2.077,2.077,0,0,1,0-2.706,1.741,1.741,0,0,1,1.292-.506A1.722,1.722,0,0,1,399.556,434.141Zm-1.975.511a1.569,1.569,0,0,0-.2.842,1.6,1.6,0,0,0,.2.841.741.741,0,0,0,.688.336q.892,0,.892-1.177a1.608,1.608,0,0,0-.2-.837.893.893,0,0,0-1.381,0Z"/><path class="cls-15" d="M75.312,434.207v-.858h3.113v.858Z"/><path class="cls-15" d="M84,430.726a6.722,6.722,0,0,1,0,5.648,2.223,2.223,0,0,1-3.685,0,6.732,6.732,0,0,1,0-5.648,2.23,2.23,0,0,1,3.685,0Zm-2.9.533a7.754,7.754,0,0,0,0,4.581,1.144,1.144,0,0,0,2.117,0,7.609,7.609,0,0,0,0-4.575,1.146,1.146,0,0,0-2.117-.006Z"/><path class="cls-15" d="M87.049,436.044a.73.73,0,0,1,.22.539,1.934,1.934,0,0,1-.2.78l-.738,1.684h-.725l.44-1.826a.8.8,0,0,1-.308-.638.751.751,0,0,1,.758-.76A.747.747,0,0,1,87.049,436.044Z"/><path class="cls-15" d="M91.382,429.861v7.36H90.371v-6.282l-1.716,1.045-.441-.714,2.278-1.409Z"/><path class="cls-15" d="M97.212,430.653H94.341v2.167a2.567,2.567,0,0,1,1.177-.285,1.968,1.968,0,0,1,1.519.621,2.436,2.436,0,0,1,.571,1.711,2.594,2.594,0,0,1-.319,1.292,2.22,2.22,0,0,1-.9.88,2.762,2.762,0,0,1-1.337.314,2.916,2.916,0,0,1-1.2-.237,3.185,3.185,0,0,1-.979-.7l.594-.583a2.514,2.514,0,0,0,.727.522,2.01,2.01,0,0,0,.846.17,1.424,1.424,0,0,0,1.106-.439,1.781,1.781,0,0,0,.4-1.243,1.6,1.6,0,0,0-.363-1.166,1.321,1.321,0,0,0-.979-.364,2.186,2.186,0,0,0-.528.061,2.785,2.785,0,0,0-.517.192h-.792v-3.707h3.982Z"/><path class="cls-15" d="M104.588,430.258a2.077,2.077,0,0,1,0,2.706,1.89,1.89,0,0,1-2.574,0,2.081,2.081,0,0,1,0-2.706,1.89,1.89,0,0,1,2.574,0Zm-1.979.506a1.848,1.848,0,0,0,0,1.688.738.738,0,0,0,.687.336q.891,0,.891-1.178a1.627,1.627,0,0,0-.2-.84.881.881,0,0,0-1.38-.006Zm5.153-1.365.7.462-5.094,7.7-.7-.462Zm1.353,4.742a2.1,2.1,0,0,1,0,2.706,1.718,1.718,0,0,1-1.287.506,1.736,1.736,0,0,1-1.292-.506,2.077,2.077,0,0,1,0-2.706,1.74,1.74,0,0,1,1.292-.506A1.722,1.722,0,0,1,109.115,434.141Zm-1.975.511a1.56,1.56,0,0,0-.2.842,1.6,1.6,0,0,0,.2.841.74.74,0,0,0,.688.336q.891,0,.891-1.177a1.608,1.608,0,0,0-.2-.837.893.893,0,0,0-1.381,0Z"/><path class="cls-15" d="M504.953,434.207v-.858h3.113v.858Z"/><path class="cls-15" d="M513.636,430.726a6.722,6.722,0,0,1,0,5.648,2.222,2.222,0,0,1-3.684,0,6.722,6.722,0,0,1,0-5.648,2.229,2.229,0,0,1,3.684,0Zm-2.9.533a7.733,7.733,0,0,0,0,4.581,1.144,1.144,0,0,0,2.117,0,7.609,7.609,0,0,0,0-4.575,1.146,1.146,0,0,0-2.117-.006Z"/><path class="cls-15" d="M516.69,436.044a.734.734,0,0,1,.22.539,1.937,1.937,0,0,1-.2.78l-.737,1.684h-.726l.441-1.826a.779.779,0,0,1-.226-.276.793.793,0,0,1-.083-.362.753.753,0,0,1,.759-.76A.749.749,0,0,1,516.69,436.044Z"/><path class="cls-15" d="M521.023,429.861v7.36h-1.012v-6.282l-1.716,1.045-.44-.714,2.277-1.409Z"/><path class="cls-15" d="M526.853,430.653h-2.871v2.167a2.564,2.564,0,0,1,1.177-.285,1.967,1.967,0,0,1,1.518.621,2.431,2.431,0,0,1,.571,1.711,2.594,2.594,0,0,1-.318,1.292,2.232,2.232,0,0,1-.9.88,2.762,2.762,0,0,1-1.337.314,2.92,2.92,0,0,1-1.2-.237,3.193,3.193,0,0,1-.978-.7l.594-.583a2.511,2.511,0,0,0,.726.522,2.015,2.015,0,0,0,.847.17,1.42,1.42,0,0,0,1.105-.439,1.777,1.777,0,0,0,.4-1.243,1.6,1.6,0,0,0-.363-1.166,1.325,1.325,0,0,0-.979-.364,2.186,2.186,0,0,0-.528.061,2.785,2.785,0,0,0-.517.192h-.792v-3.707H527Z"/><path class="cls-15" d="M534.229,430.258a2.077,2.077,0,0,1,0,2.706,1.89,1.89,0,0,1-2.574,0,2.081,2.081,0,0,1,0-2.706,1.89,1.89,0,0,1,2.574,0Zm-1.98.506a1.848,1.848,0,0,0,0,1.688.74.74,0,0,0,.688.336q.891,0,.891-1.178a1.627,1.627,0,0,0-.2-.84.735.735,0,0,0-.692-.336A.744.744,0,0,0,532.249,430.764ZM537.4,429.4l.7.462-5.094,7.7-.7-.462Zm1.352,4.742a2.1,2.1,0,0,1,0,2.706,1.718,1.718,0,0,1-1.287.506,1.737,1.737,0,0,1-1.292-.506,2.077,2.077,0,0,1,0-2.706,1.741,1.741,0,0,1,1.292-.506A1.722,1.722,0,0,1,538.755,434.141Zm-1.974.511a1.56,1.56,0,0,0-.2.842,1.6,1.6,0,0,0,.2.841.738.738,0,0,0,.687.336q.893,0,.892-1.177a1.618,1.618,0,0,0-.2-.837.893.893,0,0,0-1.381,0Z"/><path class="cls-15" d="M303.176,430.726a6.722,6.722,0,0,1,0,5.648,2.222,2.222,0,0,1-3.684,0,6.732,6.732,0,0,1,0-5.648,2.229,2.229,0,0,1,3.684,0Zm-2.9.533a7.733,7.733,0,0,0,0,4.581,1.144,1.144,0,0,0,2.117,0,7.609,7.609,0,0,0,0-4.575,1.146,1.146,0,0,0-2.117-.006Z"/><path class="cls-15" d="M306.23,436.044a.734.734,0,0,1,.22.539,1.937,1.937,0,0,1-.2.78l-.737,1.684h-.726l.441-1.826a.779.779,0,0,1-.226-.276.793.793,0,0,1-.083-.362.753.753,0,0,1,.759-.76A.749.749,0,0,1,306.23,436.044Z"/><path class="cls-15" d="M311.921,430.726a6.722,6.722,0,0,1,0,5.648,2.222,2.222,0,0,1-3.684,0,6.732,6.732,0,0,1,0-5.648,2.229,2.229,0,0,1,3.684,0Zm-2.9.533a7.733,7.733,0,0,0,0,4.581,1.144,1.144,0,0,0,2.117,0,7.609,7.609,0,0,0,0-4.575,1.146,1.146,0,0,0-2.117-.006Z"/><path class="cls-15" d="M319.632,430.258a2.077,2.077,0,0,1,0,2.706,1.89,1.89,0,0,1-2.574,0,2.081,2.081,0,0,1,0-2.706,1.89,1.89,0,0,1,2.574,0Zm-1.979.506a1.848,1.848,0,0,0,0,1.688.737.737,0,0,0,.687.336q.891,0,.891-1.178a1.637,1.637,0,0,0-.2-.84.881.881,0,0,0-1.38-.006Zm5.153-1.365.7.462-5.094,7.7-.7-.462Zm1.353,4.742a2.1,2.1,0,0,1,0,2.706,1.9,1.9,0,0,1-2.579,0,2.077,2.077,0,0,1,0-2.706,1.9,1.9,0,0,1,2.579,0Zm-1.975.511a1.56,1.56,0,0,0-.2.842,1.6,1.6,0,0,0,.2.841.739.739,0,0,0,.687.336q.893,0,.892-1.177a1.608,1.608,0,0,0-.2-.837.893.893,0,0,0-1.381,0Z"/><path class="cls-15" d="M448.514,430.726a6.722,6.722,0,0,1,0,5.648,2.222,2.222,0,0,1-3.684,0,6.722,6.722,0,0,1,0-5.648,2.229,2.229,0,0,1,3.684,0Zm-2.9.533a7.733,7.733,0,0,0,0,4.581,1.144,1.144,0,0,0,2.117,0,7.609,7.609,0,0,0,0-4.575,1.146,1.146,0,0,0-2.117-.006Z"/><path class="cls-15" d="M451.568,436.044a.734.734,0,0,1,.22.539,1.937,1.937,0,0,1-.2.78l-.737,1.684h-.726l.441-1.826a.779.779,0,0,1-.226-.276.793.793,0,0,1-.083-.362.753.753,0,0,1,.759-.76A.749.749,0,0,1,451.568,436.044Z"/><path class="cls-15" d="M455.9,429.861v7.36h-1.012v-6.282l-1.716,1.045-.44-.714,2.277-1.409Z"/><path class="cls-15" d="M463.6,430.258a2.077,2.077,0,0,1,0,2.706,1.89,1.89,0,0,1-2.574,0,2.081,2.081,0,0,1,0-2.706,1.89,1.89,0,0,1,2.574,0Zm-1.979.506a1.848,1.848,0,0,0,0,1.688.737.737,0,0,0,.687.336q.891,0,.891-1.178a1.637,1.637,0,0,0-.2-.84.881.881,0,0,0-1.38-.006Zm5.153-1.365.7.462-5.094,7.7-.7-.462Zm1.352,4.742a2.093,2.093,0,0,1,0,2.706,1.717,1.717,0,0,1-1.287.506,1.737,1.737,0,0,1-1.292-.506,2.077,2.077,0,0,1,0-2.706,1.741,1.741,0,0,1,1.292-.506A1.72,1.72,0,0,1,468.121,434.141Zm-1.974.511a1.56,1.56,0,0,0-.2.842,1.6,1.6,0,0,0,.2.841.739.739,0,0,0,.687.336q.892,0,.892-1.177a1.608,1.608,0,0,0-.2-.837.893.893,0,0,0-1.381,0Z"/><path class="cls-2" d="M268.962,387.5a4.2,4.2,0,1,1-4.2-4.2,4.2,4.2,0,0,1,4.2,4.2Z"/><path class="cls-2" d="M296.2,346.555a4.2,4.2,0,1,1-4.2-4.2,4.2,4.2,0,0,1,4.2,4.2Z"/><path class="cls-2" d="M244.275,303.879a4.2,4.2,0,1,1-4.2-4.2,4.2,4.2,0,0,1,4.2,4.2Z"/><path class="cls-3" d="M329.114,262.241a4.2,4.2,0,1,1-4.2-4.2,4.2,4.2,0,0,1,4.2,4.2Z"/><path class="cls-3" d="M494.967,133.2a4.2,4.2,0,1,1-4.2-4.2,4.2,4.2,0,0,1,4.2,4.2Z"/><path class="cls-3" d="M380.359,175.071a4.2,4.2,0,1,1-4.2-4.2,4.2,4.2,0,0,1,4.2,4.2Z"/><path class="cls-2" d="M248.621,375.3v-1.326h3.925V375.3Z"/><path class="cls-2" d="M259.261,370.966a5.947,5.947,0,0,1,.8,3.367,6.008,6.008,0,0,1-.8,3.387,2.9,2.9,0,0,1-4.667,0,6.008,6.008,0,0,1-.8-3.387,5.946,5.946,0,0,1,.8-3.367,2.912,2.912,0,0,1,4.667,0Zm-3.413.839a6.687,6.687,0,0,0-.338,2.528,6.79,6.79,0,0,0,.338,2.548,1.151,1.151,0,0,0,2.158.007,6.787,6.787,0,0,0,.338-2.555,6.683,6.683,0,0,0-.338-2.535,1.155,1.155,0,0,0-2.158.007Z"/><path class="cls-2" d="M262.927,377.089a1.015,1.015,0,0,1,.306.754,1.8,1.8,0,0,1-.078.508,5.781,5.781,0,0,1-.26.662l-.846,1.925h-1.013l.533-2.237a.985.985,0,0,1-.443-.871,1.021,1.021,0,0,1,1.04-1.04A1.046,1.046,0,0,1,262.927,377.089Z"/><path class="cls-2" d="M268.3,370.121a2.311,2.311,0,0,1,1.32,2.132,3.336,3.336,0,0,1-.319,1.424,6.528,6.528,0,0,1-1.059,1.514q-.741.833-2.171,2.2h3.744l-.183,1.313h-5.446v-1.222q1.662-1.689,2.385-2.5a7.525,7.525,0,0,0,1.027-1.391,2.554,2.554,0,0,0,.306-1.2,1.178,1.178,0,0,0-1.261-1.274,1.8,1.8,0,0,0-.891.214,3.067,3.067,0,0,0-.8.709l-1.014-.805a3.424,3.424,0,0,1,2.834-1.431A3.343,3.343,0,0,1,268.3,370.121Z"/><path class="cls-2" d="M276.167,370.713a3.651,3.651,0,0,1,.793,2.476,6.883,6.883,0,0,1-.533,2.918,4.147,4.147,0,0,1-1.639,1.814,10.047,10.047,0,0,1-2.924,1.105l-.351-1.183a7.022,7.022,0,0,0,2.607-1.176,2.94,2.94,0,0,0,1.059-1.97,2.265,2.265,0,0,1-1.872.91,2.344,2.344,0,0,1-1.241-.344,2.378,2.378,0,0,1-.891-.994,3.332,3.332,0,0,1-.325-1.509,2.982,2.982,0,0,1,.4-1.567,2.751,2.751,0,0,1,1.1-1.033,3.283,3.283,0,0,1,1.541-.364A2.846,2.846,0,0,1,276.167,370.713Zm-.91,2.788a4.079,4.079,0,0,0-.305-1.9,1.121,1.121,0,0,0-1.06-.566,1.24,1.24,0,0,0-1.014.443,1.929,1.929,0,0,0-.364,1.26,1.9,1.9,0,0,0,.345,1.261,1.128,1.128,0,0,0,.9.4A1.777,1.777,0,0,0,275.257,373.5Z"/><path class="cls-2" d="M287.132,372.676a4.613,4.613,0,0,1,.618,2.594,4.507,4.507,0,0,1-.67,2.606,2.189,2.189,0,0,1-1.917.968,2.381,2.381,0,0,1-1.105-.253,2.508,2.508,0,0,1-.832-.683v3.354l-.754.1V371.9h.65l.065.989a2.741,2.741,0,0,1,.917-.832,2.379,2.379,0,0,1,1.176-.3A2.082,2.082,0,0,1,287.132,372.676Zm-.681,4.79a3.983,3.983,0,0,0,.493-2.2q0-2.887-1.807-2.887a1.805,1.805,0,0,0-1.059.312,3.728,3.728,0,0,0-.852.858v3.614a2.057,2.057,0,0,0,1.794,1.04A1.616,1.616,0,0,0,286.451,377.466Z"/><path class="cls-2" d="M290.434,377.785a.59.59,0,0,1,.176.435.625.625,0,0,1-1.066.442.6.6,0,0,1-.182-.442.576.576,0,0,1,.182-.435.614.614,0,0,1,.442-.176A.605.605,0,0,1,290.434,377.785Z"/><path class="cls-2" d="M299.67,372.669a5.427,5.427,0,0,1-.032,5.213,2.2,2.2,0,0,1-1.9.962,2.288,2.288,0,0,1-1.113-.273,2.548,2.548,0,0,1-.837-.728l-.079.858h-.663v-9.568l.754-.091v3.81a2.442,2.442,0,0,1,2.041-1.093A2.12,2.12,0,0,1,299.67,372.669Zm-.656,4.8a3.981,3.981,0,0,0,.5-2.2q0-2.887-1.833-2.887a1.812,1.812,0,0,0-1.053.305,3.42,3.42,0,0,0-.832.865v3.575a2.609,2.609,0,0,0,.781.8,1.83,1.83,0,0,0,1.013.292A1.615,1.615,0,0,0,299.014,377.473Z"/><path class="cls-2" d="M303.005,377.785a.59.59,0,0,1,.176.435.609.609,0,0,1-.176.449.631.631,0,0,1-1.072-.449.577.577,0,0,1,.183-.435.611.611,0,0,1,.441-.176A.6.6,0,0,1,303.005,377.785Z"/><path class="cls-2" d="M276.361,334.347v-1.326h3.926v1.326Z"/><path class="cls-2" d="M287,330.018a5.939,5.939,0,0,1,.8,3.367,6,6,0,0,1-.8,3.386,2.9,2.9,0,0,1-4.667,0,6.007,6.007,0,0,1-.8-3.386,5.947,5.947,0,0,1,.8-3.367,2.912,2.912,0,0,1,4.667,0Zm-3.413.838a6.71,6.71,0,0,0-.338,2.529,6.811,6.811,0,0,0,.338,2.548,1.151,1.151,0,0,0,2.158.006,6.781,6.781,0,0,0,.338-2.554,6.68,6.68,0,0,0-.338-2.535,1.154,1.154,0,0,0-2.158.006Z"/><path class="cls-2" d="M290.667,336.141a1.012,1.012,0,0,1,.306.754,1.756,1.756,0,0,1-.078.507,5.64,5.64,0,0,1-.26.662l-.846,1.925h-1.013l.533-2.236a.984.984,0,0,1-.442-.871,1.02,1.02,0,0,1,1.04-1.04A1.041,1.041,0,0,1,290.667,336.141Z"/><path class="cls-2" d="M296.1,329v8.749h-1.639v-7.072l-1.949,1.183-.728-1.118L294.626,329Z"/><path class="cls-2" d="M303.4,330.018a5.947,5.947,0,0,1,.8,3.367,6.007,6.007,0,0,1-.8,3.386,2.9,2.9,0,0,1-4.667,0,6.006,6.006,0,0,1-.8-3.386,5.946,5.946,0,0,1,.8-3.367,2.912,2.912,0,0,1,4.667,0Zm-3.413.838a6.689,6.689,0,0,0-.338,2.529,6.79,6.79,0,0,0,.338,2.548,1.151,1.151,0,0,0,2.158.006,6.781,6.781,0,0,0,.338-2.554,6.68,6.68,0,0,0-.338-2.535,1.154,1.154,0,0,0-2.158.006Z"/><path class="cls-2" d="M314.456,331.728a4.6,4.6,0,0,1,.619,2.593,4.516,4.516,0,0,1-.67,2.607,2.192,2.192,0,0,1-1.917.968,2.386,2.386,0,0,1-1.106-.253,2.508,2.508,0,0,1-.832-.683v3.353l-.754.105v-9.464h.651l.064.988a2.762,2.762,0,0,1,.917-.832,2.391,2.391,0,0,1,1.176-.3A2.082,2.082,0,0,1,314.456,331.728Zm-.681,4.79a3.986,3.986,0,0,0,.493-2.2q0-2.888-1.807-2.886a1.808,1.808,0,0,0-1.059.312,3.742,3.742,0,0,0-.852.857v3.615a2.057,2.057,0,0,0,1.794,1.04A1.616,1.616,0,0,0,313.775,336.518Z"/><path class="cls-2" d="M317.758,336.837a.589.589,0,0,1,.176.434.61.61,0,0,1-.176.45.631.631,0,0,1-1.072-.45.573.573,0,0,1,.183-.434.611.611,0,0,1,.441-.176A.6.6,0,0,1,317.758,336.837Z"/><path class="cls-2" d="M327,331.721a5.43,5.43,0,0,1-.033,5.213,2.2,2.2,0,0,1-1.9.962,2.284,2.284,0,0,1-1.112-.273,2.563,2.563,0,0,1-.838-.728l-.078.858h-.663v-9.568l.753-.091V331.9a2.445,2.445,0,0,1,2.042-1.092A2.121,2.121,0,0,1,327,331.721Zm-.657,4.8a3.979,3.979,0,0,0,.5-2.2q0-2.888-1.833-2.886a1.806,1.806,0,0,0-1.052.305,3.4,3.4,0,0,0-.833.864v3.576a2.594,2.594,0,0,0,.781.8,1.825,1.825,0,0,0,1.013.292A1.614,1.614,0,0,0,326.339,336.524Z"/><path class="cls-2" d="M330.33,336.837a.588.588,0,0,1,.175.434.6.6,0,0,1-.624.625.623.623,0,0,1-.624-.625.576.576,0,0,1,.183-.434.651.651,0,0,1,.89,0Z"/><path class="cls-2" d="M223.123,291.671v-1.326h3.926v1.326Z"/><path class="cls-2" d="M233.764,287.342a5.947,5.947,0,0,1,.8,3.367,6.008,6.008,0,0,1-.8,3.387,2.9,2.9,0,0,1-4.667,0,6.008,6.008,0,0,1-.8-3.387,5.946,5.946,0,0,1,.8-3.367,2.912,2.912,0,0,1,4.667,0Zm-3.413.839a6.683,6.683,0,0,0-.338,2.528,6.79,6.79,0,0,0,.338,2.548,1.151,1.151,0,0,0,2.158.007,6.787,6.787,0,0,0,.338-2.555,6.683,6.683,0,0,0-.338-2.535,1.155,1.155,0,0,0-2.158.007Z"/><path class="cls-2" d="M237.43,293.465a1.015,1.015,0,0,1,.306.754,1.8,1.8,0,0,1-.078.508,5.781,5.781,0,0,1-.26.662l-.846,1.924h-1.014l.534-2.236a.985.985,0,0,1-.443-.871,1.021,1.021,0,0,1,1.04-1.04A1.046,1.046,0,0,1,237.43,293.465Z"/><path class="cls-2" d="M245.068,291.8v1.274h-1.053v2H242.39v-2h-3.719v-1.144l2.548-5.772,1.417.533L240.4,291.8h2l.169-2.2h1.443v2.2Z"/><path class="cls-2" d="M250.911,289.585a2.3,2.3,0,0,1,.89.975,3.374,3.374,0,0,1,.325,1.541,3.467,3.467,0,0,1-.377,1.63,2.8,2.8,0,0,1-1.059,1.131,2.955,2.955,0,0,1-1.554.41,2.69,2.69,0,0,1-2.386-1.13,5.448,5.448,0,0,1-.773-3.108,6.892,6.892,0,0,1,.436-2.555,3.81,3.81,0,0,1,1.248-1.7,3.106,3.106,0,0,1,1.9-.6,3.343,3.343,0,0,1,1.911.559l-.624,1.027a2.452,2.452,0,0,0-1.261-.351,1.537,1.537,0,0,0-1.333.747,4.058,4.058,0,0,0-.565,2.061,2.5,2.5,0,0,1,3.218-.63Zm-.793,3.938a2.557,2.557,0,0,0,.331-1.4,2.085,2.085,0,0,0-.305-1.28,1.072,1.072,0,0,0-.891-.384,1.588,1.588,0,0,0-.839.241,2.528,2.528,0,0,0-.708.656,4.833,4.833,0,0,0,.358,2.047,1.123,1.123,0,0,0,1.072.631A1.092,1.092,0,0,0,250.118,293.523Z"/><path class="cls-2" d="M262.207,289.052a4.6,4.6,0,0,1,.619,2.594,4.515,4.515,0,0,1-.67,2.606,2.192,2.192,0,0,1-1.917.968,2.383,2.383,0,0,1-1.106-.253,2.508,2.508,0,0,1-.832-.683v3.354l-.754.1v-9.464h.651l.064.989a2.741,2.741,0,0,1,.917-.832,2.379,2.379,0,0,1,1.176-.3A2.082,2.082,0,0,1,262.207,289.052Zm-.681,4.79a3.983,3.983,0,0,0,.493-2.2q0-2.887-1.807-2.887a1.808,1.808,0,0,0-1.059.312,3.728,3.728,0,0,0-.852.858v3.614a2.057,2.057,0,0,0,1.794,1.04A1.616,1.616,0,0,0,261.526,293.842Z"/><path class="cls-2" d="M265.509,294.161a.59.59,0,0,1,.176.435.609.609,0,0,1-.176.449.643.643,0,0,1-.889-.007.6.6,0,0,1-.183-.442.573.573,0,0,1,.183-.435.611.611,0,0,1,.441-.176A.6.6,0,0,1,265.509,294.161Z"/><path class="cls-2" d="M274.746,289.045a5.43,5.43,0,0,1-.033,5.213,2.2,2.2,0,0,1-1.9.962,2.284,2.284,0,0,1-1.112-.273,2.552,2.552,0,0,1-.838-.728l-.078.858h-.663v-9.568l.753-.091v3.81a2.443,2.443,0,0,1,2.042-1.093A2.121,2.121,0,0,1,274.746,289.045Zm-.657,4.8a3.981,3.981,0,0,0,.5-2.2q0-2.887-1.833-2.887a1.806,1.806,0,0,0-1.052.305,3.422,3.422,0,0,0-.833.865V293.5a2.609,2.609,0,0,0,.781.8,1.833,1.833,0,0,0,1.013.292A1.614,1.614,0,0,0,274.089,293.849Z"/><path class="cls-2" d="M278.08,294.161a.589.589,0,0,1,.175.435.6.6,0,0,1-.624.624.623.623,0,0,1-.624-.624.577.577,0,0,1,.183-.435.651.651,0,0,1,.89,0Z"/><path class="cls-3" d="M310.438,247.037v1.989h1.936v1.313h-1.936v1.989h-1.431v-1.989h-1.924v-1.313h1.924v-1.989Z"/><path class="cls-3" d="M319.128,246.257a5.939,5.939,0,0,1,.8,3.367,6,6,0,0,1-.8,3.387,2.9,2.9,0,0,1-4.667,0,6.008,6.008,0,0,1-.8-3.387,5.947,5.947,0,0,1,.8-3.367,2.912,2.912,0,0,1,4.667,0Zm-3.413.839a6.707,6.707,0,0,0-.338,2.528,6.811,6.811,0,0,0,.338,2.548,1.151,1.151,0,0,0,2.158.007,6.787,6.787,0,0,0,.338-2.555,6.683,6.683,0,0,0-.338-2.535,1.155,1.155,0,0,0-2.158.007Z"/><path class="cls-3" d="M322.794,252.38a1.015,1.015,0,0,1,.306.754,1.768,1.768,0,0,1-.078.508,5.781,5.781,0,0,1-.26.662l-.846,1.925H320.9l.533-2.237a.984.984,0,0,1-.442-.871,1.02,1.02,0,0,1,1.04-1.04A1.045,1.045,0,0,1,322.794,252.38Z"/><path class="cls-3" d="M328.221,245.243v8.749h-1.639V246.92l-1.949,1.184-.728-1.119,2.847-1.742Z"/><path class="cls-3" d="M333.987,245.386a2.2,2.2,0,0,1,.949.806,2.064,2.064,0,0,1,.318,1.119,1.949,1.949,0,0,1-.455,1.319,2.4,2.4,0,0,1-1.248.734,2.265,2.265,0,0,1,1.43.624,2.01,2.01,0,0,1,.559,1.508,2.51,2.51,0,0,1-.383,1.365,2.664,2.664,0,0,1-1.1.969,3.742,3.742,0,0,1-1.689.358,3.475,3.475,0,0,1-2.834-1.262l.922-.884a3.133,3.133,0,0,0,.872.644,2.2,2.2,0,0,0,.948.2,1.574,1.574,0,0,0,1.125-.4,1.4,1.4,0,0,0,.423-1.072,1.323,1.323,0,0,0-.4-1.079,1.829,1.829,0,0,0-1.177-.324h-.689l.195-1.184h.468a1.454,1.454,0,0,0,1.021-.351,1.257,1.257,0,0,0,.383-.975,1.052,1.052,0,0,0-.351-.838,1.374,1.374,0,0,0-.936-.306,2.208,2.208,0,0,0-.923.189,3.135,3.135,0,0,0-.832.578l-.844-.923a3.87,3.87,0,0,1,2.742-1.118A3.484,3.484,0,0,1,333.987,245.386Z"/><path class="cls-3" d="M345.764,247.967a4.613,4.613,0,0,1,.618,2.594,4.507,4.507,0,0,1-.67,2.606,2.19,2.19,0,0,1-1.917.968,2.381,2.381,0,0,1-1.105-.253,2.5,2.5,0,0,1-.832-.683v3.354l-.754.1v-9.464h.65l.065.989a2.731,2.731,0,0,1,.917-.832,2.379,2.379,0,0,1,1.176-.3A2.082,2.082,0,0,1,345.764,247.967Zm-.682,4.79a3.973,3.973,0,0,0,.494-2.2q0-2.888-1.807-2.887a1.811,1.811,0,0,0-1.06.312,3.725,3.725,0,0,0-.851.858v3.614a2.057,2.057,0,0,0,1.794,1.04A1.614,1.614,0,0,0,345.082,252.757Z"/><path class="cls-3" d="M349.066,253.076a.59.59,0,0,1,.176.435.625.625,0,0,1-1.066.442.6.6,0,0,1-.182-.442.576.576,0,0,1,.182-.435.614.614,0,0,1,.442-.176A.605.605,0,0,1,349.066,253.076Z"/><path class="cls-3" d="M358.3,247.96a5.427,5.427,0,0,1-.032,5.213,2.2,2.2,0,0,1-1.9.962,2.285,2.285,0,0,1-1.113-.273,2.55,2.55,0,0,1-.838-.728l-.078.858h-.663v-9.568l.754-.091v3.81a2.442,2.442,0,0,1,2.041-1.093A2.122,2.122,0,0,1,358.3,247.96Zm-.656,4.8a3.981,3.981,0,0,0,.5-2.2q0-2.888-1.833-2.887a1.812,1.812,0,0,0-1.053.305,3.42,3.42,0,0,0-.832.865v3.575a2.618,2.618,0,0,0,.78.8,1.836,1.836,0,0,0,1.014.292A1.615,1.615,0,0,0,357.646,252.764Z"/><path class="cls-3" d="M361.637,253.076a.59.59,0,0,1,.176.435.625.625,0,0,1-1.066.442.6.6,0,0,1-.182-.442.576.576,0,0,1,.182-.435.615.615,0,0,1,.442-.176A.605.605,0,0,1,361.637,253.076Z"/><path class="cls-3" d="M361.935,159.315V161.3h1.936v1.313h-1.936v1.989H360.5v-1.989H358.58V161.3H360.5v-1.989Z"/><path class="cls-3" d="M370.625,158.535a5.939,5.939,0,0,1,.8,3.367,6,6,0,0,1-.8,3.387,2.9,2.9,0,0,1-4.667,0,6.012,6.012,0,0,1-.8-3.387,5.947,5.947,0,0,1,.8-3.367,2.912,2.912,0,0,1,4.667,0Zm-3.413.839a6.7,6.7,0,0,0-.338,2.528,6.811,6.811,0,0,0,.338,2.548,1.152,1.152,0,0,0,2.159.007,6.816,6.816,0,0,0,.337-2.555,6.708,6.708,0,0,0-.337-2.535,1.155,1.155,0,0,0-2.159.007Z"/><path class="cls-3" d="M374.291,164.658a1.012,1.012,0,0,1,.306.754,1.756,1.756,0,0,1-.078.507,5.713,5.713,0,0,1-.26.663l-.846,1.924H372.4l.533-2.236a.984.984,0,0,1-.442-.871,1.02,1.02,0,0,1,1.04-1.04A1.041,1.041,0,0,1,374.291,164.658Z"/><path class="cls-3" d="M381.928,162.994v1.274h-1.053v2H379.25v-2h-3.718v-1.144l2.548-5.772,1.416.533-2.235,5.109h2l.169-2.2h1.443v2.2Z"/><path class="cls-3" d="M388.026,158.282a3.656,3.656,0,0,1,.793,2.476,6.9,6.9,0,0,1-.533,2.918,4.159,4.159,0,0,1-1.639,1.814,10.055,10.055,0,0,1-2.925,1.1l-.351-1.183a7.022,7.022,0,0,0,2.607-1.176,2.943,2.943,0,0,0,1.06-1.97,2.268,2.268,0,0,1-1.873.91,2.33,2.33,0,0,1-2.131-1.339,3.325,3.325,0,0,1-.326-1.508,2.97,2.97,0,0,1,.4-1.567,2.742,2.742,0,0,1,1.1-1.033,3.283,3.283,0,0,1,1.541-.364A2.845,2.845,0,0,1,388.026,158.282Zm-.91,2.788a4.074,4.074,0,0,0-.306-1.9,1.12,1.12,0,0,0-1.06-.566,1.241,1.241,0,0,0-1.013.442,2.417,2.417,0,0,0-.02,2.522,1.13,1.13,0,0,0,.9.4A1.782,1.782,0,0,0,387.116,161.07Z"/><path class="cls-3" d="M398.99,160.245a4.612,4.612,0,0,1,.618,2.593,4.516,4.516,0,0,1-.67,2.607,2.19,2.19,0,0,1-1.917.968,2.388,2.388,0,0,1-1.106-.253,2.508,2.508,0,0,1-.832-.683v3.354l-.753.1v-9.464h.65l.064.988a2.762,2.762,0,0,1,.917-.832,2.391,2.391,0,0,1,1.176-.3A2.083,2.083,0,0,1,398.99,160.245Zm-.682,4.79a3.984,3.984,0,0,0,.493-2.2q0-2.886-1.806-2.886a1.809,1.809,0,0,0-1.06.312,3.728,3.728,0,0,0-.852.858v3.614a2.058,2.058,0,0,0,1.794,1.04A1.616,1.616,0,0,0,398.308,165.035Z"/><path class="cls-3" d="M402.292,165.354a.586.586,0,0,1,.176.435.624.624,0,1,1-1.248,0,.577.577,0,0,1,.183-.435.611.611,0,0,1,.441-.176A.6.6,0,0,1,402.292,165.354Z"/><path class="cls-3" d="M411.529,160.238a5.43,5.43,0,0,1-.033,5.213,2.2,2.2,0,0,1-1.9.962,2.284,2.284,0,0,1-1.112-.273,2.573,2.573,0,0,1-.838-.728l-.078.858H406.9V156.7l.754-.091v3.809a2.442,2.442,0,0,1,2.041-1.092A2.121,2.121,0,0,1,411.529,160.238Zm-.657,4.8a3.985,3.985,0,0,0,.5-2.2q0-2.886-1.833-2.886a1.809,1.809,0,0,0-1.052.305,3.386,3.386,0,0,0-.832.865V164.7a2.6,2.6,0,0,0,.78.8,1.836,1.836,0,0,0,1.014.292A1.613,1.613,0,0,0,410.872,165.042Z"/><path class="cls-3" d="M414.863,165.354a.589.589,0,0,1,.175.435.624.624,0,0,1-1.065.442.6.6,0,0,1-.183-.442.577.577,0,0,1,.183-.435.651.651,0,0,1,.89,0Z"/><path class="cls-3" d="M478.747,117.446v1.989h1.937v1.313h-1.937v1.989h-1.43v-1.989h-1.924v-1.313h1.924v-1.989Z"/><path class="cls-3" d="M486,115.652V124.4h-1.638v-7.072l-1.95,1.183-.728-1.118,2.848-1.742Z"/><path class="cls-3" d="M489.557,122.789a1.015,1.015,0,0,1,.306.753,1.8,1.8,0,0,1-.078.508,5.64,5.64,0,0,1-.26.662l-.846,1.925h-1.014l.534-2.236a.985.985,0,0,1-.443-.871,1.021,1.021,0,0,1,1.04-1.04A1.042,1.042,0,0,1,489.557,122.789Z"/><path class="cls-3" d="M494.925,115.821a2.311,2.311,0,0,1,1.32,2.132,3.331,3.331,0,0,1-.319,1.423,6.531,6.531,0,0,1-1.059,1.515q-.743.832-2.171,2.2h3.744l-.183,1.314h-5.446v-1.222q1.662-1.69,2.385-2.5a7.557,7.557,0,0,0,1.027-1.39,2.554,2.554,0,0,0,.306-1.2,1.178,1.178,0,0,0-1.261-1.274,1.791,1.791,0,0,0-.891.214,3.052,3.052,0,0,0-.8.709l-1.014-.806a3.425,3.425,0,0,1,2.834-1.43A3.345,3.345,0,0,1,494.925,115.821Z"/><path class="cls-3" d="M503.928,122.048a2.212,2.212,0,0,1-.4,1.293,2.749,2.749,0,0,1-1.138.917,4.053,4.053,0,0,1-1.709.338,3.944,3.944,0,0,1-1.678-.332,2.64,2.64,0,0,1-1.1-.9,2.233,2.233,0,0,1-.39-1.287,2.329,2.329,0,0,1,1.663-2.21,2.246,2.246,0,0,1-1.312-2.067,2,2,0,0,1,.384-1.215,2.412,2.412,0,0,1,1.04-.807,3.63,3.63,0,0,1,1.436-.279,3.861,3.861,0,0,1,1.443.26,2.365,2.365,0,0,1,1.034.767,1.95,1.95,0,0,1,.383,1.209,2.223,2.223,0,0,1-1.443,1.976A2.548,2.548,0,0,1,503.928,122.048Zm-2.094.949a1.219,1.219,0,0,0,.4-.949,1.261,1.261,0,0,0-.351-.943,3.579,3.579,0,0,0-1.248-.669l-.4-.144a1.838,1.838,0,0,0-1.053,1.73,1.226,1.226,0,0,0,.416.981,1.651,1.651,0,0,0,1.118.358A1.6,1.6,0,0,0,501.834,123Zm-2.034-6.032a1.262,1.262,0,0,0-.019,1.683,2.77,2.77,0,0,0,1,.553l.247.091a2.166,2.166,0,0,0,.721-.657,1.529,1.529,0,0,0,.215-.825,1.1,1.1,0,0,0-.325-.839,1.3,1.3,0,0,0-.923-.305A1.317,1.317,0,0,0,499.8,116.965Z"/><path class="cls-3" d="M514.061,118.375a4.618,4.618,0,0,1,.618,2.594,4.516,4.516,0,0,1-.67,2.607,2.19,2.19,0,0,1-1.917.967,2.393,2.393,0,0,1-1.1-.252,2.5,2.5,0,0,1-.832-.683v3.353l-.754.105V117.6h.65l.065.988a2.753,2.753,0,0,1,.917-.832,2.388,2.388,0,0,1,1.175-.3A2.085,2.085,0,0,1,514.061,118.375Zm-.682,4.791a3.986,3.986,0,0,0,.493-2.2q0-2.887-1.806-2.886a1.811,1.811,0,0,0-1.06.312,3.719,3.719,0,0,0-.851.857v3.615a2.057,2.057,0,0,0,1.794,1.04A1.614,1.614,0,0,0,513.379,123.166Z"/><path class="cls-3" d="M517.363,123.485a.588.588,0,0,1,.175.434.6.6,0,0,1-.624.624.621.621,0,0,1-.624-.624.576.576,0,0,1,.183-.434.651.651,0,0,1,.89,0Z"/><path class="cls-3" d="M526.6,118.369a5.434,5.434,0,0,1-.032,5.213,2.2,2.2,0,0,1-1.9.961,2.284,2.284,0,0,1-1.113-.272,2.565,2.565,0,0,1-.838-.729l-.078.859h-.663v-9.568l.754-.091v3.809a2.444,2.444,0,0,1,2.041-1.093A2.122,2.122,0,0,1,526.6,118.369Zm-.656,4.8a3.979,3.979,0,0,0,.5-2.2q0-2.887-1.833-2.886a1.812,1.812,0,0,0-1.053.305,3.4,3.4,0,0,0-.832.864v3.576a2.6,2.6,0,0,0,.78.8,1.828,1.828,0,0,0,1.014.292A1.615,1.615,0,0,0,525.943,123.172Z"/><path class="cls-3" d="M529.933,123.485a.589.589,0,0,1,.176.434.611.611,0,0,1-.176.45.631.631,0,0,1-1.072-.45.575.575,0,0,1,.182-.434.614.614,0,0,1,.442-.176A.605.605,0,0,1,529.933,123.485Z"/><rect class="cls-16" x="304.779" y="242.452" width="2.413" height="27.489"/><rect class="cls-16" x="304.779" y="326.673" width="2.413" height="16.199"/><rect class="cls-16" x="304.779" y="198.071" width="2.413" height="27.489"/><line class="cls-4" x1="310.501" y1="220.195" x2="309.501" y2="220.195"/><line class="cls-17" x1="305.534" y1="220.195" x2="93.275" y2="220.195"/><line class="cls-4" x1="91.291" y1="220.195" x2="90.291" y2="220.195"/><line class="cls-12" x1="310.849" y1="220.362" x2="311.081" y2="220.362"/><line class="cls-12" x1="310.849" y1="220.362" x2="310.501" y2="220.362"/><path class="cls-3" d="M314.991,220.3a4.2,4.2,0,1,1-4.2-4.2,4.2,4.2,0,0,1,4.2,4.2Z"/><path class="cls-3" d="M297.324,204.548v1.989h1.936v1.313h-1.936v1.989h-1.431V207.85h-1.924v-1.313h1.924v-1.989Z"/><path class="cls-3" d="M306.014,203.768a5.947,5.947,0,0,1,.8,3.367,6.007,6.007,0,0,1-.8,3.386,2.9,2.9,0,0,1-4.667,0,6.006,6.006,0,0,1-.8-3.386,5.946,5.946,0,0,1,.8-3.367,2.912,2.912,0,0,1,4.667,0Zm-3.413.838a6.689,6.689,0,0,0-.338,2.529,6.79,6.79,0,0,0,.338,2.548,1.151,1.151,0,0,0,2.158.006,6.781,6.781,0,0,0,.338-2.554,6.68,6.68,0,0,0-.338-2.535,1.154,1.154,0,0,0-2.158.006Z"/><path class="cls-3" d="M309.68,209.891a1.015,1.015,0,0,1,.306.754,1.791,1.791,0,0,1-.078.507,5.64,5.64,0,0,1-.26.662l-.846,1.925h-1.014l.534-2.236a.985.985,0,0,1-.443-.871,1.021,1.021,0,0,1,1.04-1.04A1.042,1.042,0,0,1,309.68,209.891Z"/><path class="cls-3" d="M316.543,203.768a5.939,5.939,0,0,1,.8,3.367,6,6,0,0,1-.8,3.386,2.9,2.9,0,0,1-4.667,0,6.007,6.007,0,0,1-.8-3.386,5.947,5.947,0,0,1,.8-3.367,2.912,2.912,0,0,1,4.667,0Zm-3.413.838a6.71,6.71,0,0,0-.338,2.529,6.811,6.811,0,0,0,.338,2.548,1.151,1.151,0,0,0,2.158.006,6.781,6.781,0,0,0,.338-2.554,6.68,6.68,0,0,0-.338-2.535,1.154,1.154,0,0,0-2.158.006Z"/><path class="cls-3" d="M322.419,202.9a2.213,2.213,0,0,1,.95.807,2.072,2.072,0,0,1,.318,1.118,1.95,1.95,0,0,1-.455,1.32,2.416,2.416,0,0,1-1.248.734,2.263,2.263,0,0,1,1.429.624,2.005,2.005,0,0,1,.56,1.508,2.511,2.511,0,0,1-.384,1.365,2.675,2.675,0,0,1-1.1.969,3.743,3.743,0,0,1-1.69.357,3.48,3.48,0,0,1-2.834-1.261l.923-.884a3.139,3.139,0,0,0,.871.643,2.189,2.189,0,0,0,.948.2,1.574,1.574,0,0,0,1.125-.4,1.4,1.4,0,0,0,.423-1.072,1.324,1.324,0,0,0-.4-1.079,1.829,1.829,0,0,0-1.177-.325H320l.195-1.183h.468a1.453,1.453,0,0,0,1.02-.351,1.255,1.255,0,0,0,.384-.975,1.05,1.05,0,0,0-.352-.838,1.371,1.371,0,0,0-.935-.306,2.2,2.2,0,0,0-.923.189,3.119,3.119,0,0,0-.832.578l-.845-.923a3.87,3.87,0,0,1,2.742-1.118A3.484,3.484,0,0,1,322.419,202.9Z"/><path class="cls-3" d="M334.2,205.478a4.612,4.612,0,0,1,.618,2.593,4.516,4.516,0,0,1-.67,2.607,2.19,2.19,0,0,1-1.917.968,2.388,2.388,0,0,1-1.106-.253,2.508,2.508,0,0,1-.832-.683v3.353l-.753.105V204.7h.65l.064.988a2.762,2.762,0,0,1,.917-.832,2.391,2.391,0,0,1,1.176-.3A2.083,2.083,0,0,1,334.2,205.478Zm-.682,4.79a3.986,3.986,0,0,0,.493-2.2q0-2.888-1.806-2.886a1.809,1.809,0,0,0-1.06.312,3.742,3.742,0,0,0-.852.857v3.615a2.058,2.058,0,0,0,1.794,1.04A1.616,1.616,0,0,0,333.515,210.268Z"/><path class="cls-3" d="M337.5,210.587a.585.585,0,0,1,.176.434.624.624,0,1,1-1.248,0,.576.576,0,0,1,.183-.434.611.611,0,0,1,.441-.176A.6.6,0,0,1,337.5,210.587Z"/><path class="cls-3" d="M346.736,205.471a5.434,5.434,0,0,1-.032,5.213,2.206,2.206,0,0,1-1.905.962,2.284,2.284,0,0,1-1.112-.273,2.573,2.573,0,0,1-.838-.728l-.078.858h-.663v-9.568l.754-.091v3.809a2.443,2.443,0,0,1,2.041-1.092A2.121,2.121,0,0,1,346.736,205.471Zm-.656,4.8a3.979,3.979,0,0,0,.5-2.2q0-2.888-1.834-2.886a1.809,1.809,0,0,0-1.052.305,3.381,3.381,0,0,0-.832.864v3.576a2.592,2.592,0,0,0,.78.8,1.828,1.828,0,0,0,1.014.292A1.615,1.615,0,0,0,346.08,210.274Z"/><path class="cls-3" d="M350.07,210.587a.589.589,0,0,1,.176.434.6.6,0,0,1-.625.625.623.623,0,0,1-.624-.625.576.576,0,0,1,.183-.434.613.613,0,0,1,.441-.176A.606.606,0,0,1,350.07,210.587Z"/><use width="198.127" height="26.528" transform="translate(207.584 54.942)" xlink:href="#Legenda_šipek"/></svg>